<?xml version="1.0" encoding="utf-8"?>
<!-- Generator: Adobe Illustrator 19.2.0, SVG Export Plug-In . SVG Version: 6.00 Build 0)  -->
<svg version="1.1" id="Layer_1" xmlns="http://www.w3.org/2000/svg" xmlns:xlink="http://www.w3.org/1999/xlink" x="0px" y="0px"
	 viewBox="0 0 47.9 17" style="enable-background:new 0 0 47.9 17;" xml:space="preserve">
<style type="text/css">
	.st0{clip-path:url(#SVGID_2_);fill:#A7A9AC;}
	.st1{fill:#A7A9AC;}
</style>
<g>
	<defs>
		<rect id="SVGID_1_" width="47.9" height="17"/>
	</defs>
	<clipPath id="SVGID_2_">
		<use xlink:href="#SVGID_1_"  style="overflow:visible;"/>
	</clipPath>
	<path class="st0" d="M47.9,8.5c0-4.7-3.7-8.5-8.3-8.5c-3.6,0-6.6,2.3-7.8,5.5C30.5,2.3,27.5,0,23.9,0c-3.6,0-6.6,2.3-7.8,5.5
		C14.9,2.3,11.9,0,8.3,0C3.7,0,0,3.8,0,8.5C0,13.2,3.7,17,8.3,17c3.6,0,6.6-2.3,7.8-5.5c1.2,3.2,4.2,5.5,7.8,5.5
		c3.6,0,6.6-2.3,7.8-5.5c1.2,3.2,4.2,5.5,7.8,5.5C44.1,17,47.9,13.2,47.9,8.5 M15.6,8.5c0,4.1-3.2,7.4-7.2,7.4s-7.2-3.3-7.2-7.4
		c0-4.1,3.2-7.4,7.2-7.4S15.6,4.4,15.6,8.5 M31.2,8.5c0,4.1-3.2,7.4-7.2,7.4s-7.2-3.3-7.2-7.4c0-4.1,3.2-7.4,7.2-7.4
		S31.2,4.4,31.2,8.5 M46.8,8.5c0,4.1-3.2,7.4-7.2,7.4s-7.2-3.3-7.2-7.4c0-4.1,3.2-7.4,7.2-7.4S46.8,4.4,46.8,8.5"/>
	<path class="st0" d="M8.7,12.6c0.7,0,1.6,0,2.8-0.4V7.8h-3v1.5h1.1v1.6C9.4,11,9.2,11,8.9,11c-1.4,0-2.5-0.9-2.5-2.5
		c0-1.9,1.3-2.6,2.9-2.6c0.5,0,1.2,0.1,1.8,0.5l0.2-1.7c-0.7-0.3-1.7-0.4-2.2-0.4c-2.7,0-4.6,1.2-4.6,4.2
		C4.4,11.5,6.7,12.6,8.7,12.6"/>
	<path class="st0" d="M25.7,8.4L25.7,8.4C26.5,8.1,27,7.6,27,6.6c0-1.3-1.1-2-2.5-2H21v7.9h3.2c1.4,0,3-0.4,3-2.3
		C27.2,9.2,26.7,8.6,25.7,8.4 M25,6.9c0,0.7-0.7,0.8-1.4,0.8H23V6.1h0.6C24.3,6.1,25,6.1,25,6.9 M25.2,10c0,0.8-0.8,0.9-1.5,0.9H23
		V9.1h0.6C24.4,9.1,25.2,9.2,25.2,10"/>
</g>
<polygon class="st1" points="37.2,12.5 42.6,12.5 42.6,10.9 39.3,10.9 39.3,4.5 37.2,4.5 "/>
</svg>
