<?xml version="1.0" encoding="utf-8"?>
<!-- Generator: Adobe Illustrator 19.2.0, SVG Export Plug-In . SVG Version: 6.00 Build 0)  -->
<svg version="1.1" id="Layer_1" xmlns="http://www.w3.org/2000/svg" xmlns:xlink="http://www.w3.org/1999/xlink" x="0px" y="0px"
	 viewBox="0 0 37.2 30" style="enable-background:new 0 0 37.2 30;" xml:space="preserve">
<style type="text/css">
	.st0{fill:#FFFFFF;}
	.st1{clip-path:url(#SVGID_2_);fill:#FFFFFF;}
	.st2{clip-path:url(#SVGID_4_);fill:#FFFFFF;}
	.st3{clip-path:url(#SVGID_4_);fill:#565655;}
</style>
<polygon class="st0" points="0.3,19.2 16.2,26.2 25.4,22.1 8,16.7 "/>
<g>
	<defs>
		<rect id="SVGID_1_" x="0" width="37.2" height="30"/>
	</defs>
	<clipPath id="SVGID_2_">
		<use xlink:href="#SVGID_1_"  style="overflow:visible;"/>
	</clipPath>
	<path class="st1" d="M8.2,16.3l17,5.3c-1.5-2.2-2-5.8-1.2-9.5c1-4.6,3.8-8.5,6.7-9.3L13.5,0.1c-2.9-0.6-6,2.8-7,7.5
		C5.8,11.2,6.5,14.6,8.2,16.3"/>
</g>
<polygon class="st0" points="0,22.7 15.9,30 15.9,26.5 0,19.5 "/>
<g>
	<defs>
		<rect id="SVGID_3_" x="0" width="37.2" height="30"/>
	</defs>
	<clipPath id="SVGID_4_">
		<use xlink:href="#SVGID_3_"  style="overflow:visible;"/>
	</clipPath>
	<path class="st2" d="M33.7,3.5c-0.2-0.1-0.4-0.2-0.9-0.3c-3.4-0.6-7,3.3-8.2,8.9c-0.9,4.1-0.1,8,1.7,10l-0.2,0.1c0,0,0,0,0,0
		l-9.6,4.2l0,3.5c1.7-0.8,14.2-6.5,14.8-6.7c2.5-1.1,4.8-4.4,5.6-8.6C37.9,9.5,36.5,4.8,33.7,3.5"/>
	<path class="st3" d="M31.7,6.2c-2.2,0-4.4,2.8-5.2,6.5c-0.4,2-0.3,3.9,0.2,5.5c0.5,1.5,1.4,2.5,2.5,2.7c0.2,0,0.3,0.1,0.5,0.1
		c2.2,0,4.4-2.8,5.2-6.5c0.4-2,0.4-3.9-0.2-5.5c-0.5-1.5-1.4-2.5-2.5-2.7C32.1,6.2,31.9,6.2,31.7,6.2 M29.7,21.5
		c-0.2,0-0.4,0-0.6-0.1c-1.3-0.3-2.3-1.3-2.8-3c-0.5-1.6-0.6-3.7-0.2-5.7c0.8-3.9,3.2-6.9,5.6-6.9c0.2,0,0.4,0,0.6,0.1
		c1.3,0.3,2.3,1.3,2.8,3c0.5,1.6,0.6,3.7,0.2,5.7C34.5,18.5,32.1,21.5,29.7,21.5"/>
	<path class="st3" d="M31.4,9.3c-1.2,0-2.4,1.7-2.9,3.9c-0.2,1.2-0.2,2.3,0,3.2c0.3,0.9,0.7,1.4,1.3,1.5c0.1,0,0.2,0,0.2,0
		c1.2,0,2.4-1.7,2.9-3.9c0.2-1.2,0.2-2.3,0-3.2c-0.3-0.9-0.7-1.4-1.3-1.5C31.6,9.3,31.5,9.3,31.4,9.3 M30.1,18.4c-0.1,0-0.2,0-0.3,0
		c-0.7-0.2-1.3-0.8-1.6-1.8c-0.3-1-0.3-2.2-0.1-3.5c0.5-2.4,1.9-4.2,3.3-4.2c0.1,0,0.2,0,0.3,0c0.7,0.2,1.3,0.8,1.6,1.8
		c0.3,1,0.3,2.2,0.1,3.5C32.9,16.6,31.5,18.4,30.1,18.4"/>
	<path class="st3" d="M31.8,13.8c-0.2,0.9-0.8,1.6-1.3,1.5c-0.5-0.1-0.8-1-0.6-1.9c0.2-0.9,0.8-1.6,1.3-1.5
		C31.7,12,32,12.9,31.8,13.8"/>
</g>
</svg>
