<?xml version="1.0" encoding="utf-8"?>
<!-- Generator: Adobe Illustrator 19.2.0, SVG Export Plug-In . SVG Version: 6.00 Build 0)  -->
<svg version="1.1" id="Layer_1" xmlns="http://www.w3.org/2000/svg" xmlns:xlink="http://www.w3.org/1999/xlink" x="0px" y="0px"
	 viewBox="0 0 28.7 37.7" style="enable-background:new 0 0 28.7 37.7;" xml:space="preserve">
<style type="text/css">
	.st0{fill:#FFFFFF;}
	.st1{clip-path:url(#SVGID_2_);fill:#FFFFFF;}
</style>
<polygon class="st0" points="1.7,32.4 0,37.7 8.6,37.7 9.2,32.4 "/>
<polygon class="st0" points="10.5,32.4 10.1,37.7 18.6,37.7 18.2,32.4 "/>
<polygon class="st0" points="19.6,32.4 20.2,37.7 28.7,37.7 27.1,32.4 "/>
<polygon class="st0" points="9.4,31.4 2,31.4 3.4,26.8 9.9,26.8 "/>
<polygon class="st0" points="18,31.4 10.7,31.4 11,26.8 17.7,26.8 "/>
<polygon class="st0" points="26.8,31.4 19.4,31.4 18.8,26.8 25.3,26.8 "/>
<polygon class="st0" points="10,25.9 3.7,25.9 4.9,21.9 10.5,21.9 "/>
<polygon class="st0" points="17.5,25.9 11.2,25.9 11.5,21.9 17.2,21.9 "/>
<polygon class="st0" points="25.1,25.9 18.7,25.9 18.2,21.9 23.8,21.9 "/>
<g>
	<defs>
		<rect id="SVGID_1_" x="0" width="28.7" height="37.7"/>
	</defs>
	<clipPath id="SVGID_2_">
		<use xlink:href="#SVGID_1_"  style="overflow:visible;"/>
	</clipPath>
	<path class="st1" d="M21.1,12.4l0-1.8c0-0.1,0-0.2-0.1-0.2c0.1-0.1,0.2-0.3,0.2-0.4c0.3,0.4,0.6,0.7,1.1,1L21.1,12.4z M19.1,11.7
		c0.5-0.1,0.9-0.3,1.3-0.6l0,2.5l0,0L19.1,11.7z M17.1,11.7c0.4,0.1,0.8,0.1,1.1,0.1l1.9,2.8l-1,5.9c0,0.3,0.2,0.6,0.5,0.6h2.3
		c0.3,0,0.5-0.3,0.5-0.6l-1.2-7c0,0,0,0,0-0.1l1.9-2.2c0.3,0.1,0.7,0.2,1.1,0.2c1.9,0,3.5-1.6,3.5-3.5c0-1.3-0.7-2.4-1.8-3
		c0,0,0,0,0,0C25.9,2.2,23.7,0,21,0c-2.2,0-4,1.4-4.7,3.3c-0.9,0-1.6,0.8-1.6,1.7c0,0.4,0.2,0.8,0.4,1.1c-0.6,0.4-1,1.1-1.2,1.8
		C13.6,9.6,15,11.4,17.1,11.7"/>
</g>
</svg>
