<?xml version="1.0" encoding="utf-8"?>
<!-- Generator: Adobe Illustrator 19.2.0, SVG Export Plug-In . SVG Version: 6.00 Build 0)  -->
<svg version="1.1" id="Layer_1" xmlns="http://www.w3.org/2000/svg" xmlns:xlink="http://www.w3.org/1999/xlink" x="0px" y="0px"
	 viewBox="0 0 52.3 52.3" style="enable-background:new 0 0 52.3 52.3;" xml:space="preserve">
<style type="text/css">
	.st0{clip-path:url(#SVGID_2_);fill:#565655;}
	.st1{fill:#FFFFFF;}
	.st2{clip-path:url(#SVGID_4_);fill:#FFFFFF;}
</style>
<g>
	<defs>
		<rect id="SVGID_1_" width="52.3" height="52.3"/>
	</defs>
	<clipPath id="SVGID_2_">
		<use xlink:href="#SVGID_1_"  style="overflow:visible;"/>
	</clipPath>
	<path class="st0" d="M0,26.1C0,11.7,11.7,0,26.1,0c14.4,0,26.1,11.7,26.1,26.1S40.6,52.3,26.1,52.3C11.7,52.3,0,40.6,0,26.1"/>
</g>
<polygon class="st1" points="20.3,42.1 11.8,42.1 13.4,36.8 20.9,36.8 "/>
<polygon class="st1" points="30.4,42.1 21.8,42.1 22.2,36.8 29.9,36.8 "/>
<polygon class="st1" points="40.5,42.1 32,42.1 31.4,36.8 38.8,36.8 "/>
<polygon class="st1" points="21.1,35.9 13.7,35.9 15.2,31.3 21.7,31.3 "/>
<polygon class="st1" points="29.8,35.9 22.4,35.9 22.8,31.3 29.4,31.3 "/>
<polygon class="st1" points="38.5,35.9 31.1,35.9 30.6,31.3 37.1,31.3 "/>
<polygon class="st1" points="21.8,30.3 15.5,30.3 16.7,26.4 22.3,26.4 "/>
<polygon class="st1" points="29.3,30.3 22.9,30.3 23.2,26.4 29,26.4 "/>
<polygon class="st1" points="36.8,30.3 30.5,30.3 30,26.4 35.6,26.4 "/>
<g>
	<defs>
		<rect id="SVGID_3_" width="52.3" height="52.3"/>
	</defs>
	<clipPath id="SVGID_4_">
		<use xlink:href="#SVGID_3_"  style="overflow:visible;"/>
	</clipPath>
	<path class="st2" d="M32.8,16.8l0-1.8c0-0.1,0-0.2-0.1-0.2c0.1-0.1,0.2-0.3,0.2-0.4c0.3,0.4,0.6,0.7,1.1,1L32.8,16.8z M30.8,16.1
		c0.5-0.1,0.9-0.3,1.3-0.6l0,2.5l0,0L30.8,16.1z M28.9,16.2c0.4,0.1,0.8,0.1,1.1,0.1l1.9,2.8l-1,5.9c0,0.3,0.2,0.6,0.5,0.6h2.3
		c0.3,0,0.5-0.3,0.5-0.6L33,18c0,0,0,0,0-0.1l1.9-2.2c0.3,0.1,0.7,0.2,1.1,0.2c1.9,0,3.5-1.6,3.5-3.5c0-1.3-0.7-2.4-1.8-3
		c0,0,0,0,0,0c0-2.7-2.2-4.9-4.9-4.9c-2.2,0-4,1.4-4.7,3.3c-0.9,0-1.6,0.8-1.6,1.7c0,0.4,0.2,0.8,0.4,1.1c-0.6,0.4-1,1.1-1.2,1.8
		C25.4,14.1,26.8,15.8,28.9,16.2"/>
</g>
</svg>
