<?xml version="1.0" encoding="utf-8"?>
<!-- Generator: Adobe Illustrator 19.2.0, SVG Export Plug-In . SVG Version: 6.00 Build 0)  -->
<svg version="1.1" id="Layer_1" xmlns="http://www.w3.org/2000/svg" xmlns:xlink="http://www.w3.org/1999/xlink" x="0px" y="0px"
	 viewBox="0 0 34.8 27.6" style="enable-background:new 0 0 34.8 27.6;" xml:space="preserve">
<style type="text/css">
	.st0{clip-path:url(#SVGID_2_);fill:#FFFFFF;}
</style>
<g>
	<defs>
		<rect id="SVGID_1_" width="34.8" height="27.6"/>
	</defs>
	<clipPath id="SVGID_2_">
		<use xlink:href="#SVGID_1_"  style="overflow:visible;"/>
	</clipPath>
	<path class="st0" d="M5.9,23.8c-0.1,0.1-0.1,0.3,0,0.4l3.3,3.3c0.1,0.1,0.3,0.1,0.4,0l6-6l-3.8-3.8L5.9,23.8z"/>
	<path class="st0" d="M3.1,12.1c0.1,0.2,0.2,0.2,0.4,0.2l5,0.1c0.2,0,0.4,0.1,0.5,0.2l4,4l3.7,3.8l6.9,6.9l0.2,0.2
		c0.1,0.1,0.3,0.1,0.4,0l3.4-3.3c0.1-0.1,0.1-0.3,0-0.4l-7.1-7.1l5.8-5.8c0.1-0.1,0.3-0.1,0.4,0l1.6,1.6c0.1,0.1,0.1,0.3,0,0.4
		l-0.4,0.4c-0.1,0.1-0.1,0.3,0,0.4l2,2c0.1,0.1,0.3,0.1,0.4,0l4.5-4.5c0.1-0.1,0.1-0.3,0-0.4l-2-2c-0.1-0.1-0.3-0.1-0.4,0l-0.3,0.2
		c-0.1,0.1-0.3,0.1-0.4,0C26,3.5,22,1.3,18,1.2c-0.2,0-0.3,0.1-0.4,0.3c-0.1,0.2,0,0.3,0.1,0.5l4.8,4.8c0.1,0.1,0.1,0.3,0,0.4
		l-5.8,5.8l-3.8-3.8c-0.1-0.1-0.2-0.3-0.2-0.5l-0.9-6.1c0-0.2-0.1-0.3-0.3-0.4L4,0C3.9,0,3.7,0.1,3.7,0.2L3.6,1L3.3,2.3
		c0,0.2,0,0.3,0.2,0.4l3.2,1.7C6.9,4.5,7,4.7,7.1,4.9l0.3,1.2c0,0.2,0,0.4-0.1,0.5L5.6,8.2c-0.1,0.1-0.3,0.1-0.4,0L5,8.1L1.9,5.9
		C1.7,5.8,1.5,5.8,1.4,5.9L0.2,6.3C0.1,6.4,0,6.5,0,6.6c0,0,0,0.1,0,0.1L3.1,12.1z"/>
</g>
</svg>
