<?xml version="1.0" encoding="utf-8"?>
<!-- Generator: Adobe Illustrator 19.2.0, SVG Export Plug-In . SVG Version: 6.00 Build 0)  -->
<svg version="1.1" id="Layer_1" xmlns="http://www.w3.org/2000/svg" xmlns:xlink="http://www.w3.org/1999/xlink" x="0px" y="0px"
	 viewBox="0 0 52.3 52.3" style="enable-background:new 0 0 52.3 52.3;" xml:space="preserve">
<style type="text/css">
	.st0{clip-path:url(#SVGID_2_);fill:#58595B;}
	.st1{fill:#FFFFFF;}
</style>
<g>
	<defs>
		<rect id="SVGID_1_" width="52.3" height="52.3"/>
	</defs>
	<clipPath id="SVGID_2_">
		<use xlink:href="#SVGID_1_"  style="overflow:visible;"/>
	</clipPath>
	<path class="st0" d="M0,26.1C0,11.7,11.7,0,26.1,0c14.4,0,26.1,11.7,26.1,26.1S40.6,52.3,26.1,52.3C11.7,52.3,0,40.6,0,26.1"/>
</g>
<rect x="10.3" y="20.3" transform="matrix(0.7071 -0.7071 0.7071 0.7071 -13.7721 19.0133)" class="st1" width="11.6" height="11.6"/>
<rect x="20.3" y="10.3" transform="matrix(0.7071 -0.7071 0.7071 0.7071 -3.704 23.1865)" class="st1" width="11.6" height="11.6"/>
<rect x="30.4" y="20.3" transform="matrix(0.7071 -0.7071 0.7071 0.7071 -7.8751 33.2527)" class="st1" width="11.6" height="11.6"/>
<rect x="20.3" y="30.4" transform="matrix(0.7069 -0.7073 0.7073 0.7069 -17.9434 29.0946)" class="st1" width="11.6" height="11.6"/>
</svg>
