<?xml version="1.0" encoding="utf-8"?>
<!-- Generator: Adobe Illustrator 19.2.0, SVG Export Plug-In . SVG Version: 6.00 Build 0)  -->
<svg version="1.1" id="Layer_1" xmlns="http://www.w3.org/2000/svg" xmlns:xlink="http://www.w3.org/1999/xlink" x="0px" y="0px"
	 viewBox="0 0 52.3 52.3" style="enable-background:new 0 0 52.3 52.3;" xml:space="preserve">
<style type="text/css">
	.st0{clip-path:url(#SVGID_2_);fill:#565655;}
	.st1{clip-path:url(#SVGID_2_);fill:#FFFFFF;}
</style>
<g>
	<defs>
		<rect id="SVGID_1_" width="52.3" height="52.3"/>
	</defs>
	<clipPath id="SVGID_2_">
		<use xlink:href="#SVGID_1_"  style="overflow:visible;"/>
	</clipPath>
	<path class="st0" d="M0,26.1C0,11.7,11.7,0,26.1,0c14.4,0,26.1,11.7,26.1,26.1S40.6,52.3,26.1,52.3C11.7,52.3,0,40.6,0,26.1"/>
	<path class="st1" d="M15.3,36.1c-0.1,0.1-0.1,0.3,0,0.4l3.3,3.3c0.1,0.1,0.3,0.1,0.4,0l6-6l-3.8-3.8L15.3,36.1z"/>
	<path class="st1" d="M12.4,24.4c0.1,0.2,0.2,0.2,0.4,0.2l5,0.1c0.2,0,0.4,0.1,0.5,0.2l4,4l3.8,3.8l6.9,6.9l0.2,0.2
		c0.1,0.1,0.3,0.1,0.4,0l3.4-3.3c0.1-0.1,0.1-0.3,0-0.4L29.9,29l5.8-5.8c0.1-0.1,0.3-0.1,0.4,0l1.6,1.6c0.1,0.1,0.1,0.3,0,0.4
		l-0.4,0.4c-0.1,0.1-0.1,0.3,0,0.4l2,2c0.1,0.1,0.3,0.1,0.4,0l4.5-4.5c0.1-0.1,0.1-0.3,0-0.4l-2-2c-0.1-0.1-0.3-0.1-0.4,0l-0.3,0.2
		c-0.1,0.1-0.3,0.1-0.4,0c-5.8-5.6-9.7-7.7-13.8-7.8c-0.2,0-0.3,0.1-0.4,0.3c-0.1,0.2,0,0.3,0.1,0.5l4.8,4.8c0.1,0.1,0.1,0.3,0,0.4
		l-5.8,5.8l-3.8-3.8c-0.1-0.1-0.2-0.3-0.2-0.5l-0.9-6.1c0-0.2-0.1-0.3-0.3-0.4l-7.4-2.2c-0.1,0-0.3,0.1-0.3,0.2l-0.1,0.8l-0.2,1.3
		c0,0.2,0,0.3,0.2,0.4l3.2,1.7c0.2,0.1,0.3,0.2,0.3,0.4l0.3,1.2c0,0.2,0,0.4-0.1,0.5L15,20.6c-0.1,0.1-0.3,0.1-0.4,0l-0.2-0.1
		l-3.1-2.2c-0.1-0.1-0.3-0.1-0.5-0.1l-1.2,0.5c-0.1,0-0.2,0.1-0.2,0.2c0,0,0,0.1,0,0.1L12.4,24.4z"/>
</g>
</svg>
