<?xml version="1.0" encoding="utf-8"?>
<!-- Generator: Adobe Illustrator 19.2.0, SVG Export Plug-In . SVG Version: 6.00 Build 0)  -->
<svg version="1.1" id="Layer_1" xmlns="http://www.w3.org/2000/svg" xmlns:xlink="http://www.w3.org/1999/xlink" x="0px" y="0px"
	 viewBox="0 0 52.3 52.3" style="enable-background:new 0 0 52.3 52.3;" xml:space="preserve">
<style type="text/css">
	.st0{clip-path:url(#SVGID_2_);fill:#565655;}
	.st1{fill:#FFFFFF;}
</style>
<g>
	<defs>
		<rect id="SVGID_1_" width="52.3" height="52.3"/>
	</defs>
	<clipPath id="SVGID_2_">
		<use xlink:href="#SVGID_1_"  style="overflow:visible;"/>
	</clipPath>
	<path class="st0" d="M0,26.1C0,11.7,11.7,0,26.1,0c14.4,0,26.1,11.7,26.1,26.1S40.6,52.3,26.1,52.3C11.7,52.3,0,40.6,0,26.1"/>
</g>
<path class="st1" d="M16.8,35.9l-0.4-0.2l-0.2-0.1L16,35.4l-0.2-0.1l-0.4-0.2l-0.5-0.3L13.5,34v0v-0.5V33v-0.3l0.5,0.3l0.4,0.2
	l0.4,0.2l0.7,0.4l0.4,0.2l0,0l0.4,0.2l0.7,0.4l0.4,0.2l0.4,0.2l1.6,0.9L42,23.1l0.3-0.1v0.3v1L20.4,37l-0.9,0.5L16.8,35.9z
	 M32.2,15.1l3.8-2.2l5.5,3.2l-4.1,2.5L37,18.9l0,0l-0.4,0.2l0,0l-2.1,1.3L34,20.7l-0.4,0.3l-1.9,1.1l-4.2,3l3.1-1.7l3.6-2l0.4-0.2
	l0.4-0.2l1.8-1l0,0l0.4-0.2l0,0l0.4-0.2L42,17v0.7l-3.5,2L38.1,20l-0.4,0.2l-1.8,1l-0.4,0.2L35,21.8L19.2,31l0,0l-0.4-0.2l-0.4-0.2
	l-0.5-0.3L17.4,30l-0.2-0.1L17,29.7l-2.7-1.6l-0.4-0.2l-0.4-0.2l-0.2-0.1v-1.3l18.1-10.6l0.4-0.2L32.2,15.1z M7.8,28.4l2.2,1.3
	l0.4,0.2l0.4,0.2l2.7,1.6L13.1,32l-0.4,0.2v0.3l-3-1.7l-0.4-0.2l-0.4-0.2l-1.1-0.6V28.4z M7.4,33.5v-1.3l6,3.5l0.7-0.4l1.1,0.6
	l-1.8,1L7.4,33.5z M44.9,26L22.2,39.3l-2.1-1.2l1.1-0.6l1,0.6l22.7-13.3V26z M43.1,22.7v-0.3l-0.4-0.2l-3.4-1.9l3.1-1.8l0.4-0.2
	v-0.5v-1.3v-0.5l-0.4-0.2l-6-3.5L36,12l-0.4,0.2l-4.2,2.4l-0.4-0.3l-0.4-0.2l-0.4,0.2L7.4,27.7L6.9,28v0.5v1.3v0.5l0.4,0.2L8,30.8
	l-1.1,0.6l-0.4,0.2v0.5v1.3V34l0.4,0.2l6,3.5l0.4,0.2l0.4-0.2l1.9-1.1l0,0l6,3.5l0.4,0.2l0.4-0.2l22.7-13.3l0.4-0.2V26v-1.3v-0.5
	L45.3,24L43.1,22.7z"/>
</svg>
