<?xml version="1.0" encoding="utf-8"?>
<!-- Generator: Adobe Illustrator 19.2.0, SVG Export Plug-In . SVG Version: 6.00 Build 0)  -->
<svg version="1.1" id="Layer_1" xmlns="http://www.w3.org/2000/svg" xmlns:xlink="http://www.w3.org/1999/xlink" x="0px" y="0px"
	 viewBox="0 0 39.9 21.5" style="enable-background:new 0 0 39.9 21.5;" xml:space="preserve">
<style type="text/css">
	.st0{clip-path:url(#SVGID_2_);fill:#FFFFFF;}
</style>
<g>
	<defs>
		<rect id="SVGID_1_" width="39.9" height="21.5"/>
	</defs>
	<clipPath id="SVGID_2_">
		<use xlink:href="#SVGID_1_"  style="overflow:visible;"/>
	</clipPath>
	<path class="st0" d="M32.5,20c-0.8,0-1.5-0.7-1.5-1.5c0-0.8,0.7-1.5,1.5-1.5c0.8,0,1.5,0.7,1.5,1.5C34,19.3,33.4,20,32.5,20
		 M32.5,15.5c-1.6,0-3,1.3-3,3c0,1.6,1.3,3,3,3c1.6,0,3-1.3,3-3C35.5,16.9,34.2,15.5,32.5,15.5 M25.9,20c-0.8,0-1.5-0.7-1.5-1.5
		c0-0.8,0.7-1.5,1.5-1.5c0.8,0,1.5,0.7,1.5,1.5C27.4,19.3,26.7,20,25.9,20 M25.9,15.5c-1.6,0-2.9,1.3-2.9,3c0,1.6,1.3,3,2.9,3
		c1.6,0,3-1.3,3-3C28.9,16.9,27.5,15.5,25.9,15.5 M6.7,20.2c-0.9,0-1.7-0.8-1.7-1.7c0-0.9,0.8-1.7,1.7-1.7c0.9,0,1.7,0.8,1.7,1.7
		C8.4,19.4,7.6,20.2,6.7,20.2 M6.7,15.5c-1.6,0-3,1.3-3,3c0,1.6,1.3,3,3,3c1.6,0,3-1.3,3-3C9.6,16.9,8.3,15.5,6.7,15.5"/>
	<path class="st0" d="M29.2,16.9c0.3-0.5,0.6-1,1.1-1.3h-2.2C28.6,15.9,29,16.3,29.2,16.9 M36.2,18.5c0,0.2,0,0.5-0.1,0.7H37v-3.7
		h-2.2C35.7,16.2,36.2,17.3,36.2,18.5 M26.8,1.8c0.2-0.1,0.5-0.1,0.7-0.2l7.2-0.9h-7.5c-0.2,0-0.5,0-0.7,0.1l-4.9,1.5
		c-0.2,0.1-0.5,0.2-0.7,0.3l-3.5,2.3l3.7-1.4c0.2-0.1,0.5-0.2,0.7-0.2L26.8,1.8z M31.3,12.6c-0.4,0.3-0.9,0.5-1.3,0.6l-4.4,1.3
		c-0.5,0.1-1,0.2-1.4,0.2h-6.4c-0.4,0-0.9-0.2-1.1-0.6c-1.2-2.3-1.9-4.7-2.2-7.3c0-0.5,0.2-0.9,0.5-1.2l5.4-3.5
		c0.4-0.3,0.9-0.5,1.3-0.6l4.4-1.3c0.5-0.1,1-0.2,1.4-0.2h9.6c0.4,0,0.9,0.2,1.1,0.6c1,1.8,1.5,3.6,1.7,5.6c0,0.4-0.2,0.9-0.6,1.1
		L31.3,12.6z M35.5,13.3h-3.1l-4.9,1.5h10.2V9.3l-1.5,1L35.5,13.3z M8.1,4.4H3.7v5.2h4.4V4.4z M2.9,4.4h-1L0.8,9.6h2.2V4.4z
		 M11.8,15.5h11.8c-0.9,0.7-1.5,1.7-1.5,3c0,0.2,0,0.5,0.1,0.7H10.4v-0.7c0-2-1.7-3.7-3.7-3.7c-2,0-3.7,1.7-3.7,3.7v0.7H0.7
		C0.2,19.2,0,19,0,18.5V10c0-0.3,0-0.5,0.1-0.8l1.2-5.6C1.4,3.1,1.6,3,2.2,3h8.1c0.5,0,0.7,0.2,0.7,0.7V17L11.8,15.5z M14.1,14.8
		h-2.2V7.4h0.7v4.4h0.7L14.1,14.8z"/>
</g>
</svg>
