<?xml version="1.0" encoding="utf-8"?>
<!-- Generator: Adobe Illustrator 19.2.0, SVG Export Plug-In . SVG Version: 6.00 Build 0)  -->
<svg version="1.1" id="Layer_1" xmlns="http://www.w3.org/2000/svg" xmlns:xlink="http://www.w3.org/1999/xlink" x="0px" y="0px"
	 viewBox="0 0 38 21" style="enable-background:new 0 0 38 21;" xml:space="preserve">
<style type="text/css">
	.st0{clip-path:url(#SVGID_2_);fill:#FFFFFF;}
</style>
<g>
	<defs>
		<rect id="SVGID_1_" width="38" height="21"/>
	</defs>
	<clipPath id="SVGID_2_">
		<use xlink:href="#SVGID_1_"  style="overflow:visible;"/>
	</clipPath>
	<path class="st0" d="M12.1,18.2v2.5h2v-3.4h-2V18.2z M15,20.7h2v-2.5v-0.9h-2V20.7z M15,13.1v3.2h2v-0.3v-0.5
		C17,14.4,16.1,13.4,15,13.1 M12.1,15.6v0.5v0.3h2v-3.2C13,13.3,12.1,14.4,12.1,15.6"/>
	<path class="st0" d="M13.7,4.1L0,18l2.7,0.7c4-4.1,7.9-8.2,11.9-12.3c4.1,4.9,8.2,9.7,12.3,14.6c4.4-1.4,8.5-2.9,11.1-4.8
		c-2.3-3-4.6-6.1-6.9-9.1c-1.7-0.2-3.3-0.4-5-0.6V0h-3.8v9.1c-0.3-0.2-0.7-0.5-1-0.7v-3C18.7,5,16.2,4.5,13.7,4.1"/>
</g>
</svg>
