<?xml version="1.0" encoding="utf-8"?>
<!-- Generator: Adobe Illustrator 19.2.0, SVG Export Plug-In . SVG Version: 6.00 Build 0)  -->
<svg version="1.1" id="Layer_1" xmlns="http://www.w3.org/2000/svg" xmlns:xlink="http://www.w3.org/1999/xlink" x="0px" y="0px"
	 viewBox="0 0 52.3 52.3" style="enable-background:new 0 0 52.3 52.3;" xml:space="preserve">
<style type="text/css">
	.st0{clip-path:url(#SVGID_2_);fill:#58595B;}
	.st1{clip-path:url(#SVGID_2_);fill:#FFFFFF;}
</style>
<g>
	<defs>
		<rect id="SVGID_1_" width="52.3" height="52.3"/>
	</defs>
	<clipPath id="SVGID_2_">
		<use xlink:href="#SVGID_1_"  style="overflow:visible;"/>
	</clipPath>
	<path class="st0" d="M0,26.1C0,11.7,11.7,0,26.1,0c14.4,0,26.1,11.7,26.1,26.1S40.6,52.3,26.1,52.3C11.7,52.3,0,40.6,0,26.1"/>
	<path class="st1" d="M23.4,22.2l-0.1-0.8l-0.7,4.4h-8.4l-0.5,1.6h25.2l-0.5-1.6H23.3l0.5-3C23.6,22.6,23.4,22.4,23.4,22.2"/>
	<path class="st1" d="M24.4,22.4l12.3-1.8c0.1,0,0.2-0.1,0.3-0.2c0.1-0.1,0.1-0.2,0.1-0.3L36.6,18c0-0.2-0.2-0.3-0.4-0.3
		c0,0,0,0-0.1,0L24,20.2c-0.2,0-0.4,0.3-0.3,0.5l0.3,1.5C23.9,22.3,24.1,22.5,24.4,22.4"/>
	<path class="st1" d="M41.4,21.5h-6.8l-10.2,1.5c0,0-0.1,0-0.1,0c0,0,0,0-0.1,0l-0.4,2.3h14.9l0.8,2.5H13.1l0.8-2.5h8.3l0.6-3.8
		H11.1L7.8,32.6h36.9L41.4,21.5z"/>
</g>
</svg>
