<?xml version="1.0" encoding="utf-8"?>
<!-- Generator: Adobe Illustrator 19.2.0, SVG Export Plug-In . SVG Version: 6.00 Build 0)  -->
<svg version="1.1" id="Layer_1" xmlns="http://www.w3.org/2000/svg" xmlns:xlink="http://www.w3.org/1999/xlink" x="0px" y="0px"
	 viewBox="0 0 32 32.4" style="enable-background:new 0 0 32 32.4;" xml:space="preserve">
<style type="text/css">
	.st0{clip-path:url(#SVGID_2_);fill:#FFFFFF;}
</style>
<g>
	<defs>
		<rect id="SVGID_1_" width="32" height="32.4"/>
	</defs>
	<clipPath id="SVGID_2_">
		<use xlink:href="#SVGID_1_"  style="overflow:visible;"/>
	</clipPath>
	<path class="st0" d="M26.9,27.1h4.1v0.4h-4.1V27.1z M31.3,26.7h-4.7v1.8h4.7c0.4,0,0.7-0.4,0.7-0.9C32,27.1,31.7,26.7,31.3,26.7"/>
	<path class="st0" d="M26.9,21.3h4.1v0.4h-4.1V21.3z M31.3,22.7c0.4,0,0.7-0.4,0.7-0.9c0-0.5-0.3-0.9-0.7-0.9h-4.7v1.8H31.3z"/>
	<path class="st0" d="M0,18.4c0,7.1,11.1,7.5,13.3,7.5v0.1c0,0.4,0.4,0.8,0.9,1v-1.1v-0.2h0.7v0.2v1.3c0.1,0,0.3,0,0.4,0h0h0.3v-1.3
		v-0.2h0.7v0.2v1.3c0.3,0,0.5,0,0.7,0v-1.4v-0.2h0.7v0.2v1.4c0.1,0,0.1,0,0.1,0c0.3,0.1,0.6,0.7,0.7,1.5c0.1,0.7,1,1.3,2,1.3
		s1.9,0.5,2,1.1c0.1,0.6,1,1.2,1.9,1.2c1,0,1.8-0.1,1.8-0.3v-1.1v-1.8v-1.9v-4.6v-0.6v-1.2v-0.5v-2v-1c0-0.2-0.8-0.4-1.8-0.4
		c-1,0-1.8,0.5-1.9,1.2c-0.1,0.6-0.9,1.2-2,1.2c-1,0-1.9,0.6-2,1.3c-0.1,0.7-0.4,1.4-0.7,1.5c0,0-0.1,0-0.1,0v1.3v0.1h-0.7v-0.1
		v-1.3c-0.2,0-0.5,0-0.7,0v1.3v0.1h-0.7v-0.1v-1.3h-0.3h0c-0.1,0-0.3,0-0.4,0v1.2v0.1h-0.7v-0.1v-1.1c-0.6,0.2-0.9,0.6-0.9,1v0.1
		c-4.6,0-11.4-1.4-11.4-5.2c0-2.9,3.1-4.4,6-5.8c3.1-1.5,6.3-3,6.3-6.6c0-3.8-3.2-6-8.7-6C5,0,4.6,0.5,4.6,1.2
		c0,0.6,0.4,1.2,0.9,1.2c4.2,0,6.8,1.4,6.8,3.7c0,2-2.5,3.2-5.1,4.4C3.8,12,0,13.8,0,18.4"/>
</g>
</svg>
