<?xml version="1.0" encoding="utf-8"?>
<!-- Generator: Adobe Illustrator 19.2.0, SVG Export Plug-In . SVG Version: 6.00 Build 0)  -->
<svg version="1.1" id="Layer_1" xmlns="http://www.w3.org/2000/svg" xmlns:xlink="http://www.w3.org/1999/xlink" x="0px" y="0px"
	 viewBox="0 0 52.3 52.3" style="enable-background:new 0 0 52.3 52.3;" xml:space="preserve">
<style type="text/css">
	.st0{clip-path:url(#SVGID_2_);fill:#565655;}
	.st1{clip-path:url(#SVGID_2_);fill:#FFFFFF;}
</style>
<g>
	<defs>
		<rect id="SVGID_1_" width="52.3" height="52.3"/>
	</defs>
	<clipPath id="SVGID_2_">
		<use xlink:href="#SVGID_1_"  style="overflow:visible;"/>
	</clipPath>
	<path class="st0" d="M0,26.1C0,11.7,11.7,0,26.1,0c14.4,0,26.1,11.7,26.1,26.1S40.6,52.3,26.1,52.3C11.7,52.3,0,40.6,0,26.1"/>
	<path class="st1" d="M37,34.5h4.1v0.4H37V34.5z M41.4,34h-4.7v1.8h4.7c0.4,0,0.7-0.4,0.7-0.9C42.2,34.4,41.8,34,41.4,34"/>
	<path class="st1" d="M37,28.7h4.1v0.4H37V28.7z M41.4,30c0.4,0,0.7-0.4,0.7-0.9c0-0.5-0.3-0.9-0.7-0.9h-4.7V30H41.4z"/>
	<path class="st1" d="M10.1,25.7c0,7.1,11.1,7.5,13.3,7.5v0.1c0,0.4,0.4,0.8,0.9,1v-1.1V33H25v0.2v1.3c0.1,0,0.3,0,0.4,0h0h0.3v-1.3
		V33h0.7v0.2v1.3c0.3,0,0.5,0,0.7,0v-1.4V33h0.7v0.2v1.4c0.1,0,0.1,0,0.1,0c0.3,0.1,0.6,0.7,0.7,1.5c0.1,0.7,1,1.3,2,1.3
		s1.9,0.5,2,1.1c0.1,0.6,1,1.2,1.9,1.2c1,0,1.8-0.1,1.8-0.3v-1.1v-1.8v-1.9V30v-0.6v-1.2v-0.5v-2v-1c0-0.2-0.8-0.4-1.8-0.4
		c-1,0-1.8,0.5-1.9,1.2c-0.1,0.6-0.9,1.2-2,1.2c-1,0-1.9,0.6-2,1.3c-0.1,0.7-0.4,1.4-0.7,1.5c0,0-0.1,0-0.1,0v1.3V31h-0.7v-0.1v-1.3
		c-0.2,0-0.5,0-0.7,0v1.3V31h-0.7v-0.1v-1.3h-0.3h0c-0.1,0-0.3,0-0.4,0v1.2V31h-0.7v-0.1v-1.1c-0.6,0.2-0.9,0.6-0.9,1v0.1
		c-4.6,0-11.4-1.4-11.4-5.2c0-2.9,3.1-4.4,6-5.8c3.1-1.5,6.3-3,6.3-6.6c0-3.8-3.2-6-8.7-6c-0.5,0-0.9,0.5-0.9,1.2
		c0,0.6,0.4,1.2,0.9,1.2c4.2,0,6.8,1.4,6.8,3.7c0,2-2.5,3.2-5.1,4.4C14,19.4,10.1,21.2,10.1,25.7"/>
</g>
</svg>
