<?xml version="1.0" encoding="utf-8"?>
<!-- Generator: Adobe Illustrator 19.2.0, SVG Export Plug-In . SVG Version: 6.00 Build 0)  -->
<svg version="1.1" id="Layer_1" xmlns="http://www.w3.org/2000/svg" xmlns:xlink="http://www.w3.org/1999/xlink" x="0px" y="0px"
	 viewBox="0 0 39.2 28.3" style="enable-background:new 0 0 39.2 28.3;" xml:space="preserve">
<style type="text/css">
	.st0{fill:#FFFFFF;}
</style>
<path class="st0" d="M0.8,21.6v-1.3l6,3.5l0.7-0.4L8.6,24l-1.8,1L0.8,21.6z M3.2,18.9l-0.4-0.2l-0.4-0.2l-1.1-0.6v-1.3l2.2,1.3
	L3.9,18l0.4,0.2L7,19.8L6.6,20l-0.4,0.2v0.3L3.2,18.9z M38.4,12.8v1.3L15.7,27.4l-2.1-1.2l1.1-0.6l1,0.6L38.4,12.8z M35.5,11.1
	l0.3-0.1v0.3v1L13.9,25L13,25.5L10.3,24l-0.4-0.2l-0.2-0.1l-0.2-0.1l-0.2-0.1l-0.4-0.2l-0.5-0.3L7,22.1v0v-0.5v-0.5v-0.3l0.5,0.3
	L8,21.3l0.4,0.2L9.1,22l0.4,0.2l0,0l0.4,0.2l0.7,0.4l0.4,0.2l0.4,0.2l1.6,0.9L35.5,11.1z M12.7,19l-0.4-0.2l-0.4-0.2l-0.5-0.3
	L10.9,18l-0.2-0.1l-0.3-0.2l-2.7-1.6l-0.4-0.2L7,15.7l-0.2-0.1v-1.3L24.9,3.7l0.4-0.2l0.4-0.2L29.5,1L35,4.2l-4.1,2.5l-0.4,0.2l0,0
	L30,7.2l0,0l-2.1,1.3l-0.4,0.3L27.1,9l-1.9,1.1l-4.2,3l3.1-1.7l3.6-2l0.4-0.2l0.4-0.2l1.8-1l0,0l0.4-0.2l0,0l0.4-0.2L35.5,5v0.7
	l-3.5,2L31.5,8l-0.4,0.2l-1.8,1l-0.4,0.2l-0.4,0.2L12.7,19L12.7,19z M29.5,0L29,0.2l-4.2,2.4l-0.4-0.3L24,2.2l-0.4,0.2L0.9,15.7
	L0.4,16v0.5v1.3v0.5l0.4,0.2l0.7,0.4l-1.1,0.6L0,19.8v0.5v1.3V22l0.4,0.2l6,3.5L6.9,26l0.4-0.2l1.9-1.1l0,0l6,3.5l0.4,0.2l0.4-0.2
	l22.7-13.3l0.4-0.2v-2.3L38.8,12l-2.2-1.3v-0.3l-0.4-0.2l-3.4-1.9l3.1-1.8l0.4-0.2V5.7V4.4V4l-0.4-0.2l-6-3.5L29.5,0z"/>
</svg>
