<?xml version="1.0" encoding="utf-8"?>
<!-- Generator: Adobe Illustrator 19.2.0, SVG Export Plug-In . SVG Version: 6.00 Build 0)  -->
<svg version="1.1" id="Layer_1" xmlns="http://www.w3.org/2000/svg" xmlns:xlink="http://www.w3.org/1999/xlink" x="0px" y="0px"
	 viewBox="0 0 52.3 52.3" style="enable-background:new 0 0 52.3 52.3;" xml:space="preserve">
<style type="text/css">
	.st0{clip-path:url(#SVGID_2_);fill:#565655;}
	.st1{clip-path:url(#SVGID_2_);fill:#FFFFFF;}
</style>
<g>
	<defs>
		<rect id="SVGID_1_" width="52.3" height="52.3"/>
	</defs>
	<clipPath id="SVGID_2_">
		<use xlink:href="#SVGID_1_"  style="overflow:visible;"/>
	</clipPath>
	<path class="st0" d="M0,26.1C0,11.7,11.7,0,26.1,0c14.4,0,26.1,11.7,26.1,26.1S40.6,52.3,26.1,52.3C11.7,52.3,0,40.6,0,26.1"/>
	<path class="st1" d="M19.3,32.4v2.5h2v-3.4h-2V32.4z M22.2,34.9h2v-2.5v-0.9h-2V34.9z M22.2,27.4v3.2h2v-0.3v-0.5
		C24.1,28.6,23.3,27.6,22.2,27.4 M19.3,29.8v0.5v0.3h2v-3.2C20.2,27.5,19.3,28.6,19.3,29.8"/>
	<path class="st1" d="M20.8,18.3L7.2,32.2l2.7,0.7c4-4.1,7.9-8.2,11.9-12.3c4.1,4.9,8.2,9.7,12.3,14.6c4.4-1.4,8.5-2.9,11.1-4.8
		c-2.3-3-4.6-6.1-6.9-9.1c-1.7-0.2-3.3-0.4-5-0.6v-6.4h-3.8v9.1c-0.3-0.2-0.7-0.5-1-0.7v-3C25.9,19.2,23.4,18.8,20.8,18.3"/>
</g>
</svg>
