<?xml version="1.0" encoding="utf-8"?>
<!-- Generator: Adobe Illustrator 19.2.0, SVG Export Plug-In . SVG Version: 6.00 Build 0)  -->
<svg version="1.1" id="Layer_1" xmlns="http://www.w3.org/2000/svg" xmlns:xlink="http://www.w3.org/1999/xlink" x="0px" y="0px"
	 viewBox="0 0 52.3 52.3" style="enable-background:new 0 0 52.3 52.3;" xml:space="preserve">
<style type="text/css">
	.st0{clip-path:url(#SVGID_2_);fill:#565655;}
	.st1{fill:#FFFFFF;}
	.st2{clip-path:url(#SVGID_4_);fill:#FFFFFF;}
	.st3{clip-path:url(#SVGID_6_);fill:#FFFFFF;}
	.st4{clip-path:url(#SVGID_6_);fill:#565655;}
</style>
<g>
	<defs>
		<rect id="SVGID_1_" width="52.3" height="52.3"/>
	</defs>
	<clipPath id="SVGID_2_">
		<use xlink:href="#SVGID_1_"  style="overflow:visible;"/>
	</clipPath>
	<path class="st0" d="M0,26.1C0,11.7,11.7,0,26.1,0c14.4,0,26.1,11.7,26.1,26.1S40.6,52.3,26.1,52.3C11.7,52.3,0,40.6,0,26.1"/>
</g>
<polygon class="st1" points="15.5,28.2 7.8,30.8 23.7,37.7 32.9,33.6 "/>
<g>
	<defs>
		<rect id="SVGID_3_" width="52.3" height="52.3"/>
	</defs>
	<clipPath id="SVGID_4_">
		<use xlink:href="#SVGID_3_"  style="overflow:visible;"/>
	</clipPath>
	<path class="st2" d="M15.8,27.8l17,5.3c-1.5-2.2-2-5.8-1.2-9.5c1-4.6,3.8-8.5,6.7-9.3l-17.2-2.6c-2.9-0.6-6,2.8-7,7.5
		C13.3,22.8,14.1,26.2,15.8,27.8"/>
</g>
<polygon class="st1" points="23.4,38.1 7.5,31.1 7.6,34.3 23.4,41.6 "/>
<g>
	<defs>
		<rect id="SVGID_5_" width="52.3" height="52.3"/>
	</defs>
	<clipPath id="SVGID_6_">
		<use xlink:href="#SVGID_5_"  style="overflow:visible;"/>
	</clipPath>
	<path class="st3" d="M41.2,15.1c-0.2-0.1-0.4-0.2-0.9-0.3c-3.4-0.6-7,3.3-8.2,8.9c-0.9,4.1-0.1,8,1.7,10l-0.2,0.1c0,0,0,0,0,0
		L24,38l0,3.5c1.7-0.8,14.2-6.5,14.8-6.7c2.5-1.1,4.8-4.4,5.6-8.6C45.5,21.1,44.1,16.4,41.2,15.1"/>
	<path class="st4" d="M39.3,17.8c-2.2,0-4.4,2.8-5.2,6.5c-0.4,2-0.3,3.9,0.2,5.5c0.5,1.5,1.4,2.5,2.5,2.7c0.2,0,0.3,0.1,0.5,0.1
		c2.2,0,4.4-2.8,5.2-6.5c0.4-2,0.3-3.9-0.2-5.5c-0.5-1.5-1.4-2.5-2.5-2.7C39.6,17.8,39.4,17.8,39.3,17.8 M37.2,33
		c-0.2,0-0.4,0-0.6-0.1c-1.3-0.3-2.3-1.3-2.8-3c-0.5-1.6-0.6-3.7-0.2-5.7c0.8-3.9,3.2-6.9,5.6-6.9c0.2,0,0.4,0,0.6,0.1
		c1.3,0.3,2.3,1.3,2.8,3c0.5,1.6,0.6,3.7,0.2,5.7C42,30.1,39.6,33,37.2,33"/>
	<path class="st4" d="M38.9,20.8c-1.2,0-2.4,1.7-2.9,3.9c-0.2,1.2-0.2,2.3,0,3.2c0.3,0.9,0.7,1.4,1.3,1.5c0.1,0,0.2,0,0.2,0
		c1.2,0,2.4-1.7,2.9-3.9c0.2-1.2,0.2-2.3,0-3.2c-0.3-0.9-0.7-1.4-1.3-1.5C39.1,20.9,39,20.8,38.9,20.8 M37.6,29.9
		c-0.1,0-0.2,0-0.3,0c-0.7-0.2-1.3-0.8-1.6-1.8c-0.3-1-0.3-2.2-0.1-3.5c0.5-2.4,1.9-4.2,3.3-4.2c0.1,0,0.2,0,0.3,0
		c0.7,0.2,1.3,0.8,1.6,1.8c0.3,1,0.3,2.2,0.1,3.5C40.5,28.1,39,29.9,37.6,29.9"/>
	<path class="st4" d="M39.3,25.4c-0.2,0.9-0.8,1.6-1.3,1.5c-0.5-0.1-0.8-1-0.6-1.9c0.2-0.9,0.8-1.6,1.3-1.5
		C39.2,23.6,39.5,24.4,39.3,25.4"/>
</g>
</svg>
