<?xml version="1.0" encoding="utf-8"?>
<!-- Generator: Adobe Illustrator 19.2.0, SVG Export Plug-In . SVG Version: 6.00 Build 0)  -->
<svg version="1.1" id="Layer_1" xmlns="http://www.w3.org/2000/svg" xmlns:xlink="http://www.w3.org/1999/xlink" x="0px" y="0px"
	 viewBox="0 0 36.9 14.9" style="enable-background:new 0 0 36.9 14.9;" xml:space="preserve">
<style type="text/css">
	.st0{clip-path:url(#SVGID_2_);fill:#FFFFFF;}
</style>
<g>
	<defs>
		<rect id="SVGID_1_" width="36.9" height="14.9"/>
	</defs>
	<clipPath id="SVGID_2_">
		<use xlink:href="#SVGID_1_"  style="overflow:visible;"/>
	</clipPath>
	<path class="st0" d="M15.6,4.5l-0.1-0.8l-0.7,4.4H6.4L5.9,9.6h25.2l-0.5-1.6H15.5l0.5-3C15.8,4.9,15.6,4.7,15.6,4.5"/>
	<path class="st0" d="M16.6,4.7l12.3-1.8c0.1,0,0.2-0.1,0.3-0.2c0.1-0.1,0.1-0.2,0.1-0.3l-0.4-2.1c0-0.2-0.2-0.3-0.4-0.3
		c0,0,0,0-0.1,0L16.2,2.4c-0.2,0-0.4,0.3-0.3,0.5l0.3,1.5C16.1,4.6,16.3,4.8,16.6,4.7"/>
	<path class="st0" d="M33.6,3.7h-6.8L16.6,5.2c0,0-0.1,0-0.1,0c0,0,0,0-0.1,0L16,7.6H31l0.8,2.6H5.2L6,7.6h8.3l0.6-3.8H3.3L0,14.9
		h36.9L33.6,3.7z"/>
</g>
</svg>
