<?xml version="1.0" encoding="utf-8"?>
<!-- Generator: Adobe Illustrator 19.2.0, SVG Export Plug-In . SVG Version: 6.00 Build 0)  -->
<svg version="1.1" id="Layer_1" xmlns="http://www.w3.org/2000/svg" xmlns:xlink="http://www.w3.org/1999/xlink" x="0px" y="0px"
	 viewBox="0 0 90.9 65" style="enable-background:new 0 0 90.9 65;" xml:space="preserve">
<style type="text/css">
	.st0{fill:#652D89;}
	.st1{fill:#F47735;}
	.st2{fill:#C41230;}
	.st3{fill:#49A942;}
	.st4{clip-path:url(#SVGID_2_);fill:#FFFFFF;}
	.st5{clip-path:url(#SVGID_2_);}
	.st6{clip-path:url(#SVGID_4_);}
	.st7{clip-path:url(#SVGID_6_);}
	.st8{clip-path:url(#SVGID_8_);}
</style>
<polygon class="st0" points="0.3,0 0.3,44.9 18.9,44.9 18.9,21.4 "/>
<polygon class="st1" points="42.7,44.9 24.1,44.9 24.1,22.4 42.7,20.7 "/>
<polygon class="st2" points="66.5,44.9 47.9,44.9 47.9,9.3 66.5,13.9 "/>
<polygon class="st3" points="71.7,23.3 71.7,44.9 90.3,44.9 90.3,15.9 "/>
<g>
	<defs>
		<rect id="SVGID_1_" width="90.9" height="65"/>
	</defs>
	<clipPath id="SVGID_2_">
		<use xlink:href="#SVGID_1_"  style="overflow:visible;"/>
	</clipPath>
	<path class="st4" d="M28.6,39.8c0,0,0,0.1,0,0.2l1.4,1.4c0,0,0.1,0,0.2,0l2.5-2.5l-1.6-1.6L28.6,39.8z"/>
	<path class="st4" d="M27.4,35c0,0.1,0.1,0.1,0.2,0.1l2.1,0c0.1,0,0.1,0,0.2,0.1l1.7,1.7l1.6,1.6l2.9,2.9l0.1,0.1c0,0,0.1,0,0.2,0
		l1.4-1.4c0,0,0-0.1,0-0.2l-3-3l2.4-2.4c0,0,0.1,0,0.2,0l0.7,0.7c0,0,0,0.1,0,0.2l-0.2,0.2c0,0,0,0.1,0,0.2l0.8,0.8c0,0,0.1,0,0.2,0
		l1.9-1.9c0,0,0-0.1,0-0.2l-0.8-0.8c0,0-0.1,0-0.2,0l-0.1,0.1c0,0-0.1,0-0.2,0c-2.4-2.3-4.1-3.2-5.8-3.3c-0.1,0-0.1,0-0.2,0.1
		c0,0.1,0,0.1,0,0.2l2,2c0,0,0,0.1,0,0.2l-2.4,2.4l-1.6-1.6c-0.1-0.1-0.1-0.1-0.1-0.2L31,31c0-0.1-0.1-0.1-0.1-0.2l-3.1-0.9
		c-0.1,0-0.1,0-0.1,0.1l-0.1,0.3l-0.1,0.6c0,0.1,0,0.1,0.1,0.2l1.4,0.7c0.1,0,0.1,0.1,0.1,0.2l0.1,0.5c0,0.1,0,0.1-0.1,0.2l-0.7,0.7
		c0,0.1-0.1,0.1-0.2,0l-0.1-0.1l-1.3-0.9c-0.1,0-0.1-0.1-0.2,0l-0.5,0.2c0,0-0.1,0.1-0.1,0.1c0,0,0,0,0,0L27.4,35z"/>
	<path class="st4" d="M86,40.9c-0.3,0-0.5-0.2-0.5-0.5c0-0.3,0.2-0.5,0.5-0.5c0.3,0,0.5,0.2,0.5,0.5C86.6,40.7,86.3,40.9,86,40.9
		 M86,39.3c-0.6,0-1.1,0.5-1.1,1.1c0,0.6,0.5,1.1,1.1,1.1c0.6,0,1.1-0.5,1.1-1.1C87.1,39.8,86.6,39.3,86,39.3 M83.6,40.9
		c-0.3,0-0.5-0.2-0.5-0.5c0-0.3,0.2-0.5,0.5-0.5c0.3,0,0.5,0.2,0.5,0.5C84.1,40.7,83.9,40.9,83.6,40.9 M83.6,39.3
		c-0.6,0-1.1,0.5-1.1,1.1c0,0.6,0.5,1.1,1.1,1.1c0.6,0,1.1-0.5,1.1-1.1C84.7,39.8,84.2,39.3,83.6,39.3 M76.6,41
		c-0.3,0-0.6-0.3-0.6-0.6c0-0.3,0.3-0.6,0.6-0.6c0.3,0,0.6,0.3,0.6,0.6C77.2,40.7,76.9,41,76.6,41 M76.6,39.3
		c-0.6,0-1.1,0.5-1.1,1.1c0,0.6,0.5,1.1,1.1,1.1c0.6,0,1.1-0.5,1.1-1.1C77.7,39.8,77.2,39.3,76.6,39.3"/>
	<path class="st4" d="M84.8,39.8c0.1-0.2,0.2-0.4,0.4-0.5h-0.8C84.6,39.4,84.7,39.6,84.8,39.8 M87.4,40.4c0,0.1,0,0.2,0,0.3h0.3
		v-1.3h-0.8C87.1,39.5,87.4,39.9,87.4,40.4 M83.9,34.3c0.1,0,0.2,0,0.3-0.1l2.6-0.3h-2.7c-0.1,0-0.2,0-0.3,0l-1.8,0.5
		c-0.1,0-0.2,0.1-0.2,0.1l-1.3,0.8l1.4-0.5c0.1,0,0.2-0.1,0.3-0.1L83.9,34.3z M85.6,38.2c-0.1,0.1-0.3,0.2-0.5,0.2l-1.6,0.5
		C83.3,39,83.1,39,83,39h-2.3c-0.2,0-0.3-0.1-0.4-0.2c-0.4-0.8-0.7-1.7-0.8-2.6c0-0.2,0.1-0.3,0.2-0.4l2-1.3
		c0.2-0.1,0.3-0.2,0.5-0.2l1.6-0.5c0.2-0.1,0.3-0.1,0.5-0.1h3.5c0.2,0,0.3,0.1,0.4,0.2c0.3,0.6,0.6,1.3,0.6,2c0,0.2-0.1,0.3-0.2,0.4
		L85.6,38.2z M87.1,38.5H86L84.2,39h3.7v-2l-0.5,0.4L87.1,38.5z M77.1,35.2h-1.6v1.9h1.6V35.2z M75.2,35.2h-0.4l-0.4,1.9h0.8V35.2z
		 M78.5,39.3h4.3c-0.3,0.2-0.5,0.6-0.5,1.1c0,0.1,0,0.2,0,0.3h-4.3v-0.3c0-0.7-0.6-1.3-1.3-1.3c-0.7,0-1.3,0.6-1.3,1.3v0.3h-0.8
		c-0.2,0-0.3-0.1-0.3-0.3v-3.1c0-0.1,0-0.2,0-0.3l0.5-2c0-0.2,0.1-0.2,0.3-0.2h3c0.2,0,0.3,0.1,0.3,0.3v4.8L78.5,39.3z M79.3,39
		h-0.8v-2.7h0.3v1.6H79L79.3,39z"/>
	<rect x="52.1" y="33.7" transform="matrix(0.7071 -0.7071 0.7071 0.7071 -9.3395 48.556)" class="st4" width="3.8" height="3.8"/>
	<rect x="55.3" y="30.4" transform="matrix(0.7071 -0.7071 0.7071 0.7071 -6.0676 49.9116)" class="st4" width="3.8" height="3.8"/>
	<rect x="58.6" y="33.7" transform="matrix(0.7071 -0.7071 0.7071 0.7071 -7.4228 53.1831)" class="st4" width="3.8" height="3.8"/>
	
		<rect x="55.3" y="36.9" transform="matrix(0.7071 -0.7071 0.7071 0.7071 -10.6946 51.8282)" class="st4" width="3.8" height="3.8"/>
	<rect x="2.7" y="34.5" class="st4" width="2.8" height="3.1"/>
	<rect x="13.4" y="34.5" class="st4" width="2.9" height="3.1"/>
	<rect x="6.2" y="34.5" class="st4" width="6.4" height="3.1"/>
	<rect x="2.7" y="30.7" class="st4" width="6.4" height="3.1"/>
	<rect x="9.9" y="30.7" class="st4" width="6.4" height="3.1"/>
	<rect x="2.7" y="38.4" class="st4" width="6.4" height="3.1"/>
	<rect x="9.9" y="38.4" class="st4" width="6.4" height="3.1"/>
	<polygon class="st5" points="10.2,49.7 7.3,55.7 4.4,49.7 0,49.7 5.4,59 5.4,64.5 9.2,64.5 9.2,59 14.6,49.7 	"/>
	<path class="st5" d="M18.6,62.1c1.6,0,2.1-1.6,2.1-3c0-1.4-0.5-3-2.1-3c-1.6,0-2.1,1.6-2.1,3C16.5,60.5,17,62.1,18.6,62.1
		 M18.6,53.4c3.3,0,5.7,2.5,5.7,5.7c0,3.2-2.3,5.7-5.7,5.7c-3.3,0-5.6-2.4-5.6-5.7C12.9,55.9,15.3,53.4,18.6,53.4"/>
	<path class="st5" d="M36.8,64.5h-3.4V63h0c-0.7,1.1-2,1.8-3.3,1.8c-3.1,0-4-1.8-4-4.6v-6.5h3.5V60c0,1.4,0.6,1.9,1.7,1.9
		c0.8,0,1.9-0.5,1.9-2.4v-5.7h3.5V64.5z"/>
	<path class="st5" d="M43.1,61.4h3.1c1.2,0,2.1-0.4,2.1-1.7c0-1.3-0.9-1.7-2.1-1.7h-3.1V61.4z M43.1,55.5h3c0.7,0,1.6-0.4,1.6-1.4
		c0-1.1-0.8-1.4-1.6-1.4h-3V55.5z M39.3,49.7h6.9c2.5,0,5.3,0.6,5.3,3.7c0,1.3-0.8,2.4-1.9,3c1.6,0.5,2.5,1.8,2.5,3.5
		c0,3.5-2.6,4.6-5.7,4.6h-7.1V49.7z"/>
	<path class="st5" d="M64.7,64.5h-3.4V63h0c-0.7,1.1-2,1.8-3.3,1.8c-3.1,0-4-1.8-4-4.6v-6.5h3.5V60c0,1.4,0.6,1.9,1.7,1.9
		c0.8,0,1.9-0.5,1.9-2.4v-5.7h3.5V64.5z"/>
	<path class="st5" d="M67.2,53.7h3.5v10.7h-3.5V53.7z M70.7,52.4h-3.5v-2.7h3.5V52.4z"/>
	<rect x="73.3" y="49.7" class="st5" width="3.5" height="14.8"/>
	<path class="st5" d="M82.3,59c0,1.5,0.5,3.1,2.2,3.1c1.7,0,2.1-1.6,2.1-3c0-1.6-0.6-3-2.1-3C82.8,56.1,82.3,57.6,82.3,59
		 M89.9,64.5h-3.3v-1.2h0c-0.7,1-1.7,1.6-3,1.6c-3.4,0-4.8-2.9-4.8-5.9c0-2.8,1.5-5.4,4.5-5.4c1.3,0,2.3,0.5,3.1,1.5h0v-5.2h3.5
		V64.5z"/>
	<path class="st5" d="M5.2,73.1l0.2,0c0.3-0.1,0.5-0.2,0.8-0.4c0,0,0.1-0.1,0.3-0.1c0.1-0.1,0.2-0.1,0.2-0.1c0.1,0,0.2-0.1,0.3-0.1
		c0.1-0.1,0.4-0.1,0.6-0.2l0.2-0.1c0.1,0,0.2-0.1,0.3-0.1L8.5,72c0.3,0,0.5-0.1,0.8-0.1c0,0,0.1,0,0.3,0c0.2,0,0.3,0,0.4,0.1
		c0,0,0.2,0.1,0.3,0.1c0.2,0.1,0.3,0.2,0.3,0.5c0,0.1,0,0.3-0.1,0.4c0,0-0.1,0-0.2,0.1c-0.1,0.1-0.1,0.1-0.2,0.2
		c0,0.1-0.1,0.1-0.1,0.2c-0.1,0-0.1,0.1-0.2,0.2c0,0.1-0.2,0.2-0.4,0.5L9,74.6l0,0.1c0,0.1-0.1,0.2-0.3,0.4l-0.1,0.1l0,0
		c-0.1,0.1-0.1,0.2-0.2,0.2l-0.1,0.1c0,0.1-0.1,0.3-0.2,0.3c0,0,0,0-0.1,0.1L8,76.1c0,0-0.1,0.1-0.1,0.1c0,0,0,0.1,0,0.1
		c0,0-0.1,0.1-0.1,0.1c0,0.1-0.1,0.1-0.1,0.2c0,0.1-0.1,0.1-0.1,0.1l0,0.1l0,0c0,0,0,0,0,0.1c0,0,0,0-0.1,0c0,0-0.1,0-0.1,0.1
		c0,0-0.1,0-0.1,0.1l0,0.1l0,0.1l0,0l0.2-0.1c0,0,0.2-0.1,0.5-0.3c0.1,0,0.1-0.1,0.1-0.2c0.1-0.1,0.3-0.1,0.3-0.2
		c0.1,0,0.1-0.1,0.2-0.1c0.1,0,0.2-0.1,0.2-0.1c0-0.1,0.2-0.2,0.5-0.4l0.1-0.1c0,0,0.1-0.1,0.3-0.2l0.1-0.1c0,0,0.1,0,0.2-0.1
		c0-0.1,0.1-0.2,0.2-0.2c0.1-0.1,0.2-0.2,0.3-0.3c0.1-0.1,0.2-0.2,0.4-0.2l0.1-0.1c0,0,0-0.1,0.1-0.2c0.1-0.1,0.2-0.2,0.3-0.2
		c0.1-0.1,0.1-0.1,0.3-0.2l0.1-0.1c0-0.1,0.1-0.1,0.2-0.2c0.1,0,0.2-0.1,0.2-0.1l0-0.1c0,0,0,0,0.1-0.1c0-0.1,0.1-0.1,0.1-0.2
		c0-0.1,0.1-0.1,0.1-0.1c0.1-0.1,0.2-0.2,0.3-0.2c0.1,0,0.1-0.1,0.2-0.1l0-0.1l0.1-0.2l0-0.1c0,0,0.1-0.1,0.2-0.1c0,0,0.1,0,0.1-0.1
		c0.1-0.1,0.1-0.1,0.1-0.2l0-0.1c0.1-0.1,0.2-0.2,0.4-0.2l0.2-0.1c0.1,0,0.1-0.1,0.2-0.1c0,0,0.1,0,0.2,0c0.1,0,0.2,0,0.4,0
		c0.2,0,0.3,0.1,0.3,0.4c0,0.1,0,0.1-0.1,0.2s-0.1,0.1-0.1,0.2c0,0-0.1,0.1-0.3,0.3l0,0.1l-0.3,0.4l0,0.1l0,0.1c0,0-0.1,0.1-0.2,0.1
		l-0.1,0c0,0,0,0,0,0l-0.2,0.5c0,0-0.1,0.1-0.2,0.1c0,0,0,0,0,0.1c0,0.1,0,0.1-0.1,0.2c0,0-0.1,0.1-0.1,0.1c0,0,0,0.1-0.1,0.1
		c0,0.1-0.1,0.1-0.1,0.1l0,0c-0.1,0-0.1,0.1-0.1,0.1l0,0l0,0.1c0,0,0,0-0.1,0c-0.1,0-0.1,0-0.1,0.1c0,0,0,0,0.1,0.1l0,0.1
		c0,0,0,0.1-0.1,0.1c0,0.1-0.1,0.1-0.1,0.2l-0.1,0.2l0,0.1l0,0.2l0.1,0.2l0,0.2c0,0,0,0.1,0.1,0.1c0.1,0,0.1,0,0.1,0.1
		c0,0,0.1,0,0.1,0c0.3,0,0.5-0.1,0.7-0.2c0.5-0.3,0.8-0.5,0.8-0.5l0.1-0.1c0-0.1,0.1-0.2,0.1-0.2c0,0,0.1,0,0.1,0
		c0.1,0,0.1-0.1,0.2-0.2l0.1-0.1l0.1-0.2c0.2,0,0.3-0.1,0.3-0.2c0-0.1,0.1-0.2,0.1-0.2l0.2,0l0.1-0.1l-0.1,0
		c0.1-0.1,0.2-0.1,0.2-0.1c0,0,0-0.1,0.1-0.1l0.1-0.1c0-0.1,0-0.1,0.1-0.2c0.1-0.1,0.1-0.1,0.2-0.2l0-0.1c0.2-0.1,0.3-0.3,0.3-0.4
		c0,0,0.1-0.1,0.2-0.2c0.1-0.1,0.1-0.2,0.1-0.3l0-0.1c0-0.1,0.1-0.2,0.3-0.3l-0.1-0.1c0,0,0-0.1,0.1-0.1c0.1-0.1,0.1-0.1,0.1-0.1
		c0,0,0,0,0-0.1l0,0c0-0.1,0-0.2,0.1-0.3c0.1,0,0.2-0.1,0.2-0.1c0,0,0-0.1-0.1-0.1c-0.1,0-0.1,0-0.1-0.1c0,0,0,0,0.1-0.1l0-0.2
		c0,0,0-0.1,0.1-0.1c0,0,0,0-0.1-0.1c0,0,0-0.1-0.1-0.1C18,71.1,18,71,18,71l0-0.2l0-0.3c0-0.2,0.1-0.3,0.4-0.4l0.2-0.1
		c0.1-0.1,0.3-0.1,0.5-0.1c0.3,0,0.4,0,0.5,0.2l0.1,0.1c0.1,0.1,0.1,0.2,0.1,0.3l-0.1,0.3l0.1,0.2c0,0,0,0-0.1,0.1l-0.1,0.1
		c0.1,0.1,0.1,0.2,0.1,0.2c0,0.1,0,0.1-0.1,0.2c0,0-0.1,0.1-0.1,0.1l-0.1,0.1c-0.1,0-0.1,0.1-0.1,0.1c0,0,0,0.1,0,0.4
		c0,0,0,0.1-0.1,0.1c-0.1,0-0.1,0.1-0.1,0.1c0,0,0,0,0,0.1l0,0.1c0,0.2-0.1,0.3-0.3,0.4c-0.1,0.3-0.3,0.6-0.4,0.7
		c-0.1,0.1-0.2,0.2-0.3,0.4c0,0-0.1,0-0.2,0.1c0,0,0,0.1-0.1,0.2c0,0.1-0.1,0.2-0.3,0.4c-0.1,0.2-0.2,0.3-0.3,0.3l-0.1,0.1
		c0,0,0,0.1-0.1,0.1c-0.1,0-0.2,0-0.2,0.1l0,0.1c0,0,0,0-0.1,0.1c-0.1,0-0.1,0.1-0.2,0.3c-0.1,0.2-0.2,0.3-0.4,0.3
		c-0.2,0-0.2,0-0.2,0c0,0,0,0,0,0.1c0,0,0,0.1,0,0.1c0,0,0,0.1-0.1,0.1c0,0,0,0-0.1,0c-0.1,0-0.1,0-0.1,0.1l0,0l0,0
		c0,0.1-0.1,0.2-0.4,0.3C15.2,76.9,15,77,15,77c-0.1,0.1-0.3,0.2-0.6,0.3c-0.3,0.1-0.6,0.2-0.8,0.2l-0.2,0l-0.3,0
		c-0.3,0-0.4,0-0.5-0.1c-0.1-0.1-0.2-0.1-0.2-0.1c0,0-0.1-0.1-0.3-0.1c-0.1-0.1-0.2-0.2-0.2-0.3c0,0-0.1-0.1-0.2-0.2
		c0-0.2,0-0.3,0-0.3l0-0.1c0,0,0-0.1,0.1-0.2c0.1-0.1,0.1-0.2,0.1-0.2l0,0l0-0.1c0,0,0-0.1,0.1-0.2c0.1-0.1,0.1-0.2,0.1-0.2
		c0,0,0,0-0.1,0c-0.1,0-0.1,0-0.1,0.1c0,0.1-0.1,0.2-0.4,0.3L11,75.9c0,0,0,0.1-0.1,0.1l-0.1,0.2c0,0,0,0-0.1,0c0,0,0,0,0,0l-0.1,0
		c0,0,0,0.1-0.1,0.1c0,0.1,0,0.1-0.1,0.2l-0.2,0l0,0l0,0.1c0,0-0.1,0.1-0.2,0.1c-0.1,0-0.1,0-0.2,0.1c0,0,0,0,0,0l-0.2,0l0,0l0,0.1
		c0,0-0.1,0.1-0.2,0.2c-0.1,0.1-0.2,0.2-0.3,0.2c-0.1,0-0.1,0-0.1,0l0,0l0,0.1c-0.1,0.1-0.1,0.1-0.2,0.1c0,0-0.1,0-0.1,0.1l-0.4,0.2
		c-0.1,0-0.2,0-0.2,0c0,0-0.1,0-0.1,0c0,0,0,0,0,0.1c0,0.1-0.1,0.1-0.2,0.1l-0.1,0c0,0-0.1,0.1-0.4,0.3c-0.3,0.2-0.6,0.3-0.8,0.3
		c-0.1,0-0.3,0-0.4-0.1c-0.1,0-0.2-0.1-0.3-0.1c-0.1,0-0.1-0.1-0.2-0.1c-0.1-0.1-0.1-0.1-0.2-0.2c-0.1-0.1-0.2-0.2-0.2-0.3
		c0,0,0-0.1,0.1-0.2c0-0.1,0.1-0.2,0.1-0.3c0-0.1,0.1-0.1,0.1-0.2c0,0,0.1-0.1,0.1-0.1c0-0.1,0.1-0.1,0.1-0.1l0-0.1c0,0,0,0,0,0
		c0,0,0-0.1,0.1-0.1c0.1-0.1,0.1-0.1,0.1-0.2c0-0.1,0-0.1,0.1-0.2c0,0,0.1-0.1,0.1-0.1c0-0.1,0.1-0.1,0.1-0.1c0.1,0,0.3-0.3,0.7-0.9
		C7,75.1,7.1,75,7.2,74.9c0.1-0.1,0.2-0.1,0.2-0.1c-0.1-0.1-0.1-0.1-0.1-0.1l0.2-0.2c0,0,0-0.1,0.1-0.1c0.1,0,0.1-0.1,0.1-0.1l0.1,0
		c0-0.1,0.1-0.2,0.1-0.2c0,0,0,0,0-0.1c0,0,0.1-0.1,0.2-0.2l0-0.1l0.1-0.1l0.1-0.1c0.1-0.2,0.2-0.3,0.2-0.3l0.1-0.1
		c0,0,0.1-0.1,0.1-0.1c0.2-0.3,0.2-0.4,0.2-0.4c0,0-0.1,0-0.2-0.1l-0.1,0c-0.1,0-0.2,0-0.2,0.1l-0.2,0c-0.1,0-0.2,0.1-0.3,0.2
		c-0.2,0.1-0.5,0.1-0.7,0.2c-0.1,0-0.2,0.1-0.4,0.1c-0.2,0.1-0.4,0.2-0.8,0.3l-0.2,0.1c-0.1,0.1-0.1,0.1-0.2,0.1l-0.4,0
		c0,0.2-0.2,0.3-0.5,0.4c-0.2,0.1-0.3,0.2-0.4,0.3c-0.1,0.1-0.2,0.1-0.4,0.2c-0.1,0.1-0.2,0.1-0.2,0.2c0,0-0.1,0.1-0.2,0.2
		c-0.1,0.1-0.2,0.2-0.3,0.3C3.2,75,3.1,75.1,3,75.1c-0.1,0.1-0.2,0.1-0.2,0.1c-0.1,0-0.1,0-0.2,0c-0.1,0-0.2-0.1-0.3-0.1
		C2,75.1,2,75,1.9,75c0-0.1,0.1-0.2,0.4-0.4c0,0,0.2-0.1,0.6-0.3c0.4-0.2,0.7-0.4,0.8-0.4c0.1,0,0.2-0.1,0.5-0.2
		c0.2-0.1,0.4-0.1,0.4-0.2c0,0,0.1-0.1,0.2-0.1c0.1,0,0.2-0.1,0.2-0.1C5.1,73.2,5.1,73.1,5.2,73.1"/>
	<path class="st5" d="M21.8,74.9l-0.1,0c0,0-0.1,0.1-0.2,0.1c-0.1,0.1-0.3,0.1-0.4,0.2c-0.1,0-0.3,0.2-0.4,0.3
		c-0.1,0.2-0.2,0.3-0.2,0.3c0,0,0,0,0.1,0l0.4-0.1c0.1,0,0.3-0.1,0.4-0.2c0.1-0.1,0.3-0.1,0.5-0.2l0.1-0.1c0,0,0.1-0.1,0.2-0.1
		c0.1-0.1,0.2-0.1,0.3-0.1l0.1,0c0.1-0.1,0.2-0.2,0.4-0.2c0.1,0,0.2-0.1,0.2-0.1c0,0-0.1-0.1-0.2-0.1c-0.1,0-0.1,0-0.3,0.1l-0.2,0
		c0,0-0.1,0-0.2,0.1L21.8,74.9z M19.6,75.4l0.2-0.1c0.2,0,0.3-0.1,0.3-0.2c0-0.1,0.1-0.2,0.3-0.3l0.1-0.1c0.1-0.1,0.4-0.2,0.9-0.3
		c0.1,0,0.2-0.1,0.2-0.1c0,0,0,0,0,0l0.2,0c0.1,0,0.2,0,0.4-0.1c0.1,0,0.3-0.1,0.4-0.1l0.4,0c0,0,0.1,0,0.2,0c0.1,0,0.2,0,0.3,0
		c0.2,0,0.3,0,0.4,0.1c0.1,0.1,0.2,0.1,0.2,0.2c0,0.1-0.1,0.3-0.3,0.4c-0.2,0.1-0.4,0.2-0.5,0.3c-0.1,0.1-0.2,0.1-0.3,0.2
		c-0.1,0-0.1,0.1-0.2,0.1c-0.1,0-0.1,0.1-0.2,0.1c0,0-0.1,0-0.1,0c0,0,0,0-0.1,0c-0.1,0-0.2,0.1-0.4,0.3l-0.2,0
		c-0.1,0.1-0.2,0.1-0.2,0.2c0,0.1-0.1,0.1-0.2,0.1c-0.3,0.2-0.4,0.3-0.5,0.3c0,0-0.1,0-0.1,0c-0.1,0-0.1,0.1-0.1,0.1
		c0,0-0.1,0.1-0.2,0.1l-0.1,0.1l-0.1,0l-0.2,0.1c-0.1,0-0.2,0-0.3,0.1c0,0.1,0,0.1-0.1,0.2c0,0.1,0,0.1,0,0.1c0,0.1,0.2,0.2,0.6,0.1
		l0.5-0.1c0.1,0,0.3,0,0.4-0.1c0.1,0,0.2-0.1,0.4-0.1c0,0,0.1,0,0.2,0l0.1,0c0-0.1,0.1-0.1,0.3-0.2c0.1-0.1,0.2-0.1,0.3-0.1l0.1,0
		c0-0.1,0.1-0.1,0.1-0.1l0.1,0c0.1,0,0.1-0.1,0.2-0.1l0.1,0l0,0c0.1-0.1,0.2-0.2,0.3-0.2c0.1,0,0.2-0.1,0.3-0.1c0,0,0.1-0.1,0.2-0.1
		c0.1,0,0.2,0,0.2-0.1c0.1-0.1,0.1-0.1,0.2-0.1c0.1,0,0.2-0.1,0.2-0.1c0,0,0.1,0,0.1,0c0,0,0.1,0,0.1,0.1c0,0,0,0.1,0,0.1
		c0,0,0,0,0,0c0,0,0,0,0-0.1l0,0c0-0.1,0.1-0.1,0.2-0.1l0.5-0.2c0-0.1,0-0.1,0.1-0.2c0.1,0,0.1,0,0.2-0.1c0,0,0.1,0,0.1,0
		c0.1,0,0.1,0,0.1,0.1l0,0.2l0.1,0.2c0,0,0,0.1-0.1,0.1c-0.1,0-0.1,0.1-0.1,0.2c0,0.1-0.1,0.1-0.1,0.2l-0.1,0
		c-0.1,0.1-0.2,0.1-0.3,0.2c-0.1,0-0.1,0-0.2,0.1l-0.3,0.3c-0.1,0-0.1,0.1-0.2,0.1c0,0-0.1,0.1-0.1,0.1l-0.1,0c0,0,0,0,0,0
		c-0.1,0-0.1,0-0.1,0.1c0,0.1,0,0.1-0.1,0.1c-0.2,0.1-0.3,0.1-0.4,0.2l-0.1,0l-0.2,0c-0.1,0-0.2,0-0.2,0.1c0,0.1-0.1,0.1-0.3,0.2
		c-0.2,0-0.3,0.1-0.4,0.1c0,0,0,0-0.1,0c0,0-0.1,0.1-0.3,0.1l-0.9,0.2c-0.1,0-0.1,0-0.1,0l-0.3,0c0,0-0.1,0-0.1,0c0,0-0.1,0-0.1,0
		l-0.2,0.1c-0.1,0-0.3,0.1-0.4,0.1c-0.1,0-0.1,0-0.2,0c-0.1,0-0.2,0-0.2,0c-0.2,0-0.4-0.1-0.5-0.2l-0.1,0c0,0-0.1-0.1-0.3-0.4
		c0,0-0.1,0-0.2-0.1c-0.1,0-0.1,0-0.1-0.1c0-0.2,0-0.3,0.2-0.4c0.1-0.1,0.2-0.1,0.2-0.2l0.1-0.3c0,0,0.1-0.1,0.1-0.1l0.2-0.3
		C19.4,75.6,19.5,75.5,19.6,75.4"/>
	<path class="st5" d="M36.9,76.7l-0.1,0c-0.1,0-0.2,0.1-0.3,0.1c-0.1,0-0.2,0.1-0.4,0.1c-0.2,0.1-0.4,0.2-0.7,0.3
		c-0.3,0.1-0.4,0.1-0.4,0.2c0.3,0,0.7-0.1,1.1-0.2l0.8-0.2c0.1,0,0.2,0,0.2-0.1c0,0,0.1,0,0.2-0.1l0.2-0.1c0,0,0.1,0,0.2-0.1
		c0.1,0,0.2-0.1,0.2-0.1c0,0,0,0,0,0c-0.3,0-0.5,0.1-0.6,0.1C36.9,76.7,36.9,76.7,36.9,76.7 M40.4,74.9l0.1-0.1l0.3-0.2
		c0.1-0.1,0.2-0.2,0.3-0.3c0,0,0-0.1,0.1-0.1c0,0,0-0.1,0.1-0.1l0.1-0.1c0,0,0,0,0,0c0,0,0,0-0.1-0.1l-0.1-0.1c0,0-0.2-0.1-0.6-0.3
		l-0.1,0l-0.8-0.2l0-0.1l-0.1,0l-0.1,0l0,0l-0.4,0c-0.3,0-0.5,0-0.6-0.1c0,0,0,0-0.1,0l-0.4,0c-0.1,0-0.2,0-0.2,0c0,0-0.1,0-0.2,0
		c-0.1,0-0.2,0-0.2,0c0,0-0.1,0-0.2,0L37,73.1c0,0-0.1,0-0.3,0c0,0-0.1-0.1-0.1-0.1l-0.3,0C36.2,73,36,73,36,73c0,0-0.2,0-0.4,0
		c-0.2,0-0.4,0-0.4,0c-0.1,0-0.2,0-0.3-0.1l-0.1,0c0,0-0.1,0-0.1,0l-0.2,0c0,0-0.1,0-0.2,0c-0.1,0-0.2-0.1-0.3-0.1
		c-0.1,0-0.2-0.1-0.3-0.2c-0.1-0.1-0.1-0.2-0.2-0.3c0,0,0,0,0,0l0-0.2c0-0.3,0.2-0.5,0.6-0.7c0-0.1,0.2-0.2,0.3-0.3l0-0.1
		c0.2-0.1,0.3-0.2,0.4-0.3c0.1-0.1,0.2-0.1,0.3-0.2c0.1,0,0.2-0.1,0.3-0.1l0.2-0.1c0,0,0.1-0.1,0.5-0.3c0.3-0.2,0.6-0.3,0.7-0.3
		c0.2-0.1,0.3-0.1,0.4-0.1c0.1,0,0.2-0.1,0.5-0.1c0.1-0.1,0.2-0.2,0.3-0.2l0.2,0l0.2-0.1l0.3,0c0,0,0.1,0,0.1-0.1
		c0.1,0,0.2-0.1,0.3-0.1l1.3-0.3l0.1,0l0.1,0c0.1,0,0.1,0,0.2-0.1c0.1-0.1,0.2-0.1,0.3-0.1c0,0,0.1,0,0.2,0c0,0,0,0,0,0l0.3-0.1
		l0.3,0l0.4-0.1c0.3,0,0.5,0,0.7,0.1l0,0l0,0c0-0.1,0.1-0.1,0.2-0.1c0.1,0,0.1,0,0.1,0l0.1,0l0.1,0c0,0,0.1,0,0.3,0.1
		c0.1,0,0.2-0.1,0.2-0.1c0.1,0,0.2,0,0.3,0.1l0.2,0c0.1,0,0.1-0.1,0.1-0.1c0,0,0.1,0,0.2,0.1l0.1,0l0.3,0c0,0,0,0,0.1,0l0.1,0
		c0.1,0,0.1,0.1,0.1,0.1c0,0,0,0,0.1,0c0.2-0.1,0.3-0.1,0.3-0.1c0.1,0,0.1,0,0.2,0.1c0,0.1,0.1,0.1,0.2,0.2c0.1,0,0.2,0.1,0.2,0.2
		c0.2,0,0.2,0.1,0.2,0.2l0.2,0.3l0,0.1c0.1,0.1,0.1,0.1,0.1,0.1l0,0.2l0.1,0.2c0,0.1-0.1,0.2-0.3,0.3c0,0-0.1,0-0.2,0.1
		c-0.1,0-0.1,0.1-0.2,0.1c-0.2,0-0.3,0-0.4-0.1c-0.1,0-0.1-0.1-0.2-0.1c-0.1,0-0.1-0.1-0.1-0.1c0-0.1,0.1-0.2,0.3-0.3
		c0.1,0,0.2,0,0.2-0.1c0-0.1,0-0.1-0.1-0.2c-0.1,0-0.1-0.1-0.2-0.1c-0.1-0.1-0.2-0.1-0.2-0.1c-0.1,0-0.2-0.1-0.2-0.1
		c-0.1,0-0.1-0.1-0.1-0.1l-0.1,0l-0.3,0c-0.3,0-0.6,0-0.9-0.1l-0.2,0l-0.6,0c-0.1,0-0.2,0.1-0.4,0.1L42,69.3l-0.3,0
		c0,0-0.2,0.1-0.6,0.1l-0.1,0l-0.3,0c0,0-0.1,0-0.3,0.1c-0.2,0.1-0.3,0.1-0.4,0.1l-0.1,0c0,0,0,0-0.1,0l-0.2,0l-0.9,0.3l-0.2,0
		c-0.1,0-0.2,0-0.2,0c-0.1,0-0.1,0-0.1,0.1l0,0.1c-0.1,0-0.1,0.1-0.2,0.1c0,0-0.1,0-0.1,0l-0.1,0c-0.1,0-0.2,0-0.2,0.1
		c-0.1,0-0.1,0.1-0.2,0.1c-0.1,0-0.1,0-0.2,0.1c0,0-0.1,0-0.2,0.1c-0.1,0-0.2,0.1-0.2,0.1c0,0.1-0.1,0.1-0.2,0.1l-0.2,0L36.4,71
		c-0.1,0-0.2,0-0.3,0.1c-0.1,0.1-0.2,0.1-0.3,0.2c-0.1,0-0.2,0.1-0.3,0.1c-0.1,0-0.1,0.1-0.2,0.1c0,0-0.1,0.1-0.2,0.1
		s-0.1,0.1-0.2,0.2L35,71.9c-0.2,0.1-0.3,0.2-0.2,0.3c0,0.1,0.1,0.1,0.3,0.1c0.2,0,0.3,0,0.3,0.1c0,0,0.1,0,0.2,0c0.1,0,0.2,0,0.2,0
		c0.1,0,0.2,0,0.4,0.1c0,0.1,0.1,0.1,0.1,0.1c0,0,0,0,0.1-0.1c0,0,0.1-0.1,0.2-0.1c0.1,0,0.2,0,0.3,0.1l0.1,0l0,0l0.1,0l0,0l0.1,0
		c0,0,0,0,0.1,0c0,0,0.1,0,0.3,0l0,0c0,0,0.1,0,0.2,0c0.1,0,0.2,0,0.2,0l0.2,0c0,0,0,0,0,0c0,0,0.1,0,0.1,0c0.1,0,0.1,0,0.2,0
		c0.1,0,0.1,0,0.2,0.1c0.1,0,0.2-0.1,0.2-0.1c0.1,0,0.2,0,0.3,0.1l0.2,0l0.2,0l0.4,0c0.1,0.1,0.2,0.1,0.3,0.1c0,0,0.1-0.1,0.1-0.1
		c0.1,0,0.3,0,0.5,0l0.1,0l0.1,0c0.1,0,0.2,0,0.2,0c0.1,0,0.2,0,0.2,0.1c0,0,0,0.1-0.1,0.2c0,0,0,0,0.1,0c0,0,0.1,0,0.1-0.1l0.2-0.1
		c0,0,0,0,0.1,0c0.2,0,0.4,0,0.7,0.1c0.3,0.1,0.5,0.2,0.5,0.4c0,0,0,0.1,0.1,0.2l0,0.1l0,0.1c0,0,0,0,0,0.1l0,0.1c0,0,0,0-0.1,0
		c0,0,0,0-0.1,0l0.1,0.1l0,0c0,0,0,0-0.1,0.1c-0.1,0-0.1,0.1-0.1,0.1c0,0,0,0.1-0.1,0.1c0,0-0.1,0.1-0.1,0.1c0,0-0.1,0.1-0.2,0.1
		c-0.1,0.1-0.2,0.1-0.2,0.1c0,0,0,0,0,0c0.1,0,0.2,0,0.3-0.1c0.1-0.1,0.2-0.1,0.2-0.1c0,0,0.1,0,0.2-0.1l1-0.3
		c0.7-0.3,1.1-0.4,1.2-0.4c0.1,0,0.2,0,0.2,0.1c0,0,0,0.1-0.1,0.2c0,0.2-0.1,0.3-0.4,0.4c-0.1,0-0.2,0.1-0.2,0.1l-0.1,0
		c-0.2,0.1-0.4,0.2-0.6,0.2l-0.1,0c-0.3,0.2-0.6,0.3-0.9,0.3c-0.2,0.2-0.4,0.2-0.6,0.3l-0.2,0c-0.2,0.1-0.3,0.1-0.4,0.1
		c0,0,0,0-0.1,0.1l-0.2,0.1c-0.1,0-0.3,0.1-0.4,0.2c-0.1,0.1-0.3,0.1-0.3,0.2c-0.1,0-0.2,0-0.3,0.1c-0.1,0-0.5,0.2-1.1,0.5l-0.1,0
		c-0.3,0.1-0.4,0.2-0.5,0.2c-0.1,0.1-0.2,0.1-0.2,0.1l0,0c-0.2,0-0.3,0.1-0.6,0.2c0,0-0.2,0.1-0.5,0.1c-0.3,0.1-0.6,0.2-0.8,0.3
		c-0.2,0-0.4,0.1-0.6,0.1c-0.2,0.1-0.4,0.1-0.5,0.1L35,77.8c-0.2,0-0.3,0.1-0.6,0.1c-0.1,0-0.2,0-0.3,0l-0.2,0c0,0-0.1,0-0.1,0
		s-0.1,0-0.2-0.1c-0.1,0-0.2-0.1-0.2-0.2c0-0.1,0.2-0.2,0.6-0.3c0.4-0.1,0.6-0.2,0.7-0.3c0.1,0,0.1-0.1,0.3-0.1
		c0.1,0,0.3-0.1,0.4-0.1c0.1,0,0.2-0.1,0.5-0.1l0.4-0.2c0,0,0,0,0.1,0l0.1,0c0,0,0.1,0,0.2-0.1c0.1-0.1,0.2-0.1,0.3-0.1l0.1,0
		c0,0,0,0,0.1,0c0,0,0.1-0.1,0.2-0.1l0,0l0.1,0c0.1,0,0.2-0.1,0.3-0.1c0.1,0,0.2-0.1,0.3-0.1l0.8-0.2l0.2,0c0,0,0.1,0,0.2-0.1
		c0.1,0,0.2-0.1,0.5-0.2c0,0,0.1-0.1,0.2-0.1c0.1-0.1,0.2-0.1,0.4-0.2L40.4,74.9z"/>
</g>
<g>
	<defs>
		<rect id="SVGID_3_" width="90.9" height="65"/>
	</defs>
	<clipPath id="SVGID_4_">
		<use xlink:href="#SVGID_3_"  style="overflow:visible;"/>
	</clipPath>
	<path class="st6" d="M45.2,73.6l0.2,0c0-0.1,0.1-0.1,0.2-0.2l0.1,0c0.1,0,0.2-0.1,0.3-0.2l0.2-0.1c0,0,0.1,0,0.1,0
		c0,0,0.1,0,0.1-0.1c0,0,0.1-0.1,0.3-0.2l0,0c0,0,0.1,0,0.1-0.1c0.1,0,0.1-0.1,0.2-0.1l0.4-0.1c0.1,0,0.2,0,0.2,0
		c0.1,0,0.2,0,0.5,0.2c0.3,0.1,0.4,0.3,0.4,0.4c0,0.1-0.1,0.1-0.2,0.2l-0.1,0l0,0.1L48,73.9c0,0.1-0.1,0.1-0.2,0.1
		c-0.1,0.1-0.1,0.1-0.1,0.1l-0.1,0l-0.1,0l0,0.2c-0.1,0.1-0.1,0.2-0.3,0.3c-0.1,0.2-0.2,0.3-0.2,0.3c0,0.1,0,0.1,0.1,0.1
		c0,0,0.1,0,0.1,0c0,0,0.1-0.1,0.2-0.1c0.1,0,0.1-0.1,0.2-0.1c0,0,0.1-0.1,0.2-0.1c0.1,0,0.2-0.1,0.3-0.1c0.1-0.1,0.2-0.1,0.2-0.1
		c0,0,0.1-0.1,0.1-0.1c0,0,0.1-0.1,0.1-0.1c0,0,0.1,0,0.2,0c0,0,0-0.1,0-0.1l0.3-0.1l0.6-0.4l0.1-0.1c0.1,0,0.2,0,0.2-0.1
		c0-0.1,0.1-0.2,0.3-0.3c0,0,0,0,0.1,0c0.1-0.1,0.1-0.1,0.2-0.2c0.1,0,0.2-0.1,0.2-0.2l0.2-0.1c0.1,0,0.1,0,0.1-0.1
		c0.4-0.2,0.6-0.3,0.7-0.4c0.1,0,0.2-0.1,0.4-0.1c0.2,0,0.4,0,0.5,0.1c0.1,0.1,0.3,0.1,0.4,0.2c0.1,0,0.2,0.1,0.2,0.2
		c0,0.1-0.1,0.4-0.4,0.7c-0.2,0.4-0.3,0.6-0.3,0.7c0,0.1,0,0.1-0.1,0.1c-0.1,0-0.1,0-0.1,0v0c0,0.1,0,0.1,0.1,0.1c0,0,0.1,0,0.2-0.1
		c0.1,0,0.2-0.1,0.4-0.2l0.1,0c0.2-0.2,0.3-0.3,0.4-0.3c0.1,0,0.1-0.1,0.2-0.1c0.1-0.1,0.1-0.1,0.3-0.1s0.2,0,0.2,0
		c0-0.1,0.1-0.2,0.4-0.4c0.3-0.1,0.4-0.2,0.5-0.2c0.1,0,0.1,0,0.2,0.1c0,0.1,0.1,0.1,0.1,0.1c0,0,0.1,0,0.1,0.1l0,0.1
		c0,0.1,0,0.1-0.1,0.1c-0.1,0.1-0.1,0.2-0.2,0.2l-0.2,0c0,0-0.1,0.1-0.1,0.1c0,0,0,0,0,0c-0.1,0-0.2,0.1-0.3,0.2
		c-0.1,0.1-0.3,0.2-0.4,0.3l0,0c-0.1,0-0.1,0-0.2,0.1l-0.2,0.1c-0.1,0-0.1,0-0.1,0c0,0,0,0-0.1,0.1c0,0-0.1,0.1-0.3,0.1
		c-0.1,0.1-0.2,0.1-0.3,0.2L53,75.1l-0.2,0c0,0-0.1,0-0.1,0.1l-0.2,0.2c-0.1,0.1-0.2,0.1-0.4,0.1c0,0-0.1,0-0.2-0.1
		c-0.1,0-0.1-0.1-0.2-0.1c-0.1,0-0.2-0.1-0.4-0.2c-0.2-0.1-0.3-0.2-0.3-0.2l0-0.2l0-0.1c0,0,0-0.1,0.1-0.1c0.1-0.1,0.1-0.1,0.1-0.1
		l0-0.2c0,0,0,0,0,0l0.1-0.2c0,0,0-0.1,0-0.1l0-0.2c-0.1,0-0.2,0.1-0.3,0.2c-0.1,0.1-0.2,0.2-0.4,0.2c-0.1,0.1-0.2,0.2-0.3,0.2
		c0,0,0,0-0.1,0.1l-0.1,0.1l-0.2,0l-0.1,0.2c-0.2,0.1-0.3,0.1-0.3,0.2c0,0-0.1,0.1-0.2,0.1l-0.2,0.1l-0.2,0c0,0.1-0.1,0.2-0.3,0.3
		l-0.1,0.1l-0.2,0c-0.1,0.1-0.1,0.2-0.2,0.3c-0.1,0-0.3,0.1-0.5,0.2c-0.2,0.1-0.3,0.2-0.4,0.2c-0.6,0-1.1-0.1-1.5-0.6
		c0,0-0.1,0-0.1-0.1c-0.1,0-0.1-0.1-0.1-0.2c0-0.2,0-0.3,0.1-0.3c0.1-0.1,0.2-0.2,0.3-0.3c0.1-0.2,0.2-0.2,0.2-0.2c0,0,0,0,0-0.1
		c0.1-0.1,0.2-0.1,0.2-0.2c0,0,0,0,0,0c0,0-0.1,0-0.1,0L46,74c-0.1,0-0.1,0-0.1,0.1c0,0-0.1,0.1-0.1,0.1c-0.1,0-0.1,0.1-0.2,0.1l0,0
		c0,0-0.1,0-0.1,0c0,0.1-0.1,0.1-0.1,0.1l-0.1,0c-0.1,0.1-0.2,0.2-0.3,0.2c0,0-0.1,0-0.2,0c-0.1,0-0.2,0-0.2-0.1l0.1-0.2l0-0.1
		c0,0,0,0,0.1-0.1c0,0,0.1,0,0.2-0.1C44.9,73.7,45.1,73.6,45.2,73.6"/>
	<path class="st6" d="M58.8,74.1l0.4-0.1c0.2,0,0.3-0.1,0.3-0.1c0,0,0,0,0.1,0c0.1,0,0.1,0,0.2,0c0.1,0,0.1,0,0.2,0.1
		c0.3-0.1,0.5-0.2,0.6-0.2c0.1,0,0.1-0.1,0.2-0.1c0,0,0,0,0.1,0c0,0,0,0,0-0.1c0,0,0.1-0.1,0.1-0.1c0.1,0,0.2-0.1,0.4-0.3l0.3-0.3
		l0.3-0.3c0.1-0.1,0.2-0.2,0.2-0.3l0.1-0.1c0-0.1,0-0.1,0-0.1c0,0-0.1-0.1-0.2-0.2L62,72.2v0c-0.1,0-0.2,0-0.2,0c0,0-0.1,0-0.1,0.1
		c0,0-0.1,0.1-0.2,0.1c-0.1,0-0.1,0-0.2,0.1c0,0-0.1,0.1-0.2,0.1c-0.1,0-0.2,0-0.3,0.1l-0.1,0l-0.1,0l-0.1,0
		c-0.1,0.1-0.2,0.2-0.3,0.2c-0.1,0-0.1,0.1-0.2,0.2l-0.1,0c-0.1,0-0.1,0.1-0.2,0.1c-0.1,0-0.1,0.1-0.2,0.1l-0.3,0.1
		c-0.1,0.1-0.1,0.1-0.2,0.1l-0.4,0.3c0,0-0.1,0-0.1,0c0,0-0.1,0-0.1,0l0.1,0.1l0,0c-0.2,0.1-0.3,0.2-0.3,0.3l-0.1,0.2c0,0,0,0,0,0
		c0,0,0.1,0,0.1-0.1c0,0,0.1-0.1,0.3-0.1C58.7,74.2,58.8,74.1,58.8,74.1 M54,78.6c0,0,0.2-0.2,0.5-0.5l0.1-0.1
		c0.1-0.1,0.1-0.1,0.2-0.2l0-0.1c0,0,0.1-0.1,0.1-0.1l0.5-0.9c0.1-0.1,0.1-0.2,0.1-0.3c0-0.1,0.1-0.2,0.3-0.5c0,0-0.1,0-0.1,0.1
		c0,0.1-0.1,0.1-0.1,0.1l-0.2,0c0,0-0.1,0.1-0.2,0.2l0,0c-0.1,0-0.2,0.1-0.2,0.1l-0.2,0.2l0,0.1c0,0.1-0.1,0.2-0.4,0.3
		c-0.1,0.1-0.1,0.2-0.1,0.2l-0.1,0l0,0.1c0,0.1,0,0.2-0.1,0.3c-0.1,0.1-0.1,0.1-0.1,0.1l0,0.1l0,0.1C54,78.1,54,78.2,54,78.4
		L54,78.6z M56.3,75l0.1-0.1c0,0,0.1-0.1,0.1-0.1l0.2-0.5c0.1-0.2,0.1-0.3,0.1-0.3l0-0.1l0.1-0.2l0-0.2c0-0.1,0.1-0.3,0.3-0.5l0-0.1
		l0.1-0.1l0,0c0,0,0-0.1-0.1-0.1l-0.1,0c-0.1,0-0.2,0-0.2,0.1L56.9,73c0,0.1-0.1,0.1-0.2,0.1c0,0-0.1,0-0.1,0c-0.1,0-0.1,0-0.1,0
		c0,0.1-0.1,0.1-0.2,0.2c-0.1,0-0.2,0.1-0.3,0.2l-0.1,0c-0.1,0.1-0.2,0.1-0.3,0.2l0,0c-0.1,0.1-0.2,0.1-0.4,0.2
		c-0.2,0-0.4-0.1-0.4-0.3c0-0.1,0.1-0.2,0.3-0.3c0.2-0.1,0.3-0.1,0.4-0.2c0.1-0.1,0.2-0.1,0.4-0.2l0.1-0.1c0.1,0,0.1-0.1,0.1-0.1
		l0.2,0c0,0,0.1,0,0.2,0l0-0.1c0,0,0.1-0.1,0.3-0.1c0,0,0.1-0.1,0.3-0.2c0.1-0.1,0.4-0.3,0.8-0.6c0,0,0.1-0.1,0.2-0.1
		c0.1,0,0.1-0.1,0.2-0.1l0.2,0c0.1,0,0.2,0,0.4,0.1c0.2,0.1,0.3,0.2,0.3,0.4l-0.3,0.8l0,0.1l0,0c0,0,0,0,0,0c0,0,0.1,0,0.2-0.1
		c0-0.1,0.1-0.1,0.2-0.2c0.1,0,0.2-0.1,0.3-0.2c0.1-0.1,0.1-0.1,0.3-0.1c0.1,0,0.2-0.1,0.4-0.2c0.2-0.1,0.3-0.2,0.5-0.2l0.1,0l0-0.1
		c0.1-0.1,0.3-0.1,0.4-0.2l0.2-0.1c0.3-0.1,0.5-0.1,0.7-0.1c0.1,0,0.1,0,0.2-0.1l0.2,0c0,0,0,0,0.1,0c0,0,0,0,0,0
		c0.3,0,0.5,0,0.8,0.1c0.2,0.1,0.3,0.3,0.3,0.4c0,0,0,0,0,0.1c0,0,0,0.1,0,0.1l0.1,0.1l0,0l-0.2,0.4c0,0-0.1,0.2-0.1,0.4
		c-0.1,0.1-0.3,0.3-0.4,0.4c-0.2,0.1-0.3,0.2-0.3,0.3c0,0,0.1,0,0.1,0c0.1,0,0.2,0,0.3-0.1l0.5-0.2l0.1,0c0.1,0,0.2-0.1,0.3-0.2
		C64,73,64.1,73,64.2,73c0,0,0.1-0.1,0.2-0.1l0.1-0.1c0,0,0.1,0,0.1-0.1c0.1,0,0.1-0.1,0.2-0.1c0.1,0,0.1-0.1,0.2-0.1
		c0.1-0.1,0.1-0.1,0.2-0.1c0.1,0,0.1,0,0.1-0.1c0.2-0.2,0.4-0.2,0.5-0.3l0.1,0c0,0,0,0,0,0c0.1,0,0.1,0,0.2,0.1l-0.1,0.1l0,0.1
		l0,0.1c0,0,0,0.1-0.1,0.2c-0.1,0.1-0.2,0.1-0.3,0.1c-0.1,0-0.2,0.1-0.2,0.1c0,0-0.1,0.1-0.3,0.2c-0.2,0.1-0.3,0.2-0.3,0.2
		c0,0.1-0.1,0.1-0.2,0.1l-0.2,0c-0.2,0.1-0.3,0.2-0.3,0.2l-0.1,0l0,0L64,73.7c-0.1,0-0.1,0-0.2,0l-0.1,0c-0.4,0.3-0.7,0.4-0.8,0.4
		l-0.2,0c0,0,0,0-0.1,0.1c0,0-0.1,0.1-0.1,0.1c0,0-0.1,0.1-0.1,0.1l-0.2,0c-0.1,0-0.2,0-0.3,0.1c0,0,0,0,0,0l-0.2,0l0,0
		c-0.1,0-0.2,0-0.3,0.1L61,74.8c0,0,0,0,0,0l-0.2,0c0,0-0.1,0-0.2,0.1l-0.1,0c0,0-0.1,0-0.2,0.1L60,75.1c0,0-0.1,0-0.1,0l-0.2,0
		l-0.2,0c0,0-0.1,0-0.2,0.1c0,0,0,0,0,0c0,0,0,0-0.1,0l-0.1,0l-0.2,0.1c-0.1,0-0.2,0-0.3-0.1c-0.1-0.1-0.2-0.1-0.3-0.2l-0.1-0.1
		c-0.1,0-0.2,0-0.2-0.1l-0.1,0c0,0,0,0-0.1,0.1c0,0-0.1,0.1-0.1,0.1c0,0.1,0,0.1-0.1,0.2c-0.1,0.1-0.1,0.3-0.3,0.5l-0.1,0.1
		c0,0,0,0,0,0.1c0,0,0,0.1-0.2,0.2c0,0.1-0.1,0.2-0.2,0.3l0,0.1l0,0.1c0,0-0.1,0.1-0.2,0.3l0,0.1c0,0-0.1,0.1-0.2,0.3
		c-0.1,0.2-0.2,0.3-0.3,0.4L56,78l-0.1,0.1l-0.1,0.1c0,0,0,0-0.1,0.1l0,0.1l-0.1,0c0,0.1,0,0.2-0.2,0.3c0,0,0,0-0.1,0.1
		c-0.1,0-0.1,0.1-0.2,0.2c-0.1,0.1-0.2,0.2-0.4,0.2l-0.4,0.2c-0.3,0-0.6-0.1-0.7-0.3c0,0-0.1-0.1-0.2-0.2c-0.1-0.1-0.2-0.3-0.2-0.5
		l0.1-0.3c0-0.2,0.1-0.4,0.2-0.4l0.1-0.2c0,0,0-0.1,0.1-0.1c0,0,0.1-0.1,0.1-0.1c0-0.1,0.1-0.1,0.3-0.2c0.1-0.1,0.2-0.3,0.3-0.4
		l0.1-0.2c0,0,0.1-0.1,0.2-0.2c0.1-0.1,0.1-0.2,0.2-0.3C55,76.1,55,76,55.1,76c0,0,0.1-0.1,0.1-0.2c0-0.1,0.1-0.1,0.2-0.2
		c0.1,0,0.1-0.1,0.2-0.1l0.1-0.1c0.1,0,0.1-0.1,0.2-0.2c0.1-0.1,0.1-0.1,0.2-0.2C56.1,75.1,56.2,75,56.3,75"/>
</g>
<g>
	<defs>
		<rect id="SVGID_5_" width="90.9" height="65"/>
	</defs>
	<clipPath id="SVGID_6_">
		<use xlink:href="#SVGID_5_"  style="overflow:visible;"/>
	</clipPath>
	<path class="st7" d="M68.6,73.4l0.4-0.1c0.2,0,0.3-0.1,0.3-0.1c0,0,0,0,0.1,0c0.1,0,0.1,0,0.2,0c0.1,0,0.1,0,0.2,0.1
		c0.3-0.1,0.5-0.2,0.6-0.2c0.1,0,0.1-0.1,0.2-0.1c0,0,0,0,0.1,0c0,0,0,0,0-0.1c0,0,0.1-0.1,0.1-0.1c0.1,0,0.2-0.1,0.4-0.3l0.3-0.3
		l0.3-0.3c0.1-0.1,0.2-0.2,0.2-0.3l0.1-0.1c0-0.1,0-0.1,0-0.1c0,0-0.1-0.1-0.2-0.2l-0.3,0.1l0,0c-0.1,0-0.2,0-0.2,0
		c0,0-0.1,0-0.1,0.1c0,0-0.1,0.1-0.1,0.1c-0.1,0-0.1,0-0.2,0.1c0,0-0.1,0.1-0.2,0.1c-0.1,0-0.2,0-0.3,0.1l-0.1,0l-0.1,0l-0.1,0
		C70.1,71.9,70,72,70,72c-0.1,0-0.1,0.1-0.2,0.2l-0.1,0c-0.1,0-0.1,0.1-0.1,0.1c-0.1,0-0.1,0.1-0.2,0.1L69,72.6
		c-0.1,0.1-0.1,0.1-0.2,0.1l-0.4,0.3c0,0-0.1,0-0.1,0c0,0-0.1,0-0.1,0l0.1,0.1l0,0c-0.2,0.1-0.3,0.2-0.3,0.3l-0.1,0.2c0,0,0,0,0,0
		c0,0,0.1,0,0.1-0.1c0,0,0.1-0.1,0.3-0.1C68.4,73.5,68.5,73.4,68.6,73.4 M63.8,77.9c0,0,0.2-0.2,0.5-0.5l0.1-0.1
		c0.1-0.1,0.1-0.1,0.2-0.2l0,0c0,0,0.1-0.1,0.1-0.1l0.5-0.9c0.1-0.1,0.1-0.2,0.1-0.3c0-0.1,0.1-0.2,0.3-0.5c0,0-0.1,0-0.1,0.1
		c0,0.1-0.1,0.1-0.1,0.1l-0.2,0c0,0-0.1,0.1-0.2,0.2l0,0c-0.1,0-0.2,0.1-0.2,0.1L64.6,76l0,0.1c0,0.1-0.1,0.2-0.4,0.3
		c-0.1,0.1-0.1,0.2-0.1,0.2l-0.1,0l0.1,0.1c0,0.1,0,0.2-0.1,0.3C63.9,77,63.8,77,63.8,77l0,0.1l0,0.1c-0.1,0.1-0.1,0.3-0.1,0.4
		L63.8,77.9z M66,74.3l0.1-0.1c0,0,0.1-0.1,0.1-0.1l0.2-0.5c0.1-0.2,0.1-0.3,0.1-0.3l0-0.1l0.1-0.2l0-0.2c0-0.1,0.1-0.3,0.3-0.5
		l0-0.1l0.1-0.1l0,0c0,0,0-0.1-0.1-0.1l-0.1,0c-0.1,0-0.2,0-0.2,0.1l-0.1,0.2c0,0.1-0.1,0.1-0.2,0.1c0,0-0.1,0-0.1,0
		c-0.1,0-0.1,0-0.1,0c0,0.1-0.1,0.1-0.2,0.2c-0.1,0-0.2,0.1-0.3,0.2l-0.1,0c-0.1,0.1-0.2,0.1-0.3,0.2l0,0c-0.1,0.1-0.2,0.2-0.4,0.2
		c-0.2,0-0.4-0.1-0.4-0.3c0-0.1,0.1-0.2,0.3-0.3c0.2-0.1,0.3-0.1,0.4-0.2c0.1-0.1,0.2-0.1,0.4-0.2l0.1-0.1c0.1,0,0.1-0.1,0.1-0.1
		l0.2,0c0,0,0.1,0,0.2,0l0-0.1c0,0,0.1-0.1,0.3-0.1c0,0,0.1-0.1,0.3-0.2c0.1-0.1,0.4-0.3,0.8-0.6c0,0,0.1-0.1,0.2-0.1
		c0.1,0,0.1-0.1,0.2-0.1l0.2,0c0.1,0,0.2,0,0.4,0.1c0.2,0.1,0.3,0.2,0.3,0.4l-0.3,0.8l0,0.1l0,0.1c0,0,0,0,0,0c0,0,0.1,0,0.2-0.1
		c0-0.1,0.1-0.1,0.2-0.2c0.1,0,0.2-0.1,0.3-0.2c0.1,0,0.1-0.1,0.3-0.1c0.1,0,0.2-0.1,0.4-0.2c0.2-0.1,0.3-0.2,0.5-0.2l0.1,0l0-0.1
		c0.1-0.1,0.3-0.1,0.4-0.2l0.2-0.1c0.3-0.1,0.5-0.1,0.7-0.1c0.1,0,0.1,0,0.2-0.1l0.2,0c0,0,0,0,0.1,0c0,0,0,0,0,0
		c0.3,0,0.5,0,0.8,0.1c0.2,0.1,0.3,0.3,0.3,0.4c0,0,0,0,0,0.1c0,0,0,0.1,0,0.1l0.1,0.1l0,0l-0.2,0.4c0,0-0.1,0.2-0.1,0.4
		c-0.1,0.1-0.3,0.3-0.4,0.4c-0.2,0.1-0.3,0.2-0.3,0.3c0,0,0.1,0,0.1,0c0.1,0,0.2,0,0.3-0.1l0.5-0.2l0.1,0c0.1,0,0.2-0.1,0.3-0.2
		c0.1-0.1,0.2-0.1,0.3-0.1c0,0,0.1-0.1,0.2-0.1l0.1-0.1c0,0,0.1,0,0.1-0.1c0.1,0,0.1-0.1,0.2-0.1c0.1,0,0.1-0.1,0.2-0.1
		s0.1-0.1,0.2-0.1c0.1,0,0.1,0,0.1-0.1c0.2-0.2,0.4-0.2,0.5-0.3l0.1,0c0,0,0,0,0,0c0.1,0,0.1,0,0.2,0.1l-0.1,0.1l0,0.1l0,0.1
		c0,0,0,0.1-0.1,0.2C75.7,72,75.6,72,75.5,72c-0.1,0-0.2,0.1-0.2,0.1c0,0-0.1,0.1-0.3,0.2c-0.2,0.1-0.3,0.2-0.3,0.2
		c0,0.1-0.1,0.1-0.2,0.1l-0.2,0c-0.2,0.1-0.3,0.2-0.3,0.2l-0.1,0l0,0L73.7,73c-0.1,0-0.1,0-0.2,0l-0.1,0c-0.4,0.3-0.7,0.4-0.8,0.4
		l-0.2,0c0,0,0,0-0.1,0.1c0,0-0.1,0.1-0.1,0.1c0,0-0.1,0.1-0.1,0.1l-0.2,0c-0.1,0-0.2,0-0.3,0.1c0,0,0,0,0,0l-0.2,0l0,0
		c-0.1,0-0.2,0-0.3,0.1l-0.3,0.1c0,0,0,0,0,0l-0.2,0c0,0-0.1,0-0.2,0.1l-0.1,0c0,0-0.1,0-0.2,0.1l-0.3,0.1c0,0-0.1,0-0.1,0l-0.2,0
		l-0.2,0c0,0-0.1,0-0.2,0.1c0,0,0,0,0,0c0,0-0.1,0-0.1,0l-0.1,0l-0.2,0.1c-0.1,0-0.2,0-0.3-0.1c-0.1-0.1-0.2-0.1-0.3-0.2l-0.1-0.1
		c-0.1,0-0.2,0-0.2-0.1l-0.1,0c0,0,0,0-0.1,0.1c-0.1,0-0.1,0.1-0.1,0.1c0,0.1,0,0.1-0.1,0.2c-0.1,0.1-0.1,0.3-0.3,0.5l-0.1,0.1
		c0,0,0,0,0,0.1c0,0,0,0.1-0.2,0.2c0,0.1-0.1,0.2-0.2,0.3l0,0.1l0,0.1c0,0-0.1,0.1-0.2,0.3l0,0.1c0,0-0.1,0.1-0.2,0.3
		c-0.1,0.2-0.2,0.3-0.3,0.4l-0.1,0.2l-0.1,0.1l-0.1,0.1c0,0,0,0-0.1,0.1l0,0.1l-0.1,0c0,0.1,0,0.2-0.2,0.3c0,0,0,0-0.1,0.1
		c-0.1,0-0.1,0.1-0.2,0.2c-0.1,0.1-0.2,0.2-0.4,0.2l-0.4,0.2c-0.3,0-0.6-0.1-0.7-0.3c0,0-0.1-0.1-0.2-0.2c-0.1-0.1-0.2-0.3-0.2-0.5
		l0.1-0.3c0-0.2,0.1-0.4,0.2-0.4l0.1-0.2c0,0,0-0.1,0.1-0.1c0,0,0.1-0.1,0.1-0.1c0-0.1,0.1-0.1,0.3-0.2c0.1-0.1,0.2-0.3,0.3-0.4
		l0.1-0.2c0,0,0.1-0.1,0.2-0.2c0.1-0.1,0.1-0.2,0.2-0.3c0.1-0.1,0.2-0.1,0.2-0.2c0,0,0.1-0.1,0.1-0.2c0-0.1,0.1-0.1,0.2-0.2
		c0.1,0,0.1-0.1,0.2-0.1l0.1-0.1c0.1,0,0.1-0.1,0.2-0.2c0.1-0.1,0.1-0.1,0.2-0.2C65.8,74.4,65.9,74.3,66,74.3"/>
</g>
<g>
	<defs>
		<rect id="SVGID_7_" width="90.9" height="65"/>
	</defs>
	<clipPath id="SVGID_8_">
		<use xlink:href="#SVGID_7_"  style="overflow:visible;"/>
	</clipPath>
	<path class="st8" d="M77.7,70.8l0.2-0.1c0-0.1,0.1-0.2,0.3-0.3c0.1-0.1,0.3-0.2,0.3-0.2l0.1,0c0,0,0-0.1,0-0.1c0,0,0-0.1,0-0.1
		c0,0,0.1-0.1,0.3-0.2l0.1-0.1c0.1-0.1,0.2-0.2,0.5-0.3c0.1-0.1,0.2-0.2,0.2-0.2l0.1,0c0-0.1,0.1-0.1,0.2-0.2l0,0l0-0.1
		c0,0,0,0,0.1-0.1c0.1-0.1,0.2-0.1,0.2-0.2c0-0.1,0.1-0.1,0.2-0.1c0.1,0,0.1-0.1,0.1-0.2l0.2,0c0-0.1,0-0.1,0-0.1l0-0.1
		c0-0.1,0.1-0.2,0.3-0.4l0.2-0.2c0,0,0-0.1,0.1-0.1c0.1,0,0.1-0.1,0.1-0.2l0.1-0.2c0-0.1,0-0.1-0.1-0.1c-0.1,0-0.1,0.1-0.2,0.1
		c-0.1,0-0.1,0.1-0.2,0.2c-0.2,0-0.3,0.1-0.4,0.2c0,0.1-0.1,0.2-0.2,0.2l-0.1,0.1c0,0-0.1,0.1-0.2,0.2c-0.1,0.1-0.2,0.1-0.3,0.3
		c-0.3,0.3-0.5,0.5-0.6,0.5l-0.1,0.1l-0.2,0c0,0.1,0.1,0.1,0.1,0.1c0,0,0,0-0.1,0.1s-0.1,0.1-0.1,0.1c0,0-0.1,0.1-0.1,0.1
		c-0.1,0-0.1,0.1-0.2,0.2c0,0.1-0.1,0.2-0.1,0.2l-0.1,0c-0.1,0-0.1,0.1-0.1,0.1l0,0.1c0,0,0,0-0.1,0.1c0,0-0.1,0.1-0.1,0.1
		c0,0.1-0.1,0.2-0.2,0.3c-0.1,0.1-0.2,0.3-0.3,0.4c-0.1,0.2-0.1,0.3-0.2,0.3c0,0,0,0,0.1,0C77.5,70.9,77.6,70.9,77.7,70.8
		 M75.6,72.5L75.6,72.5c0-0.1,0-0.1,0-0.2c0-0.1-0.1-0.1-0.1-0.2c0,0,0-0.1,0.1-0.2l0.1-0.2c0-0.1,0.1-0.1,0.1-0.1
		c0-0.1-0.1-0.1-0.1-0.1c0-0.1,0-0.2,0.1-0.2c0.1-0.1,0.2-0.2,0.2-0.3l0.2-0.4l0.3-0.5c0,0,0,0,0.1-0.1c0.1-0.1,0.1-0.1,0.1-0.1
		c0,0,0.1-0.1,0.2-0.2l0.1,0c0,0,0,0,0-0.1c0,0,0,0,0-0.1l0.3-0.4l0.2-0.3c0.1-0.1,0.1-0.1,0.2-0.2c0.1-0.2,0.3-0.3,0.4-0.3
		c0-0.1,0.1-0.2,0.2-0.3l0.2,0c0-0.1,0.1-0.1,0.1-0.1l0-0.1c0,0,0,0,0.1,0c0,0,0.1-0.1,0.1-0.2l0.3-0.2l0.1-0.1c0,0,0.1-0.1,0.2-0.2
		c0.1,0,0.2-0.1,0.3-0.2l0.2-0.1c0,0,0.1-0.1,0.2-0.3c0.1,0,0.2-0.1,0.3-0.1l0.1,0c0-0.1,0.1-0.2,0.2-0.3L81,66
		c0.1,0,0.2-0.1,0.2-0.1l0.1,0c0.1,0,0.2,0,0.3,0c0.3,0,0.5,0,0.7,0.1c0.2,0.1,0.3,0.2,0.3,0.4c0,0.1,0,0.1-0.1,0.2l0,0.1
		c-0.1,0.2-0.1,0.3-0.2,0.4c0,0-0.1,0-0.1,0c0,0.1,0,0.2,0,0.2c-0.1,0-0.2,0.1-0.2,0.3c0,0-0.1,0.1-0.1,0.1
		c-0.1,0.1-0.1,0.2-0.2,0.3c0,0.1-0.1,0.2-0.1,0.2l-0.1,0l0,0.1c0,0.1,0,0.1-0.1,0.2c-0.1,0.1-0.1,0.1-0.2,0.2
		c0,0.1-0.1,0.1-0.2,0.2l-0.1,0.1c0,0-0.1,0.1-0.2,0.1c-0.1,0.1-0.1,0.1-0.2,0.2l-0.3,0.3c-0.2,0.2-0.3,0.3-0.4,0.3
		c-0.1,0.2-0.1,0.3-0.1,0.3c0,0-0.1,0.1-0.1,0.1c-0.1,0-0.1,0.1-0.2,0.1c0,0.1-0.1,0.1-0.1,0.1L79,70.8c-0.1,0-0.2,0.1-0.2,0.2
		c-0.1,0-0.2,0.1-0.2,0.2c0,0-0.1,0.1-0.1,0.1l-0.4,0.2c-0.2,0.1-0.3,0.2-0.3,0.3c0,0.1-0.1,0.2-0.3,0.2c-0.1,0-0.3,0-0.5-0.1l0,0
		c0,0.1-0.1,0.1-0.1,0.2l0.1,0.2c0,0,0,0.2-0.1,0.4c0.1,0.1,0.1,0.1,0.1,0.1l0,0.1l0.1,0.2c0,0.1,0.1,0.2,0.3,0.2l0.3,0
		c0,0,0.1,0,0.3-0.1l0.4-0.1c0,0,0,0,0,0c0.1,0,0.1,0,0.2,0c0.1,0,0.1,0,0.1-0.1l0-0.1c0,0,0.1-0.1,0.1-0.1c0.1,0,0.1,0,0.2-0.1
		s0.1,0,0.1-0.1l0.1,0c0.1,0,0.2-0.1,0.1-0.2c0,0,0.1,0,0.1-0.1l0.1,0c0.1,0,0.1,0,0.2-0.1c0.1-0.1,0.1-0.1,0.1-0.2
		c0.1,0,0.2,0,0.3-0.1c0.2-0.3,0.4-0.4,0.5-0.4l0.1,0c0.1-0.1,0.2-0.1,0.2-0.2c0-0.1,0-0.1,0.1-0.1c0.1,0,0.1,0,0.2-0.1
		c0,0,0.1,0,0.1,0c0.1,0,0.2,0,0.2,0.1l0,0.2l0.1,0.2c0,0,0,0.1-0.1,0.1C81,71.7,81,71.8,81,71.8c0,0.1,0,0.2-0.1,0.2
		c-0.1,0-0.1,0-0.2,0.1c0,0.1-0.1,0.1-0.2,0.1c-0.1,0-0.2,0.1-0.2,0.2l-0.2,0l-0.1,0c-0.1,0.1-0.2,0.2-0.3,0.3
		c-0.1,0-0.2,0.1-0.3,0.3c0,0,0,0,0,0h-0.2c-0.1,0.1-0.1,0.1-0.2,0.1c-0.1,0-0.1,0-0.2,0.1c0,0-0.1,0.1-0.2,0.1
		c-0.1,0-0.2,0.1-0.2,0.1c0,0-0.1,0.1-0.1,0.1c-0.1,0-0.1,0-0.2,0.1c0,0-0.1,0-0.1,0c0,0-0.1,0-0.1,0l0,0c-0.1,0.1-0.2,0.1-0.3,0.1
		c-0.1,0-0.2,0-0.2,0c0,0-0.1,0-0.2,0c-0.1,0-0.2,0-0.3,0c-0.1,0-0.2,0-0.2,0c-0.1,0-0.3,0-0.5-0.2s-0.3-0.3-0.3-0.4
		c0,0,0,0-0.1-0.1c-0.1-0.1-0.1-0.1-0.1-0.2l0-0.1l0-0.1l0-0.1l0,0c0.1,0,0.2,0,0.2,0L75.6,72.5z"/>
	<path class="st8" d="M83.6,76.7L83.6,76.7c0.1-0.1,0.1-0.2,0.2-0.2c0.1-0.2,0.1-0.3,0.3-0.4c0-0.1,0-0.1,0-0.2l0.1-0.1l0.4-0.4
		c0-0.1,0.1-0.1,0.1-0.2c0-0.1,0.1-0.1,0.1-0.2c0-0.1,0.1-0.2,0.3-0.4l0,0c0-0.1,0-0.1-0.1-0.1c0,0-0.1,0.1-0.2,0.1l-0.7,0.4
		c0,0-0.1,0.1-0.3,0.2l-0.2,0.1c-0.1,0.1-0.2,0.1-0.3,0.1c-0.1,0-0.1,0.1-0.2,0.2c-0.1,0.1-0.2,0.2-0.2,0.2l0,0c0,0,0,0-0.1,0
		c0,0-0.1,0-0.1,0.1l0.1,0.1c0,0,0,0-0.1,0.1s-0.1,0.1-0.1,0.1c0,0-0.1,0.1-0.1,0.1c0,0-0.1,0.1-0.2,0.2l-0.2,0.1
		c0,0.2-0.1,0.4-0.4,0.6c-0.1,0.1-0.1,0.1-0.1,0.2c0,0.1-0.1,0.1-0.1,0.1c0,0.2-0.1,0.2-0.2,0.3c0,0,0,0,0,0c0,0,0,0,0.1,0.1l0,0
		c-0.1,0.2-0.1,0.3-0.1,0.4c0,0,0,0,0,0l0.3-0.1c0.2-0.1,0.4-0.2,0.4-0.3l0.2-0.2c0,0,0.1,0,0.1-0.1c0-0.1,0.1-0.1,0.2-0.2
		s0.1-0.1,0.1-0.1c0,0,0.1-0.2,0.4-0.5C83.5,76.8,83.6,76.7,83.6,76.7 M88.3,71.6L88.3,71.6l0,0.1l0,0c0,0,0,0.1,0,0.1
		c-0.1,0.1-0.2,0.2-0.2,0.3L88,72.3c0,0.1,0,0.1-0.1,0.1c-0.1,0-0.1,0.1-0.2,0.2c0,0.1-0.1,0.2-0.2,0.3l-0.2,0.4c0,0,0,0,0,0
		c0,0,0,0,0.1,0c0,0,0.1,0,0.1,0c0,0,0.1,0,0.1,0c0,0,0,0,0.1,0c0,0,0.1,0,0.2-0.1c0.1,0,0.2-0.1,0.3-0.1l0.4-0.1
		c0.1,0,0.3,0,0.5-0.1l0.3,0c0.3,0,0.5,0,0.8,0.1c0.3,0.1,0.4,0.1,0.5,0.2c0.1,0.1,0.1,0.2,0.1,0.4c0,0.2-0.1,0.2-0.3,0.2
		c-0.1,0-0.2,0-0.4-0.1c-0.2-0.1-0.3-0.2-0.4-0.3c-0.1-0.1-0.2-0.2-0.3-0.2l-0.3,0l-0.1,0l0,0c0,0-0.1,0-0.2,0l0,0l-0.3,0.1l-0.4,0
		l-0.2,0.1c-0.1,0-0.2,0-0.3,0.1c-0.1,0-0.2,0-0.3,0.1c-0.1,0-0.1,0.1-0.1,0.1c0,0.1-0.1,0.2-0.3,0.3c-0.1,0.1-0.1,0.1-0.1,0.2
		c0,0,0,0.1-0.1,0.1c-0.1,0.1-0.1,0.1-0.2,0.2l-0.1,0.1c0,0,0,0,0,0.1c0,0,0,0,0,0l0,0.1c0,0.1-0.1,0.2-0.3,0.3l0,0.1
		c0,0-0.1,0.1-0.2,0.2l0.1,0.1c0,0,0,0.1-0.1,0.1c-0.1,0.1-0.1,0.1-0.2,0.2c0,0.1-0.1,0.1-0.3,0.2l0,0l0.1,0.1c0,0,0,0,0,0
		c0,0-0.1,0.1-0.2,0.1c0,0.1-0.1,0.1-0.1,0.2L84.7,77c-0.1,0.1-0.1,0.1-0.1,0.1l-0.1,0.1c-0.1,0-0.1,0.1-0.2,0.1
		c0,0-0.1,0.1-0.3,0.3c-0.1,0.1-0.2,0.2-0.3,0.2c0,0,0.1,0.1,0.1,0.1c0,0,0,0.1-0.2,0.2c-0.2,0-0.3,0-0.3,0.1l0.1,0.1
		c0,0,0,0-0.1,0.1c-0.1,0-0.1,0.1-0.2,0.1l-0.1,0l0,0.1c0,0-0.1,0.1-0.1,0.1c-0.1,0-0.1,0.1-0.3,0.2c-0.1,0.1-0.2,0.1-0.3,0.2
		L82.3,79l-0.4,0.1c-0.1,0-0.3-0.1-0.7-0.2c-0.3-0.1-0.5-0.2-0.6-0.3c-0.1-0.1-0.1-0.2-0.1-0.4c0,0,0-0.1,0.1-0.1l0,0l0-0.1
		c0,0,0-0.1,0.1-0.2c0.1-0.1,0.1-0.2,0.2-0.2c0,0,0.1-0.1,0.2-0.3c0.1-0.2,0.2-0.3,0.2-0.3l0.9-0.9c0-0.1,0-0.1,0-0.1l0.1,0
		c0.1,0,0.1,0,0.1,0c0,0,0.1-0.1,0.1-0.1c0-0.1,0.1-0.1,0.2-0.2c0.1-0.1,0.2-0.1,0.3-0.2c0-0.1,0.1-0.1,0.2-0.2l0,0
		c0,0,0.1,0,0.2-0.1c0.1,0,0.1-0.1,0.2-0.1l0.3-0.2c0,0,0.1,0,0.2-0.1c0.1,0,0.2-0.1,0.2-0.2l0.1,0l0.1,0l0,0
		c0.1-0.1,0.2-0.2,0.2-0.2c0.1,0,0.1,0,0.2-0.1c0-0.1,0.1-0.2,0.4-0.2c0.1,0,0.1,0,0.1,0l0.2-0.1c0,0,0.1-0.1,0.2-0.3l0,0l0.2,0l0,0
		L86,73.5c0,0,0.1-0.1,0.1-0.2c0.1-0.1,0.1-0.2,0.2-0.2c0.1,0,0.1,0,0.1-0.1l0-0.1l0-0.1l0-0.1l0-0.1l0,0c0,0,0.1-0.1,0.1-0.2
		c0,0,0.1,0,0.1-0.1l0.4-0.8c0,0,0-0.1,0.1-0.2l0.1-0.1c0.1-0.1,0.1-0.2,0.1-0.3c0,0,0,0,0,0c0,0-0.1,0-0.2,0.1
		c-0.1,0.1-0.2,0.1-0.2,0.1l-0.2,0l0,0c0,0-0.1,0-0.2,0.1c-0.1,0-0.1,0.1-0.1,0.1l-0.1,0c-0.1,0.1-0.1,0.1-0.2,0.1l-0.3,0.1l0,0
		l-0.2-0.1c0,0,0,0-0.1,0c0,0-0.1,0.1-0.1,0.2l-0.3,0.1c-0.1,0-0.1,0-0.1,0c-0.1,0-0.1,0-0.2,0.1c-0.1,0.1-0.1,0.1-0.2,0.1
		c-0.1,0-0.2,0.1-0.4,0.1l-0.6,0.3c-0.1,0-0.1,0-0.1,0.1c-0.1,0-0.3,0.1-0.4,0.2l-0.3,0c-0.1,0-0.1,0-0.2,0.1
		C82.4,73,82.3,73,82.3,73l-0.1,0l-0.1,0l-0.3,0.1c-0.1,0-0.3,0-0.5-0.1c-0.2-0.1-0.3-0.1-0.3-0.2l-0.1-0.3c0,0,0,0,0.1-0.1
		s0.1-0.1,0.1-0.1c0,0,0,0,0,0l0,0c0-0.1,0.1-0.3,0.2-0.5l0,0c0,0,0,0-0.1,0c-0.1,0-0.2,0.1-0.2,0.1c-0.1,0.1-0.1,0.2-0.2,0.2
		c-0.1,0-0.1,0.1-0.2,0.1c0,0-0.1,0-0.1,0c0,0-0.1,0-0.1,0c0,0,0,0-0.1-0.1c0,0-0.1-0.1-0.2-0.1c-0.1,0-0.1-0.1-0.1-0.1
		c0,0,0.1-0.1,0.3-0.2l0.1-0.1c0.3-0.2,0.5-0.3,0.6-0.3l0.1-0.1c0.1-0.1,0.2-0.1,0.4-0.2c0.1-0.1,0.3-0.2,0.4-0.2l0.6-0.3
		c0.2-0.1,0.4-0.2,0.7-0.2c0.2,0,0.3,0.1,0.4,0.2s0,0.3-0.1,0.4c-0.1,0.1-0.2,0.2-0.2,0.3c0,0.1-0.1,0.2-0.3,0.3
		c-0.2,0.1-0.2,0.2-0.3,0.3c0,0.1-0.1,0.1-0.2,0.3c-0.1,0.1-0.1,0.2-0.1,0.3c0,0,0,0.1,0.1,0.1c0.1,0,0.3-0.1,0.4-0.1l0.1,0
		c0.1,0,0.1,0,0.2-0.1l0.3-0.1c0-0.1,0.1-0.1,0.2-0.1l0.2-0.1c0.1,0,0.2-0.1,0.4-0.1c0.1,0,0.2-0.1,0.3-0.1c0,0,0.1-0.1,0.2-0.1
		c0.1,0,0.1-0.1,0.2-0.1c0.2,0,0.4-0.1,0.7-0.3c0.3-0.1,0.6-0.3,0.9-0.4c0.3-0.1,0.5-0.2,0.5-0.3c0,0,0.1,0,0.2-0.1
		c0.1,0,0.2-0.1,0.4-0.2c0.1-0.1,0.3-0.1,0.5-0.1c0.2,0,0.4,0,0.5,0.1c0.2,0.1,0.3,0.1,0.3,0.2l0,0.3c0,0.2-0.1,0.4-0.2,0.5
		c0,0.2-0.1,0.3-0.1,0.3l0,0.1C88.5,71.5,88.4,71.6,88.3,71.6"/>
</g>
</svg>
