<svg id="Layer_1" xmlns="http://www.w3.org/2000/svg" xmlns:xlink="http://www.w3.org/1999/xlink" viewBox="0 0 362.5 190.5"><style>.st0{fill:#FFFFFF;} .st1{fill:#414042;} .st2{fill:#F47735;} .st3{fill:#C41230;} .st4{font-family:&apos;PlaneCrash&apos;;} .st5{font-size:46.6661px;} .st6{clip-path:url(#SVGID_2_);fill:#414042;} .st7{clip-path:url(#SVGID_4_);fill:#414042;} .st8{clip-path:url(#SVGID_4_);fill:#58595B;} .st9{clip-path:url(#SVGID_4_);} .st10{clip-path:url(#SVGID_4_);fill:none;stroke:#FFFFFF;stroke-width:2;}</style><path class="st0" d="M114.73 183.27l1.676-47.97 178.393 6.23-1.676 47.97zM181.1 98.2h-13.7V65.1l13.7 15.8zM198.6 98.2h-13.7V81.6l13.7-1.2zM216.2 98.2h-13.7V71.9l13.7 3.5zM233.7 98.2H220V82.3l13.7-5.5z"/><path class="st0" d="M144.674 98.106l107.988-9.45 3.87 44.233-107.988 9.447z"/><path class="st0" d="M12.346 102.378L150.89 82.904l6.68 47.534L19.03 149.912z"/><path class="st1" d="M68.482 124.672l237.552-4.146 1.065 60.988-237.553 4.146z"/><path class="st2" d="M10.572 98.034l135.782-11.88 4.184 47.817-135.782 11.88z"/><path class="st3" d="M69.487 127.898l231.276-12.12 3.14 59.917-231.277 12.12z"/><path class="st0" d="M86.1 136.4l14.9-.8.6.1.6-.2.2.2.2-.2h.1c2.5-.1 5.3.5 8.6 1.9 1.5.5 3.3 1.9 5.3 4.1l.8 1-.6.5v.3l.5.4v.2c.3 0 .4-.2.4-.6h.3l1 2.1-.1.2v.2h.1c-.1.5-.4.8-.7.8v.3l.1-.2h.6l.3.3v.2l-.3.5h.3l-.2.2.2.1v.3h-.3l-.5-.8.2-.2-.2-.1h-.2v.3h-.5v-.3c-.4.1-.6.2-.6.5h-.3v-.3l-.5.3h-.3c0-.3-.1-.5-.3-.4v.1h.2l-.2.2v.2l.2.6.2-.2h.2l.7.9v.1l-.2-.1h-.3v.1c.6.1 1 .3 1 .7h.2v-.5l-.4-.9h.3v.5l.1-.2h.2v.5l-.2.2v.2l.5-.5h.1l.5.1v-.6h.3l1 1v-.3l-.4-.9v-.1h.5l.4 1.7v.2h-.2v-.3h-.5l.2.2v.3h-.3l-.8-.3v-.2l.2-.2v-.1l-.2-.1h-.1l-.2.2v.1l.2.2h-.2l-.5-.1v.8h-.2c0-.3-.1-.5-.3-.4h-.3v.5h.5v.2l-.4.2-.6-.4-.2.2-.6-.6h-.2c2.2 3.1 3.4 4.6 3.6 4.6l-.2.1c.3.6.5.9.7.9l-.2-.2v-.2c0-.2.2-.3.6-.5l.2.2v-.3l.5.3v-.3l-.7-.9.1-.5-.5-.5v-.1h.5l.6.6v.5l-.2.2.2.1v.8c.5 9.7-2.8 16.4-10 20.3l-1.2.4-.2-.1v-.3h.2l.1.2h.2c0-.2-.4-.6-1.3-1.2h-.3v.2c.4 0 .8.2.9.6l-.1.6.3.3c-2 .6-3.4 1-4.3 1l-2 .1c0-.3-.3-.5-.8-.6v.2l.3.3v.2l-3.8.2c-.3 0-.5-.4-.5-1.2l-.5-.1v.2l.3.3-.4.6-.2-.4h-.2v.5l.2.2v.2h-.5l-.8-.7h-.2v.2c.3 0 .5.2.5.6l-1.8.1-.9-.3v.2l.1.2-1.1.1c-.7-.4-2.5-2-5.5-4.8l-.1.2-.8-1.3h.2l-.2-.2v-.3c.7.4 1.2.9 1.5 1.5l.5.1v-.2c0-.3-.2-.4-.5-.4v-.9h.3l-.2.2v.2l1.1.1-.2-.8-.2.2h-.3c0-.3-.1-.5-.3-.5-.2 0-.3.2-.3.6-.3 0-.5.1-.5.3-.4 0-.6-.4-.8-1.2h-.3v-.8l.1-.6-.2-.4h.3c0 .2.2.3.5.3l.2.2v.3h-.3l-.2-.2h-.1v.2l.8.3v.3l-.1.1v.2l.8.3h.2c0-.4.1-.6.3-.6 0 .5.2.7.7.7v-.1l-.4-.6h.3v-.2h-.3v-.2l.3-.5h-.3c0 .3-.1.5-.4.5l-.2-.2v-.3h.3v-.2h-.2l-.6.2-1.4-.7-.5-10 .1-.6-.2-.6v-.6l.3-.3-.2-.1v-.5l.8-1.5.3.4h-.6v.2l.8.3.2-.2c0 .3.3.5.8.4v-.2l-.8-.9v-.1h.2l1.9 1.6h.1l-2.7-2.8c-.3 0-.4-.2-.5-.6h-.3l.2-.1v-.2h-.2l-.2.2-.1-2.2h.3c0 .3.1.4.3.4l-.7-.9-.2-3.2v-2.2l-.2-.4 1 .3v-.3l-.2.2-.8-.3v-.1h.3v-.2h-.3v-.3h.2l1.1.4-1.3-1v-.1l.1-.6-.2-.5h.3c0 .3.2.5.5.8l-.1.5h.2l.3.3.2-.2h.2l.3.3h-.5l.3.4-.2.2 1 .9-.1.2-1.2-.3h-.5v.2c.3 0 .5.1.5.3l-.4.6h.3v-.3h.2c.6.2.9.5 1 .9h.3c-.2-.6-.6-.9-1-.9v-.5l.2.1h.2l.1-.2.2.2h.3l.1-.2c.8.2 1.3.4 1.3.5l.6-.2v-.2l-.3-.3-.4.2v-.3c.2 0 .3-.2.3-.6h.3l-.2-.2v-.1h.3v-.2c-.7 0-1-.1-1.1-.4v-.2h.2l.5.3.3-.3h-.6c0-.5.2-.8.6-.8v-.3h-.2l-.4.3h-.2l.2-.2v-.1l-.5-.1v.5h-.1c-.2 0-.3-.1-.3-.4l-.2-.2h-.1l-.2.2h-.2v-.3h.3l-.8-.6-.2.2h-.2v-.2l.3-.5h-.3c0-.5-.2-.8-.5-.7l.2-.2v-.1l-.3-.3.3-.5c-.5 0-.8-.3-.8-1v-.2c-.3-.9 0-1.4.3-1.4zm.9 15.1c.2.5.4.7.7.7-.3-.5-.5-.7-.7-.7zm.1-12.9v.2h.3v-.5l-.3.3zm.7 34.4h.5c1.8 1.4 2.7 2.3 2.8 2.6l.2-.2h.2l1.9 1.7-2.2.1-.2-.6h-.1v.5l.1.2h-.1c-.5-.4-.8-.8-.8-1l.1-.5-.6.8h.1c-.1.5-.2.8-.4.8h-.6c-.8 0-1.3-.5-1.3-1.5l-.1-1.8.2-.1-.2-.1v-.2l.1-.5h.3c.1.5.3.8.5.7v-.5h-.3l-.1-.4zm.6-7.3l-1 1.6c0 .4.5.6 1.4.7h.2v-.2l-.9-.1v-.8l.3.3-.2.2h.2l.2-.2h.1l.3.3h.2l-.2-.5.1-.5c.3 0 .5.3.7 1h.1l.3-.8c-.4.2-1-.2-1.8-1zm-.6 4.4v.3l.5.1v-.2l-.3-.3-.2.1zm.5-17.5c0 .3-.1.5-.3.5v.2h.2l.2-.2h.1l.5.1-.7-.6zm.2-10h.3v.5h-.3v-.5zm.2 8.1v.2l.2.2h.3v-.2l-.5-.2zm.1 14.8v.2l.6.6v-.2c-.1-.3-.3-.5-.6-.6zm.3-12v.1l1 .6v-.5l-.8-.3-.2.1zm.4 10.5l-.3.6v.2l.3.4-.2.2v.2l.2.2h.1l.1-.5-.2-.8h.3l.2.2h.1v-.2l-.6-.4v-.1zm-.2-13.3v.2l.2.2h.1l-.3.6.5.1-.2-.1v-.3h.2l.6.3v-.5l-.2.2h-.1v-.6l-.5.3-.3-.4zm.5 21v.5h.2l.1-.5h-.3zm.4-9l-.4.8.2.2h.2l.1-.2v.6h.2c.2 0 .3-.2.3-.6l.1.2h.2l.2-.2v-.2l-.3-.3v.3h-.3l-.2-.6h-.3zm.4-15.3c0 .2-.1.3-.4.3l-.2.1v.3c.4-.3.7-.5.7-.8l-.1.1zM90 145l.2.2-.2.2v.1l.3.3 1.1-.1v-.2l-.6-.1v.2c-.3 0-.5-.2-.5-.6H90zm.1-7v.2l.5.3v-.1l-.5-.4zm.1 1.7v.2c.3 0 .5.1.5.4h.1v-.5l-.6-.1zm.3 36.6l.2.1h.2v-.5l-.4.4zm.4-14.9v.2l.2.2-.2.1v.2c.1.6.3.9.5.9h.2c0-.2.1-.3.4-.3l.2-.2v-.1l-.2-.2h-.1v.3h-.3v-.1l.3-.3-.2-.6-.8-.1zm0-14.3l.2-.2h.3l-.2.2v.1l.3.3h.2v-.2l-.2-.8.2-.1h-.2c-.3.2-.5.4-.6.7zm1 13.5v.2c.2 0 .3.1.3.4l.3-.3-.6-.3zm.6-1.7v.3l-.2-.1H92c0 .4.2.7.7.9l.2.5-.2.1h.2l.4-.2.5.4v-.2l-1.1-1 .2-.2h-.2l-.1.2v-.5h.3v-.3l-.4.1zm-.3-14.3v.3l.2-.2h.1l.2.2h.3v-.2l-.8-.1zm.2 1.2h.1l.3-.3h-.2l-.2.3zm.1 4.5l.2.4h.1v-.3l-.1-.1h-.2zm.3 17.3v.3h.5l-.1.5-.6-.3v.2c.5 0 .8.3.8.9l.2-.2h.3c.1.4.3.6.5.6h.1l-.3-.3.2-.1v-.3c-.5 0-.8-.2-.8-.4l.1-.6-.9-.3zm-.2-16v.2l.2.2v.2l-.2.1h.2l.3-.5-.5-.2zm.1 14.8l-.1.5.2.5.6-.2c-.2-.5-.5-.8-.7-.8zm0-23.9l.3.3h.2l-.3-.3h-.2zm0-2.1v.2l.5.3v-.1l-.5-.4zm.3 4v.2l.3-.3v-.2l-.3.3zm0 14.9l.8.7v-.2c-.2 0-.3-.1-.3-.4l-.2-.2-.3.1zm0 12v.2l.2.2v.2l.1-.2h.3v.5h.3v-.2c-.1-.5-.4-.7-.9-.7zm.3-15.1v.3l.2.1h.2l-.2-.4h-.2zm0-13.5v.1l.8.3h.1v-.2l-.9-.2zm.3 30.9l.2.6h.2v-.5l-.2-.1h-.2zm.3-32.2v.3l.5.1v-.2l-.5-.2zm0 33.1v.5h.3l-.2-.4-.1-.1zm.5-5.4v.1l.5.3h.3c0-.2-.3-.3-.8-.4zm.3 2.9l.2.6h.2l.1-.6h-.5zm.5-28.1l-.2.2v.2l.4-.2v-.2h-.2zm.3-.9l.2.4h.5v-.3l-.7-.1zm.1 16.2l.3.3h.2l-.3-.3h-.2zm.3-14.4l.8 15.1-.2-.2h-.2v.2l.3.3.1 2.1-.2.2.2.2.3 5.5 6.1-.3.8-.2v.2l.2-.2h.5l.8.1c0-.2.7-.6 2.2-1.2v.1c.3 0 .4-.2.4-.5h.2c0 .2.2.4.6.6l.2-.2v-.3h-.5v-.5l.3-.3.3.3v-.2l-.3-.3c1.6-2.1 2.4-4.5 2.2-7.2l.1-1.4h.2l-.2-.2-.1-1.1.1-.6-.2-.6v-.6l.2-.2c-.6-3.2-1.3-5.3-2.2-6.5-1.7-1.9-4.2-2.7-7.4-2.5l-5.6.4zm.1 31.6v.2c0 .2.2.3.5.3h.1v-.2l-.6-.3zm1.1-5.3l-.1.6h.3c0-.2.1-.3.4-.3l-.3-.3h-.3zm-.1 1v.2l.4.6h.2v-.6l-.6-.2zm0 2.7l.2.5h.2v-.3l-.2-.2H97zm.6-6.2l-.1.8v.2h.2l.3-.3v-.3l-.4-.4zm3.5 5.7v.2l.5.4h.2c-.2-.4-.3-.6-.5-.6h-.2zm.4-36.7v.2l.9.2v-.3l-.9-.1zm.6 37.1v.5l.6.1v-.2l-.6-.4zm.3-.9l-.2.1v.2l.5-.2v-.1h-.3zm-.1-32.9v.2l.6.3h.5c0-.2-.3-.4-1-.4l-.1-.1zm.6 33.9c.2.5.4.7.7.7v-.2l-.7-.5zm0-31.1v.3l.3.3v-.3l-.3-.3zm4 25.4v.3l.5.1v-.2l-.5-.2zm.8.7v.2l1 .9-.2.2v.1c0 .2.4.4 1.3.5h.2v-.1c-.3-.1-1-.6-2.3-1.8zm.5 3.7v.1l.5.5.2-.2v-.2l-.7-.2zm1.1-3.3v.3l.5.3h.2v-.2c-.3 0-.5-.1-.5-.4h-.2zm.4-2.7v.2l.3.3v-.2l-.3-.3zm.4 4.5l.2.4h.3l-.5-.4zm2.2-18l.3.3h.2l-.3-.3h-.2zm.8 13.7v.5h.3v-.2l-.3-.3zm.4-22.1v.5c.2 0 .3.1.3.5l.1.1h.2v-.1l-.5-.9-.1-.1zm.7 1.2l.3.3.1-.2v-.2l-.4.1zm.2-2.2v.5l.1.2h.2v-.2l-.2-.4-.1-.1zm.5 3.7c.4 0 .6.2.6.6h.5v.2l-.2.1.5.6v-.1l-.2-.1v-.2l.1-.6-1.1-.7-.2.2zm.9-6.4v.2l.2.4h.2v-.5l-.2-.2-.2.1zm1.6 4.7l-.2.2v.3h.2c0-.2.2-.3.6-.4v-.2l-.6.1zm.5-.3v.1h.3l.2-.1v-.2l-.5.2zm.9 5.5l.2.2v.5l-.5-.4.2-.2.1-.1zm.3.8v.2l-.3.3-.1-.2v-.1l.1-.2h.3zm.1-6.9c.2 0 .4.2.5.7h-.1c-.4-.1-.6-.3-.6-.4l.2-.3zm-.2 7.5c.8 0 1.2.1 1.3.4l-.2.2v.2l-1.1-.4v-.4zm.3-2.5l.2.1v.2l-.2.2h-.1l-.2-.2v-.2l.2-.1h.1zm.4-3.9l.3.3v.3h-.3v-.6zm.1 4h.1c.5 0 .8.2 1 .6l-.2.2h-.6l-.3-.8zm.2 3.6h.6l-.3.3-.3-.3zM126.7 134.4c.2 0 .3.3.4.9l.3.3h.2l-.1.8v.2l.2.2-.2.2v.1l.5.9-.1.2h-.2l-.4-.6-.1.1h-.3l-.2-.4.3-.5c-.2-.3-.4-.8-.4-1.5l-.7.2.1 1.8h-.5l-.3-.3v-.3c.3 0 .4-.3.4-.9h-.2l-.1.1h-.2v-.1c-.1-.9.4-1.4 1.6-1.4zm-.7 3.8c.1.7.3 1.1.5 1h.3v-.3h.2v.3l.2-.1h.2l.1.1.2-.1h.3l-.2.1v.3h.2l.4-.3h.2v.2l-.1.5.2-.1h.3c0 .4-.4.7-1.3.8 0-.5-.3-.7-.9-.7v.1l.2.2c-.8 1.2-1.1 2-1.1 2.4h-.2v-.5l.1-1.1-.2-.4.1-.2v-.2l-.2-.9c-.1-.7.1-1 .5-1.1zm2.3-3.9c.7.1 1.3.3 1.7.7h.1v-.1l-.1-.2v-.2l1.5-.4.2.1-.4 1.3.2.5-.2-.2h-.1l-.3.9v.5h.8l-.2-.8 1-1.4c.2 0 .4-.3.4-.8h.3l-.2.2v.3c.2 0 .3-.2.3-.5l.2-.1h.3l-1.9 3.8v.1h.1c0-.3.4-.7 1.2-1.1v-.3l-.1-.2.5-1.3-.2-.1c.2 0 .4-.3.7-1l1.1-.1.8.1v.3h-.8v.3l1.1-.1.1-.8 1.4.1-.1.2v.2c.4 0 .6.2.6.4h-.3l.2.2v.2l-.3.3-.3-.3-.4.2.3.3.2-.2c0 .4.1.6.3.6v.3h-.1l-.2-.2c-.4.1-.6.2-.6.5h-.3l.2-.2c0-.5-.5-.9-1.3-1.2v.5l.2-.2c.5.1.8.2.8.4l-.5.3h-.3l-.6-.4v.3h.3l-.3 1.2h.5l-.4.9.2.2h.2c0-.3.1-.5.3-.5h.3l.8.7-.6.4h-.3v.2h.3v.1c-.3 0-.4.2-.4.6l-.2-.1h-.1v.5l-.2-.2h-.2v.2l.3.3.4-.2-.2-.2v-.3l.2.2h.1l.2-.2.2.2v.2l-.2.2.3.3-.1.5h.2l-.3.5.4.6.7-.4.5.4.4-.3h.2l-.1.6-1.2.1-.2-.2-.2.2-1.7.1v.5l.2.2v.1l-.2.2h.2l-.2.2.1 1.4.2.9-.1.5.2.5-.1 1.4v.2c0 .2.3.3.8.4l.4-.2v.2l.2-.2 4.9-.3.6.1.6-.2.6.1.9-.2h.2l.2.2.1-.2h.2l.2.2.2-.2.8.1h.2l.2-.2h.1v.2l.2-.2h.5l.2.2.2-.2.8.1h.1l.2-.2.8.3.2-.2h.6v.3l-.2.1v.2h.2l.3-.6 1 .4 1.1-.1c0-.3.1-.5.3-.5l.2.2h.2l.1-.2c.2.4.4.6.5.6h.1v-.3h.5v.1h-.3v.2c.3 0 .5.1.5.4h.2l-.2.9-.2-.2h-.3l.2.2v.2l-.4.5h.2l.1-.2h.2l.3.4v.2h-.5v.3c.4 0 .6.2.7.7l-.3.5h.3l-.1.1v.2h.1l-.4.8v.1h.3v-.3h.1l.1 2.6c-.2.5-.6.8-1.2.8l-9.8.5v-.1l.2-.2v-.2l-.2-.2h-.2v.6h-.5v-.3h-.2v.3l-4.4.2-.2-.4.2-.2-.2-.1.6-.4c0 .3.1.4.3.4l-.3-.7.2-.2-.3-.3h.2c.3 0 .5.3.5.9.2 0 .4-.4.6-1.1l.2.1h.2l.1-.1h.2v.3h.3l-.2-.8.3-.6h-.3l-.4.2v-.3l-.5.5-.9-.3-.2.2v.2l.2.2-1.5.4-.5-.1-.3.6.2.6-.1.2v.2l.1.2.2-.2h.5v.3h-.5l-.7.2-.2-.2c0 .4-.1.6-.3.6v.6l.2.6-.2.2.2 1.1v.5l-.1.6.2.6-.1 2 .2 1.2-.1.5 1.4-.1-.2.2v.2h.3v-.3h.3l.6.1.4-.2v.2l.2-.2 1.1-.1-.1.2v.2h.1l.5-.3 2.6-.1.2.2.2-.2 12.9-.7c.6 0 1 .2 1.3.7l.1 1.7h-.3v.2l.3.4.3 4.9c0 .7-.3 1.1-1 1.1l-8 .4.6-.9c-.3 0-.4-.2-.5-.6l-.2.1h-.3l-.2-.6.2-.1v-.3h-.2v.3h-.2l.2.1v.3c-.3 0-.5.1-.4.3v.6h.1l.5-.3.3.4c-.2 0-.3.2-.3.6h-.6v-.5l-1.2.5v-.2l-.4.2-.6-.1-1.4.2-1.1.1v-.3l.8.1h.2v-.1l-.2-.2.1-.8.2.2c.9-.1 1.4-.4 1.4-.7h.1l.2.6h-.2l.2.2v.1l-.2.2v.2l.2-.2h.2l.5.1 1-1.1-.3-.3c0 .2-.3.4-.9.7-.3-.5-.7-.7-1.3-.7v-.1h.3v-.5h-.2l-.2.2h-.1l-.3-.3h-.2c-.3 0-.6.6-.8 1.7l-.3-.3h.2c0-.4-.3-.6-.8-.6l-.2-.4h.1l.6.1c.3-.1.5-.4.7-.8l-.9.5v-.6l.4-.5h.2v.2l-.2.2v.1h.2c0-.2.5-1 1.6-2.2h-.8l-.2.2h-.1l-.2-.2v-.2c-.3.1-.5.3-.6.6l.6.1v.2l-.4.5-.2-.2c0 .2-.2.5-.7.8h-.2l-.9-.6.6-.2.2.2h.3l.4-.3-.3-.7.6-1.1v-.2c-.4.5-.7.8-1 .8v.1l.1.2c0 .3-.2.5-.6.6l-.2-.2v-.2l.2-.1v-.2l-.6-.3v.3h-.2l-.3-.3c0-.2.2-.3.6-.4v-.2l-1.5.1.8.6v.5l-.6.2v.2l.3.3v-.3h.3c0 .2.2.3.5.3 0 .2-.3.3-.9.4v.5h.5l-.2.2v.2c.1.4.2.6.5.6v.3h-.5c-.5 0-.8-.1-.8-.3l.3-.6h-.2c-.2 0-.3.2-.3.5l-.1.2h-.6v-.2l.4-.6.2.2h.1c0-.4.1-.6.4-.6v-.2c-.2 0-.3-.2-.4-.8l-.4.3h-.5v-.5l-.2.2h-.2l-.3-.3.4-1c-.5.6-.8 1-1 1v.1l.3.3h.2l.2-.2h.1v.5l-.3.5h.2l.4-.5.5.5v.1c-.5.7-.9 1-1.2 1v.5l1.1 1.3c0-.3.1-.5.3-.5l.3.3c0-.2.2-.4.6-.6l.3.3v.1c-.3 0-.4.1-.4.3v.3l.6-.3.1.2v.1h-.1c.1.4.3.6.6.6v.2h-.5l-.1-.2-.8.2-1.7.1v-.2l.4-.8v-.2c-.3 0-.6.4-.7 1.1l-9.8.5.1-.2v-.1h-.1l-.5.3h-.5c-.7 0-1.1-.4-1.1-1.2l-.7-13.4h.5v-.1h-.5v-.9c.3 0 .4-.3.4-.9l-.4.3-.1-2.5.2-.1-.2-.2-.5-9.4h.2v.3h.1l.3-.3-.6-.4-.1-1.1c.5-.1.9-.5 1.3-1.1l-1.4.1.2-.2-.2-.2-.1-1.1c.2-.4.5-.6.9-.7v-.1h-.3v-.2h.2l1.5.1-.2-.2-.1-1.4h.2l.2.2h.2l.4-.2-.2.2v.5c.4-.7 1-1.1 1.8-1.2v.2l-.2.1v.2l.2-.2h.3l-.2.2v.2l.6.1v-.3h.5l.2.6h.1l.7-1.4v-.1c.8.3 1.3.6 1.3.8h.2c0-.5.1-.8.2-1.1l-2.1.1v-.3c.3 0 .5-.2.7-.7l-.9-.1c-.4.6-.6 1.1-.5 1.4h.3c0 .2-.3.4-.9.5v-.2l.3-1.1-.2-.2h.2l-.2-.4-.3.3-.2-.2h-.2l-.4.2c-.6-.6-1.1-.9-1.4-.8l.2-.2v-.2l.2.2h.3l-.2-1.5-.1-1.4-.1-.2v-.2l-.6.2zm-2.8 5.3v.3h.3l.3-.3h-.6zm.2-2.3h.3v.5l-.3-.3v-.2zm.3 11.4l-.1.6.1.1h.2l.2-.1v-.3l-.4-.3zm.4-10.5l.3.3-.1.1h-.2v-.4zm1.2 8.9l-1 1.8h.3v-.5h.2l.5.3.6-1.1v-.2l-.3-.3h-.3zm-.7-2.5l-.1.5h.2l.3-.5h-.4zm0 5.3h.2l.8-.2v-.2h-.6l-.4.4zm1.4-4.4c-.2.4-.4.6-.7.7v.2l1.7-.1-.1.8c0 .2.3.3.8.4v-.3c.3 0 .5-.1.4-.3l-.2-.2v-.2l.2-.2c-.7 0-1.4-.2-2.1-.8zm-.6-11.1h.3l.2.6-.1.8h-.2l-.2-1.4zm.4 30.8l-.3.3v.3h.2l.4-.3c0 .3.2.6.7.7h.6v-.2c-.8-.3-1.3-.5-1.3-.8h-.3zm-.2-13.8c.1 1.1.3 1.7.5 1.7h.2v-.9l-.7-.8zm.1-15.3l.3.3-.3.3v-.6zm.5 7.4l.5.1-.1.6c.3.7.5 1 .7 1l.2-.2h.2l-.2-.1v-.3l.3.3.6-.2v-.2l-.2-.2v-.1l.6-.4-.7-.9h-.2v.5h-.2c-.2-.7-.4-1.1-.7-1l-.8 1.1zm1.5 23.3v.3c-.4 0-.6.2-.6.6-.2 0-.5.4-.8 1.3h.5l.3-.3-.2-.2v-.1h.2l.5.1-.2-.1v-.2h.5l-.2-.2v-.2c.5-.3.7-.6.7-.9l.2.2h.2v-.2c.3 0 .5.1.5.4h.2l.4-.5-1.1-.1v.2l-.2-.2-.9.1zm0-16.5c0 .4-.3.7-1 .8v.2h.2l.6-.2.1.2h.2c0-.3.1-.5.3-.5l-.2-.4-.2-.1zm-.9-2.1l-.1.8v.2h.1c0-.3.1-.5.3-.5l-.2-.5h-.1zm.2 25.6v.5h.3l-.4.6h.3l.4-.3.3.3h.5v-.2l-.2-.4h.2l-.2-.4-1.2-.1zm.2-11.6l.5.4h.2l-.5-.4h-.2zm1.9-4.7v.3h-.3l-.9.2-.5-.1.2.4h.2l.7-.2-.1.1c.2.4.3.6.5.6v-.3l.8.3-.1-.1v-.5c0-.2.3-.3.9-.3v-.3l-.8.2-.3-.3h-.3zm-.8-15.7l-.3.5v.2l.7-.2-.4-.5zm-.1 15.4l-.2.2v.2h.6v-.2l-.4-.2zm-.1 5.4v.2h.6v-.2h-.6zm.2 3.5l-.1.2v.2l.8.1v-.3l-.7-.2zm-.1-19.9v.3l.3.3.2-.2-.2-.4h-.3zm.1 5.5v.5l.4-.5h-.4zm.9-10.5c0 .2-.2.3-.8.3v.2c.7 0 1.1.2 1.1.7h.2l.3-.8v-.2l-.4.3v-.2l.2-.2v-.1h-.6zm-.8 6.2v.1l.3.3v-.2l-.3-.2zm.2 3.5l-.2.1v.2l.4-.2v-.1h-.2zm.1-7.5c.2.4.3.6.5.6h.3c-.1-.5-.4-.7-.8-.6zm.3 4.1l.3.3v-.6l-.3.3zm.1-8h.1l.3.3h-.2l-.2-.3zm0 6.6v.6h.2v-.6h-.2zm.3 4.9h.2l.6-.3v-.3l-.8.6zm1.3-13.8l-.4.6v.2l.4-.2-.2-.1v-.2l.3-.3h-.1zm0 8.4l-.3.6v.2c.6.1 1 .4 1 1h.1v-.6c-.3 0-.5-.4-.7-1.2h-.1zm.4 25.5h.8v-.3h-.5l-.3.3zm1.8-17.2l-1.1-.1h-.8v.1l1.9.5c.8-.5 1.3-.9 1.3-1.3h.2l.2.2v-.5h-.5l-1.2 1.1zm-1.4-6.2l.7 1.5.3-.3v-.3l-.8-.9h-.2zm.1-4.8v.8l.8-.3c0-.3-.3-.4-.8-.5zm.2 12.9l.7.7.3-.3c-.2 0-.5-.1-.8-.4h-.2zm.4-15.2l.1.1v.2l.5-.2v-.3h-.2l-.4.2zm.7.4l-.6.9h.1l.3-.3h.3l.5.3h.1v-.5l-.3-.3-.2.1-.2-.2zm-.5 3.2v.8l.1-.2h.2l.2.2.2-.2c-.2-.4-.4-.6-.5-.6h-.2zm.4 27.1v.2h.3l.2-.2v-.2l-.5.2zm.3-5.9v.5l.8.1v-.2l-.5-.4h-.3zm.9 6v.2l.2-.2h.8c0 .3.1.5.3.4h.2l.4-1.3h-.5c-.6.1-1 .4-1.4.9zm10.5-38.1l.2.1v.2c-.4 0-.6.1-.6.4l.2-.2h.3l-.1.2v.1h.3c1.6-.6 2.9-.9 3.8-1l.6.3.9-.3.6.6-1.3 1.3h-.1v.3h.1c.9-.8 1.3-1.2 1.3-1.5h.3c.2 0 .3.2.5.6l-.2.2h.3v-.5l-.8-.9h.5l.8.1-.2-.2v-.1h.2c.9 0 1.4.5 1.5 1.6v.2c-.3 0-.6.2-.7.7l.5.4c-.4 0-.6.1-.6.3l-.1.6.2.2c-.3 0-.4.2-.4.6v.2h.2v-.3h.3v.2l-.4.6v.2h.2l.6-1.1-.2-.1h.3c0 .2.2.3.5.3l.2 2.9c.1 1-.3 1.6-1.1 1.6l-4 .2v-.3h-.1v.3l-1.8.1v-.3l-.2.2-.5-.1v-.5h.3v-.5h-.2c-.5.2-.7.6-.7 1.1l.1.2-1.7.1v-.9l-.3-.3-.1 1.1h.3v.2l-1.5.1c0-.3.2-.5.8-.5l.1-.5-.2-.4.2-.2h-.2c-.7.8-1 1.3-1 1.6l-2.2.1-.2-.6h-.3v.6l-1.1.1v-.6h-.2v.6h-.6v-.2h.3v-.2h-.2l-.4.2.1-.2-.5-1 .3-.8h-.5v.3l-1.1.1v.6l-.2-.2h-.1l-.2.2-.4-.9.7-.8-.3-.3-.2.2h-.2v-.8l.3-.3h.1v.5h.2l.1-.8h-.2l-.7-1.5.3-.3.1.2h.9v.3h.2c.2 0 .3-.2.3-.5l.2.2h.3v-.5l-.3-.4h.2l-.2-.2c0-.5.2-.9.6-1.1v-.3h.2l.4 1.7-.2.2v.2l.2.6c-.7.2-1 .5-1 1h-.3c0-.3-.3-.4-.8-.4h-.3l.3.4.1-.1h.5v.3l-.4.6v.8h.5l-.3.5.2.2h.2v-.3h.1l-.2-.8v-.3h.3c0 .4.1.6.4.6l.1-.5h.2c.3.5.5 1 .5 1.5h.3v-.6l.2.2h.3v-.3l-.2-.1.2-.2v-.3l-.2.2h-.3v-.3c.3 0 .4-.2.4-.5.2 0 .3.2.4.6l.1.2h.3l.1-.5-.2-.4c.2 0 .4-.3.4-.8l-.7.8-.2-.4h.3l.3-.3v-.2c-.3 0-.5-.1-.5-.3l-.1.2h-.5v-.3c.5 0 .8-.3.9-1v-.2h.1l.2.9h.2v-.1l-.2-.8c.4-.2.6-.5.6-.8h.2c.2 0 .4.3.5 1h-.2l-.6.2c0 .2.2.3.6.4l.3-1.1h.2v.5c-.2 1-.3 1.7-.5 1.9l.1.2v.2c0 .3-.1.5-.4.5v.6h.2l.6-.4-.2-.1v-.2l.7-1.1-.2-.2v-.2l.9-1h.3l.5.3h.2c1.3-.8 2.2-1.2 2.9-1.2v-.2l-.3-.3-.5.2v-.3h-.3c0 .5-.4.9-1.3 1.1v-.1l.3-.3.1.2c0-.3.2-.5.6-.5l.2-.2v-.2l-1.1.1c-.2-1.6.1-1.9.5-1.9zm-9.8 19.4v.3l.3.3v-.9l-.3.3zm.3 20.3v.2h.2l.9-.4-.3-.3h-.3l-.5.5zm.5-20.1l-.2.2v.1l.6-.2v-.2l-.4.1zm-.1.6v.3h.5l-.2-.1v-.2l.2-.2-.5.2zm.2-1.3l-.1.5h.3v-.5h-.2zm.1 19.6l.3.3h.2c0-.3.1-.6.4-1v-.2l-.9.9zm.7-16.1h.3c-.2.4-.5.6-.9.8v-.2l.6-.6zm.2-2.1c0 .2-.1.3-.4.3l-.1.5.2.4h.2l.2-.1h.1l-.1-.2v-.3l.4-.6h-.5zm-.2-1.3v.5l.3-.3-.2-.1-.1-.1zm.7-15.1c0 .3.3.6.8 1v.2c-.7-.1-1.1-.2-1.1-.4v-.1l.1-.2v-.2l-.1-.1.1-.2h.2zm-.1 29.4l.3.4.5-.2v-.2h-.8zm.5-15.9v.2h.1l.5-.5h-.3l-.3.3zm.5-16.9h.6v.3c0 .2-.1.3-.4.3l-.2.2v.3h.3l.3-.3.3-.8h.3c0 .8-.3 1.4-1.1 1.9-.3-.3-.5-.7-.5-1v-.3c.3-.1.4-.3.4-.6zm-.3 33.9v.3l.5.1v-.3l-.5-.1zm.9-26.2l.2.4h.2v-.3l-.2-.1h-.2zm.2 32.6v.5l.4-.5h-.4zm.5-4.4h.2l.5.4h-.1l-.6-.4zm0-28.6v.6h.1l.1-.6h-.2zm.8 32.4l.2.4h-.3l-.3-.3.4-.1zm.4-1.8l.1.2v.3l-.1-.2h-.2l-.1.5h.5v.6h-.3l.2-.2v-.2h-.2l-.3.3h-.3l.3-.5v-.1h-.3v-.2l.2-.2v-.2l-.2-.1h.7zm-.8-31.8v.2l.3-.3v-.1l-.3.2zm.5 14.7v.5h.2l.3-.3v-.2h-.5zm.3-20.6h.2v.5h-.3l.1-.5zm.7 40.1l.2.2.2-.2v.5h-.2l-.2-.2h-.1l-.4.2c-.1-.2.1-.3.5-.5zm-.6-20v.3l.1.1h.3v-.1l-.3-.3h-.1zm2-20.7l.6.1v.2c-.5 0-.8.2-.9.5-.3 0-.7.3-1.2.8l-.2-.2-.1.2v-.3l1.8-1.3zm-.7 0v.3l-.8.4h-.2v-.2c0-.2.3-.3 1-.5zm-.9 39.3l.3.3v.1l-.3-.3v-.1zm.4-18.9v.3l.2.2h.2l-.2-.4-.2-.1zm2.2 1.2l-.1.8h-.8c0-.4-.1-.6-.3-.6l-.2.2v.2l.5.6-.4.2-.2-.1h-.1c-.4.2-.6.3-.6.5l.1.2h.2l.3-.3.1.2.8-.4.5.1v-.2l.6-1.1v-.2l-.4-.1zm-1.9-1.9v.3h.2l.3-.3h-.5zm.2 14.2v.3h.1l.3-.3v-.2l-.4.2zm.6 5.6v.1l-.3.3v-.2l.3-.2zm.5-38.4h.2v.3h-.5l.3-.3zm-.3 39.1v.5l.3-.3v-.1l-.3-.1zm0-38.1h.5l-.3.3h-.1l-.1-.3zm.3 34.8v.2l.2.1-.3.3.5.3.3-.3h.2l.3.3-.1.2v.3h.1l.3-1h-.2c-.5 0-.9-.1-1.3-.4zm0-3.5h.3v-.3l.5.3.1-.5h-.5l-.4.5zm.4-32.8l.2.4h-.2l-.3-.3.2-.1h.1zm.4 3.9l-.4.5.2.2v.2l-.1.8.2.2h.1c.5-.2.7-.6.7-1.3l.5.3v-.5l-.8.2-.1-.2v-.1h.3v-.2l-.6-.1zm-.3 18.5v.8h.2l.1-.8h-.3zm.2-19.7v.2h.3l1.2-.4v.2c0 .2-.3.4-.9.5v.2h.5l.8-.3-.5-.6v.1l-.2-.1h-.2l-1 .2zm.6 31.4v.3c-.3 0-.4.1-.4.3l.6-.5v-.1h-.2zm1.5-33c0 .2-.5.5-1.7.7v.1l1.1.3.6-.2v-.2l-.1-.1v-.2l.4-.2v-.3l-.3.1zm-1.7 15.1v.5c0 .2.2.3.5.3l.4-.2v-.3l-.3-.3h-.6zm.5 20.5v.2h.3v.3c-.3 0-.5.1-.4.3h.2l.4-.2-.2.2v.2h.2l.2-.2-.2-.2v-.2l.2-.1v-.2l-.5-.1h-.2zm-.1-18.3v.3h.2c0-.3.1-.5.3-.5v-.3h-.2c-.2 0-.3.2-.3.5zm.5 2.4l-.1.5v.2h.1l.1-.5v-.1l-.1-.1zm-.1 12.6h.3l.3-.3h-.3l-.3.3zm.4-29.7l-.1 1.1 1-.7v-.1h-.6l.2-.2v-.2l-.5.1zm.3-.2c.5-.1.8-.3.8-.5h-.3l-.5.5zm.1 33.1v.3l.7-.2v-.3l-.7.2zm.5-30.3v.2l.3-.3v-.2l-.3.3zm.4 13l-.1.5v.2h.2l.3-.3-.4-.4zm-.1 1v.2l.3.3h.2v-.3l-.2-.2h-.3zm1.7-16.6c0 .3-.1.5-.5.5l.2.2v.2l-.4.3v-.6c-.6 0-.9.4-.9 1.1.2 0 .3-.3.3-.8h.2l.6.6v.1l-.2-.1h-.2c-.2 0-.3.2-.3.6h-.2v-.3h-.3l.2.8h.2l.2-.2h.1v.2c.3 0 .7-.9 1.3-2.5l-.3-.1zm-.8 12.8c0 .5-.2.9-.5 1.4v.2l.6.3c0-.8.1-1.2.4-1.3.3.7.8 1 1.4 1h.2l.3-.3v-.3c-.3 0-.5-.1-.5-.3.4 0 .6-.2.6-.5l-.2-.2h-.1l-.5.3-1.3-.4-.4.1zm-.2 2.7v.2l.3.3v-.5h-.3zm.5 15.8l.2.1v.2h-.3v.3c.8-.5 1.2-.8 1.2-1h-.1l-1 .4zm.3 2.6l.2.2.4-.2-.3-.3-.3.3zm.1 1.7l.2.1h.1l.6-.6h-.1c-.6.1-.8.3-.8.5zm0-20.3v.3l.6.3v-.3h.2l.2.2h.1v-.2l-.1-.2.3-.3h-.2l-1.1.2zm.8-17.8c-.1.5-.3.8-.7.8v.3c.4-.2.8-.5 1-1l-.2-.2-.1.1zm-.4 4.8c.3 0 .5.1.5.3l.4-.2v-.3c-.2 0-.3-.1-.3-.4h-.1l-.5.6zm3.3-4.9c.3 0 .5.1.5.4l-1.4.7v-.3h.3v-.2l-.8-.1v.3l.3.4v.2c-.4 0-.8.4-1.2 1.1l-.9-.3v.3l1.4.1v-.5h.2v.3h.2v-.5l-.2-.2.6-.3.5.7v.2l-.1.5c.2 0 .4-.5.5-1.4l-.3-.3v-.2l.2.2h.2l.4-.5.2.2.1-.2v-.8l-.3-.3-.4.5zm-2.8 13.8v.5h.3v-.5h-.3zm.1-9.8v.1l.4-.5v-.2l-.4.6zm.1 29.2c.5-.2.9-.6 1.3-1.3v-.2c-.5.2-.9.7-1.3 1.5zm.3-27.4l.2.4h.3l.1-.5-.6.1zm.3-2.5l-.1.5v.2h.2l.3-.3-.4-.4zm.1 12.9v.3l.2.1h.1l-.2-.4h-.1zm.1 19.1v.2l.4-.2v-.3h-.2l-.2.3zm0-20.2v.3h.3c0 .4.3 1 .7 1.7h.6l-.5-.7.3-.5h-.1l.1-.2v-.3h-.1l-.5.2v-.2l-.3-.3v-.2l-.5.2zm.2 15.7l.2.1v.2l-.3.5v.2l.7-1v-.2l-.6.2zm-.1-25.5v.2h.3v-.5l-.3.3zm.5-2.5l.4-.2v-.3l-.4.5zm.2 1.1h.2l.3-.3v-.2l-.5.5zm.1 11.2v.2l.3-.3v-.2l-.3.3zm.2-10.6l-.1.5v.2h.2l.3-.6-.4-.1zm-.1 34v.3c.6-.2.9-.5.9-.7v-.1l-.9.5zm.5-38.5l-.1.5h.2l.2-.1v-.3l-.3-.1zm-.1 30.3v.3l.1.2v.1l-.1.2.7-.3.2.1.2-.1.2.1.1-.1v-.2l-1.4-.3zm.1-12.6c.5-.2.8-.3.7-.5v-.1h-.2c-.3.1-.5.3-.5.6zm0-13.9v.9h.2v-.9h-.2zm.2 14.3h.2l.3-.3h-.1l-.4.3zm.5 13.9l-.3.3v.2h.3l.2-.2v-.3h-.2zm.2 5.5l-.3.5h.2l.3-.5h-.2zm0-32.3l-.2.2v.5h.2l.1-.6-.1-.1zm.1 26.3v.5h.2l.1-.5h-.3zm.2-28.3l.2.4h.2v-.8l-.4.4zm.2 27.5v.1l.2.1v.2l-.2.2h.2l.3-.5-.1-.1h-.4zm0-29.6h.1l.5.1v.5c-.4-.1-.6-.3-.6-.4v-.2zm.8 30.2l.3.3h.2l-.3-.3h-.2zm1.3 3.9v.5h.3v-.2l-.3-.3zM174 131.8l1.1-.1.2.2.2-.2 1.4-.1c0 .4.1.6.3.6l-.2.2v.3c.3 0 .5.1.5.3v.3h-.6c0 .2.3.3.9.3l.4.8c-.2.7-.5 1.1-.9 1.1v.2c.3 0 .5.1.5.4v.2h.2c0-.2.2-.3.6-.4l.2-.2v-.1l-.3-.3v-.3h.3v.3h.3v-.8l-.1-.1.1-.2v-.3l-.3-.3v.2l.2.1h-.3l-.4-1.1h.1l-.5-1.2 3.4-.2v.3l.4-.3h.2l-.2.2v.2l.3.3.2-.2v.3l-.3.5v.2h.1v-.3l.2.2h.2l.2-.2.2.1c0-.4.1-.6.3-.6l1.3 1.9v.3l-.2.2v.2l1.3 1-.5-1.4c-.5-.2-1.1-1.1-1.7-2.7v-.2c.8 0 1.5 1.1 2.2 3.3l.9 1.9v.2h-.2c-.2-.7-.5-1-.7-1 .3.7.5 1 .7 1l-.1.2v.3l.5.1.2-.1 1.8 4.7c-.4 0-.9-.8-1.5-2.4l.2-.2c-.3-.1-.8-.7-1.3-1.8l-.3-.3.3-.3.2.2v-.2c-.6 0-1.1-.5-1.5-1.5l-.3-.3.1-.2v-.2l-.3-.3-.2.2-.2-1.2h-.1l-.2.1h-.2l-.2-.1c0 .4-.1.6-.4.6 0 .2.2.3.5.3l-.1.2v.3l.1-.1h.2l2.9 4.6.1 1.1h.3v.2l-.1.2v.2l.5.1v.2l-.1.6.4.8-.1.6.3.3v.3l-.5-.3-.2.1v.3h.3l-.1.8h.5v.1c-.4 0-.6.1-.6.4l-.4.3-.6-.1.2.1v.2l-.2.2v.2l-.8-.3.2-.2v-.1l-.3-.3-.4 1.3.5.1-.7.7-.3 1.1.2-.2h.2l.2.2.1-.2.2.8-.2-.2h-.1c0 .4-.2.6-.4.7l.5.4h.1v-.2l-.2-.4.1-.2h.3l-.2.2.2.2v.6h-.3l.3.3v-.2l.2.1h.5l-.9-.5v-.3h.3l.1-.2.2.2v.2h.2c0-.6.2-.9.6-1l-.2-.2v-.2l.2-.1-.2-.2h-.2l-.1.2h-.2v-.3h.5l-.4-1.1c.3 0 .5-.1.4-.3l-.3-.3h.3c0-.4.4-.6 1.2-.7l-.2-.2v-.2c.3 0 .4-.2.4-.5h.3c0-.3-.2-.4-.6-.4l-.4-.6c.2 0 .3-.3.3-.8l.7-.7c.2.5.5.8 1 1l1.1 2.4-.2.2c.2 0 .4.4.7 1.4l-.8.2c.2.5.6.7 1.1.7l-.2.2v.2h.2l.1-.2v.6l-.7.2v.2c.3 0 .5.1.5.4l-.2.2h-.2l-.8-.3c0 .2.5.4 1.4.7.2.9.4 1.4.7 1.5l.1-.5-.3-.9c.3 0 .5.4.7 1.2h-.3c.9 1 1.7 2.7 2.4 5.1l-.6-.4-.2.2-.8-.9v-.3l.8-.2v-.1l-.6-.4-.2.2c0-.3-.3-.8-.9-1.5h-.5c.7.8 1 1.3 1 1.7l-.2-.2h-.3l.2.8h-.2c-.6-.2-.9-.5-1-.9h-.6l.2-.1v-.2l-.2-.2c-.6-.2-1-.5-1-.9l-.1.2h-.2l-1.6-.8v.1l.2.2h-.5l-.6-.4-.1.5.3.3v.3h-.3v.5h.3v.3l.2 1.1c-.2 0-.4.3-.6.8v.3c.3.2.5.6.5 1 .5 0 .8.2 1 .7.4.6.8.9 1.1.9v.2h-.3v.5l.1-.2h.2l.2.2v-.6l-.2-.2v-.1h.5v-.3c-.2 0-.5-.2-.8-.6l-.5-.1-.1.2.2-.4.3-.6 1.3.9h.1l-1-1.3.4-.5c-.3 0-.5-.1-.5-.3l.8-.5-.4-.6.2-.2v-.1l-.2-.2v-.2h.2l1.4.7-.2.2.1 1.7 1.2-.2h.2v.2h-.3v.2l.2.7h.3l-.2-.7v-.2l.7 1h.3v-.5h-.3v-.3l.1.2h.3l.2-.2h.1c.4.3.7.8.7 1.5.3 0 .7.2 1.1.7v.6c-.5 0-.8.2-.7.7h-.3v-.3h-.1v.3h-.2l.4 1.2h.3c0-.3.2-.6.7-1l.5.1v-.2l.1-.6h.2l2 5.1-.2-.2h-.5v.5l.3.8.5-.3c.3 0 .5.5.7 1.5l-.6-.3v.6l.6.6h.1v-.5h.2l.9 2.4v.3c-.2.5-.6.8-1.2.8l-9.1.5c-.5 0-1.5-2.4-3-7.2l-.2-.6h-.5l.3-.5-1-1.2.2-.1v-.3l-.2-.2v-.1l.8-.2c0-.3-.2-.4-.6-.4l.2-.2v-.2h-.3v-.2l-.4.2c0 .2.2.3.5.3v.5h-.3l-.3-.3-.1-1.1.8-.2.5.9.6-.4h.2v.2h-.3l.2.4h.2v-.5h.6v.5h-.2l-.1-.1h-.2v.1c0 .2.2.3.6.4v.3l.2-.2h.3v.3l.2.2-.2.1h-.3l.2.8h.2v-.5h.3v.3h.5l-.5-.7.1-.5h-.1l-.2-.4-.2.2h-.3v-.5c1 .2 1.7.5 2 .8v-.2l.1.2h.3v-.2l-1.1-.9-.1.2h-.2c-.6-.2-1-.4-1-.7l-.1.2h-.5l-.6-.4.1-.5-.2.2h-.3l.8-1.8v-.1l-.1.1-1.4.1v.3l.5.6c-.2.6-.4.9-.6.9-.5 0-.9-.3-1.1-.9h-.2v-.2c0-.2.2-.3.6-.3l.1-.6h-.3c.1-1.6.3-2.6.5-2.8-.1-.2-.3-.4-.8-.6l.1-.2v-.2l-.2-.6c0-.6.3-.9 1-1v-.3h.2l-.2-.1v-.5l.5-1.3c.4-.2.6-.3.6-.5l-.2-.2h-.5c0 .3-.1.5-.4.5l-.9 1.1h-.8c0-.4-.1-.6-.3-.6l-.3.3c-.2.2-.4.3-.8.4l-.1.8.7-.2-.1-.2v-.3l.8.4h.1v.5c-.2 0-.3.3-.3.8l-.8.2-.2-.2v.3c-.2 0-1.3-2.8-3.2-8.5l.1-.2-.3-.3h-.2l-2.8 10.9h.2l.9.1v.1h-.3v.2c.4 0 .6.1.6.3.3 0 .5-.2.4-.6h.1l.3.3-.3.3h.6v-.3h.5l.1.2h.2c0 .4-.2.6-.7.7v.2l.4.6-.6 1.3v.1h.2l.9-.3h.6l-.2-.8v-.2c.2-.7.6-1.1 1.2-1.1 0-.4.2-.7.7-1h.5c.2 0 .3.1.3.4l-1.3 1.9.2.1-.3 1.1h.3l.2-.2h.1l.2.2v.2c-.4.9-.7 1.4-1 1.4l-.3-.3h-.3v.3l.3.7h.2v-.3h.2l.2.4-.4.6c0-.4-.1-.6-.3-.6h-.2v.2l.2.4h.3v.2l-.1.2v.1l.5.3h.2l.7-.8.5.1c0-.2.1-.3.4-.3l.5.1c0-.2-.2-.3-.5-.3l-.2-.2v-.2l.2-.2c.5 0 .8.4.8 1.2v.3l.2-.2.5.1v.6c-.5 0-1 .3-1.5.9l-2.1.1v-.3c.4 0 .6-.2.6-.5l-.2-.2c-.6.1-.9.5-.9 1l-5.2.3v-.3h-.3v.3l-1.2.1c-.2 1-.5 1.6-.8 1.6l.1.2v.8l-.5-.3-.3.9h.2l.3-.3v.3c-.8 3.3-1.4 5-1.9 5h-.9v-.2l.9-1v-.2c-.1-.3-.4-.4-.9-.4 0 .2-.1.3-.5.3v.6h.2l.1-.6.3.3-.1.1.1.2v.3h-.1l-.5-.1v.2l-.3.3v-.2l.2-.1v-.3h-.2c0 .2-.2.3-.6.3v.5h-.8l-.2-.1h-.1l-.2.2c0-.3-.1-.4-.3-.4l-.1.1-.3-.3-.4.5.1.2h-.1c-.5-.3-.8-.6-.8-.9l-.2.2h-.2c-.5-.7-.8-1.3-.8-1.6l-.5.3c-.6-.7-1-1-1.4-1v.3c.3 0 .8.5 1.4 1.5l-.1.2v.5h.1c0-.4.1-.6.3-.6h.2v.6c-.3 0-.5.1-.5.3 0 .2.3.3.8.3v.2h-.9l-.2-.1-.2.2-1.7.1c-.5-.3-.8-.7-.8-1.2l4.9-16.3h.2l1.6 1.3v-.3l-1.6-1.3.5-1.9.6.4v-.5h-.5c0-.6.2-1.3.6-2.2h.2v-.6c0-.7.3-1.2.9-1.6.1-.4.3-.6.4-.6l.2.2h.1c0-.3.1-.5.5-.5v-.2l-.3-.4c.5 0 1.1-.6 1.8-1.8.6 0 1.1.2 1.4.4l.6-.2 1.1.1v-.2l-.1-.2v-.1l-.8.2h-.3l-.9-.2v-.3l-.2.2h-.2l-.2-.2v-.1l.8-.2v-.2l-.1-.2v-.1l.7-.8-.8-.4h-.3l.2.1v.2h-.5c0 .2.3.3.8.3v.1c0 .2-.3.4-.7.7l-.1-.1v.1l.2.5c-.8.6-1.2 1-1.2 1.3l-.1-.2-.5.2c-.3-.1-.6-.3-.6-.6.7-.2 1.1-.4 1.1-.7h-.2l-.4.2.1-.1v-.2h-.3v-.2l.3-.5.8.4h.2v-.2h-.3c0-.2-.2-.3-.5-.3l-.2-.2v-.2l.1-.8.2.2h.2l-.2-.4.1-.5c.7.1 1.1.3 1.1.6l-1 .8v.1l.1.2h.5c.2-.9.7-1.4 1.6-1.5v-.2h-.3v-.3h.1l.2.2h.2l.4-1.4-.2-.2h-.5v.2l.2.1v.1l-.6.2-.3-.4c.5 0 .9-.3 1.2-.7-.6 0-1.1-.1-1.4-.5v.2l.2.4-.2-.2h-.1l.1.2v.5l-.1-.2h-.3l.2.9.2-.2h.1l.4.8-.2.2-.6-.1.2-.2v-.3h-.2v.3h-.8c1-3.8 1.8-6 2.4-6.6l-.3-.3.1-.8h.2v.3h.2l.1-.5h-.2l-.2.2v-.3c0-.3.2-.5.7-.5v-.1c-.3 0-.5-.1-.5-.3l.6-.8-.2-.1v-.2c.2.4.5.1 1.1.1zM163.4 170l.5.6-.2.1h.2l.2-.1h.2c0 .4.5.8 1.3 1.2v.3l-.2.2v.2l.8.1v-.1l-.7-1.4-.2.2h-.5c-.2 0-.4-.3-.5-1.1h-.3l-.2.2h-.2v-.3l-.2-.1zm.8-1.8v.3c.4 0 .6.1.6.3v.2h-.3l-.2-.2h-.2v.2l.8.3v.3l-.2.2v.2l.8.3c.1-.4.3-.6.4-.6v.2l-.1.2v.1l.8.3-.4-.8h.3v-.2h-.3v-.1l.2-.2v-.3h-.2c0 .3-.1.5-.4.5l-.2-.2v-.3h.3v-.1h-.1l-.6.2-1-.8zm1.1-2.3l-1 1.6v.2c0 .2.5.4 1.4.5h.2v-.1c-.6 0-1-.2-1.1-.7l.2-.2h.2l.2.2v.1l-.2.2h.2l.1-.2h.2l.5.5v-.2l-.2-.4.1-.5c.2 0 .5.3.7 1.1h.1l.3-.8c-.5-.2-1.1-.6-1.9-1.3zm-.5 7.2h.5l.3.3h-.8v-.3zm0-2.9v.3l.5.1v-.1l-.3-.3h-.2zm.9.1l-.2.2v.5h.3l-.2.2v.1l1.1.1-.3-.4.2-.2c-.2-.1-.5-.2-.9-.5zm.1-4.8v.3c.1.3.3.5.6.6v-.2l-.5-.7h-.1zm1.3-2.8l-.4.9v.2h.5l-.1.5-.2-.1h-.5v.3c-.3 0-.5.1-.5.3v.1c0 .2.2.3.5.3v.2l-.2.1v.2l.2.2h.1l.1-.6-.2-.4h.2c.2 0 .5-.2.7-.5l.2.2.1-.2h.2l.5.3h.2v-.2c-.3 0-.5-.3-.5-1l-.2-.2h-.3v.3h-.2l-.2-.6.2-.2-.2-.1zm-.7 10.2h.3l.2.4h-.5v-.4zm.1-17.1l.3.3h.2l-.3-.3h-.2zm1.9-7.7l.2.6-.9 1v-.2c.2-.9.5-1.4.7-1.4zm.6 12v.5l-.2-.2h-.1v.2l.5.6v.2h-.2l-.2-.2h-.1v.5l-.8-.4-.1.6.2.2-.3.3c.1.3.5.8 1.5 1.5h.2l-.4-1.1h.2l.2.1h.2v-.1c-.1-.4-.3-.6-.5-.6v-.3l.2.2h.3v-.2l-.2-.4.3-.3-.5-.4.3-.3v-.1l-.5-.3zm-.9-4.7c0 .3.3.5.8.7 0-.3-.2-.5-.8-.7zm.2 5.2v.5h.3l-.2-.4-.1-.1zm.1-9.7v.5h.5l-.2-.5h-.3zm.6 13.7v.3c-.3 0-.5.1-.5.3l.5.4v.6l-.2.2.8 1h-.2l-.2-.2h-.2l-.1.6-.2-.1h-.2v.9l.3-.3c.7 0 1.1.3 1.1.9l.2-.2h.3l.4.8h-.3l-.1.5-.5-.1c0 .3.2.4.6.4v.5l.2-.2h.2v.3h.3v-.3c-.3 0-.5-.3-.5-.9l1.2-.4-.4-.6h-.1l-.2.2h-.2l-1.1-.9h.3v-.6l-.1.1h-.3l-.3-.3c0-.2.1-.3.4-.3l.2.2h.3v-.2c-.3 0-.5-.1-.5-.4l-.2-.2h-.2v.2l.2.2h-.3l-.6-1.4h.2l.2.2h.5v-.2c-.3 0-.6-.2-.9-.6l.1-.2v-.3l.1.1zm.4-17.6h.3c-.1.4-.3.6-.4.6l-.3-.3.4-.3zm0 11.9v.5h-.1l-.2-.2h-.2v.5c0 .2.2.3.6.3v.3h.2l-.2.2v.3h.2l.4-.2c.3.5.6.8 1 .9v-.2l-1.6-1.3.2-.2v-.3l-.2.1h-.2v-.3h.3v-.2l-.2-.2zm.1-7.1l-.1.5.2.2h.1l.3-.5-.5-.2zm-.1-1.4v.2l.3.3v-.1l-.3-.4zm.2-1.7v.3l.3.3h.1l-.4-.6zm.4 19.4h.2l-.3.3h-.1l.2-.3zm-.1-8.6l.8.7v-.1c-.2 0-.4-.2-.5-.6h-.3zm.1-3.3l.2.6h.3c-.1-.4-.3-.6-.5-.6zm2 2.5l-.1.6h.2v-.2l.8.4h.2l-.7-.9-.4.1zm.4-15.6l.2.4h.3v-.3l-.5-.1zm.3-9.7l.4.6h.1v-.6h-.5zm2.1-.4l-1.5 1.6h-.2v-.3h-.1v.2l.2.4h-.1l-.3.5c.2 0 .7-.5 1.5-1.6l.9-.7v-.2l-.4.1zm-1.4 23c0 .4-.1.6-.4.6v.6h.1c.2 0 .3-.3.3-.8h.3v-.5l-.3.1zm-.4-10.7l.3.3h.3l-.3-.3h-.3zm1.2-.7l.3.8h-.8v.5l.2-.2h.2l.2.2h.1v-.2l1.2.3v-.2c0-.3-.4-.7-1.4-1.2zm1 12.4c0 .3-.1.5-.3.5v.2h.1l.6-.2c0 .3.1.5.3.5h.3v-.5l-1-.5zm-.3-19.7v.2c.3 0 .5.1.5.3l-.3.5v.2h.6l-.2-.2v-.2c0-.2.1-.3.4-.3l.2-.2v-.3h-1.2zm0 3.2v.5l.4-.5v-.2l-.4.2zm.3 23.4v.5h.3v-.1l-.3-.4zm.4-21.9v.5l.3-.3v-.1l-.3-.1zm.2 3.1v.2c.1.5.3.7.5.7h.3v-.3l1 .4v-.2l.1-.5h-.1l-1.8-.3zm0-5.4h.1l1.2-1.3v-.1h-.2l-1.1 1.4zm.3 22.7v.1l.5.3v-.2l-.5-.2zm0-5.9l.3.3h.2l-.3-.3h-.2zm.3-20.7v.5l.2.1-.3.3v.2l.7-.7v-.3l-.2.2h-.3v-.3h-.1zm0 24.5l.2.1h.2v-.5l-.4.4zm.3-3.2v.6h.3l-.2-.2v-.2l.2-.1v-.2l-.3.1zm.1 2v.5l.3-.3v-.1l-.3-.1zm.1 2v.1c.4-.1.6-.4.6-.8l-.6.7zm1.6-23.4v.2l.9.3v-.3l-.9-.2zm.6 3.4v.2l.8.3h.3v-.3l-.9-.1-.2-.1zm.7 22.1v.5h.3v-.2l-.3-.3zm.1-19.4v.3l.3.3v-.3l-.3-.3zm.1-6.9c.3.6.5.9.7.9v-.2c-.3-.5-.5-.7-.7-.7zm.8 1.2v.5h.3l-.2-.4-.1-.1zm0 9.4l1.1.9v-.2l-.3-.3h.5l-.3-.6-1 .2zm.3-8.8v.3c.2 0 .3.1.3.4h.1v-.3c-.2 0-.3-.1-.3-.4h-.1zm.1 7.5v.1l.2.5h.5l-.5-.5v-.1h-.2zm.6-6.7v.5c.3.1.5.4.5.9h.3l-.7-1.4h-.1zm1.1 9.7v.3l-1.1.1v.2c.3 0 .5.1.5.3l1.1-.5v-.3l-.5-.1zm-.5-1.2l-.3.3v.2h.3l.3-.5h-.3zm.6-6.3l.2.4.3-.3-.5-.1zm.4 12.9h.2l.3.3v.3c-.2 0-.4-.2-.5-.6zm.6.6h.3l-.1.8h.3v.5h-.6c0-.5-.1-.7-.3-.7l.4-.6zm.6-9.3l.2.1v.1h-.5l.3-.2zm-.2 2.6h.3l.3.3-.6.2v-.5zm.9 4.7l.2.4h.1v-.6l-.1.2h-.2zm.1 1.1v.5l.2.2h.5l-.5-.5v-.2h-.2zm1 7.4v.2l.6.4h.2v-.2c0-.2-.3-.3-.8-.4zm.6-2.7v.2l.1.1v.2l-.1.2.1.2h.2l.2-.2.2.2v-.2c-.1-.4-.4-.6-.7-.7zm0-11.1l.2.5h.2v-.3l-.2-.2h-.2zm.2 9.3l.5.1v.5l-.5-.4v-.2zm.1-5l.3.3.1-.5-.4.2zm.4-6.3v.1h.5v-.5h-.2l-.3.4zm1.2 2.7l.1 1.2h.6l-.2-.1v-.3h.5v.3h.2v-.5l-.9-.6h-.3zm.3 13.7v.5l.3-.3-.2-.1-.1-.1zm1.2-11.8c0 .3-.1.5-.3.5l-.2-.1v.1l.2.2v.2l.6-.5v-.3l-.3-.1zm-.3 17.3v.5h.3v-.2l-.3-.3zm.7-12.5c.4.3.8.4 1.1.4v.3h-.3l-.8-.6v-.1zm.1-2v.6l.5.1v-.1c-.2-.4-.4-.6-.5-.6zm.5 6.4v.2c.1.2.3.4.8.6-.2-.5-.4-.7-.7-.7l-.1-.1zm.5-3.7h.3l.8.7v.3l-.2-.1h-.2l-.1.2h-.2l-.4-1.1zm.5 6.7v.3l.5.1h.1v-.2l-.6-.2zm0-2.9v.2c.2.4.6.6 1 .6l-.7-.7-.3-.1zm.1 6.5v.2l.9.1v-.2l-.2-.5-.7.4zm.2-5.3l.6.6h.2l-.4-.6h-.4zm.7 1.7c-.1 1-.2 1.5-.5 1.6l.5.6c.2 0 .4-.5.5-1.4-.2-.6-.4-.8-.5-.8zm-.5 2.8v.3h.2l.3-.3h-.5zm1.2-6.6v.5h-.1v-.3h-.3v.3l.6.6.3-1h-.2l-.2-.1h-.1zm-.4-2.1h.2c.2 0 .4.2.5.7h.2l.1-.2h.2l.2.6h-.2l.2.2v.5h-.2l-1.2-1.8zm.2 5.2v.1c.4.3.7.7.7 1.1v.5h-.5v.2l.6.1h.1v-.1h-.3v-.2c.4 0 .6-.4.6-1.1l-.3-.3-.1.2h-.2l-.6-.5zm2.1 7v.2h.2c0-.4.2-.7.7-1l.5.1-.2-.1v-.2c.2 0 .5-.4.7-1.1-.4 0-.7.3-.7 1-.8.2-1.2.6-1.2 1.1zm1.5-.8v.5l-.2-.2h-.2c-.3.3-.4.8-.4 1.6l-.2-.2h-.1v.2l.3.3.1-.5.2.2h.1c0-.4.1-.8.4-1.3v-.6zm.5 1v.5l.2-.2h.2l.3.3h.2v-.2c-.3 0-.5-.1-.5-.4h-.4zm.2.8v.1l.2.2h.1l.2-.2h-.2l-.1-.1h-.2zm.6-1v.5l.3-.3-.1-.2h-.2zM202.5 130.9l.2.6-.1.6.7 1.3v.2l-.2-.2h-.2l-.3.3h.1l.2-.2h.2l.2.2-.1.6h-.2c0-.4-.3-.6-.9-.6l-.1-1.5c-.1-.7.1-1.2.5-1.3zm0 5.6l.5.3.2-.2.2.2v.3l-.2-.2h-.2l-.4.3h-.3l.2-.7zm1.7-6l.6.3.3-.3c.8 0 1.3.2 1.6.8v.2l-.1.2v.2c.4-.2.6-.4.6-.5l-.5-.4v-.3l.8-.2.1.2 2.6-.1.2-.2.2.1h.1l.2-.2h.2c.8.1 1.2.5 1.3 1.2l.3 6.5h-.5l-.2-.1h-.1l-.2.1v.2c.6 0 .9.1.9.3l1.2 23.4.8-.2v.2l.1-.2h.2l.6.1v-.2l.5.1.4-.2v.2l.2-.2h.1l.6.3v-.3h.6l.8.1v-.2l1.5.2.3-.3 1.4-.1.9.2v-.3H225.1l.4-.2v.2l.2-.2h.3l.8.1v.3l-.2.2v.1l.2-.1h.5l.5.3.3-.3c-.4-.1-.6-.3-.6-.4l2.3-.3h.8l.2.2.2-.2h.1l.8.1v-.2c.5 0 .9.2 1.2.7l.1 1.1.2.8-.1.9v.9l.2.2-.2.1v.3l.2.6-.2.2v.2l.2 1.5c.1 1.2-.6 1.9-1.9 1.9l-2 .1-.2-.1h-.1l-.2.2-.2-.2v-.1h.3l-.2-.4h-.3l.1.1v.2c-.3.3-.7.5-1 .5l-2.5.1-.1-.2-.2.2-2.4.1-.6-.6h-.1v.5h-.2c0-.3-.3-.6-.8-.9v.5c.4 0 .6.1.6.3v.2l-3 .2-.9-.1-.7.2-.2-.1h-.1l-.6.2v-.2l-.2.2-2.1.1-.1-.2-.2.2-1.5.1c-.5 0-1.9-1-4-3.1l-.9-.6c-.4-1-.7-1.5-.9-1.5 0 .3-.1.5-.3.5-.4-.8-.9-1.2-1.4-1.1v.3c.3 0 .9.5 1.7 1.6l.2-.2.2.6c-.3 0-.5.1-.4.3v.3c.6 0 .9.3 1 1h.1v-.3l.2-.2-.2-.1h-.1v-.6h.1c.6.2 1.2.7 1.8 1.4.2 0 .9.5 1.9 1.6v.2h-.5l-.6-.1-.4.2-.3-.3-.3.3h-.3l-.1-.2-.2.2-2.3.1c-1.1.1-1.7-.4-1.8-1.4l-1.1-21.8h.2c.2.7.4 1 .6 1v.3l-.1-.2h-.2v.2l.3.7-.1.6.3.3c0-.3.1-.5.3-.5h.1c.2 0 .3.2.5.6l-.1.2c.6 0 .9.3 1 .9l.4-.3.1.2v-.2l-.8-.6.1-1.1h.3c0 .3.5.9 1.3 1.8v.3l.7-.2v-.2c-.4 0-.6-.2-.8-.6v-.1h.3l.2.1h.1l-.1-.1v-.3l1.3.8v.2l-.4.2.2.4h.5l-.2-.2v-.3h.5c0-.2-.8-.9-2.4-2.2l-.3-.3-.1-1.1c-.5 0-.8-.1-.8-.4l.4-.2 3.1 1.7v-.2l-.3-.3.1-.2c-.8-.4-1.7-1.1-2.7-2.1v-.2h.3l.2.2h.1l.2-.2v-.6c-.5 0-.8-.3-.8-1h.1c-.1-.3-.3-.5-.8-.7h-.2v.2l.2.1v.2h-.3c-.2 0-.3-.1-.3-.4l-.2.2h-.1l-.3-.3v-.3l.2.2h.3c0-.3.1-.5.3-.5 0 .2.3.3.9.5v-.1c-.2 0-.3-.2-.4-.6l-.5-.1-.6.2-.2-.2h-.2l-.1.2-.2-.4h.5v-.9c-.4 0-.6-.1-.6-.4l.3-.3-.9-.2.3-.3.2.2h.1v-.2l.2.2h.5l-.5-.6.2-.1-1.4-.7-.2.2.2.1v.3l-.4.5h-.2l-.2-3.3h.2l.4 1.5h.5l.1-.8v-.3h-.3l.2.7c-.4-.1-.6-.6-.7-1.3l.3-.3h.1c0 .4.1.6.3.6l.3-.3.3.3.1-.1.2.1h.6c0-.2-.2-.3-.6-.3v-.2l.3-.3h.2l.7 1-.2.1v.2l.8.3.1-.2.2.2v.3h-.3c0 .2.3.7 1 1.3v.2h-.5l-.5-.3h-.3l-.2.2h-.1v-.3h.3v-.2c-.4 0-.6-.1-.6-.3v-.2h.5l.2.2h.2v-.2l-.2-.2v-.1l.2-.2-1.4-.4v.2l.5.6h-.2c.3.9.7 1.3 1.4 1.3v.2l.2-.2h.2l.1.2h.2l.2-.2h.1l1.3.4.2-.2h.1l.2.2v-.2l-.2-.4.2-.2h-.2l-.3.3h-.3c0-.2.1-.3.5-.3v-.2l-.2-.1v-.2h.5v-.2h-.3l.3-.5h-.5v-.3h.5v-.2c-.5 0-.8-.1-.8-.3h.3c0-.3.1-.5.3-.5v-.3l-.9-.2-.1.5h-.1l-.7-.7.2-.2-1.1-.4.2-.2v-.1l-1-1.6h.5c-.6-.4-1.1-1.2-1.5-2.4l.2-.2h.2l-.3-.4.2-.2v-.3c-.3 0-.5-.1-.5-.3v-.2zm-1.9 4.9h.5l.3.3v.3h-.3l-.2.2-.2-.2-.1-.6zm.5 5.8l.6.1v.2h-.3v.6h.3l-.3.3-.3-.4.2-.2h-.3v.3h-.2v-.6l.3-.3zm-.2 2.5h.3l.2.4-.2.1.2.2h-.2l-.3-.3v-.4zm.1 2.9l.3.3v.3l-.3-.3v-.3zm.2.7h.3l-.1.5h-.1l-.1-.5zm.3-13c.2 0 .3.2.3.7h.3l-.2.2v.1l.2.2-.2.2h-.3l-.2-.4.2-.2-.2-.2h-.2l.3-.6zm-.1 11.2h.2l.3.3h-.2l-.3-.3zm.2-1.7c.6 0 1 .3 1.1 1h-.3l-.8-.9v-.1zm.4-8c.4.1.6.4.7.9l-.6-.6-.1-.3zm.2 1.1h.5v.3h-.2l-.3-.3zm.3 8.5c0 .2.2.3.6.3l.2.4-.1.2c-.5-.1-.8-.3-.9-.7l.1-.2h.1zm-.2-7v.2l.3.3v-.5h-.3zm.2 20.9l-.1.1v.5l.1-.1h.2l.6.3v-.2l-.8-.6zm-.1-8.1v.2l.3.3-.3.5h.2l.3-.5-.5-.5zm.4-11v.2l.3.3.1-.5h-.4zm.1 7.2h.3l.5.4-.3.3-.5-.6v-.1zm.4 11.1l.1.2v.1l.6-.2-.2-.4-.5.3zm.2-6.4v.5l.1.2h.2v-.2l-.2-.4-.1-.1zm.3-11.2l-.3.5h.2l.4-.3.5.3.2-.2v-.3l-.9-.1-.1.1zm.3 3.8h.2l.2.8h-.2c-.5 0-.8-.2-.8-.4v-.1l.1.1h.2l.3-.4zm-.4 20c.3.3.5.6.5.9l.1-.2h.3l1.3 1.3-.1.5.1-.2h.2l.5.3c-.4-.6-.7-1.2-.7-1.7h.3c0 .4.2.6.6.6v-.2l.2.2h.3l-.3-.4.2-.2v-.1l-.9-.3-.4.2-.5-.4h-.1v.1c0 .2.2.3.5.3l.2.4-.2.2h-.2c-.2 0-.4-.3-.7-.7l.1-.5h-.2l-.6.2-.3-.3h-.2zm.1-.7l.2.1h.3l-.2-.4-.3.3zm.1-29.8v.3l.2.4h.1v-.3l.2-.2-.3-.3-.2.1zm.3 12h.2l.3.3h-.2l-.3-.3zm.1-12.2v.2l.3-.3v-.2l-.3.3zm.4 7.3l.2.2v.1h-.5l.1.2v.2l.2-.2h.2l.1.2h.2v-.6l-.5-.1zm-.2 21.9c0 .2.2.3.5.3v.3h-.3l.2.6h.3v-.3l.2.1h.2l-.3.6.2-.2h.3v.3h.5v-.5l.9.5v-.1l-.2-.4.1-.5h-.2l.2-.2v-.3l-.3-.3v.2l.2.2v.1l-.4.3-.2-.1.2-.2v-.3l-.2.2h-.1l-.2-.2h-.2l-.1.2-.5-.6-.8.3zm.1-30.1v.1l.3.3h.1l-.4-.4zm1.4 27.2v.3c-.9.4-1.3 1-1.3 2.1l1.5.4h.5v-.1l-.8-.1v-.3h.1l.2.1h.2v-.1l-.3-.3c.2 0 .3-.2.3-.5l.3.3-.2.1v.2l.5.3h.2l.3-.6c-.4 0-.7-.5-1.1-1.5l-.2-.2-.2-.1zm-1.1-6.9c0 .4.3.7 1 .9v-.3l-.3-.3-.2.1-.5-.4zm.1-3.4l.6.6v.2l-.6-.3v-.5zm.2-16.5l.3.6h.2v-.5l-.2-.1h-.3zm.2 11.8l.2.4.3-.3v-.2l-.2.2h-.1l-.2-.1zm.4-7.5h.3v.6h-.2l-.1-.6zm.2.9h.2l.3.3h-.2l-.3-.3zm1.1 7.4l-.2-.2h-.9l.1.2v.2l.2-.2h.2l.9.6h.3l-.5-.4.1-.5-.2.3zm-1.1 14.7l.3.3v.1l-.3-.3v-.1zm.1-13.7v.2h.3l.2-.2v-.2l-.5.2zm.8 11.8l-.4.8.3.4-.2.2v.2l.2.1h.3l.1-.5-.2-.7.5.3v-.1c-.1-.4-.3-.6-.6-.7zm-.2-3.2v.5l.3-.3-.2-.2h-.1zm.3 11v.5h.2l.1-.5h-.3zm.6-9l-.4.8v.3l.3.3h.6l-.2-.2v-.5l.2.1h.3v-.1l-.2-.4h-.2v.3h-.3v-.6h-.1zm-.4 10.1v.3l.5.1v-.2l-.5-.2zm0-34.7v.2l.6.4v-.2l-.6-.4zm.3 6.1c0 .3-.1.5-.3.5v.2h.6l-.2-.6-.1-.1zm-.1.9l-.1.6.5.3h.5l.3-.3c-.6 0-.9-.2-.9-.6h-.3zm.6 2.4c0 .2-.1.3-.4.3l-.1.1v.3c.4-.3.7-.5.7-.8l-.2.1zm-.6-7.7v.2l.2.4h.2v-.2l-.2-.4h-.2zm.4 3.9v.2l.5.1v-.1l-.1-.2h-.4zm.3 11.3v.2l.5.3v-.2l-.5-.3zm.2 6.4v.2l.2.4-.3.3c.2 0 .3.2.3.6h.5v-.3l-.2-.1v-.2l.2-.2h.2l.1.2v.2l-.1.1h.1l.2-.1v-.2c-.3-.1-.5-.4-.5-.9l-.2.2h-.1l-.2-.2h-.2zm.1-14.6v.3h.3l-.2.2v.3l.3.3.1-.2-.3-.6.2-.2v-.3l-.4.2zm.6-4l.2.4h.1v-.5l-.3.1zm.2 16.4l.4.6-.2.2v.5h.2c0-.3.1-.5.4-.8h-.3v-.5h.5v-.1h-.3l-.7.1zm.1 1.4v.2l.2.4h.3v-.2l-.5-.4zm0 .8l.2.4h.2v-.3l-.2-.2-.2.1zm.2-16.7l-.2.1v.3h.2l.1-.5-.1.1zm.2 7v.6h.2l.3-.3v-.2l-.5-.1zm.1 15v.3l.3.3h.2l.2-.2.1.2h.3v-.2c-.3 0-.5-.1-.5-.4l-.2.2h-.2v-.5l-.2.3zm0-21.5h.5c0-.3.1-.5.3-.5l-.2-.4-.6.9zm.1-4.6v.2l.5.3v-.1l-.5-.4zm.1 19.4v.8h.1v-.3h.2l.6.4h.1v-.2c-.3 0-.5-.2-.8-.7h-.2zm.1-.7l1 .9v-.3c-.4 0-.6-.2-.6-.6h-.4zm.3 8.4c0 .4-.1.6-.3.6l.5.9h.2v-.3h.3c.1.5.3.8.5.8v-.3l.9.3v-.3l-.9-.1-.1.1-.2-.1v-.2h.3c0-.2-.3-.3-.8-.3v-.3l-.2-.1.2-.2h.2l-.2-.2v-.2l.2-.1h-.6zm-.1 3.5v.5l.5.1-.1.2v.3h.1v-.3l.2.2h.3v-.2l-1-.8zm.3-14.8v.3l.2.2h.1l-.2-.4-.1-.1zm.1 16.9v.2l.2.6h.2v-.3l-.2-.4-.2-.1zm.1-.6v.1l.3-.3v-.2l-.3.4zm1.4-.8l-.1.5h.1l.3-.3-.2-.2h-.1zm2 .2l.5.7h.1v-.2l-.2-.6-.4.1zm.2-1.1l-.1.6.6-.2v-.2l-.3-.3-.2.1zm.2-1.5h.3l.1-.8c-.1 0-.3.3-.4.8zm.1 1.3l.2.2h.3l-.2-.4-.3.2zm3.3 1.6v.1l.1.2h.3v-.2l-.4-.1zm.4 1.9v.2l.5.4h.2c-.2-.4-.3-.6-.5-.6h-.2zm.2-7.6v.3l.1.2h.2l-.2-.4-.1-.1zm5.5 2.4v.2l.5.3v-.2l-.5-.3zm.8.8c.2.4.3.6.5.6h.2l-.7-.6zm.3 3.6l.5.4h.2v-.3l-.7-.1zm.4-2.5l1.4.7v-.2c-.4-.4-.7-.6-.9-.6v-.1l-.5.2zm1-3.1h.5v-.3h-.2l-.3.3zm.5 4v.1l.5.3v-.2l-.5-.2zm3-4.3l.2.4h.3l-.5-.4zM247.3 128l1.7-.1c3.3-.2 6.1.4 8.5 1.7l-.3.3.4-.3.9.4-.1.1v.2l.3.3.2-.1v-.1c2.1 1.4 3.2 2.4 3.2 3l-.1-.1h-.2c-.3.5-.6.8-1 .8v.1l1.3.1.1-.1.2.9-.3.3h.3c0-.3.1-.4.3-.4h.4l1.2 3h-.2c.3.7.5 1.5.6 2.4 0 .7-.4 1-1.4 1.1l-1-.5v.2l.5.4-6.2.3c-.6 0-1-.2-1.2-.8l1.5-1.2-1.4.8h-.2c-.1-1.3-.9-2.4-2.5-3.5l-1-.2.4-.5v-.2l.1.2h.1c0-.2.1-.3.4-.3v-.3h-.1l-1.1.9h-2.4l-1.5.1-1.6.2h-.1v-.1l1.3-.6v-.3h-.1l-.6.5-.6-.1-.7.9h.3v.1c-1.4.6-2.1 1.4-2 2.4l.1 1c0 .5.5 1.1 1.5 1.9l-1 .5v.2h.1l1.1-.7c1.1.5 4.5 1.3 10.1 2.2 5.2 1.4 8 2.8 8.6 4.2l-1 .6.1.1c0 .3-.5.7-1.7 1.4h-.7v.2l.2.4h-.2c-1 .4-1.8 1-2.4 1.7-.3 0-.9.5-1.8 1.4-1.2-1.1-3-1.8-5.3-2-3.8-.6-6.1-1-6.9-1.4l.1-.1v-.3l-.3-.3v.6l-.2-.2h-.1l-.4.2-.4-.1v-.3l.7.1v-.1l.1-.2h.1l-.5-1c-.5.1-.7.3-.7.8-.2 0-.3.2-.3.4-.3 0-1.4-.4-3.1-1.1v-.6h.9v-.3c0-.2-.3-.3-.9-.3 0-.3-.1-.4-.3-.4l-.1.1v.2l-.2-.2h-.3l-.6.5-.1-.1v-.1c.1-.4.3-.6.4-.6l.1.2.3-.4-.3-.3-.1.1-.1-.1h-.4l.2.7-.1.1h-.2c-1.3-1-1.9-1.9-2-2.6v-.2l.1-.1v-.1h-.1l-.1.1h-.2c-.6-1.7-.9-3-.9-4v-.7c.4 0 .7-.2.8-.6l.1.2h.3c-.1-.4-.2-.6-.5-.6v-.3l.3-.4h-.1l-.4.5h-.3l-.2-.7.1-.4h.6l-.2.1v.2h.2c.3-.2.7-.3 1.1-.4l-.1-.1v-.2c.7-.2 1-.6 1.1-1.1l-.8-.5c-.6.2-.8.6-.8 1l-.1.1h-.3l-.1-.1-.2.1h-.3v-.1c.5-2.5 1.8-4.5 3.7-6 1.7-1.2 3-1.9 3.8-1.9v.4h.3c.2-1.3 1.8-1.9 4.9-2.1zm-9.1 27.3l1-.1v.3h.1v-.3l3.3-.2c1 0 1.5.8 1.6 2.7l-.1.1c.3 0 .7.3 1.1 1 .7.6 1.6 1.2 2.7 1.6v.3h.2v-.3l1.4.2-.3.4.2.1c-.9.7-1.6 1.5-2 2.3-.4.1-.6.2-.6.5l.2.1h-.2l-1.1-.1v.1l-.1.9-1 .1-.3.6-.1-.2h-.1c-.6.1-.9.2-.8.5l.5.8h-.7l-.4.5c-.5 0-1-.2-1.5-.8h-.2v.3l-1.5-.8v-.1l.1-.2v-.1h-.1l-.2.1h-.1c-1.7-1.7-2.7-3-2.9-3.9l.1-.2h-.1l-.2.2-1.2-4 1.4-1.1h.3l.1.1h.2l.7-.9c-.2-.2 0-.5.6-.5zm-3.1.4l.1.2v.1l-.1.1h-.3v-.1l.3-.3zm.2-14.6v.1l.3.3.1-.1v-.3h-.4zm.7 16.2l.1.1v.2c-.3 0-.4.2-.4.6h-.4l.3.3c.2 0 .3-.3.4-.8h.7l-.3-.6-.4.2zm0-18.7c0 .3-.1.4-.3.4v.2h.9v-.2l-.5-.4h-.1zm-.1 5.8l.2.4.3-.3v-.3h-.1l-.1.1-.3.1zm.6-7.4v.3h-.4v-.1l.4-.2zm-.1 2.3l-.1.4h.3l.1-.4h-.3zm.4 2.5l-.3.3.1.2v.1c.4-.2.7-.4.7-.6h-.1v.1l-.2-.1h-.2zm2.8-6.1v.3c-.4 0-1.2.6-2.4 1.9l-.1-.2h-.1l-.2 1.3v.2l.7-.8.1.1v-.1l-.1-.1c.5-.1.7-.4.7-.9.2 0 .3.2.3.6h.1c.1-.6.3-1.1.7-1.3v.4h.3c0-.2.1-.5.4-.8v-.6h-.4zm-2.2 9.9v.1h.4v-.4h-.2l-.2.3zm.1 10.4h.1l.3-.3v-.2l-.4.5zm.1-21.4v.2c.2.4.5.5.9.5v.4l-.3.4h.1c.8-.5 1.1-1 1.1-1.7l-.1-.1h-.2l-.3.3-.5-.3-.7.3zm.1 7.8l.5-.5v-.1l-.5.6zm.4 2.8h.3l.5-.5v-.1h-.1l-.7.6zm.1-4.3v.3h.3c.4-.4.7-.6 1-.6v-.3h-.3l-1 .6zm.4 7.8h.4v.3h-.1l-.3-.3zm1.4-2.9l.1.1c-.2.4-.3.7-.5.8v-.6c-.7.4-1 .8-1 .9h.2l.6-.2v.1l.2-.1h.1l1.3.4.3-.9c-.3 0-.4-.1-.5-.4l-.8-.1zm-.9-7.8v.2h.4v-.3l-.4.1zm.2 4.3v.2l.6.1c0-.2-.2-.3-.4-.3h-.2zm.4 5.4v.3h.1l.6-.5h-.2l-.5.2zm.3-5.7v.3l.4.1-.2-.4h-.2zm.2 23.3h.1l.3-.3h-.1l-.3.3zm.2-25.8v.3l.6-.2v-.4l-.6.3zm.4-1.7v.3h.3l.3-.3h-.6zm0-2.6v.3l.4-.2v-.1h-.4zm0 11.1l.3.3-.1.1h-.1l-.1-.4zm.2-3.9h.4l.1-.2.1.2-.4.7v.6l.3.3c.2-1.1.4-1.6.6-1.6l-.2-.4.1-.7c-.6.4-1 .8-1 1.1zm.5 4l.2.2h.1l.1-.6-.4.4zm.1 20.3v.1l.4.1.1-.1v-.1l-.1-.2-.4.2zm.1-19.7v.3l.4.1v-.3l-.4-.1zm.2-14.9l.9.5.3-.4h-.6v-.1l.2-.2v-.1h-.4l-.4.3zm.4 5.3v.7l-.4.6.4.3-.1.6v.2h.1c.1-.9.2-1.3.4-1.3l-.1-.2v-.9h-.3zm-.2-2l.1.1v.1c0 .5-.1.7-.2.7l.3.8h.3l-.2-.7h.1l-.1-.1v-.7l.1-.1v-.1h-.4zm0 30.8v.1l.7.1v-.1l-.3-.3-.4.2zm.1-6.8v.3l.6.1h.4v-.2l-1-.2zm.6-15.7c0 .3-.2.4-.6.5v.2h.3c.4-.2.6-.3.5-.5l-.1-.2h-.1zm.6-.7l-.1.2.1.1v.3h-.3l.2.4.7-.5v-.3l-.6-.2zm-.1-7v.2l.6.2h.4v-.1l-1-.3zm.1-2.7l.3.3h.1v-.3h-.4zm20.8 16.1l.3.3.1-.2h.1c1.2 1.9 1.8 4 1.9 6.3.1 2.4-.4 4.7-1.7 6.9l-.1-.1h-.3l-.1.1h.4c0 .2-.4.5-1.1.9l-.1.2v.1h.1c-.4.9-.9 1.4-1.7 1.4l.2.1v.2c-2.6 1.7-4.4 2.5-5.5 2.6v-.1c-.6.4-1.9.7-3.9.8l-1.6.1c-2.3.1-4.8-.1-7.6-.8l.1-.1v-.4l-.1-.1v-.2c.6 0 1.1-.4 1.4-1.2.3 0 .7-.3 1-.8h-.4v-.1l1.6-.4v-.1h-.3v-.2c1.2-.5 2.2-1.4 2.9-2.6.4-.3.8-.5 1.3-.5v-.3h-.3v-.2l3.9-.9c1.2-.6 2.3-1.6 3.3-2.9l-.1-.1v-.1c.3 0 .4-.1.4-.3-.3 0-.6.3-1 .8l-.1-1.2.3-.3.7-.3v-.2h-.3c0 .2-.2.4-.7.5v-.1c0-.2.2-.3.6-.3 0-.4.2-.6.5-.6 0-.2.8-.9 2.3-2.3v-.2l.2.2h.1l1.9-1.7v-.3l.1.2h.4c0-.3.1-.4.4-.5.1-.7.3-1 .5-1zm-20.3-18l.1.2.4-.2v-.3h-.3l-.2.3zm.1 1.1v.1l.1.2v.1l.4-.2-.3-.3-.2.1zm.3 16.8l-.1.6 1.3.8.1-.2v-.1c-.6-.2-.9-.6-.9-1.1h-.4zm1.2 17.9l-.3.4.6.1.1-.2v-.4l-.1.2h-.2l-.1-.1zm.6-19.4l-.3.3-.1.1c-.2 0-.3.2-.3.4v.1h.1v-.3h.2l.4.1.2-.9-.2.2zm-.3 2.5v.3h.3c0-.2.1-.3.4-.3v-.3h-.1l-.6.3zm.8 16.1l.6-.2v-.3h-.1l-.5.5zm.6.8l.3.3h.6l.3-.3v-.2h-.4l-.8.2zm1.3-6.1v.3l.4-.5-.4.2zm.5 4h.7l.8-.8c-.9.3-1.4.6-1.5.8zm.8-13.3h.3c0-.3.1-.4.4-.5l.7-1.1h-.1l-1.3 1.6zm1 12.4v.1h.4l.3-.3h-.3l-.4.2zm.1 1v.2h.6v-.2h-.6zm.2-31.9v.4l.9.1-.5-.4v-.1h-.4zm.9 33.1v.2h.7v-.2h-.7zm.9-14.4v.1h.7v-.1h-.7zm1 12.1l-.3.3v.1l.3.3.3-.6v-.2l-.3.1zm1.7-30.9l-.2-.1h-.1l-.6.2v.3h.4l.6-.2.7.2v-.4l.1.2h.1l.3-.3-.3-.3v-.1c.3 0 .6-.2.8-.6-.9.4-1.5.8-1.8 1.1zm-.9 30.7h.1l.3-.3v-.3l-.4.6zm.6-24.6v.2h.3l.1-.4h-.1l-.3.2zm.1-7.4l1.7-.8v-.1h-.1c-1.1.4-1.7.7-1.6.9zm.1 19.1v.1h.2l.7-.2-.2-.6h-.1l-.6.7zm.3-16.3h.3l.7-.2v-.1l-.4-.1-.6.4zm0-4.6v.1h.3v-.4l-.3.3zm.4 17.7l.3.3h.1l-.3-.3h-.1zm.3-11.3h.6v-.4h-.2l-.4.4zm3.5-1l-.1-.1-.1.4-.9-.3h-.1l-.3.6.2.4h-.3v.3h.7l.3.3-.7.5c-.4-.1-.6-.3-.6-.7l.1-.1h-.4c0 .3-.3.4-1 .5l-.1.1v.3l.3.3h.6c0-.3.2-.4.7-.5.2.4.3.6.5.6l2.5-1.9-.2-.2v-.1l.7-.8v-.1h-.7c-.4 0-.7.2-1.1.5zm-3.1 12.6v.1l.3.3h.4v-.1l-.7-.3zm.2-7.3v.3l.9-.2v-.1l-.1-.1v-.2l-.8.3zm.2 9l-.2.1v.2l.4.1v-.1l-.2-.3zm-.1-10.6v.2l.5-.6h.1v-.3c-.2.1-.4.3-.6.7zm.4-6.6v.1l.4-.2v-.3h-.1l-.3.4zm.1-1.2l.2.4.1-.1h.2l-.2-.4-.1.1h-.2zm.4 24.8h.1c.8-.4 1.3-.6 1.3-.8l-.1-.2h-.2l-1.1 1zm1-23.9v.6h.3v-.6h-.3zm.1 1.3v.1l.2.4-.2.1h.3l.3-.3v-.2l-.3-.3-.3.2zm.3 31.1v.3h.1l.3-.3h-.4zm.4-10v.1h.6l.1-.1v-.1h-.1l-.6.1zm1.1-1.2c0 .2-.1.3-.4.3v.1h.1l.6-.2-.2.1v.3l.4-.5-.5-.1zm-.4 8.7v.2h.3l.1-.2v-.1l-.4.1zm.2-1.8l.1.2v.1l-.1.1h.1c0-.2.2-.3.6-.3l-.3-.3-.4.2zm1-22.4l-.3.7.6.4h.4l.3-.3v-.1h-.4l.1-.2v-.1l-.7-.4zm-.3 15.5v.2h.2l.4-.5h-.3l-.3.3zm.6-.6v.1l.1.2h.3v-.2l-.4-.1zm.6 7.9l.2.4.3-.3-.1-.2-.4.1zm1.7-11.7l.3.3v.1l-.3-.3v-.1zm.5 10.8l.4.3.2-.1v-.1l-.3-.3-.3.2zm.1-1v.2l.7.1h.2v-.3h-.3v-.1l-.6.1z"/><text transform="rotate(-3 3341.494 -5058.775) scale(.99997)" class="st0 st4 st5"></text><path class="st0" d="M277 126.5l.5.1.6-.2v.2l-.7.7.2.1v.2l-.3.5v.2l.9-.7.3.3v.2c0 .4-.3.9-.8 1.4h.2l.3-.3h.2v.2l-.3.5.2-.2h.3l-.2.2v.2h.3v.1l-1 1.4h.2l.3-.3.2.2h.3v-.2h-.3l.3-.3h.1v.2c0 .6-.2.9-.7.9l.3-.5h-.2l-.3.3.2.2v.2c-.3 0-.5.1-.4.3v.3l.7-.7h.2v.2l-.9 1v.2l.9-.7.3.3v.5l-.7 1v.1c.4-.2.6-.5.6-.8h.1v.8c-.4.1-.6.2-.6.5v.2l.5-.3h.1v.3h-.3v.2l.2 1.1h.1l.3-1.2v-.2l-.2-.1.1-.5.5.4v.1h-.3v.5l.2-.2h.2l.2.2h.1c0-.3.1-.5.4-.5 0-.2-.3-.3-.9-.5v-.2h.2l.2.2h.1v-.5c-.4 0-.7-.1-.9-.4l.1-.6.9.4.8-.2v-.5l-.6-.1v-.2h.5v-.1h-.5v.1l-1-.4v.5h.3v.2h-.5l-.1-2.3.5.3h.2c0-.3-.2-.5-.6-.4v-.5l-.2-.4.1-.8-.1-1.8 5.3-.3.3.3-.4.3-.2-.2-.1.8h.1l.3.3h.2v-.5h-.3v-.2c.3 0 .6-.3.7-1 .6.2 1 .4 1.1.7h-.3v.6l.2-.1h.2l.1.1v.9c-.3 0-.5.1-.4.3.4.4.7 1.2.7 2.1l.2 6.4-.1.5h.1l-.1.2v.2l.1.2-.2 1.4h-.2l-.1-.2h-.2v.2l.2.2c-.3 0-.6.4-.9 1.1-.5 0-.7.2-.7.7h.3c0-.3.2-.5.7-.5 0-.3.3-.7.9-1.1h.2l-.3 3.6.1.2c.1 1.1-.2 1.7-.7 1.7v.1l.3.3c-.3 1.8-.6 2.7-.8 2.9l-.3.6h.5l-.2.2.3.9-.3.3.2 1.1c-.2 0-.3.2-.3.5l.2.7-.6.4-.5-.1-.2.2v.2l-.5-.1-.9.3v-.3h-.2l-.3.6v.9l.5.1.1-.5 2.1 1v.3c-.1.3-.4.5-.9.5l-4.1.2-.2-1.2h-.1l-.3.3.2.2-.2.1.5.1v.5c-.5-.2-.8-.5-.8-.9l.1-.5h-.1l-.8-3.3.2.2h.1v-.2l-.5-1v-.2l.3-.6.1.2h.2l.1-.9h-.3c0 .5-.1.8-.4.9h-.2v-.2l-.2-1.4v-.3h.1c.1.6.3.9.5.9v-.2l-.9-1.9v-.2h.2c0 .3.2.4.6.4v-.2l.1-.1-.1-.2v-.2l.2-1.1h-.2l.2-.1v-.3l-.2.2h-.1l-.5-.1v.2c0 .2.2.3.5.3l-.3.8.2.7-.8-.7v-.6l.3-.5c0-.2-.2-.3-.5-.3l-.3-2.3h.2c-.2 0-.5-1.9-.9-5.8l.1-.1h.2l.2.1h.2l.4-.2v.1l-.1.6h.2l-.4 1h.1l.9-1.1c0-.4.1-.6.3-.6l.2.1h.1v-.3h.2l.3.3-.5.5h.2l1-1 .8.4v-.1l.5.1v.3c-.4.1-.6.2-.6.5l.9-.7v.3h.2l-.2.1v.5c.3 0 .5-.2.4-.6h.3v.1l-.2.2v.2h.2l.4-.3.2.2v-.2l-.2-.1v-.2h.2l.3.3-.1.2 1.1.6v-.2l-.6-.4-.2-.2v-.1l.1-.6-.2-.2h-.2l-.6.3-.9-.4v.3l-.3-.3.1-.1h.2c-.2-.4-.3-.6-.5-.6h-.3l-.4.5c-.3 0-.5-.2-.5-.6h-.3l-.1.8.2.1v.2h-.3v-.3l-.5-.1-.2.2h-.3l.2-.2v-.3l-.3-.3c0 .4-.3.6-.9.7v-.5c-.2 0-.3.2-.3.6h-.3v-.6l-.2.1h-.1l-.2-1.1v-.5l.8.7h.1c-.6-.8-1-1.5-1-2.1l-.2-3.4c0-2.8.5-3.9 1.6-3.9zm.9 3.6l-1.5 1.3v.2l1.8-1.3v-.2h-.3zm-1.1 10.7v.1h.5v-.3l-.5.2zm.3-11.4l-.3.5h.2l.3-.5h-.2zm-.2 12.4c.1.5.3.7.5.7v-.3l-.2-.8-.3.4zm0-10.4v.5h.2l.1-.5h-.3zm0 3.2l.2.4h.2v-.5l-.4.1zm.3 8.7v.2l.5.9-.1.8c.3-.1.5-.4.4-.9v-.2h-.3v-.1h.3l-.8-.7zm.1-14.4v.2l.4-.5h-.2l-.2.3zm1.3 28.6l1.2-.1v.2l-1.2.7v.3h.2l1.6-1.2h.3l.2.2.1-.2h.9v.3h-.3v.2h.2l.4-.2.3.3v-.3h-.3l.3-.3h.1c.3 0 .7.1 1.1.4l.2-.2c0 .7.2 1.1.4 1.1 0 .2-.4.6-1.2 1.1l-1.1-.7.1-.1v-.3l-.8-.4v.2l.8 1h-.1l-.2-.2h-.2v.2l.6.3v.2l-.1.8h.5l-.2.2v.3c.2 0 .3-.3.3-.8h.3l.1.2h.2c.7-.7 1-1.5 1-2.4l-.5-.8 1.7-.1c.8 0 1.3.2 1.6.7l.1 2-1.1.1-1.8.7-.6-.1h-.2l-.6.4v.5l.8.1h.5l.4-.3h.2v.3h.8l.5.3v-.5h.3l.1.2.2-.2h.2l.5.1.1 1.5-.2-.1h-.1l.3.9.1 1.1-.1.6.2.6c-.1.8-.5 1.3-1.2 1.3l-1.7-.4v.3h-.1c0-.7-.6-1-1.7-1v.6l.8.1v.2l-.1.1v.2l-.2-.1h-.2l-.9.2-1.4-.4v.3h-.3v-.1l.3-.5c-.3-.3-.8-.4-1.5-.4l.2-.1v-.5l-1.2.1v.5h.3v.1c-.4 0-.6.1-.6.4h-.2v-.3h-.2l.2-.1-.2-.8-.2-4.4.2-.2-.2-.1-.1-1.4.1-1.1.2.2h.2v-.2l.1.2h.5v-.2c0-.2-.2-.3-.5-.3v-.2l.5-.8zm1.8 1.1c-.4 1-.9 1.7-1.6 2.1h-.2l.4-.6v-.2c-.4.2-.9.6-1.3 1.1h-.2v.2c.5 0 1.2.4 1.9 1.4 0 .3.2.4.5.4l.2.2v.5h-.5l-1.1-.1-.3.5v.2c0 .2.4.3 1.3.5l.4-.2.3.6h.5c0-.5.2-.8.7-.8h.3l-.3-.3.1-.8v-.1h-.5l-.5.3h-.1l-.2-.7c.2 0 .4-.3.4-.8h-.6v-.3h.3v-.1l-.5-.1-.2.2v-.3h-.2l.2-.1-.2-.8.6-.8v.3h.3v-.8l.2-.1v-.2l-.2-.2.1-.1zm-2.2-31.7h.1c0 .3-.2.5-.6.5h-.1v-.1l.6-.4zm-.2.9l-.3.6.1.2h.2v-.2l-.2-.1.3-.3v-.2h-.1zm-.2 6h.2c.4-.2.6-.5.6-.9h-.2c-.2 0-.4.3-.6.9zm.2 32.9h.3v.5l-.3-.3v-.2zm.6-.5h.1l1.4.9v.1h-.5l-1.1-.9.1-.1zm.4-13.5l-.2.2v.2c.3 0 .5.4.5 1.2h.2v-.6c-.2-.7-.3-1-.5-1zm0-22v.2l.2.1-.2.2v.3h.2l.2-.2h.2l-.2-.6h-.4zm.4 6.2l-.3.5h.2l.3-.5h-.2zm.2 13.5l-.2 1.4h.3l.2-1.4h-.3zm-.2 1.7v.3l.5.1v-.2l-.3-.3-.2.1zm.1-14.6v.2c.4-.2.6-.3.6-.5h-.3l-.3.3zm.2-7.8v.3h.6l-.3-.3h-.3zm.7 6.4v.3h.2v-.3h.2v.6h-.2l-.5-.4.2-.2h.1zm.4 16.5l-.7 1.4h.3c0-.5.2-.9.5-1.4h-.1zm-.1 3.1l-.2-.2h-.2v.3l.5.1.3-.5v-.2l-.4.5zm-.2-21l.3.3h.1l-.3-.3h-.1zm.5 23.9l-.2.2v.2h.5l-.3-.4zm0-25.7c.3 0 .5.1.5.4h.3l.3-.3v-.2c-.4 0-.6-.1-.6-.3h-.1l-.4.4zm.4 19.3l-.3.5h.1l.3-.5h-.1zm-.2 9.9h.1l.3-.3h-.2l-.2.3zm.1-3.1v.6h.3v-.3l-.3-.3zm1.1-28.5l-.8-.3-.2.1v.3c0 .2.2.3.5.3l.2.2v.2l-.2.1v.2h.2c.5-.3.8-.9 1.1-1.6l-.8.5zm-.7 31.1h.2l.6-.6h-.2l-.6.6zm2-29.7c0 .2-.5.6-1.5 1.3l-.4.6c.4-.2 1.1-.8 2-2l-.1.1zm-1.6-4.8c.2 0 .3.1.3.4l1.1-.4v-.2h-.5l-.2.2c0-.4-.1-.6-.3-.6l-.4.6zm.8 21.3v.3l-.2-.1h-.3l.2.1v.2l-.3.5v.2c.4-.2.7-.4.9-.8l-.3-.4zm.4-15.4l-.2.2v.2l.8.1v-.1l-.3-.3-.1.2-.2-.3zm-.1 7.4l.3.3.2-.2v-.1h-.5zm.1-11v.5h.1l.3-.6-.4.1zm0 32.8v.2l.3.3v-.5h-.3zm.2-13.8l.2.2-.3.3h.2l.3-.5v-.3l-.4.3zm0-20.4l.3.4-.1.1h.3l.1-.8-.6.3zm.1 13.6l.5.1-.2-.4-.3.3zm.8-11.7v.2l.1.1-.4 1.3c.2 0 .4-.7.8-2l-.4.5-.1-.1zm.3 3.5v.2c0 .2.3.3.8.4-.2-.4-.3-.6-.5-.6h-.3zm.5-5.4l-.3.5.2.8h.2v-.3h-.2l.3-.9-.2-.1zm-.1 1.9v.2l.6.4v-.3l-.3-.3h-.3zm0 35.1v.2l.6.1-.2-.4-.4.1zm.4 1.3v.2h.2l1.1-.4-.2.1v.2h.2l.4-.5v-.2l-1.7.6zM23.9 106.1l1-.1.5.2v.4h-.6l.3.4.6-.1-.1-.1v-.1l.3-.2.6.1v-.2c-.2 0-.4-.1-.7-.4l3-.3v.1c-.2 0-.3.2-.3.4.2 0 .4 0 .4.2v1h.1c.2 0 .3-.3.3-.9-.2 0-.4-.2-.4-.6l.7-.3h.1v.2l1.4-.4 7.8-.8.7.1.1-.1h.1c1-.1 2.5.2 4.7.9l-.1.1v.1c.9-.1 2.2.8 3.8 2.8v.2c-.2 0-.4.3-.8.8l-1.1.5v-.1c0-.2.1-.2.4-.3v-.2h-1.1l-.1.1v.1l-.1-.1h-.2c0 .4-.2.6-.7.7v.1h1.1l.1-.1.1.1-.1.1v.3l.1.1v.1l-.2.3h.2c0-.2.4-.5 1.1-1l1.5-1.4c.9 1.4 1.4 3.1 1.6 4.9.3 2.6-.6 5-2.7 7.1.4.1.9.5 1.3 1v.2c-.3 0-.7.4-1.4 1l-.1.1H47l.1.1c-.5.8-1.1 1.2-2 1.3l.1.1v.4c-.9.3-1.5.9-2 1.6l-.9.6h-.1c-.1-1.3-1-1.9-2.6-1.9l-3.3.3-.3-.2v-.1c.2 0 .5-.3.8-.8v-.1h-.1l-1 1.2-1.3.1-.1.1h-.1v-.1l-.1.1-1.8.2 1.1 10.1c-.4 0-.6.3-.5.7l-.2.3v.1l-.1-.1h-.4c0 .2-.1.4-.3.4v.2l-.5-.2c-.3.1-.4.3-.4.5h.2l-.1.1v.1l-.5-.2-1.3.3v-.2h-.1v.2l-.6.1-.5.2-.8-.2c0-.2.2-.4.8-.7v-.1h-.2c-.7.6-1.2 1-1.5 1h-.1c-.3 0-.5-.3-.6-1h-.1l.1-.1v-.1l-.2-1 .1-.5-.2-.3.1-.5-.1-.1h.1l-.1-.1-.2-1.6.1-.1-.1-.1-.1-.9v-1.5l-.1-.1.1-.1h.1l.1.1.1-.1v-.2c-.3 0-.5-.2-.6-.6v-1.2l-.3-1.3-.1-1.3v-1.5h.1v.2c.3-.1.5-.4.7-.7.6-.3 1.1-.7 1.4-1.2v-.3l-.1.1-.1-.1h-.1l-.2.3.2.3-.8.6-.1-.1h-.1l-.8.3v-.5l.5-.1v-.1c-.3 0-.5-.2-.6-.7v-1.5l-.3-1.2v-.4c0-.4 0-.8.2-1.1h-.1l-.1.1-.1-.1-.1-.5.3-.7-.4-.1.1-.1v-.1l-.2-.3.2-.4-.3-.7v-1l-.3-1.6c0-.4.1-.6.3-.7l-.1-.1v-.1c.4 0 .7-.4 1-1h.1l-.1-.7h-.4c0-.4.4-.8 1.5-1.3 0-.2 0-.4.2-.4l.1.1h.1l.1-.1v-.1l-.1-.1h-.1l-.7.4-.4-.1h-.1v.1h.3l-.6.7v-.1l-1 .5h-.1l-.3-.2v-1l.1.1c.3-.1.5-.2.5-.4h.2l.2.5.3-.2.1.1v-.2h.1l-.1-.1v-.2l.3-.8v-.1h-.1l-.2.8h-.1c0-.3-.3-.5-.8-.4v-.2h-.1l-.3.2-.1-.1v-.1l.1-.1v-.1l-.1-.4.4-.4h.9l-.4-.3zm-.7 4.1v.2h.1l.1-.1h.1l.1.1v.1l-.5.1v.1c.4 0 .6 0 .6.2l-.2.3.1.1v.1c0 .2-.2.3-.6.4l-.3-.3v-.2c0-.2.1-.2.3-.3l-.3-.6.1-.1.4-.1zm0-3h.3l.3-.4h-.3l-.3.4zm.5 2.6h.2c0 .2-.2.3-.6.4l.4-.4zm-.1 4.1h.1l.4-.3.1.1h.1l.3-.2v-.1c-.2 0-.4-.1-.4-.3h-.3c0 .2-.2.5-.3.8zm.7 6.1v.1h.2v-.4l-.2.3zm.5-2.4l-.2.3.1.1v.1c.4-.2.5-.4.6-.6h-.1v.1l-.1-.1-.3.1zm.6 11.6v.1h.5v-.1h-.5zm.1-8.4v.1h.4v-.4h-.1l-.3.3zm0-8.7h.5v-.4h-.1l-.4.4zm0 6v.1h.1l.2-.3v-.3l-.3.5zm.3-11.3v.1l.3.2h.1v-.3h-.4zm.1 10.1v.3h.2c.3-.4.6-.6.8-.6v-.2h-.2l-.8.5zm0-3.3l.1.1h.1l.1-.5-.3.4zm.1 6.8h.2c.3-.2.5-.3.5-.4v-.1h-.1l-.6.5zm.4-12.8v.1h.3l.2-.3h.2v.2h.1c0-.4 0-.6.2-.6l.1-.1.1.1h.2l.2-.6h-.1l-1.5 1.2zm0 29.4v.2l.5-.4-.5.2zm.1-22.6v.1h.4l.1-.1v-.1h-.1l-.4.1zm.9 6.6v.3h.2l-.3.4-.1-.5c-.5.4-.8.7-.8.8h.1l.5-.2v.1l.3-.3.9.4h.2l.1-.7h-.1l-.8-.4-.2.1zm-.4-3l.3.2h.1l-.3-.2H27zm.3 14.8v.1h.1c.7-.2 1.1-.4 1-.6v-.1l-1.1.6zm.3 3.4l.5-.1v-.2h-.3l-.2.3zm.2-20.4l.5-.2v-.4l-.5.6zm0-3.9v.2h.1l.3-.4-.4.2zm.3 2.2v.2h.4v-.2h-.4zm.3 3.9h.2l.3-.2v.3l-.3.5v.1l.2.6h.1c.1-.9.3-1.4.5-1.4l-.2-.3.1-.6-.8.6-.1.4zm.8 18.6c0 .2-.1.4-.5.4l-.1.1v.1h.3l.1-.1h.1v.4l.3-.3-.2-.3.1-.1-.1-.1v-.1zm-.6-27.5v.1l.8.4.2-.4h-.5l.1-.1v-.2l-.6.2zm.4 2.9l.1.1v1l.3.3c0 .8-.1 1.2-.4 1.3 0 .2.1.2.4.2V115.7h.1v-1.1h.3l-.4-1.7h.1l-.1-.1-.1-.6.1-.1v-.1H29zm.1 9.2v.3h.2l-.1-.1.1-.1v-.2l-.2.1zm0 .6l.4.3v-.1l-.3-.2h-.1zm.8-2.8l-.3.5h.1l.4-.4-.1-.1h-.1zm.1-6.5v.1l.4.2.5-.1v-.1l-.9-.1zm0-2.3l.3.2h.1v-.2H30zm.1 22.2v.1l.5.1h.4v-.1l-.7-.1h-.2zm.3-14l-.1.1.1.1v.2h-.2v.1h.2l-.1.1v.1h.1c0-.2.1-.3.5-.4v-.2l-.5-.1zm-.1 6.2l.1.5h.1l.5-.2.4.1v-.1l.1-.1h.1l-.3-.8c-.4 0-.6.3-.8.7l-.2-.1zm.1-16.3v.4h.1l.2-.3v-.1h-.3zm0 1.2l.2.3.4-.1-.3-.2h-.3zm.4 21.4v.1l.5-.1v-.1l-.5.1zm2-18.7l-1.6.2.6 5.4-.6.4h-.1v.1h.1l.5-.2h.1l.1.6 5.6-.6-.3.6.1.1h.1c0-.2.1-.4.3-.4v-.1l-.1-.1v-.1l2.1-.2c1.5-.2 2.5-.9 3-2.3l-.1-1.6-.2-1 .3-.2.4.5 2-1.7-.1-.1v-.1c0-.1.1-.3.5-.4l.1-.1v-.2l-.6.1c-.4 0-.7.3-1 .7l-.7-.2h-.1l-.2.5.2.3h-.3v.2l.6-.1.3.2-.6.4c-.3 0-.5-.2-.6-.6l.1-.1h-.1l-.3.3H42l-.3-.5.1-.1v-.1c-1-.4-2.3-.5-4-.3l-4 .4-.5-.1-.5.5zm-1.4 11.4l.1.1-.1.1v.1c0 .2.3.4.9.7h.3c-.5-.3-.8-.7-.8-1h-.4zm.2 1.1v.1l.1.1v.1l-.1.1h-.1l-.1-.1.2.3h.2l.1-.6-.1-.1-.2.1zm.1 5.4l.1.7h.1c.2 0 .3-.2.3-.7h-.5zm1.1-7.8l-.2.3-.1.1c-.2 0-.2.1-.2.4v.1h.1v-.2h.1l.4.1.2-.8h-.3zm-.1 2.3h.3c0-.2.1-.3.3-.3v-.2h-.1l-.5.5zm1 12.5v.1c-.1.3-.3.5-.5.5h-.4v-.1c.2.1.5-.1.9-.5zm.1-.3v.2l-.5.1v-.1l.5-.2zm2.6-26.9v.1c.1.2.4.3.8.3l-.4-.3v-.1h-.4zm3.1 8.4l-.2.3.3.2.1-.1h.1l.4.1v-.2l-.5-.2-.2-.1zm.8-8.7l-.1-.1h-.1l-.6.2v.3h.4l.5-.2.6.2v-.5h.1v.2h.1l.2-.3-.3-.2v-.1c.3 0 .5-.2.7-.6-1 .6-1.5.9-1.5 1.1zm-.3-1.1l1.4-.8v-.1h-.1c-.9.5-1.4.7-1.3.9zm.3-1.6v.1h.4l-.2-.3-.2.2zm.2 3.9h.4l.1-.1h.1l.1.1.1-.1v-.1l-.4-.1-.4.3zm.4 13.8l.4.1.3-.2-.2-.5-.5.6zm.5-2.7l.3.2h.1l-.3-.2h-.1zm.2-15.4l-.1.1v.1l.4-.1v-.1h-.3zm.2 1.5v.1l.3.2.1-.1h.1l-.1-.4-.4.2zm.1 1h.4v-.3h-.1l-.3.3zm.1 13.1v.2l.5.1h.1v-.1l-.6-.2zm.4 1.4v.1l.3.2v-.1l-.3-.2zm.1-16.6v.1l.3.2h.1c0-.2.1-.4.3-.4v-.1h-.4l-.3.2zm6.6 15h.3c.8 1.2 1.2 2.6 1.4 4l.6 6.2c0 .2-.1.3-.3.3v.1c.2 0 .4 0 .4.2l.1 1.3c0 .2-.2.3-.7.6l.1.1v.1l-.2.3c.5-.1.7 0 .7.2v.1l-.4.5-.6.1v-.1l.1-.1v-.1c-.5.1-.8-.2-.8-.8l-.8-.4c-.4.2-.6.4-.7.7h.1l-.1.1v.2l1 .3.1-.1v.2l-.8.3-.1-.1h-.1l-.7.3-.5-.2-1.2.4-.1-.1-.6.2h-.4c-.8.1-1.3-.3-1.4-1.2l-.6-5.6h.2v-.1h-.2v-.1h.2l-.1-.1v-.1c.2 0 .4-.1.3-.3l-.1.1h-.4l-.1-.6.2-.4h-.1l-.1.1v-.1c0-.2.2-.6.8-.9 0-.2.9-1.1 2.8-2.6 0-.2.4-.5 1.1-1 0-.2.1-.3.3-.3 0-.4.1-.6.3-.6l.3.2h.1l-.3-.3v-.1c.2-.2.5-.4 1-.8zm-6.1-2.3v.1l.4.1v-.1l-.1-.1H43zm.2-10.9l.1.5h.1l.1-.1h.1l-.2-.3-.2-.1zm.1 1.1v.1l.2.3-.1.1h.2l.3-.4-.4-.2-.2.1zm0 19.1h.1c.7-.4 1-.6 1-.7l-.1-.1h-.1l-.9.8zm.6-22.6h.3l-.6.6v.4h.3c.1 0 .3-.3.4-.9l.4-.4h-.2l-.1-.1-.5.4zm-.1 29.3l.3.2h.1v-.3l-.4.1zm.3-28.2v.1h.6l-.3-.2-.3.1zm1 19.8l-.2.3v.1h.5v-.1l-.3-.3zm-.2 8.8v.2h.1l.2-.3-.3.1zm.5-9.2l.1-.1h.4l-.1.1v.3l.3-.2v-.2l-.3-.2-.4.3zm.1-12.8l.5.3h.4l.2-.3v-.1h-.3c0-.2-.2-.3-.4-.3v-.3h-.1c-.2 0-.3.3-.3.7zm.2 19.8v.1h.3l.1-.1v-.1l-.4.1zm0-1h.1c0-.2.2-.4.6-.4l-.3-.2-.4.6zm.4-6.4v.1h.1l.3-.4h-.2l-.2.3zm0 7.1v.1h.2l.1-.1v-.1l-.3.1zm.3-17.8l.4.3h.2l-.4-.3h-.2zm.2 10.2l.3.2h.1l-.3-.2h-.1zm.8 6.6l.1.4h.3v-.1l-.3-.2-.1-.1zm.3-21.3l-.2.5v.1l.6-.2v-.1l-.4-.3zm-.1 23.6v.1h.2v-.4l-.2.3zm.7-17.1l.5.4-.2-.5-.3.1zm0-6.8v.1l.3.2v-.1l-.3-.2zm.3 2v.4l.5-.1v-.4l-.5.1zm.2 21.2v.1h.3l.7-.3v-.2l-1 .4zm.3-23v.2l.5-.1-.3-.2-.2.1zm.2 20.6l.4.2.1-.1v-.1l-.3-.2-.2.2zm0-.9v.1h.6l.2-.3-.4-.1-.4.3zm1.6 4.4l-.1.4h.2v.1l.3-.2-.4-.3zM54.2 102.7c.2 0 .3.2.3.7l.3.2h.1l-.1.6v.1l.1.1-.1.1v.1l.4.7-.1.1H55l-.3-.5-.1.1h-.3l-.2-.3.2-.4c-.2-.2-.3-.6-.4-1.2l-.6.2.2 1.5h-.4l-.3-.2v-.3c.2 0 .3-.3.3-.8H53l-.1.1h-.1v-.1c.1-.3.5-.7 1.4-.8zm-.4 3.1c.1.6.3.8.5.8h.2v-.2h.1v.2l.1-.1h.1l.1.1.1-.1h.3l-.1.1v.3h.1l.3-.3h.1v.1l-.1.4.1-.1h.2c0 .3-.3.5-1 .7 0-.4-.3-.6-.8-.5v.1l.1.1c-.6 1-.8 1.6-.8 1.9h-.1V108l-.2-.3.1-.1v-.1l-.2-.7c.3-.6.5-.9.8-1zm-.3 1.2v.2h.3l.2-.3-.5.1zm2-4.4c.6 0 1.1.2 1.4.5h.1v-.1l-.1-.1v-.1l1.2-.4.1.1-.3 1 .2.4-.1-.1h-.1l-.2.8v.4l.6-.1-.2-.6.7-1.2c.2 0 .3-.2.3-.7h.2l-.1.1v.3c.2 0 .2-.2.2-.4l.1-.1h.2l-1.4 3.1v.1h.1c0-.2.3-.5.9-1v-.2l-.1-.1.4-1-.1-.1c.1 0 .3-.3.5-.8l1-.3h.6v.3l-.6.1v.2l.9-.1.1-.6h1.1l-.1.1v.1c.3 0 .5.1.5.3h-.3l.1.1v.1l-.2.3-.3-.2-.4.1.3.2h.3c0 .3.1.5.3.5v.3h-.1l-.1-.1c-.3.1-.5.2-.5.4h-.3l.1-.1c0-.4-.4-.7-1.1-.9v.4l.1-.1c.4.1.6.2.7.3l-.4.3h-.2l-.5-.3v.3h.3l-.2 1h.4l-.3.8.1.1h.1c0-.2 0-.4.2-.4h.2l.7.5-.5.3h-.2v.1h.2v.1c-.2 0-.3.2-.3.5l-.1-.1h-.1v.4l-.1-.1h-.1v.1l.3.2.4-.1-.1-.1v-.3h.2l.1-.1.1.1v.1l-.1.1.3.2-.1.4h.1l-.2.4.3.5.6-.3.4.3.3-.3h.1l-.1.5-1 .1-.1-.1-.1.1-1.3.1v.4l.1.1v.1l-.1.1h.1l-.1.1.1 1.1.2.7-.1.4.2.4V113.7c0 .1.2.2.7.3l.3-.2v.1l.1-.1 3.9-.4.5.1.5-.2.5.1.7-.2h.1l.1.1.1-.1h.1l.1.1.1-.1.6.1h.1l.1-.1h.1v.1l.1-.1h.4l.1.1.1-.1.6.1h.1l.1-.1.6.2.1-.1.5-.1v.3l-.1.1v.1h.1l.2-.5.8.3.9-.1c0-.2 0-.4.2-.4l.1.1h.1l.1-.1c.2.3.3.5.4.4h.1v-.2h.4v.1h-.3v.1c.2 0 .4.1.4.3h.1l-.2.8-.1-.1h-.3l.1.1v.1l-.3.4h.1l.1-.1h.1l.3.3v.1h-.4v.3c.3 0 .5.1.6.5l-.2.4h.2l-.1.1v.1h.1l-.3.7v.1h.3v-.2h.1l.2 2.1c-.2.4-.5.7-.9.7l-7.8.8v-.1l.1-.1v-.1l-.1-.1h-.1l.1.5h-.4v-.2h-.1v.2H65l-.2-.3.1-.1-.1-.1.5-.3c0 .2.1.4.3.3l-.3-.6.1-.1-.3-.2h.1c.2 0 .4.2.4.7.2 0 .3-.3.4-.9l.1.1h.1l.1-.1h.1v.2h.3l-.2-.6.2-.5h-.2l-.3.2v-.2l-.3.4-.8-.2-.1.1v.1l.1.1-1.2.4-.4-.1-.2.5.2.5-.1.1v.1l.1.1.1-.1h.4v.2h-.4l-.6.2-.1-.1c0 .3 0 .5-.2.5l.1.5.2.5-.1.1.2.8v.4l-.1.5.2.5v1.6l.2 1-.1.4 1.1-.1-.1.1v.1h.3v-.3h.2l.5.1.3-.2v.1l.1-.1.9-.1-.1.1v.1h.1l.4-.3 2.1-.2.1.1.1-.1 10.3-1.1c.4 0 .8.1 1 .5l.1 1.3h-.2v.1l.3.3.4 3.9c.1.6-.2.9-.8.9l-6.4.7.4-.8c-.2 0-.3-.1-.4-.5l-.1.1h-.2l-.2-.5.1-.1v-.3h-.1v.3h-.1l.1.1v.3c-.2 0-.4.1-.3.3l.1.5h.1l.4-.3.3.3c-.2 0-.2.2-.2.5l-.5.1v-.4l-.9.5v-.1l-.3.2-.5-.1-1.1.2-.9.1v-.2h.7v-.1l-.1-.1.1-.6.1.1c.7-.1 1.1-.3 1.1-.6h.1l.2.5h-.1l.1.1v.1l-.1.1v.1l.1-.1h.1l.4.1.8-.9-.3-.2c0 .2-.2.3-.7.6-.2-.4-.6-.6-1-.5v-.1h.3v-.4h-.1l-.1.1h-.1l-.3-.2h-.1c-.3 0-.5.5-.6 1.4l-.3-.2h.1c0-.3-.3-.5-.7-.4l-.1-.4h.1l.5.1c.2-.1.4-.3.6-.7l-.7.4-.1-.5.3-.4h.1v.1l-.1.1v.1h.1c0-.2.4-.8 1.2-1.8l-.6.1-.1.1h-.1l-.1-.1v-.1c-.3.1-.4.3-.4.5l.5.1v.1l-.3.4-.1-.1c0 .2-.2.4-.6.7h-.1l-.8-.4.5-.2.1.1h.2l.3-.3-.3-.6.4-.9v-.1c-.3.4-.6.7-.8.7v.1l.1.1c0 .2-.2.4-.4.5l-.1-.1v-.1l.1-.1v-.1l-.5-.2v.2H68l-.3-.2c0-.2.1-.3.5-.3v-.1l-1.2.1.7.4v.4l-.5.2v.1l.3.2v-.2h.3c0 .2.1.2.4.2 0 .2-.2.3-.7.3v.4h.4l-.1.1v.1c.1.3.2.5.4.5v.2h-.4c-.4 0-.6 0-.6-.2l.2-.5h-.1c-.2 0-.2.1-.2.4l-.1.1-.5.1v-.1l.3-.5.1.1h.1c0-.3.1-.5.3-.5v-.1c-.2 0-.3-.2-.3-.6l-.3.3h-.4v-.4l-.1.1h-.1l-.3-.2.3-.8c-.4.5-.6.8-.8.8v.1l.3.2h.1l.1-.1h.1v.4l-.2.4h.1l.3-.4.4.3v.1c-.4.5-.7.8-.9.8v.4l1 1c0-.2 0-.4.2-.4l.3.2c0-.2.1-.4.4-.5l.3.2v.1c-.2 0-.4.1-.3.3v.2l.5-.3.1.1v.1H68c.1.3.3.5.5.4v.1h-.4l-.1-.1-.6.2-1.3.1v-.1l.3-.6v-.1c-.3 0-.5.3-.5.9l-7.8.8.1-.1v-.1h-.1l-.4.3h-.4c-.6.1-.9-.2-1-.9L55 123.9h.4v-.1H55l-.1-.7c.2 0 .3-.3.3-.8l-.3.3-.2-2 .1-.1-.1-.1-.8-7.5h.1v.2h.1l.2-.3-.5-.3-.1-.9c.4-.1.7-.4 1-1l-1.1.1.1-.1-.1-.1-.1-.9c.2-.3.4-.5.7-.6v-.1H54v-.1h1.3l-.1-.1-.1-1.1h.1l.1.1h.1l.3-.2-.1.1v.4c.3-.6.8-.9 1.4-1v.1l-.1.1v.1l.1-.1h.3l-.1.1v.1l.5.1v-.3h.4l.2.5h.1l.5-1.2v-.1c.7.2 1 .4 1.1.6h.1c0-.4 0-.7.1-.9l-1.7.2v-.3c.2 0 .4-.2.6-.6h-.8c-.3.5-.4.9-.4 1.1h.3c0 .2-.2.3-.7.5v-.1l.2-.9-.1-.1h.1l-.2-.3-.2.3-.1-.1h-.1l-.3.2c-.5-.4-.9-.6-1.2-.6l.1-.1v-.1l.1.1h.2l-.3-1.2-.1-1.1-.1-.1V102.6zm-1.9 2.5h.2v.4l-.3-.2.1-.2zm.5.7l.3.2-.1.1h-.1l-.1-.3zm.2 8.4l-.1.5.1.1h.1l.1-.1v-.3l-.2-.2zm.5-3.3l-.1.4h.1l.2-.4h-.2zm.7 1.9l-.7 1.5h.3v-.4h.1l.4.2.4-.9v-.1l-.3-.2-.2-.1zm-.5 2.3h.1l.6-.2v-.1l-.5.1-.2.2zm0-12.4h.3l.2.5-.1.6h-.1l-.3-1.1zm.3 1.4l.3.2-.2.3-.1-.5zm.7 7.5c-.1.3-.3.5-.5.6v.1l1.3-.1-.1.6c0 .1.2.3.7.3v-.3c.2 0 .4-.1.3-.3l-.1-.1v-.1l.1-.1c-.6 0-1.1-.2-1.7-.6zm-.2 4.7c.2.9.3 1.3.5 1.3h.1l-.1-.7-.5-.6zm.2-6.4l.4.1-.1.5c.3.5.4.8.6.8l.1-.1h.1l-.1-.1v-.3l.3.2.5-.2v-.1l-.1-.1v-.1l.5-.3-.6-.7h-.1v.4h-.1c-.2-.6-.4-.8-.6-.8l-.8.8zm.6 17.4l-.2.3v.3h.1l.3-.3c0 .2.2.4.6.6l.5-.1v-.1c-.7-.2-1-.4-1.1-.6l-.2-.1zm.1-13.6v.7h.1c0-.2 0-.4.2-.4l-.2-.4-.1.1zm.8 1.7c0 .3-.2.6-.8.7v.1h.1l.5-.2.1.1h.1c0-.2 0-.4.2-.4l-.2-.3zm.7 13.1v.3c-.3 0-.5.2-.4.5-.1 0-.4.4-.6 1.1h.4l.2-.3-.1-.1v-.1h.1l.4.1-.1-.1v-.1h.4l-.1-.1v-.1c.4-.3.5-.5.5-.8l.1.1h.1v-.1c.2 0 .4.1.4.3h.1l.3-.4H59v.1l-.1-.1-.7-.2zm-.6-20l-.2.4v.1l.6-.2-.4-.3zm0 16.4l.4.3h.1l-.4-.3h-.1zm1.3-3.9v.2h-.2l-.7.2-.4-.1.2.4h.1l.6-.2-.1.1c.2.3.3.5.4.5v-.2l.6.2-.1-.1v-.4c0-.2.2-.3.7-.3v-.3l-.6.2-.3-.2h-.2zm-.6-13c0 .2-.2.3-.6.3v.1c.6-.1.9.1.9.5h.1l.2-.6v-.1l-.3.3v-.1l.1-.1v-.1l-.4-.2zm-.6 4v.2l.3.2.1-.1-.1-.3h-.3zm.3 22.1v.4h.3l-.3.5h.3l.3-.3.3.2h.4v-.1l-.2-.3h.1l-.2-.3-1-.1zm0-21.1v.1l.3.2v-.1l-.3-.2zm0-3.3c.2.3.3.5.4.5h.2c-.1-.4-.3-.5-.6-.5zm.2 11.1l-.1.1v.1l.5-.1v-.1h-.4zm-.1-4.4v.4l.3-.4h-.3zm.2-.6l-.1.1v.1l.3-.2v-.1l-.2.1zm-.1-9.2h.1l.3.2h-.1l-.3-.2zm.2 18.5v.1l.5-.1v-.1l-.5.1zm.1-12.1l.3.2-.1-.5-.2.3zm0-1.1l.1.5h.1l-.1-.5h-.1zm.2 16l-.1.1v.1h.6v-.2h-.5zm.2-12.1h.1l.5-.3v-.3l-.6.6zm.4-11l-.3.5v.1l.3-.2-.1-.1v-.1l.2-.3-.1.1zm.4 6.6l-.2.5v.1c.5 0 .8.3.8.8h.1l-.1-.5c-.2 0-.4-.3-.6-.9zm.6-2.2l.1.6.6-.3c-.1-.1-.3-.2-.7-.3zm1.5 8.8h-.9l-.6.1v.1l1.5.3c.7-.4 1-.8 1-1.1h.1l.1.1v-.4h-.4l-.8.9zm-1.4-4.9l.6 1.2.2-.3v-.3l-.7-.7-.1.1zm.3-5.8l.1.1v.1l.4-.2v-.2h-.1l-.4.2zm.5.4l-.4.8h.1l.2-.3h.2l.4.2h.1v-.4l-.3-.2-.1.1-.2-.2zm-.2 11.8l.6.6.2-.3c-.2 0-.4-.1-.7-.3H61zm0-9.2l.1.6.1-.1h.1l.1.1.1-.1c-.2-.3-.3-.5-.4-.4l-.1-.1zm.1 21.5l.6-.1v-.3h-.4l-.2.4zm1.3.1v.1h.3l.1-.1v-.1l-.4.1zm0-4.7v.4l.6.1v-.1l-.4-.3-.2-.1zm7.8-26.2l.1.1v.1c-.3 0-.5.1-.5.3l.1-.1h.2l-.1.1v.1h.2c1.3-.5 2.3-.8 3-.9l.5.2.7-.3.5.4-1 1.1h-.1v.2h.1c.7-.6 1-1.1 1-1.2h.3c.1 0 .3.1.4.5l-.1.1h.3v-.4l-.7-.7h.4l.6.1-.1-.1v-.1h.1c.7-.1 1.2.3 1.2 1.2v.1c-.2 0-.4.2-.6.6l.4.3c-.3 0-.5.1-.5.3l-.1.5.1.1c-.2 0-.3.2-.3.5v.1h.1v-.3h.2v.1l-.3.5v.1h.1l.4-.9-.1-.1h.2c0 .2.2.2.4.2l.2 2.3c.1.8-.2 1.3-.8 1.3l-3.2.3v-.3h-.1v.3l-1.5.2v-.3l-.1.1-.4-.1v-.4h.2v-.4h-.1c-.4.2-.6.5-.5.9l.1.1-1.3.1-.1-.7-.3-.2v.9h.3v.1l-1.2.1c0-.2.2-.4.6-.4l.1-.4-.2-.4.1-.1H69c-.5.7-.7 1.1-.7 1.3l-1.7.2-.2-.5h-.2l.1.5-.9.1-.1-.5h-.1l.1.5-.5.1v-.1h.3v-.1H65l-.3.2.1-.1-.5-.8.2-.6h-.4v.3l-.9.1.1.5-.1-.1h-.1l-.1.2-.3-.7.6-.7-.3-.2-.1.1h-.1l-.1-.6.2-.3h.1v.4h.1l.1-.6h-.1l-.6-1.2.2-.3.1.1.7-.1v.3h.1c.2 0 .2-.2.2-.4l.1.1h.2v-.4l-.3-.3h.1l.1-.2c0-.4.1-.7.4-.9v-.3h.1l.4 1.3-.1.1v.1l.2.5c-.6.2-.8.4-.8.8h-.3c0-.2-.2-.3-.6-.3H63l.3.3.1-.1h.4v.2l-.3.5.1.6h.4l-.2.4.1.1h.1v-.3h.1l-.2-.6v-.2h.2c0 .3.1.5.3.5l.1-.4h.1c.3.4.4.8.5 1.2h.3l-.1-.5.1.1h.2v-.3l-.1-.1.1-.1v-.3l-.1.1h-.2v-.2c.2 0 .3-.2.3-.4.2 0 .3.1.3.5l.1.1h.3l.1-.4-.1-.4c.2 0 .3-.2.3-.7l-.6.7-.1-.4h.2l.2-.3v-.1c-.2 0-.4 0-.4-.2l-.1.1h-.4v-.3c.4 0 .6-.3.7-.8v-.1h.1l.2.7h.1v-.1l-.2-.6c.3-.2.5-.4.4-.7h.1c.2 0 .3.3.5.8h-.1l-.5.2c0 .1.2.2.5.3l.2-.9h.1v.4c-.1.8-.2 1.3-.3 1.5l.1.1v.1c0 .2-.1.4-.3.4l.1.5h.1l.5-.3-.1-.1v-.1l.5-.9-.1-.1v-.1l.7-.8h.2l.4.2h.1c1-.7 1.7-1 2.2-1.1v-.1l-.3-.2-.4.2v-.3h-.2c0 .4-.3.7-1 1v-.1l.2-.3.1.1c0-.2.1-.4.5-.4l.1-.1v-.1l-.9.1c0-.4.2-.6.5-.7zm-7 16v.3l.3.2-.1-.7-.2.2zm.2 14.9v.1l.1-.1.6-.1c0 .2.1.4.3.3h.1l.3-1h-.4c-.4.1-.7.4-1 .8zm.4-14.9l-.1.1v.1l.5-.2v-.1l-.4.1zm0 .5v.2h.4l-.1-.1v-.1l.1-.1-.4.1zm.1-1l-.1.4h.3v-.4h-.2zm.8 2.8h.2c-.1.3-.3.5-.7.7v-.1l.5-.6zm-.2-14.8c0 .2.3.5.7.8v.1c-.6 0-.9-.1-.9-.3v-.1l.1-.1v-.1l-.1-.1.1-.1.1-.1zm-.2 28.7v.1h.1l.7-.3-.3-.2h-.2l-.3.4zm.4-15.6c0 .2-.1.2-.3.3l-.1.4.2.4h.1l.1-.1h.1l-.1-.1v-.3l.3-.5-.3-.1zm-.2-1v.4l.2-.3-.1-.1h-.1zm.6-14.9l.5-.1v.3c0 .2-.1.2-.3.3l-.1.1v.3h.3l.2-.3.2-.6h.2c.1.6-.2 1.1-.8 1.6-.3-.3-.4-.5-.5-.8v-.2c.2-.2.3-.4.3-.6zm-.3 30.4l.3.2h.1c0-.2.1-.5.3-.8v-.1l-.7.7zm.6-16.8v.1h.1l.3-.4h-.3l-.1.3zm.2 12.7l.3.3.4-.2v-.1h-.7zm.2-20.2l.2.3h.1v-.3l-.1-.1-.2.1zm.4 21v.2l.4.1v-.2l-.4-.1zm.2-21.3l.1.5h.1l.1-.5h-.3zm.3-1v.1l.2-.3v-.1l-.2.3zm.3-4.8h.1v.4h-.3l.2-.4zm.3 32.1v.4l.3-.4h-.3zm1.4-32.6l.5.1v.1c-.4 0-.6.2-.7.4-.2 0-.5.3-.9.7l-.1-.1-.1.1v-.2l1.3-1.1zm-.6.1v.2l-.6.3h-.1v-.1c0-.2.2-.3.7-.4zm-.5 29h.1l.4.3H68l-.4-.3zm.1-12.1v.4h.1l.2-.3v-.1h-.3zm.3-.4v.3l.1.1h.3v-.1l-.3-.2-.1-.1zm.6 14.1l.1.1v.2l-.1-.1h-.1l-.1.4h.4l.1.5h-.2l.1-.1v-.1h-.1l-.2.3h-.2l.2-.4v-.1h-.2v-.1l.1-.1v-.1l-.4-.3.6-.1zm-.2 1.5l.2.3h-.2l-.3-.2.3-.1zm.2-15.9v.2l.1.1h.1l-.2-.3zm1.8.9l-.1.6-.6.1c0-.3-.1-.5-.3-.5l-.1.1v.1l.4.5-.4.1-.1-.1h-.1c-.3.2-.5.3-.5.4l.1.1h.1l.2-.3.1.1.6-.3.4.1v-.1l.4-.9v-.1l-.1.1zm-1.6-1.4v.2h.1l.2-.3-.3.1zm.3-15h.1v.2h-.4l.3-.2zm.2 31.8l.1.1.1-.1v.4h-.1l-.1-.1h-.1l-.3.2c-.1-.2.1-.4.4-.5zm-.4-30.9h.4l-.2.3H69l-.1-.3zm.2 29.8l.3.2v.1l-.3-.2v-.1zm.3-31.1l.2.4h-.1l-.3-.2.1-.1.1-.1zm.4 3.2l-.3.4.1.1v.1l-.1.6.1.1h.1c.4-.2.6-.5.5-1l.4.2v-.4l-.6.2v-.2h.2v-.1h-.4zm-.2 23.5v.3h.1l.2-.3v-.1l-.3.1zm.1-24.5v.1h.2l1-.4v.1c0 .2-.2.3-.7.4v.1h.4l.6-.3-.4-.5v.1l-.1-.1h-.1l-.9.5zm1.6-1.4c0 .2-.4.4-1.3.6v.1l.9.2.5-.2v-.1l-.1-.1v-.1l.3-.2v-.2h-.3zm-1 30.4v.1l-.2.3v-.1l.2-.3zm.1-13.3l.1.6h.1l.1-.6h-.3zm0 8.3h.2v-.3l.4.2.1-.4h-.4l-.3.5zm.1 5.5v.4l.2-.3v-.1h-.2zm.1-2.6v.1l.1.1-.2.3.4.2.2-.3h.1l.3.2-.1.1v.3h.1l.2-.8h-.1c-.4.1-.7 0-1-.2zm0-16.1v.4c0 .2.1.2.4.2l.3-.2v-.2l-.3-.2h-.4zm.4-10.1v.9l.8-.6v-.1l-.5.1.1-.1v-.1l-.4-.1zm0 11.8v.2h.1c0-.2 0-.4.2-.4v-.2h-.1c-.1 0-.2.1-.2.4zm.5 12.5v.2c-.2 0-.4.1-.3.3l.4-.4v-.1h-.1zm-.2-24.4c.4-.1.6-.3.6-.4h-.3l-.3.4zm.2 13.8l-.1.4v.1h.1l.1-.4v-.1h-.1zm.3 12.7v.1h.2v.2c-.2 0-.4.1-.3.3h.1l.3-.2-.1.1v.1h.1l.1-.1-.1-.1v-.1l.1-.1v-.1l-.4-.1zm.1-24.4v.1l.2-.3v-.1l-.2.3zm0 21.8h.2l.2-.3H72l-.1.3zm1.5-23.9c0 .2-.1.4-.3.4l.1.1v.1l-.3.3-.1-.5c-.5.1-.7.4-.7.9.2 0 .2-.2.2-.6h.1l.5.4v.1l-.1-.1h-.1c-.2 0-.2.2-.2.5h-.1v-.3h-.3l.2.6h.1l.1-.1h.1v.1c.2 0 .5-.7.9-2.1l-.1.2zm-.7 12.6l-.1.4v.1h.1l.2-.3-.2-.2zm0 .7v.1l.3.2h.1v-.3l-.1-.1-.3.1zm0 13.1v.3l.6-.2v-.3l-.6.2zm.5-16.1c0 .4-.1.7-.4 1.1v.1l.5.2c0-.7.1-1 .3-1 .3.5.7.8 1.2.7h.1l.2-.3v-.2c-.2 0-.4 0-.4-.2.3 0 .5-.2.5-.4l-.1-.1H75l-.4.3-1-.3-.4.1zm0 2.1v.1l.3.2v-.4l-.3.1zm.6-14.4c-.1.4-.2.6-.5.7v.2c.3-.2.6-.4.8-.8l-.1-.1h-.2zm-.1 3.8c.3 0 .4 0 .4.2l.3-.2v-.3c-.2 0-.3-.1-.3-.3H74l-.3.6zm2.4-4.1c.3 0 .4.1.4.3l-1.1.6v-.2h.2v-.1l-.6-.1v.3l.3.3v.1c-.3 0-.6.4-.9 1l-.8-.2v.3h1.1v-.4h.1v.3h.1v-.4l-.1-.1.5-.3.4.6v.1l-.1.4c.2 0 .3-.4.4-1.1l-.3-.2v-.1l.1.1h.1l.3-.4.1.1.1-.1-.1-.6-.3-.2h.1zm-2.2 14.5v.2l.5.2v-.2h.1l.1.1h.1v-.1l-.1-.1.2-.3h-.1l-.8.2zm.2-11.2v.1l.3-.4v-.1l-.3.4zm.2 24l.1.1v.1h-.3v.3c.6-.4.9-.7.9-.8h-.1l-.6.3zm.1-16.1v.4h.3v-.4h-.3zm.1-6.4l.1.4h.3l.1-.4h-.5zm.2-2l-.1.4v.1h.1l.2-.3-.2-.2zm-.1 26.6l.1.1.3-.2-.3-.2-.1.3zm.2 1.3l.1.1h.1l.4-.5h-.1c-.4.1-.6.3-.5.4zm.2-26.3v.1h.2v-.4l-.2.3zm.2-2.1l.4-.1v-.3l-.4.4zm.1 10.8v.3l.1.1h.1l-.1-.4h-.1zm0-.9v.2h.2c0 .4.2.8.6 1.3l.5-.1-.4-.6.2-.4h-.1l.1-.1v-.3h-.1l-.4.2v-.1l-.3-.2v-.1l-.3.2zm.1-9h.1l.2-.3v-.1l-.3.4zm.1 23.5c.4-.2.7-.5 1-1.1v-.1c-.5.2-.8.6-1 1.2zm.3-23l-.1.4v.1h.1l.2-.5h-.2zm.1-3.6l-.1.4h.1l.1-.1v-.3h-.1zm.1 12.1v.1l.2-.3v-.1l-.2.3zm.1 12.6l.1.1v.1l-.2.4v.1l.5-.8v-.1l-.4.2zm0-21.7l.1.7h.1l-.1-.7h-.1zm0 25.2v.1l.3-.2v-.2h-.1l-.2.3zm.5-14.1c.4-.2.6-.3.6-.4v-.1h-.1c-.3.1-.5.3-.5.5zm.2-10l-.1.1v.4h.1l.1-.5h-.1zm0 10.4h.1l.2-.3H77l-.2.3zm.2-12l.2.3h.1l-.1-.6-.2.3zm.1 21.7v.3l.1.1v.1l-.1.1.6-.3.1.1.1-.1.1.1.1-.1v-.1l-1-.2zm0-23.4h.1l.4.1v.4c-.3-.1-.5-.2-.5-.3v-.2zm0 29.9v.2c.5-.2.7-.4.7-.6v-.1l-.7.5zm.7-5.2l-.2.3v.1h.2l.1-.1v-.2l-.1-.1zm.3 4.4l-.2.4h.1l.2-.4h-.1zm-.1-4.8v.4h.1l.1-.4H78zm.3-.7v.1l.1.1v.1l-.1.1h.1l.2-.4-.1-.1-.2.1zm.7.5l.3.2h.1l-.3-.2H79zm1.2 3v.4h.3v-.1l-.3-.3zM91.9 98.7l.9-.1.1.1.1-.1 1.1-.1c0 .3.1.5.3.5l-.1.1v.2c.3 0 .4 0 .4.2v.2l-.5.1c0 .2.3.2.8.2l.3.6c-.1.6-.4.9-.7.9v.1c.2 0 .4.1.4.3v.1h.1c0-.2.1-.3.5-.3l.1-.1v-.1l-.3-.2v-.2h.3v.2h.2l-.1-.6-.1-.1.1-.1v-.3l-.3-.2v.1l.1.1h-.3l-.3-.8h.1l-.5-.9 2.7-.3v.3l.3-.3h.1l-.1.1v.1l.3.2.1-.1v.3l.1.2v.1h.1v-.3l.1.1h.1l.1-.1.1.1c0-.3 0-.5.2-.5l1.1 1.5v.2l-.1.1v.1l1.1.8-.5-1.1c-.4-.2-.9-.8-1.4-2.1v-.1c.6-.1 1.3.8 1.9 2.5l.8 1.5v.1h-.1c-.2-.6-.4-.8-.6-.8.3.5.4.8.6.8l-.1.1v.3l.4.1.1-.1 1.6 3.7c-.3 0-.8-.6-1.3-1.8l.1-.1c-.2 0-.6-.5-1.1-1.4l-.3-.2.2-.3.1.1v-.1c-.5.1-.9-.3-1.2-1.1l-.3-.2.1-.1v-.1l-.3-.2-.1.1-.2-1h-.1l-.1.1H99l-.1-.1c0 .3-.1.5-.3.5 0 .2.1.2.4.2l-.1.1v.2l.1-.1h.1l2.5 3.6.1.9h.2v.1l-.1.1v.1l.4.1v.1l-.1.5.3.6-.1.5.3.2v.2l-.4-.2-.1.1v.3h.3l-.1.6h.4v.1c-.3 0-.5.1-.5.3l-.3.3-.5-.1.1.1v.1l-.1.1v.1l-.6-.2.1-.1v-.1l-.3-.2-.3 1 .4.1-.6.6-.2.9.1-.1h.1l.1.1.1-.1.2.6-.1-.1h-.1c0 .3-.1.5-.3.5l.4.3h.1v-.1l-.1-.4.1-.1h.3l-.1.1.1.1.1.5h-.3l.3.2v-.1l.1.1h.4l-.1-.1v-.2h.3l.1-.1.1.1v.1h.1c-.1-.5.1-.8.4-.8l-.1-.1v-.1l.1-.1-.1-.1h-.1l-.1.1h-.1v-.3h.4l-.3-.8c.2 0 .4-.1.3-.3l-.3-.2h.3c0-.3.3-.5.9-.6l-.1-.1v-.1c.2 0 .3-.2.3-.4h.3c0-.2-.2-.3-.5-.3l-.3-.5c.2 0 .2-.2.2-.6l.6-.6c.1.4.4.6.8.8l.9 1.9-.1.1c.2 0 .4.3.6 1.1l-.6.2c.2.4.5.6.9.5l-.1.1v.1h.1l.1-.1.1.5-.6.2v.1c.2 0 .4.1.4.3l-.1.1h-.1l-.6-.2c0 .2.4.3 1.2.5.2.7.4 1.1.6 1.2l.1-.4-.3-.7c.2 0 .4.3.6.9h-.3c.7.8 1.5 2.1 2.2 4l-.5-.3-.1.1-.7-.7v-.3l.6-.2v-.1l-.5-.3-.1.1c0-.3-.3-.7-.7-1.2h-.4c.6.6.9 1 .9 1.3l-.1-.1h-.3l.2.6h-.1c-.5-.1-.8-.3-.8-.7l-.5.1.1-.1v-.1h-.5c-.5-.1-.8-.4-.8-.7l-.1.1h-.1l-1.3-.6v.1l.1.1h-.4l-.5-.3-.1.4.3.2v.2h-.2v.4h.2v.3l.2.8c-.2 0-.3.2-.4.7v.3c.3.2.4.4.5.8.4 0 .7.1.8.5.3.5.6.7.9.6v.1h-.2v.4l.1-.1h.1l.1.1-.1-.5-.1-.1v-.1h.4v-.3c-.2 0-.4-.1-.7-.4l-.4-.1-.1.1-.1-.1.2-.5 1.1.6h.1l-.8-1 .3-.4c-.2 0-.4 0-.4-.2l.6-.4-.3-.5.1-.1v-.1l-.1-.1v-.1h.1l1.2.5-.1.1.1 1.3 1-.2h.1v.1h-.3v.1l.2.6h.2l-.2-.6v-.1l.6.8h.2v-.4h-.2v-.3l.1.1h.3l.1-.1h.1c.4.2.6.6.6 1.2.2 0 .5.2.9.5l.1.5c-.4 0-.6.2-.6.6h-.3v-.3h-.1v.3h-.1l.3 1h.3c0-.3.2-.5.5-.8l.4.1v-.1l.1-.5h.1l1.8 4-.1-.1h-.4v.4l.3.6.4-.3c.2 0 .4.4.6 1.2l-.5-.2.1.5.5.4h.1v-.4h.1l.8 1.9v.2c-.2.4-.5.7-.9.7l-7.2.8c-.4 0-1.3-1.8-2.7-5.7l-.2-.5h-.4l.2-.4-.8-.9.1-.1v-.3l-.1-.1v-.1l.6-.2c0-.2-.2-.3-.5-.3l.1-.1v-.1h-.3v-.1l-.3.2c0 .2.1.2.4.2v.4h-.2l-.3-.2-.1-.9.6-.2.4.7.5-.3h.1v.1h-.2l.1.4h.1v-.4l.5-.1v.4h-.1l-.1-.1h-.1v.1c0 .1.2.2.5.3v.2l.1-.1h.2v.3l.1.1-.1.1h-.2l.2.6h.1v-.4h.3v.2h.4l-.4-.6.1-.4h-.1l-.2-.3-.1.1h-.2v-.4c.8.1 1.4.3 1.7.6v-.1l.1.1h.3v-.1l-.9-.6-.1.1h-.1c-.5-.1-.8-.3-.8-.5l-.1.1h-.4l-.5-.3.1-.4-.1.1h-.2l.6-1.4v-.1l-.1.1-1.1.1v.3l.4.5c-.1.5-.3.8-.4.8-.4 0-.7-.2-.9-.6h-.1v-.1c0-.2.1-.3.5-.3l.1-.5h-.3c0-1.3.1-2.1.3-2.3-.1-.2-.3-.3-.6-.4l.1-.1v-.1l-.2-.5c-.1-.5.2-.8.8-.8v-.3h.1l-.1-.1v-.4l.4-1c.3-.2.5-.3.5-.4l-.1-.1h-.4c0 .3-.1.4-.3.4l-.7.9-.6.1c0-.3-.1-.5-.3-.5l-.2.3c-.1.2-.3.3-.6.3v.6l.6-.2-.1-.1v-.2l.7.3h.1v.4c-.2 0-.2.2-.2.6l-.6.2-.1-.1v.2c-.2 0-1.1-2.2-2.9-6.6l.1-.1-.3-.2h-.1l-1.8 8.9h.9v.1H96v.1c.3 0 .5 0 .5.2.3 0 .4-.2.3-.5h.1l.3.2-.2.3.5-.1v-.3h.4l.1.1h.1c0 .3-.2.5-.6.6v.1l.3.5-.4 1v.1h.1l.7-.3.5-.1-.2-.6v-.1c.1-.6.4-.9.9-1 0-.3.1-.6.5-.8h.4c.2 0 .3.1.3.3l-1 1.6.1.1-.2.9h.3l.1-.1h.1l.1.1v.1c-.3.8-.5 1.2-.7 1.2l-.3-.2h-.2v.3l.3.6h.1v-.2h.1l.2.4-.3.5c0-.3-.1-.5-.3-.5h-.1v.1l.2.3h.2v.1l-.1.1v.1l.4.2h.1l.5-.7.4.1c0-.2.1-.3.3-.3l.4.1c0-.2-.1-.2-.4-.2l-.1-.1v-.1l.1-.1c.4 0 .7.3.7.9v.3l.1-.1.4.1.1.5c-.4 0-.8.3-1.2.7l-1.7.2v-.3c.3 0 .5-.2.5-.4l-.1-.1c-.5.1-.7.4-.7.8l-4.2.4v-.3h-.3v.3l-1 .1c-.1.8-.3 1.3-.6 1.3l.1.1.1.6-.4-.2-.2.8h.1l.2-.3v.3c-.5 2.7-.9 4.1-1.3 4.1l-.7.1v-.1l.6-.8v-.1c-.1-.2-.4-.3-.8-.3 0 .2-.1.2-.4.3l.1.5h.1l.1-.5.3.2-.1.1.1.1v.3h-.1l-.4-.1v.1l-.2.3v-.1l.1-.1v-.3h-.1c0 .2-.1.3-.5.3v.4l-.6.1-.1-.1h-.1l-.1.1c0-.2-.1-.4-.3-.3l-.1.1-.3-.2-.3.4.1.1h-.1c-.4-.2-.7-.4-.7-.7l-.1.1h-.1c-.5-.5-.7-1-.7-1.3l-.4.3c-.5-.5-.9-.8-1.2-.7v.3c.3 0 .7.3 1.2 1.1l-.1.1v.4h.1c0-.3 0-.5.2-.5h.1l.1.5c-.3 0-.4.1-.4.3 0 .2.2.2.6.2v.1l-.7.1-.1-.1-.1.1-1.3.1c-.4-.2-.7-.5-.7-.9l3.2-13.2h.1l1.3 1v-.2l-1.3-1 .3-1.5.5.3v-.4h-.4c0-.5.1-1.1.4-1.8h.1l-.1-.5c0-.5.2-1 .6-1.3.1-.3.2-.5.3-.5l.1.1h.1c0-.2.1-.4.3-.4v-.1l-.3-.3c.4 0 .8-.5 1.3-1.5.5 0 .9.1 1.1.2l.5-.2h.9v-.1l-.1-.1v-.1l-.6.2h-.3l-.8-.2v-.3l-.1.1h-.1l-.1-.1v-.1l.6-.2v-.1l-.1-.1v-.1l.5-.7-.6-.3h-.3l.1.1v.1h-.4c0 .2.2.2.6.2v.1c0 .2-.2.4-.6.6l-.1-.1v.1l.1.4c-.6.5-.9.9-.9 1.1l-.1-.1-.4.2c-.3-.1-.5-.2-.5-.4.6-.2.8-.4.8-.6h-.1l-.4.1.1-.1v-.1h-.2v-.1l.2-.4.7.3h.1v-.1h-.3c0-.2-.1-.2-.4-.2l-.1-.1v-.1l.1-.6.1.1h.1l-.2-.3.1-.4c.6.1.9.2.9.4l-.8.7v.1l.1.1h.4c.1-.8.5-1.2 1.2-1.2v-.1h-.2v-.2h.1l.1.1h.1l.2-1.1-.1-.1h-.4v.1l.1.1v.1l-.5.2-.3-.3c.4 0 .7-.2.9-.6-.5.1-.9-.1-1.2-.4v.1l.2.3-.1-.1h-.1l.1.1v.4l-.1-.1h-.3l.2.7.1-.1h.1l.3.6-.1.1-.5-.1.1-.1v-.2h-.1v.2l-.6.1c.6-3.1 1.2-4.9 1.7-5.4l-.3-.2v-.6h.1v.3h.1l.1-.4h-.1l-.1.1v-.2c0-.3.2-.4.6-.4v-.1c-.2 0-.4 0-.4-.2l.4-.7.3-.5v-.1c.1-.4.4-.7.9-.7zM85 129.6l.4.5-.1.1h.1l.1-.1h.1c0 .3.4.6 1.1.9v.2l-.1.1v.1h.6v-.1l-.6-1.1-.1.1h-.4c-.2 0-.3-.3-.5-.8h-.2l-.1.1h-.1v-.2l-.2.2zm.6-1.4v.3c.3 0 .5 0 .5.2v.1h-.2l-.1-.1h-.1v.1l.6.2v.2l-.1.1v.1l.6.2c.1-.3.2-.5.3-.5v.1l-.1.1v.1l.6.2-.3-.6h.3v-.1h-.3v-.1l.1-.1v-.3h-.1c0 .3-.1.4-.3.4l-.1-.1v-.3h.2v-.1H87l-.5.2-.9-.3zm.8-1.9l-.7 1.3v.1c0 .2.4.3 1.2.4h.1v-.1c-.5.1-.8-.1-.9-.5l.1-.1h.1l.1.1v.1l-.1.1h.1l.1-.1h.1l.4.3v-.1l-.1-.4.1-.4c.2 0 .4.3.6.8h.1l.2-.6c-.4-.1-.9-.3-1.5-.9zm-.3 3.5v.3l.4.1v-.1l-.3-.2-.1-.1zm.1 2.3h.4l.3.2-.6.1-.1-.3zm.5-6.1v.3c.1.2.3.4.5.4v-.1l-.4-.6h-.1zm.2 3.8l-.1.1v.4h.3l-.1.1v.1h.9l-.3-.3.1-.1c-.3 0-.5-.1-.8-.3zm0-11.6l.3.2h.1l-.3-.2h-.1zm.8 5.4l-.3.8v.1h.4l-.1.4-.1-.1h-.4v.2c-.3 0-.4.1-.4.3v.1c0 .2.2.2.4.2v.1l-.1.1v.1l.1.1h.1l.1-.5-.2-.3h.1c.2 0 .4-.2.6-.4l.1.1.1-.1h.1l.4.2h.1v-.1c-.2 0-.4-.2-.5-.8l-.1-.1h-.2v.3h-.1l-.2-.5.1-.1v-.1zm-.1 8.2h.3l.2.3h-.4l-.1-.3zm.5-19.8l.2.5-.7.8v-.1c.1-.8.3-1.2.5-1.2zm1 9.5v.4l-.1-.1h-.1v.1l.4.5v.1h-.1l-.1-.1H89v.4l-.7-.3-.1.5.1.1-.2.3c.1.2.5.6 1.2 1.1h.1l-.3-.8h.1l.1.1h.1v-.1c-.1-.3-.2-.5-.4-.5v-.3l.1.1h.3v-.1l-.2-.3.2-.3-.4-.3.2-.3v-.1l-.1-.1zm-.9-7.3v.4h.4l-.2-.4h-.2zm0 3.6c0 .2.2.4.7.6 0-.3-.3-.5-.7-.6zm.6-6.8h.3c-.1.3-.2.5-.3.5l-.3-.2.3-.3zm-.3 11v.4h.3l-.2-.3-.1-.1zm.7 3.1v.2c-.3 0-.4.1-.4.3l.4.3.1.5-.1.1.7.8h-.1l-.1-.1h-.1l-.1.5-.1-.1h-.1l.1.7.2-.3c.6 0 .9.2.9.6l.1-.1h.2l.3.6h-.3l-.1.4-.4-.1c0 .2.2.3.5.3v.4l.1-.1h.1v.3h.2v-.3c-.2 0-.4-.2-.4-.7l1-.4-.3-.5h-.1l-.1.1h-.1l-.9-.6h.2l-.1-.5-.1.1H90l-.3-.2c0-.2.1-.3.3-.3l.1.1h.2v-.1c-.2 0-.4-.1-.4-.3l-.1-.1h-.1v.1l.1.1h-.2l-.5-1.1h.1l.1.1h.4v-.1c-.2 0-.5-.1-.8-.4l.1-.1v-.2l.2.1zm.1-4.6v.4h-.1l-.1-.1H89v.4c0 .2.2.2.5.2v.2h.1l-.1.1v.3h.1l.3-.2c.3.4.5.6.8.7v-.1l-1.3-1 .1-.1v-.2l-.1.1h-.1v-.2h.3v-.1l-.3-.4zm-.3-6.8v.1l.3.2v-.1l-.3-.2zm.1 1.1l-.1.4.1.1h.1l.2-.4-.3-.1zm0-2.4v.2l.3.2h.1l-.4-.4zm.6 6l.2.5h.2c-.1-.4-.2-.6-.4-.5zm.1 2.6l.7.5v-.1c-.2 0-.3-.1-.4-.5l-.3.1zm.4 6.8h.1l-.2.3H90l.2-.3zm.7-27.8l.3.5h.1l-.1-.5h-.3zm1.7-.4l-1.1 1.4h-.1v-.3h-.1v.1l.1.4h-.1l-.2.4c.2 0 .5-.5 1.1-1.3l.7-.6v-.1h-.3zm-1.5 8.2l.2.3h.3v-.2l-.5-.1zm.3 12.5l-.1.5h.1v-.1l.7.3h.1l-.6-.7h-.2zm.3-10.8l.3.2h.3l-.3-.2h-.3zm.7 8.6c0 .3-.1.5-.3.5l.1.5h.1c.2 0 .2-.2.2-.6h.2v-.4h-.3zm.2-9.2l.3.6-.6.1v.4l.1-.1h.1l.1.1h.1v-.1l1 .2v-.1c.1-.4-.3-.7-1.1-1.1zm.2-5.9v.1c.2 0 .4 0 .4.2l-.2.4v.1l.5-.1-.1-.1v-.1c0-.2.1-.2.3-.3l.1-.1v-.3l-1 .2zm.2 2.6v.4l.3-.4v-.1l-.3.1zm.6 1.2v.4l.2-.3v-.1h-.2zm.1-1.9h.1l.9-1.1v-.1h-.1l-.9 1.2zm.2 13.9c0 .2 0 .4-.2.4v.1h.1l.5-.2c0 .3.1.4.3.4h.2v-.4l-.9-.3zm0-9.5v.1c.1.4.2.6.4.6h.3v-.2l.8.3v-.1l.1-.4h-.1l-1.5-.3zm0-7.5v.4l.1.1-.2.3v.1l.6-.6v-.3l-.1.1H94v-.3l-.1.2zm.3 22.5v.4h.2v-.1l-.2-.3zm.4-6l.3.2h.1l-.3-.2h-.1zm.2 4.7v.1l.4.2v-.1l-.4-.2zm.2-1.6l.1.1h.1v-.4l-.2.3zm.1-2.6l.1.5h.2l-.1-.1v-.1l.1-.1v-.1l-.3-.1zm.2 1.6v.4l.2-.3v-.1h-.2zm.2 1.6v.1c.3-.1.5-.3.4-.7l-.4.6zm.2-18.8v.1l.8.2v-.3h-.8zm.7 2.7v.1l.6.2h.3v-.2h-.8l-.1-.1zm.5-3.4c.2.5.4.7.6.7v-.1c-.3-.4-.5-.6-.6-.6zm.2 5.6v.2l.3.2v-.3l-.3-.1zm.5-4.7v.4h.2l-.2-.3v-.1zm.2 20.2v.4h.3v-.1l-.3-.3zm.1-19.7v.2c.2 0 .3.1.3.3h.1v-.2c-.2 0-.2-.1-.3-.3h-.1zm.1 7l.9.6v-.1l-.3-.2h.4l-.3-.5-.7.2zm.3-1v.1l.1.4h.4l-.4-.3v-.1l-.1-.1zm.1-5.3v.4c.3.1.4.3.4.7h.3l-.6-1.1h-.1zm1.3 7.6v.2l-.9.1v.1c.2 0 .4 0 .4.2l.8-.5v-.2l-.3.1zm-.4-.9l-.2.3v.1h.3l.2-.4h-.3zm.2-5.1l.1.4.2-.3-.3-.1zm.8 10.3h.1l.3.2v.2c-.1.1-.2-.1-.4-.4zm.6.4h.3l-.1.6h.2v.4l-.5.1c0-.4-.1-.6-.3-.6l.4-.5zm0-7.4l.1.1v.1h-.4l.3-.2zm0 2.1h.2l.3.2-.4.2-.1-.4zm.9 3.7l.2.3h.1l-.1-.5-.1.1-.1.1zm.1.9v.4l.1.1h.4l-.4-.3v-.1l-.1-.1zm1.1-5.2l.1.4h.1v-.3l-.1-.1h-.1zm0 11v.1l.5.3h.1v-.1c.1-.1-.2-.2-.6-.3zm.3-7.5l.3.2.1-.4-.4.2zm.1-5.1v.1h.4v-.4h-.1l-.3.3zm0 10.5v.1l.1.1v.1l-.1.1.1.1h.1l.1-.1.1.1v-.1c.1-.2-.1-.4-.4-.4zm.1-1.5l.4.1v.4l-.4-.3v-.2zm1-6.9l.1 1 .5-.1-.1-.1v-.3h.4v.3h.1v-.4l-.8-.4h-.2zm.8 10.9v.4l.2-.3-.1-.1h-.1zm.5-9.4c0 .2 0 .4-.2.4l-.1-.1v.1l.1.1v.1l.5-.4v-.3l-.3.1zm.4 13.8v.4h.2v-.1l-.2-.3zm0-11.7l.1.5.4.1v-.1c-.2-.3-.3-.5-.5-.5zm.1 1.6c.3.2.6.3.9.3v.2h-.3l-.7-.4.1-.1zm.6 3.6v.1c.1.2.3.3.7.4-.2-.4-.4-.5-.6-.6l-.1.1zm.3-3h.2l.7.6v.3l-.1-.1h-.1l-.1.1h-.1l-.5-.9zm.6 3v.1c.2.3.5.4.8.4l-.6-.6-.2.1zm.1 2.3v.2l.4.1h.1v-.1l-.5-.2zm.1-1.3l.5.4h.1l-.3-.5-.3.1zm.1 4.2v.1l.7.1v-.1l-.2-.4-.5.3zm.5-2.9c0 .8-.1 1.2-.4 1.3l.4.5c.2 0 .3-.4.4-1.2-.1-.5-.2-.6-.4-.6zm-.2 2.2v.3h.1l.2-.3h-.3zm.2-6.9h.1c.2 0 .3.2.4.6h.1l.1-.1h.1l.2.5h-.1l.1.1v.4h-.1l-.9-1.5zm.5 1.6v.4h-.1v-.3h-.3v.3l.5.4.2-.8h-.1l-.1-.1-.1.1zm0 2.5v.1c.4.3.6.5.6.8v.4h-.4v.1l.5.1h.1v-.1h-.2v-.1c.3 0 .5-.3.4-.9l-.3-.2-.1.1h-.1l-.5-.3zm1.9 5.5v.1h.1c0-.3.1-.6.5-.8l.4.1-.1-.1v-.1c.2 0 .4-.3.5-.9-.3 0-.5.3-.5.8-.6.1-.9.5-.9.9zm1.2-.7v.4l-.1-.1h-.1c-.2.2-.3.6-.2 1.3l-.1-.1h-.1v.1l.3.2.1-.4.1.1h.1c0-.3.1-.7.3-1l-.1-.5h-.2zm.4.8v.4l.1-.1h.1l.3.2h.1v-.1c-.2 0-.4-.1-.4-.3l-.2-.1zm.2.6v.1l.1.1h.1l.1-.1h-.1l-.1-.1h-.1zm.4-.8v.4l.2-.3-.1-.1h-.1zM114.6 96.8l.2.5-.1.5.6 1v.1l-.1-.1h-.1l-.2.3h.1l.1-.1h.1l.1.1-.1.5h-.1c0-.3-.3-.5-.8-.4l-.1-1.2c0-.7.1-1.1.4-1.2zm.1 3.6h.4l.3.2v.2h-.2l-.2.2-.1-.1-.2-.5zm.1.9l.4.2.1-.1.1.1v.2l-.1-.1h-.1l-.3.3h-.2l.1-.6zm1.1-4.9l.5.2.2-.3c.6-.1 1.1.1 1.3.6v.1l-.1.1v.1c.3-.2.4-.3.4-.4l-.4-.3v-.2l.6-.2.1.1 2.1-.2.1-.1.1.1h.1l.1-.1h.1c.7.1 1 .3 1.1.9l.5 5.2h-.4l-.1-.1h-.1l-.1.1v.1c.5-.1.7 0 .8.2l2 18.7.6-.2v.1l.1-.1h.1l.5.1v-.1l.4.1.3-.2v.1l.1-.1h.1l.5.2v-.2l.5-.1.6.1v-.1l1.2.1.2-.3 1.1-.1.8.2v-.2h1.8l.3-.2v.1l.1-.1h.2l.6.1v.2l-.1.1v.1l.1-.1h.4l.4.2.2-.3c-.3-.1-.5-.2-.5-.3l1.8-.3.6-.1.1.1.1-.1h.1l.6.1v-.1c.4 0 .7.1 1 .5l.1.9.2.6-.1.7.1.7.1.1-.1.1v.3l.2.5-.1.1v.1l.3 1.2c.1 1-.4 1.5-1.4 1.6l-1.6.2-.1-.1h-.1l-.1.1-.1-.1v-.1h.3l-.2-.3h-.2l.1.1v.1c-.3.3-.5.4-.8.5l-2 .2-.1-.1-.1.1-1.9.2-.5-.3h-.1v.4h-.1c0-.3-.3-.5-.7-.7v.4c.3 0 .5 0 .5.2v.1l-2.4.3-.7-.1-.6.2-.1-.1h-.1l-.5.2v-.1l-.1.1-1.7.2-.1-.1-.1.1-1.2.1c-.4 0-1.5-.7-3.3-2.3l-.8-.4c-.4-.8-.6-1.2-.7-1.2 0 .2 0 .4-.2.4-.4-.6-.8-.9-1.2-.8v.2c.2 0 .7.4 1.5 1.2l.1-.1.2.5c-.2 0-.4.1-.3.3v.3c.5-.1.8.2.8.8h.1v-.2l.1-.1-.1-.1h-.1l-.1-.5h.1c.5.2 1 .5 1.5 1.1.2 0 .7.4 1.6 1.2v.1h-.4l-.5-.1-.3.2-.3-.2-.2.3h-.3l-.1-.1-.1.1-1.8.2c-.9.1-1.4-.3-1.5-1.1l-1.8-17.3h.1c.2.5.3.8.6.8v.3l-.1-.1h-.1v.1l.3.6-.1.5.3.2c0-.2 0-.4.2-.4h.1c.1 0 .3.1.4.5l-.1.1c.5-.1.8.2.8.6l.3-.3.1.1v-.1l-.6-.4v-.9h.2c0 .3.4.7 1.1 1.3v.3l.6-.2v-.1c-.3 0-.5-.1-.6-.4v-.1h.2l.1.1h.1l-.1-.1v-.3l1 .6v.1l-.3.2.2.3h.4l-.1-.1v-.2h.4c0-.2-.7-.7-2-1.6l-.3-.2-.1-.9c-.4 0-.6-.1-.7-.3l.4-.1 2.6 1.2v-.1l-.3-.2.1-.1c-.7-.3-1.4-.8-2.2-1.6v-.1h.2l.1.1h.1l.1-.1-.1-.5c-.4 0-.6-.2-.7-.8h.1c-.1-.2-.3-.4-.7-.5h-.1v.1l.1.1v.1h-.3c-.2 0-.2-.1-.3-.3l-.1.1h-.1l-.3-.2v-.2l.1.1h.2c0-.2 0-.4.2-.4 0 .1.3.3.8.4v-.1c-.2 0-.3-.1-.3-.5l-.4-.1-.5.2-.1-.1h-.1l-.1.1-.2-.3h.4l-.1-.7c-.3 0-.5-.1-.5-.3l.2-.3-.8-.2.2-.3.1.1h.1v-.1l.1.1h.4l-.4-.5.1-.1h-.9l-.1.1.1.1v.3l-.3.4h-.1l-.3-2.7h.1l.4 1.2h.4l.1-.6v-.2h-.3l.2.6c-.3-.1-.5-.4-.6-1l.2-.3h.1c0 .3.1.5.3.4l.2-.3.3.2.1-.1.1.1.5-.1c0-.2-.2-.2-.5-.2v-.1l.2-.3h.1l.6.8-.1.1v.1l.6.2.1-.1.1.1v.2h-.2c0 .2.3.5.8 1v.1h-.4l-.4-.2h-.3l-.1.1h-.1v-.2h.2v-.1c-.3 0-.5 0-.5-.2v-.1h.4l.1.1h.1v-.1l-.1-.1v-.1l.1-.1-1.1-.2v.1l.4.4h-.1c.2.7.6 1 1.2 1v.1l.1-.1h.1l.1.1h.1l.1-.1h.1l1 .3.1-.1h.1l.1.1v-.1l-.2-.3.1-.1h-.1l-.2.3h-.3c0-.2.1-.2.4-.3v-.1l-.1-.1v-.1h.4v-.1h-.2l.2-.4h-.4v-.2h.4v-.1c-.4 0-.6 0-.6-.2h.3c0-.2 0-.4.2-.4v-.3l-.7-.2-.1.4h-.1l-.6-.5.1-.1-.9-.3.1-.1v-.1l-.9-1.3h.4c-.5-.3-1-.9-1.3-1.8l.1-.1h.1l-.3-.3.1-.1v-.2c-.2 0-.4 0-.4-.2v-.1l1.1-1.8zm-.7 8.6l.5.1v.1h-.2l.1.5h.2l-.2.3-.3-.3.1-.1h-.2v.3h-.1l-.1-.5.2-.4zm.1-5.5c.2 0 .3.2.3.6h.3l-.1.1v.1l.1.1-.1.1h-.2l-.2-.3.1-.1-.1-.1h-.1v-.5zm-.1 7.5h.2l.2.3-.1.1.1.1h-.1l-.3-.2v-.3zm.3 2.3l.3.2v.2l-.3-.2v-.2zm.1.6h.2l-.1.4h-.1v-.4zm.1-1.5h.1l.3.2h-.1l-.3-.2zm.1-7.7c.3.1.5.3.6.7l-.5-.4-.1-.3zm0 6.3c.5 0 .8.2.9.8h-.2l-.7-.7v-.1zm.2-5.5h.4v.3h-.1l-.3-.3zm.1 1.2v.1l.3.2v-.4l-.3.1zm.5 5.6c0 .2.2.2.5.2l.1.4-.1.1c-.4 0-.6-.2-.8-.5l.1-.1.2-.1zm0-4.2v.1l.3.2.1-.4-.4.1zm.1 8.9v.1l.3.2-.2.4h.1l.2-.4-.4-.3zm.3-3.1h.3l.4.3-.2.3-.5-.5v-.1zm.1 9.5l-.1.1v.4l.1-.1h.1l.5.2v-.1l-.6-.5zm.3-14.7l-.2.4h.1l.3-.3.4.2.1-.1v-.2l-.7-.1v.1zm-.2-5.4v.2l.2.3h.1v-.2l.1-.1-.3-.2h-.1zm.7 8.4h.1l.2.6h-.1c-.4 0-.6-.1-.6-.3v-.1l.1.1h.1l.2-.3zm-.3-8.6v.1l.2-.3v-.1l-.2.3zm0 14.5v.4l.1.1h.1v-.1l-.2-.3v-.1zm.1-15.2v.1l.3.2h.1l-.4-.3zm.1 20.3l.1.1v.1l.5-.2-.2-.3-.4.3zm.4-13.7l.1.1v.1h-.4l.1.1v.1l.1-.1h.1l.1.1h.1l-.1-.5-.1.1zm-.2 3.9h.1l.3.2h-.1l-.3-.2zm.3-10.2l.3.5h.1v-.4l-.1-.1h-.3zm0 25c.3.3.4.5.4.7l.1-.1h.3l1.1 1-.1.4.1-.1h.1l.4.2c-.4-.5-.6-.9-.6-1.3h.3c0 .3.2.5.5.4v-.1l.1.1h.2l-.3-.3.1-.1v-.1l-.8-.2-.3.2-.4-.3h-.1v.1c0 .2.1.2.4.2l.2.3-.1.1h-.1c-.2 0-.4-.2-.6-.6l.1-.4h-.1l-.5.2-.3-.2-.1-.1zm.1-.6l.1.1h.2l-.1-.4-.2.3zm.4-11.2l.5.4v.1l-.5-.2v-.3zm0 2.7c0 .3.3.5.8.7v-.3l-.3-.2-.1.1-.4-.3zm.1-12.5h.3l.1.5h-.1l-.3-.5zm0 6l.2.3.2-.3v-.1l-.1.1H118.9zm0 14.3c0 .2.1.2.4.2v.2h-.3l.2.5h.2v-.2l.1.1h.1l-.2.5.1-.1h.3v.3h.4v-.4l.8.4v-.1l-.2-.3.1-.4h-.1l.1-.1v-.2l-.3-.2v.1l.1.1v.1l-.3.3-.1-.1.1-.1v-.2l-.1.1h-.1l-.1-.1h-.1l-.1.1-.4-.4-.6-.1zm.2-19.6h.1l.3.2h-.1l-.3-.2zm.9 17.3v.2c-.7.3-1 .9-.9 1.7l1.3.2h.4v-.1l-.6-.1v-.2h.1l.1.1h.1v-.1l-.3-.2c.2 0 .2-.1.2-.4l.3.2-.1.1v.1l.4.2h.1l.2-.5c-.3 0-.6-.3-1-1.1l-.1-.1h-.2zm.3-11.4l-.1-.1-.7.1.1.1v.1l.1-.1h.1l.8.4h.2l-.4-.3.1-.4-.2.2zm-.8.8v.1h.2l.1-.1v-.1l-.3.1zm.3-11.2v.1l.5.3v-.1l-.5-.3zm.3 22.1l.3.2v.1l-.3-.2v-.1zm0-20.8v.1l.1.4h.1v-.1l-.2-.3v-.1zm.2 3.5c0 .2 0 .4-.2.4v.1h.5l-.2-.5h-.1zm0 .8l-.1.5.4.2h.4l.2-.3c-.5.1-.7-.1-.8-.4h-.1zm.3 15l-.3.6.3.3-.1.1v.1l.1.1h.2l.1-.4-.2-.6.4.2v-.1c0-.1-.2-.2-.5-.3zm-.2-2.5v.4l.2-.3-.1-.1h-.1zm.4-10.6c0 .2-.1.3-.3.3l-.1.1v.3c.3-.2.5-.5.5-.7h-.1zm-.3-3.1v.1l.4.1v-.1l-.1-.1h-.3zm.6 15.2l-.3.7v.2l.3.2.5-.1-.1-.1v-.4l.1.1h.2v-.1l-.1-.4h-.1v.2h-.2l-.1-.5-.2.2zm-.1 7.2v.4h.1l.1-.4h-.2zm.1-20v.2h.3l-.1.1v.2l.3.2.1-.1-.3-.5.1-.1v-.2l-.4.2zm.1 6.6v.1l.4.2v-.1l-.4-.2zm.1 14.3v.2l.4.1v-.1l-.4-.2zm.1-24.1l.2.3h.1v-.4l-.3.1zm.2 15v.1l.2.3-.2.3c.2 0 .3.1.3.5h.4v-.3l-.1-.1v-.1l.1-.1h.1l.1.1v.1l-.1.1h.1l.1-.1v-.1c-.3-.1-.4-.3-.4-.7l-.1.1h-.1l-.1-.1h-.3zm.4-13.4l-.1.1v.3h.1l.1-.4h-.1zm.1-3.4v.1l.4.2v-.1l-.4-.2zm.1 3.7h.4c0-.2 0-.4.2-.4l-.2-.3-.4.7zm.1 11.3l.3.5-.1.1v.4h.1c0-.2.1-.4.3-.7h-.3v-.4h.4v-.1h-.2l-.5.2zm.1-6.1l.1.5h.1l.2-.3v-.1l-.4-.1zm0 7.2v.1l.2.3h.2v-.1l-.4-.3zm.1.6l.2.3h.1v-.2l-.1-.1h-.2zm.5-1.2l.1.6h.1v-.2h.1l.5.3h.1v-.1c-.2 0-.4-.2-.7-.5l-.2-.1zm.1-.5l.8.6v-.2c-.3 0-.5-.1-.5-.4h-.3zm0 5.9v.2l.3.2h.1l.1-.1.1.1h.3v-.1c-.2 0-.4-.1-.4-.3l-.1.1h-.1v-.4l-.3.3zm.2-8.2v.2l.1.1h.1l-.1-.4-.1.1zm.3 9c0 .3 0 .5-.2.5l.4.7h.1v-.3h.2c.1.4.2.6.4.6v-.3l.8.2v-.3h-.8l-.1.1-.1-.1v-.1h.2c0-.2-.2-.2-.6-.2v-.3l-.1-.1.1-.1h.1l-.1-.1v-.1l.1-.1h-.4zm.1 2.8v.4l.4.1-.1.1v.2h.1v-.2l.1.1h.2v-.1l-.7-.6zm.4 1.7v.1l.2.5h.1v-.3l-.2-.3h-.1zm.1-.5v.1l.2-.3v-.1l-.2.3zm1-.7l-.1.4h.1l.2-.3-.1-.1h-.1zm1.6 0l.4.6h.1v-.1l-.2-.5h-.3zm.2-.8l-.1.5.5-.2v-.1l-.3-.2h-.1zm.1-1.3h.3v-.6c-.2 0-.3.2-.3.6zm.1 1.1l.1.1h.2l-.1-.4-.2.3zm2.7 1.1v.1l.1.1h.3v-.1l-.4-.1zm.2-4.6v.2l.1.1h.1l-.2-.4v.1zm.2 6.1v.1l.4.3h.1c-.2-.3-.3-.5-.4-.5l-.1.1zm4.3-4.4v.1l.4.2v-.1l-.4-.2zm.7.6c.2.3.3.5.4.5h.1l-.5-.5zm.4 2.9l.4.3h.1v-.2l-.5-.1zm.2-2l1.2.5v-.1c-.3-.3-.6-.4-.8-.4v-.1l-.4.1zm.7-2.5h.4v-.3h-.1l-.3.3zm.6 3.1v.1l.4.2v-.1l-.4-.2zm2.1-3.5l.2.3h.3l-.5-.3z"/><path class="st1" d="M163.9 108.8v5.6H160v-5.6l-5.5-9.5h4.5l3 6.1 3-6.1h4.4z"/><g><defs><path id="SVGID_1_" d="M0 0h362.5v190.5H0z"/></defs><clipPath id="SVGID_2_"><use xlink:href="#SVGID_1_" overflow="visible"/></clipPath><path class="st6" d="M173.5 112c1.7 0 2.2-1.7 2.2-3 0-1.4-.5-3.1-2.2-3.1-1.7 0-2.2 1.7-2.2 3.1 0 1.3.5 3 2.2 3m0-8.9c3.4 0 5.8 2.5 5.8 5.8s-2.4 5.8-5.8 5.8-5.8-2.5-5.8-5.8 2.4-5.8 5.8-5.8M192.1 114.4h-3.5v-1.5c-.7 1.1-2.1 1.8-3.3 1.8-3.2 0-4.1-1.8-4.1-4.7v-6.6h3.6v6.4c0 1.5.6 2 1.8 2 .8 0 2-.5 2-2.5v-5.9h3.6v11zM198.6 111.3h3.2c1.2 0 2.1-.4 2.1-1.7 0-1.3-.9-1.8-2.1-1.8h-3.2v3.5zm0-6.1h3c.7 0 1.6-.4 1.6-1.4 0-1.1-.8-1.5-1.6-1.5h-3v2.9zm-3.9-5.9h7.1c2.6 0 5.5.6 5.5 3.8 0 1.4-.8 2.5-2 3 1.6.5 2.6 1.9 2.6 3.6 0 3.6-2.6 4.7-5.9 4.7h-7.3V99.3zM220.7 114.4h-3.5v-1.5c-.7 1.1-2.1 1.8-3.3 1.8-3.2 0-4.1-1.8-4.1-4.7v-6.6h3.6v6.4c0 1.5.6 2 1.8 2 .8 0 2-.5 2-2.5v-5.9h3.6v11z"/></g><path class="st1" d="M223.3 103.4h3.6v11h-3.6v-11zm3.6-1.4h-3.6v-2.8h3.6v2.8zM229.5 99.3h3.6v15.1h-3.6z"/><g><defs><path id="SVGID_3_" d="M0 0h362.5v190.5H0z"/></defs><clipPath id="SVGID_4_"><use xlink:href="#SVGID_3_" overflow="visible"/></clipPath><path class="st7" d="M238.7 108.8c0 1.5.6 3.2 2.2 3.2 1.8 0 2.1-1.7 2.1-3.1 0-1.6-.6-3-2.1-3-1.6 0-2.2 1.5-2.2 2.9m7.8 5.6h-3.4v-1.3c-.7 1-1.8 1.6-3 1.6-3.4 0-4.9-3-4.9-6.1 0-2.9 1.5-5.6 4.6-5.6 1.4 0 2.4.5 3.1 1.5v-5.3h3.6v15.2z"/><path class="st8" d="M17 107.2c1.9 0 3.5-1.6 3.5-3.5s-1.6-3.5-3.5-3.5-3.5 1.6-3.5 3.5 1.6 3.5 3.5 3.5"/><path class="st9" d="M19.5 101.3c-.6-.7-1.5-1.1-2.5-1.1-1.9 0-3.5 1.6-3.5 3.5 0 1.6 1.1 3 2.6 3.4-.6-.6-1-1.5-1-2.4 0-1.9 1.6-3.5 3.5-3.5.4 0 .7 0 .9.1"/><path class="st8" d="M293 126.2c1.9 0 3.5-1.6 3.5-3.5s-1.6-3.5-3.5-3.5-3.5 1.6-3.5 3.5 1.6 3.5 3.5 3.5"/><path class="st9" d="M295.5 120.3c-.6-.7-1.5-1.1-2.5-1.1-1.9 0-3.5 1.6-3.5 3.5 0 1.6 1.1 3 2.6 3.4-.6-.6-1-1.5-1-2.4 0-1.9 1.6-3.5 3.5-3.5.4 0 .7 0 .9.1"/><path class="st10" d="M293.5 122L300.7.1M17 103.8L1 11.3"/></g></svg>