<?xml version="1.0" encoding="utf-8"?>
<!-- Generator: Adobe Illustrator 19.2.0, SVG Export Plug-In . SVG Version: 6.00 Build 0)  -->
<svg version="1.1" id="Layer_1" xmlns="http://www.w3.org/2000/svg" xmlns:xlink="http://www.w3.org/1999/xlink" x="0px" y="0px"
	 viewBox="0 0 139.8 122.1" style="enable-background:new 0 0 139.8 122.1;" xml:space="preserve">
<style type="text/css">
	.st0{fill:#64257E;}
	.st1{fill:#ED712A;}
	.st2{fill:#C00A26;}
	.st3{fill:#4CA22F;}
	.st4{clip-path:url(#SVGID_2_);fill:#FFFFFF;}
	.st5{clip-path:url(#SVGID_2_);fill:#1D1D1B;}
	.st6{clip-path:url(#SVGID_4_);fill:#1D1D1B;}
	.st7{clip-path:url(#SVGID_6_);fill:#1D1D1B;}
	.st8{clip-path:url(#SVGID_8_);fill:#1D1D1B;}
</style>
<polygon class="st0" points="0.5,0 0.5,69.1 29.1,69.1 29.1,33 "/>
<polygon class="st1" points="65.7,69.1 37.1,69.1 37.1,34.4 65.7,31.9 "/>
<polygon class="st2" points="102.3,69.1 73.7,69.1 73.7,14.3 102.3,21.5 "/>
<polygon class="st3" points="110.3,35.9 110.3,69.1 138.9,69.1 138.9,24.4 "/>
<g>
	<defs>
		<rect id="SVGID_1_" width="139.8" height="122.1"/>
	</defs>
	<clipPath id="SVGID_2_">
		<use xlink:href="#SVGID_1_"  style="overflow:visible;"/>
	</clipPath>
	<path class="st4" d="M44,61.3c-0.1,0.1-0.1,0.2,0,0.3l2.1,2.1c0.1,0.1,0.2,0.1,0.3,0l3.9-3.9l-2.4-2.4L44,61.3z"/>
	<path class="st4" d="M42.2,53.8c0.1,0.1,0.2,0.2,0.3,0.2l3.2,0.1c0.1,0,0.2,0.1,0.3,0.1l2.6,2.6l2.4,2.4l4.4,4.4l0.1,0.1
		c0.1,0.1,0.2,0.1,0.3,0l2.2-2.1c0.1-0.1,0.1-0.2,0-0.3l-4.5-4.5l3.7-3.7c0.1-0.1,0.2-0.1,0.3,0l1,1c0.1,0.1,0.1,0.2,0,0.3l-0.3,0.3
		c-0.1,0.1-0.1,0.2,0,0.3l1.3,1.3c0.1,0.1,0.2,0.1,0.3,0l2.9-2.9c0.1-0.1,0.1-0.2,0-0.3l-1.3-1.3c-0.1-0.1-0.2-0.1-0.3,0l-0.2,0.2
		c-0.1,0.1-0.2,0.1-0.3,0c-3.7-3.6-6.2-5-8.9-5c-0.1,0-0.2,0.1-0.3,0.2c0,0.1,0,0.2,0.1,0.3l3.1,3.1c0.1,0.1,0.1,0.2,0,0.3L51,54.3
		l-2.4-2.4c-0.1-0.1-0.1-0.2-0.2-0.3l-0.6-3.9c0-0.1-0.1-0.2-0.2-0.2L42.8,46c-0.1,0-0.2,0-0.2,0.1l-0.1,0.5l-0.2,0.9
		c0,0.1,0,0.2,0.1,0.3l2.1,1.1c0.1,0.1,0.2,0.2,0.2,0.3l0.2,0.8c0,0.1,0,0.2-0.1,0.3l-1,1.1c-0.1,0.1-0.2,0.1-0.3,0l-0.1-0.1l-2-1.4
		c-0.1-0.1-0.2-0.1-0.3,0l-0.8,0.3c-0.1,0-0.1,0.1-0.1,0.1c0,0,0,0.1,0,0.1L42.2,53.8z"/>
	<path class="st4" d="M132.3,62.9c-0.5,0-0.8-0.4-0.8-0.8c0-0.5,0.4-0.8,0.8-0.8c0.5,0,0.8,0.4,0.8,0.8
		C133.2,62.5,132.8,62.9,132.3,62.9 M132.3,60.4c-0.9,0-1.7,0.7-1.7,1.7c0,0.9,0.7,1.7,1.7,1.7c0.9,0,1.7-0.8,1.7-1.7
		C134,61.2,133.2,60.4,132.3,60.4 M128.6,62.9c-0.5,0-0.8-0.4-0.8-0.8c0-0.5,0.4-0.8,0.8-0.8c0.5,0,0.8,0.4,0.8,0.8
		C129.4,62.5,129.1,62.9,128.6,62.9 M128.6,60.4c-0.9,0-1.7,0.7-1.7,1.7c0,0.9,0.7,1.7,1.7,1.7c0.9,0,1.7-0.8,1.7-1.7
		C130.3,61.2,129.5,60.4,128.6,60.4 M117.8,63c-0.5,0-1-0.4-1-1c0-0.5,0.4-1,1-1c0.5,0,1,0.4,1,1C118.8,62.6,118.3,63,117.8,63
		 M117.8,60.4c-0.9,0-1.7,0.7-1.7,1.7c0,0.9,0.7,1.7,1.7,1.7c0.9,0,1.7-0.8,1.7-1.7C119.5,61.2,118.7,60.4,117.8,60.4"/>
	<path class="st4" d="M130.5,61.2c0.1-0.3,0.4-0.6,0.6-0.8h-1.3C130.1,60.6,130.3,60.9,130.5,61.2 M134.4,62.1c0,0.1,0,0.3,0,0.4
		h0.5v-2.1h-1.2C134.1,60.8,134.4,61.4,134.4,62.1 M129.1,52.7c0.1,0,0.3-0.1,0.4-0.1l4-0.5h-4.2c-0.1,0-0.3,0-0.4,0.1l-2.7,0.8
		c-0.1,0-0.3,0.1-0.4,0.2l-1.9,1.3l2.1-0.8c0.1-0.1,0.3-0.1,0.4-0.1L129.1,52.7z M131.6,58.8c-0.2,0.2-0.5,0.3-0.7,0.3l-2.5,0.7
		c-0.3,0.1-0.5,0.1-0.8,0.1H124c-0.2,0-0.5-0.1-0.6-0.4c-0.7-1.3-1.1-2.6-1.2-4.1c0-0.3,0.1-0.5,0.3-0.7l3-2
		c0.2-0.2,0.5-0.3,0.7-0.3l2.5-0.7c0.3-0.1,0.5-0.1,0.8-0.1h5.4c0.2,0,0.5,0.1,0.6,0.3c0.5,1,0.8,2,0.9,3.1c0,0.3-0.1,0.5-0.3,0.6
		L131.6,58.8z M134,59.2h-1.7l-2.8,0.8h5.7v-3.1l-0.8,0.5L134,59.2z M118.6,54.2h-2.5v2.9h2.5V54.2z M115.7,54.2h-0.6l-0.6,2.9h1.2
		V54.2z M120.7,60.4h6.6c-0.5,0.4-0.8,1-0.8,1.7c0,0.1,0,0.3,0,0.4h-6.7v-0.4c0-1.1-0.9-2.1-2.1-2.1c-1.1,0-2.1,0.9-2.1,2.1v0.4
		h-1.2c-0.3,0-0.4-0.1-0.4-0.4v-4.8c0-0.1,0-0.3,0-0.4l0.7-3.2c0.1-0.3,0.2-0.4,0.5-0.4h4.6c0.3,0,0.4,0.1,0.4,0.4v7.5L120.7,60.4z
		 M122,60h-1.2v-4.1h0.4v2.5h0.4L122,60z"/>
	<rect x="80.1" y="51.8" transform="matrix(0.7072 -0.707 0.707 0.7072 -14.3706 74.6893)" class="st4" width="5.8" height="5.8"/>
	<rect x="85.1" y="46.8" transform="matrix(0.7071 -0.7071 0.7071 0.7071 -9.3344 76.7872)" class="st4" width="5.8" height="5.8"/>
	
		<rect x="90.2" y="51.8" transform="matrix(0.7071 -0.7071 0.7071 0.7071 -11.4194 81.8201)" class="st4" width="5.8" height="5.8"/>
	<rect x="85.1" y="56.8" transform="matrix(0.707 -0.7072 0.7072 0.707 -16.4507 79.7486)" class="st4" width="5.8" height="5.8"/>
	<rect x="4.1" y="53.1" class="st4" width="4.3" height="4.7"/>
	<rect x="20.5" y="53.1" class="st4" width="4.5" height="4.7"/>
	<rect x="9.6" y="53.1" class="st4" width="9.8" height="4.7"/>
	<rect x="4.1" y="47.2" class="st4" width="9.8" height="4.7"/>
	<rect x="15.2" y="47.2" class="st4" width="9.8" height="4.7"/>
	<rect x="4.1" y="59.1" class="st4" width="9.8" height="4.7"/>
	<rect x="15.2" y="59.1" class="st4" width="9.8" height="4.7"/>
	<polygon class="st5" points="15.7,76.5 11.2,85.7 6.7,76.5 0,76.5 8.3,90.7 8.3,99.2 14.2,99.2 14.2,90.7 22.5,76.5 	"/>
	<path class="st5" d="M28.6,95.5c2.5,0,3.3-2.5,3.3-4.6c0-2.1-0.8-4.6-3.3-4.6s-3.3,2.5-3.3,4.6C25.3,93.1,26.1,95.5,28.6,95.5
		 M28.6,82.2c5.1,0,8.7,3.8,8.7,8.7c0,5-3.6,8.7-8.7,8.7c-5.1,0-8.7-3.8-8.7-8.7C19.9,86,23.5,82.2,28.6,82.2"/>
	<path class="st5" d="M56.6,99.2h-5.2v-2.3h-0.1c-1,1.7-3.1,2.7-5,2.7c-4.7,0-6.1-2.7-6.1-7.1v-9.9h5.4v9.6c0,2.2,1,3,2.7,3
		c1.2,0,3-0.8,3-3.7v-8.8h5.4V99.2z"/>
	<path class="st5" d="M66.3,94.4h4.7c1.9,0,3.2-0.7,3.2-2.5c0-2-1.4-2.7-3.2-2.7h-4.7V94.4z M66.3,85.4h4.6c1,0,2.4-0.5,2.4-2.2
		c0-1.7-1.2-2.2-2.4-2.2h-4.6V85.4z M60.4,76.5H71c3.9-0.1,8.2,1,8.2,5.7c0,2-1.2,3.7-3,4.6c2.4,0.7,3.9,2.8,3.9,5.4
		c0,5.4-4,7.1-8.8,7.1H60.4V76.5z"/>
	<path class="st5" d="M99.6,99.2h-5.2v-2.3h-0.1c-1,1.7-3.1,2.7-5,2.7c-4.7,0-6.1-2.7-6.1-7.1v-9.9h5.4v9.6c0,2.2,1,3,2.7,3
		c1.2,0,3-0.8,3-3.7v-8.8h5.4V99.2z"/>
	<path class="st5" d="M103.4,82.7h5.4v16.5h-5.4V82.7z M108.8,80.6h-5.4v-4.1h5.4V80.6z"/>
	<rect x="112.8" y="76.5" class="st5" width="5.4" height="22.7"/>
	<path class="st5" d="M126.6,90.8c0,2.3,0.8,4.8,3.3,4.8c2.6,0,3.2-2.5,3.2-4.6c0-2.4-0.9-4.6-3.2-4.6
		C127.4,86.3,126.6,88.7,126.6,90.8 M138.4,99.2h-5.2v-1.9h-0.1c-1.1,1.6-2.6,2.4-4.5,2.4c-5.2,0-7.4-4.5-7.4-9.1
		c0-4.3,2.3-8.4,7-8.4c2,0,3.6,0.8,4.7,2.3h0.1v-8h5.4V99.2z"/>
	<path class="st5" d="M8,112.5l0.3-0.1c0.4-0.1,0.8-0.3,1.2-0.5c0-0.1,0.2-0.1,0.5-0.1c0.1-0.1,0.3-0.2,0.4-0.2
		c0.1,0,0.3-0.1,0.5-0.2c0.2-0.1,0.6-0.2,1-0.3l0.3-0.1c0.1,0,0.3-0.1,0.5-0.1l0.5-0.1c0.4-0.1,0.8-0.1,1.2-0.2c0,0,0.2,0,0.5,0
		c0.3,0,0.5,0.1,0.5,0.1s0.2,0.1,0.5,0.2c0.3,0.1,0.4,0.3,0.4,0.7c0,0.2,0,0.4-0.1,0.6c0,0-0.1,0-0.3,0.1s-0.2,0.2-0.2,0.3
		c0,0.1-0.1,0.2-0.2,0.2c-0.1,0-0.2,0.1-0.2,0.3c-0.1,0.1-0.2,0.4-0.5,0.7l-0.8,1l0,0.1c0,0.2-0.2,0.4-0.4,0.6l-0.1,0.2l-0.1,0
		c-0.1,0.2-0.2,0.3-0.2,0.4l-0.1,0.1c-0.1,0.2-0.1,0.4-0.3,0.5c0,0-0.1,0.1-0.1,0.2l-0.2,0.3c-0.1,0.1-0.1,0.1-0.1,0.2
		c0,0.1,0,0.1-0.1,0.1c0,0-0.1,0.1-0.1,0.2c0,0.1-0.1,0.2-0.2,0.3s-0.1,0.1-0.1,0.1l0.1,0.1l0,0.1c0,0,0,0.1,0,0.1c0,0-0.1,0-0.1,0
		c0,0-0.1,0-0.1,0.1c0,0-0.1,0.1-0.1,0.1l0,0.2l0,0.2l0,0l0.4-0.1c0,0,0.3-0.2,0.8-0.4c0.1-0.1,0.2-0.2,0.2-0.3
		c0.2-0.1,0.4-0.2,0.5-0.3c0.1-0.1,0.2-0.1,0.4-0.2c0.1-0.1,0.2-0.1,0.3-0.2c0.1-0.1,0.3-0.3,0.8-0.6l0.2-0.2c0-0.1,0.1-0.2,0.5-0.3
		l0.2-0.2c0,0,0.1-0.1,0.3-0.1c0.1-0.1,0.2-0.2,0.4-0.4c0.2-0.1,0.4-0.3,0.5-0.5c0.2-0.2,0.4-0.3,0.6-0.3l0.2-0.2
		c0-0.1,0-0.2,0.2-0.3c0.2-0.1,0.3-0.3,0.4-0.4c0.1-0.1,0.2-0.2,0.4-0.3l0.1-0.1c0-0.1,0.1-0.2,0.3-0.3c0.2-0.1,0.3-0.1,0.3-0.1
		l-0.1-0.1c0,0,0-0.1,0.1-0.2c0.1-0.1,0.1-0.2,0.2-0.3c0-0.1,0.1-0.2,0.2-0.2c0.2-0.2,0.3-0.3,0.4-0.4c0.1,0,0.2-0.1,0.4-0.1l0-0.1
		l0.1-0.3l0-0.1c0-0.1,0.1-0.1,0.3-0.1c0,0,0.1-0.1,0.2-0.2c0.1-0.1,0.2-0.2,0.2-0.3l0-0.1c0.2-0.1,0.4-0.2,0.6-0.3l0.3-0.2
		c0.1-0.1,0.2-0.1,0.3-0.1c0.1,0,0.2,0,0.3,0c0.1,0,0.3,0,0.6,0c0.3,0,0.5,0.2,0.5,0.6c0,0.1,0,0.2-0.1,0.3
		c-0.1,0.1-0.1,0.2-0.1,0.3c0,0.1-0.1,0.2-0.4,0.5l-0.1,0.2l-0.5,0.7l0,0.1l0,0.1c0,0-0.1,0.1-0.3,0.1l-0.2,0.1c0,0,0,0,0,0.1
		l-0.3,0.7c0,0-0.1,0.1-0.2,0.2c0,0,0,0.1,0,0.2c0,0.1,0,0.2-0.1,0.3c0,0.1-0.1,0.1-0.1,0.2c0,0.1-0.1,0.1-0.1,0.2
		c-0.1,0.1-0.1,0.2-0.1,0.2l0,0.1c-0.1,0.1-0.1,0.1-0.1,0.2l0,0.1l0,0.1c0,0,0,0.1-0.1,0.1c-0.1,0-0.1,0.1-0.1,0.1
		c0,0,0,0.1,0.1,0.1l0,0.1c0,0,0,0.1-0.1,0.2c-0.1,0.1-0.1,0.2-0.1,0.3l-0.1,0.3l0,0.2l0,0.3l0.2,0.4l0,0.3c0,0.1,0.1,0.1,0.2,0.1
		c0.1,0,0.2,0.1,0.2,0.1c0,0,0.1,0,0.2,0c0.4,0,0.8-0.1,1.1-0.4c0.8-0.5,1.2-0.8,1.2-0.8l0.2-0.1c0.1-0.2,0.1-0.3,0.1-0.3
		c0,0,0.1,0,0.2-0.1c0.1,0,0.2-0.1,0.2-0.3l0.1-0.1l0.1-0.2c0.3,0,0.4-0.2,0.5-0.3c0-0.2,0.1-0.3,0.1-0.3l0.3,0l0.1-0.1l-0.1-0.1
		c0.2-0.1,0.2-0.2,0.2-0.2c0,0,0-0.1,0.1-0.2l0.1-0.2c0-0.1,0.1-0.2,0.2-0.3c0.1-0.1,0.2-0.2,0.3-0.3l0-0.1c0.3-0.2,0.4-0.4,0.4-0.6
		c0-0.1,0.1-0.2,0.3-0.4c0.1-0.2,0.2-0.3,0.2-0.5l0-0.1c0-0.1,0.1-0.3,0.4-0.5l-0.1-0.2c0-0.1,0.1-0.1,0.2-0.2
		c0.1-0.1,0.2-0.1,0.2-0.2c0,0,0-0.1-0.1-0.1l0-0.1c0-0.1,0-0.2,0.1-0.4c0.2,0,0.3-0.1,0.3-0.1c0-0.1-0.1-0.1-0.2-0.1
		c-0.1,0-0.2-0.1-0.2-0.1c0,0,0-0.1,0.1-0.1l-0.1-0.3c0,0,0.1-0.1,0.2-0.2c0,0-0.1-0.1-0.1-0.1c0,0-0.1-0.1-0.2-0.2
		c-0.1-0.1-0.1-0.2-0.1-0.2l0.1-0.3l-0.1-0.4c0-0.3,0.2-0.5,0.6-0.6l0.3-0.1c0.1-0.1,0.4-0.2,0.8-0.2c0.4,0,0.7,0.1,0.8,0.3l0.1,0.1
		c0.1,0.1,0.2,0.3,0.2,0.4l-0.1,0.5l0.1,0.4c0,0,0,0.1-0.1,0.1l-0.1,0.1c0.1,0.2,0.1,0.3,0.1,0.4c0,0.1,0,0.2-0.1,0.3
		c-0.1,0-0.1,0.1-0.1,0.2l-0.1,0.2c-0.1,0.1-0.2,0.1-0.2,0.1c0,0,0,0.2,0,0.6c0,0.1-0.1,0.1-0.2,0.2c-0.1,0.1-0.2,0.1-0.2,0.1
		c0,0,0,0.1,0,0.1l0,0.1c0,0.2-0.1,0.4-0.4,0.6c-0.2,0.5-0.4,0.9-0.7,1.1c-0.2,0.2-0.4,0.4-0.5,0.6c0,0-0.1,0.1-0.3,0.1
		c0,0-0.1,0.1-0.1,0.3c-0.1,0.2-0.2,0.4-0.4,0.6c-0.2,0.3-0.4,0.4-0.4,0.4l-0.1,0.2c0,0.1-0.1,0.1-0.1,0.1c-0.1,0-0.3,0.1-0.4,0.1
		l0,0.2c0,0,0,0.1-0.1,0.1c-0.1,0.1-0.2,0.2-0.4,0.4c-0.2,0.2-0.3,0.4-0.5,0.5c-0.2,0-0.4,0.1-0.4,0.1c0,0,0,0-0.1,0.1
		c0,0.1,0,0.1,0,0.2c0,0-0.1,0.1-0.2,0.2c0,0-0.1,0-0.1,0c-0.1,0-0.1,0-0.1,0.1l0,0l0,0.1c0,0.1-0.2,0.3-0.7,0.5
		c-0.3,0.1-0.5,0.2-0.6,0.3c-0.1,0.1-0.4,0.3-0.9,0.5c-0.5,0.2-0.9,0.3-1.2,0.3l-0.3,0l-0.5,0c-0.4,0-0.7-0.1-0.8-0.2
		c-0.2-0.1-0.3-0.2-0.4-0.2c-0.1-0.1-0.2-0.1-0.4-0.2c-0.2-0.1-0.3-0.2-0.3-0.5c0,0-0.1-0.2-0.3-0.4c0-0.2,0-0.4,0-0.5l0-0.2
		c0-0.1,0-0.2,0.1-0.4c0.1-0.2,0.2-0.3,0.2-0.3l0-0.1l0-0.2c0,0,0-0.1,0.1-0.3c0.1-0.2,0.1-0.3,0.1-0.3c0-0.1-0.1-0.1-0.1-0.1
		c-0.1,0-0.2,0.1-0.2,0.2c0,0.1-0.2,0.3-0.6,0.5l-0.5,0.5c0,0-0.1,0.1-0.1,0.1l-0.2,0.3c0,0-0.1,0-0.1,0c0,0,0,0-0.1,0l-0.2,0
		c0,0-0.1,0.1-0.1,0.2c0,0.1-0.1,0.2-0.2,0.3l-0.3,0l0,0.1l0,0.2c0,0-0.1,0.1-0.3,0.2c-0.1,0-0.2,0-0.3,0.1c0,0,0,0,0,0l-0.3,0l0,0
		l0,0.1c0,0.1-0.1,0.2-0.3,0.3c-0.2,0.2-0.4,0.3-0.4,0.3c-0.1,0-0.2,0-0.2,0l0,0l0,0.2c-0.1,0.1-0.2,0.1-0.4,0.2
		c0,0-0.1,0.1-0.1,0.1l-0.6,0.4c-0.1,0-0.2,0-0.4,0c0,0-0.1,0-0.2,0c0,0,0,0.1,0,0.2c0,0.1-0.1,0.1-0.4,0.2l-0.1,0.1
		c0.1,0.1-0.2,0.2-0.7,0.5c-0.5,0.3-0.9,0.4-1.2,0.5c-0.2,0-0.4,0-0.5-0.1C9.2,121,9.1,121,9,120.9c-0.1,0-0.2-0.1-0.3-0.2
		c-0.1-0.1-0.2-0.2-0.4-0.3c-0.2-0.1-0.2-0.3-0.3-0.4c0,0,0-0.1,0.1-0.3c0.1-0.2,0.1-0.3,0.1-0.5c0-0.1,0.1-0.2,0.1-0.3
		c0.1,0,0.1-0.1,0.2-0.2c0.1-0.1,0.1-0.2,0.1-0.2l0-0.1c0,0,0,0,0-0.1c0,0,0.1-0.1,0.2-0.2c0.1-0.1,0.2-0.2,0.2-0.4
		c0-0.1,0.1-0.2,0.1-0.3c0,0,0.1-0.1,0.1-0.2c0-0.1,0.1-0.2,0.2-0.2c0.1-0.1,0.4-0.5,1.1-1.4c0.2-0.3,0.3-0.5,0.5-0.6
		c0.2-0.1,0.3-0.1,0.3-0.2c-0.1-0.1-0.2-0.1-0.2-0.2l0.3-0.3c0-0.1,0-0.1,0.1-0.2c0.1-0.1,0.2-0.1,0.2-0.2l0.1,0
		c0.1-0.2,0.1-0.3,0.2-0.3c0,0,0-0.1,0-0.1c0,0,0.1-0.1,0.3-0.3l0-0.2l0.1-0.1l0.2-0.1c0.2-0.3,0.3-0.5,0.4-0.5l0.1-0.1
		c0.1-0.1,0.1-0.1,0.2-0.1c0.2-0.4,0.4-0.7,0.4-0.7c0,0-0.1-0.1-0.2-0.1l-0.1,0c-0.2,0-0.3,0.1-0.3,0.1l-0.4,0
		c-0.2,0.1-0.4,0.2-0.5,0.3c-0.4,0.1-0.7,0.2-1.1,0.2c-0.2,0-0.4,0.1-0.6,0.2c-0.2,0.1-0.6,0.3-1.2,0.4L9,112.8
		C9,112.9,8.9,113,8.8,113l-0.6,0c-0.1,0.3-0.3,0.5-0.7,0.5c-0.3,0.2-0.5,0.3-0.6,0.4c-0.2,0.1-0.3,0.2-0.5,0.3
		c-0.2,0.1-0.3,0.2-0.4,0.3c-0.1,0-0.1,0.1-0.3,0.3c-0.1,0.2-0.3,0.3-0.5,0.4c-0.2,0.1-0.4,0.2-0.6,0.2c-0.2,0.1-0.3,0.1-0.4,0.1
		c-0.1,0-0.2,0-0.3-0.1c-0.1,0-0.3-0.1-0.5-0.1c-0.2,0-0.3-0.1-0.4-0.2c0-0.1,0.2-0.3,0.6-0.7c0,0,0.3-0.2,1-0.5
		c0.7-0.3,1-0.5,1.2-0.6c0.1-0.1,0.4-0.2,0.7-0.3c0.4-0.1,0.6-0.2,0.6-0.2c0.1,0,0.2-0.1,0.3-0.2c0.2-0.1,0.3-0.1,0.3-0.2
		C7.8,112.6,7.9,112.5,8,112.5"/>
	<path class="st5" d="M33.6,115.2l-0.2,0.1c0,0-0.2,0.1-0.4,0.2c-0.2,0.1-0.4,0.2-0.6,0.3c-0.2,0.1-0.4,0.2-0.6,0.5
		c-0.2,0.3-0.3,0.4-0.3,0.5c0,0,0,0.1,0.1,0l0.5-0.2c0.2-0.1,0.4-0.2,0.6-0.3c0.2-0.1,0.4-0.2,0.8-0.4l0.1-0.1c0,0,0.1-0.1,0.3-0.2
		c0.2-0.1,0.3-0.2,0.4-0.2l0.2,0c0.2-0.2,0.4-0.3,0.5-0.3c0.2-0.1,0.3-0.1,0.3-0.1c0-0.1-0.1-0.1-0.3-0.1c-0.1,0-0.2,0-0.4,0.1
		l-0.4,0c0,0-0.2,0-0.4,0.1L33.6,115.2z M30.1,116l0.3-0.2c0.3,0,0.4-0.1,0.4-0.3c0-0.1,0.2-0.3,0.5-0.4l0.2-0.2
		c0.2-0.1,0.6-0.3,1.3-0.5c0.2-0.1,0.3-0.1,0.4-0.2c0,0,0,0,0.1,0l0.3,0c0.1,0,0.3,0,0.5-0.1c0.2-0.1,0.4-0.1,0.6-0.1l0.7-0.1
		c0,0,0.1,0,0.3,0c0.1,0,0.3,0,0.5,0c0.2,0,0.5,0,0.7,0.1c0.2,0.1,0.3,0.2,0.3,0.3c0,0.2-0.1,0.4-0.5,0.6c-0.3,0.2-0.6,0.4-0.8,0.4
		c-0.2,0.1-0.3,0.2-0.4,0.2c-0.1,0-0.2,0.1-0.3,0.2c-0.1,0.1-0.2,0.1-0.2,0.1c0,0-0.1,0-0.1,0c0,0-0.1,0-0.1,0
		c-0.2,0-0.4,0.1-0.5,0.4l-0.3,0c-0.2,0.1-0.3,0.2-0.3,0.3c0,0.1-0.2,0.1-0.3,0.1c-0.4,0.3-0.6,0.4-0.8,0.4c0,0-0.1,0-0.2,0
		c-0.1,0.1-0.1,0.1-0.1,0.2c0,0.1-0.1,0.1-0.3,0.1l-0.2,0.1l-0.2,0l-0.3,0.2c-0.2,0-0.3,0.1-0.5,0.1c0,0.1,0,0.2-0.1,0.3
		c0,0.1-0.1,0.2-0.1,0.2c0,0.2,0.3,0.3,0.9,0.2l0.8-0.1c0.2,0,0.4-0.1,0.6-0.1c0.2-0.1,0.4-0.1,0.6-0.1c0.1,0,0.2,0,0.3-0.1l0.2,0
		c0.1-0.1,0.2-0.2,0.4-0.3c0.2-0.1,0.4-0.1,0.5-0.1l0.2-0.1c0-0.1,0.1-0.1,0.2-0.2l0.1-0.1c0.1-0.1,0.2-0.1,0.2-0.1l0.2,0l0.1,0
		c0.1-0.2,0.3-0.3,0.5-0.3c0.2,0,0.4-0.1,0.4-0.2c0.1-0.1,0.2-0.1,0.3-0.1c0.2,0,0.3-0.1,0.4-0.2c0.1-0.1,0.2-0.2,0.4-0.2
		c0.1-0.1,0.3-0.1,0.3-0.2c0.1,0,0.1-0.1,0.2-0.1c0.1,0,0.1,0,0.1,0.1c0,0.1,0,0.1,0.1,0.1c0,0,0.1,0,0.1,0c0,0,0-0.1,0-0.1l0-0.1
		c0-0.1,0.1-0.2,0.2-0.2l0.7-0.3c0-0.1,0.1-0.2,0.2-0.2c0.1,0,0.2-0.1,0.2-0.1c0.1,0,0.1-0.1,0.2-0.1c0.1,0,0.2,0,0.2,0.1l-0.1,0.3
		l0.1,0.2c0,0,0,0.1-0.1,0.2c-0.1,0.1-0.2,0.2-0.2,0.3c0,0.1-0.1,0.2-0.2,0.2l-0.1,0c-0.2,0.1-0.3,0.2-0.5,0.2
		c-0.1,0-0.2,0.1-0.3,0.1l-0.5,0.4c-0.1,0.1-0.2,0.1-0.3,0.2c-0.1,0.1-0.1,0.1-0.2,0.1l-0.1-0.1c0,0,0,0-0.1,0
		c-0.1,0-0.2,0.1-0.2,0.1c0,0.1-0.1,0.1-0.2,0.2c-0.3,0.1-0.5,0.2-0.6,0.3l-0.1,0l-0.3,0c-0.1,0-0.2,0.1-0.3,0.2
		c0,0.1-0.2,0.2-0.4,0.2c-0.3,0-0.4,0.1-0.5,0.2c0,0-0.1,0-0.1,0c-0.1,0-0.2,0.1-0.4,0.2l-1.4,0.4c-0.1,0-0.2,0.1-0.2,0.1l-0.5,0.1
		c-0.1,0-0.1,0-0.2-0.1c-0.1,0-0.1-0.1-0.1-0.1l-0.3,0.1c-0.2,0.1-0.4,0.1-0.6,0.1c-0.1,0-0.2,0-0.4,0c-0.1,0-0.2-0.1-0.3-0.1
		c-0.3,0-0.5-0.1-0.7-0.4l-0.2,0c0,0-0.2-0.2-0.5-0.6c-0.1,0-0.2-0.1-0.3-0.1c-0.1,0-0.2-0.1-0.2-0.2c0-0.3,0.1-0.5,0.3-0.6
		c0.2-0.1,0.3-0.2,0.3-0.2l0.2-0.5c0,0,0.1-0.1,0.1-0.2l0.3-0.4C29.9,116.3,30,116.2,30.1,116"/>
	<path class="st5" d="M56.7,118l-0.2,0c-0.1,0.1-0.3,0.1-0.4,0.1c-0.1,0-0.4,0.1-0.7,0.2c-0.3,0.1-0.7,0.3-1,0.4
		c-0.4,0.1-0.6,0.2-0.6,0.2c0.5-0.1,1.1-0.2,1.6-0.4l1.2-0.3c0.2,0,0.3-0.1,0.3-0.1c0.1,0,0.2-0.1,0.3-0.1l0.3-0.1
		c0.1,0,0.2-0.1,0.4-0.1c0.2-0.1,0.3-0.1,0.3-0.1c0,0,0,0-0.1,0c-0.4,0-0.7,0.1-0.9,0.2C56.8,118,56.7,118,56.7,118 M62.2,115.3
		l0.1-0.2l0.4-0.3c0.2-0.2,0.4-0.4,0.5-0.4c0-0.1,0-0.1,0.1-0.1c0,0,0.1-0.1,0.1-0.2l0.1-0.2c0,0,0.1-0.1,0.1-0.1c0,0,0,0-0.1-0.1
		l-0.1-0.2c0-0.1-0.3-0.2-0.9-0.4l-0.1,0l-1.2-0.2l-0.1-0.1l-0.1,0l-0.2,0.1l0,0l-0.6-0.1c-0.5,0-0.7-0.1-0.9-0.1c0,0-0.1,0-0.1,0
		l-0.7,0c-0.2,0-0.3,0-0.3-0.1c0,0-0.1,0-0.3-0.1c-0.1,0-0.2,0-0.3-0.1c0,0-0.1,0-0.3,0l-0.4,0.1c0,0-0.2,0-0.5-0.1
		c0-0.1-0.1-0.1-0.1-0.1l-0.5,0.1c-0.3-0.1-0.5-0.1-0.5-0.1c-0.1,0-0.2,0-0.6,0c-0.3,0-0.5,0-0.6-0.1c-0.1,0-0.3-0.1-0.4-0.1l-0.1,0
		c0,0-0.1,0-0.2,0l-0.3,0c-0.1,0-0.2,0-0.3-0.1c-0.1-0.1-0.3-0.1-0.5-0.2c-0.2-0.1-0.3-0.1-0.5-0.3c-0.1-0.1-0.2-0.3-0.2-0.4
		c0,0,0,0,0,0l0.1-0.3c0.1-0.4,0.4-0.8,0.9-1.1c0.1-0.2,0.2-0.3,0.5-0.4l0.1-0.1c0.3-0.2,0.5-0.3,0.7-0.4c0.1-0.1,0.3-0.2,0.4-0.3
		c0.2-0.1,0.3-0.1,0.4-0.2l0.3-0.1c0-0.1,0.2-0.2,0.7-0.5c0.5-0.2,0.9-0.4,1.1-0.5c0.3-0.1,0.5-0.1,0.5-0.2c0.1,0,0.4-0.1,0.8-0.2
		c0.1-0.2,0.3-0.3,0.5-0.3l0.2,0l0.3-0.2l0.4,0c0,0,0.1-0.1,0.2-0.1c0.1-0.1,0.3-0.1,0.5-0.1l2-0.5l0.1,0l0.1,0
		c0.1,0,0.2-0.1,0.3-0.2c0.1-0.1,0.3-0.2,0.5-0.2c0,0,0.1,0,0.3,0.1c0,0,0,0,0,0l0.4-0.1l0.5,0l0.6-0.1c0.4,0,0.8,0,1.1,0.1l0,0
		l0-0.1c0-0.1,0.1-0.2,0.3-0.2c0.1,0,0.1,0,0.2,0L67,105l0.1,0c0,0,0.2,0,0.4,0.1c0.2-0.1,0.3-0.1,0.3-0.1c0.2,0,0.4,0,0.5,0.1
		l0.3,0c0.1-0.1,0.1-0.1,0.2-0.1c0.1,0,0.2,0,0.3,0.1l0.1,0l0.4,0c0,0,0.1,0,0.1,0l0.2,0.1c0.1,0,0.2,0.1,0.2,0.1
		c0,0,0.1,0.1,0.1,0.1c0.3-0.1,0.4-0.1,0.4-0.1c0.1,0,0.2,0,0.3,0.1c0,0.1,0.1,0.2,0.3,0.2c0.2,0.1,0.3,0.2,0.3,0.2
		c0.2,0,0.4,0.1,0.4,0.3l0.3,0.4l-0.1,0.2c0.1,0.1,0.1,0.1,0.1,0.2l0,0.4l0.1,0.4c0,0.2-0.1,0.4-0.4,0.5c-0.1,0-0.2,0-0.3,0.1
		c-0.1,0.1-0.2,0.1-0.2,0.1c-0.3,0-0.5,0-0.6-0.1c-0.1-0.1-0.2-0.1-0.3-0.2c-0.1,0-0.1-0.1-0.1-0.1c0-0.1,0.1-0.3,0.5-0.5
		c0.2,0,0.3,0,0.3-0.1c0-0.1-0.1-0.2-0.2-0.3c-0.1,0-0.2-0.1-0.3-0.2c-0.1-0.1-0.2-0.1-0.4-0.2c-0.1,0-0.2-0.1-0.3-0.2
		c-0.1-0.1-0.2-0.1-0.2-0.1l-0.2,0l-0.5,0c-0.5,0-1,0-1.4-0.1l-0.3,0l-0.9,0c-0.2,0-0.4,0.1-0.6,0.1l-1.1,0.2l-0.4,0
		c0,0-0.3,0.1-0.9,0.2l-0.2,0l-0.4,0c0,0-0.2,0-0.4,0.1c-0.3,0.1-0.5,0.1-0.6,0.2l-0.1,0c0,0-0.1,0-0.1,0l-0.3,0l-1.4,0.5l-0.2-0.1
		c-0.2,0-0.3-0.1-0.3-0.1c-0.2,0-0.2,0.1-0.2,0.1l0,0.2c-0.1,0.1-0.2,0.1-0.3,0.1c0,0-0.1,0.1-0.2,0.1l-0.2,0
		c-0.1,0-0.2,0.1-0.4,0.1c-0.1,0.1-0.2,0.1-0.3,0.1c-0.1,0-0.2,0-0.4,0.1c0,0-0.1,0.1-0.3,0.1c-0.2,0-0.3,0.1-0.3,0.2
		c-0.1,0.1-0.2,0.2-0.3,0.2l-0.3,0l-0.2,0.2c-0.2,0-0.4,0.1-0.4,0.1c-0.1,0.1-0.3,0.2-0.4,0.3c-0.1,0.1-0.3,0.1-0.4,0.2
		c-0.1,0.1-0.2,0.2-0.3,0.2c-0.1,0.1-0.1,0.1-0.3,0.2c-0.1,0-0.2,0.1-0.3,0.3l-0.2,0.1c-0.3,0.2-0.4,0.3-0.4,0.5
		c0,0.1,0.1,0.2,0.4,0.2c0.3,0,0.4,0.1,0.5,0.1c0.1,0,0.2,0,0.3,0c0.1,0,0.3,0,0.4,0c0.1,0,0.3,0.1,0.6,0.1c0.1,0.1,0.1,0.1,0.2,0.1
		c0,0,0.1,0,0.1-0.1c0.1-0.1,0.2-0.1,0.3-0.1c0.1,0,0.3,0,0.4,0.1l0.1-0.1l0.1,0l0.2,0l0,0l0.2-0.1c0,0,0.1,0,0.1,0
		c0,0,0.2,0,0.5,0.1l0,0c0,0,0.1,0,0.3-0.1c0.2,0,0.3,0,0.3,0l0.2,0.1c0,0,0,0,0.1,0c0,0,0.1,0,0.2-0.1c0.1,0,0.2-0.1,0.2-0.1
		c0.1,0,0.2,0,0.3,0.1c0.2-0.1,0.3-0.1,0.3-0.1c0.1,0,0.3,0,0.5,0.1l0.3,0l0.4,0l0.5,0c0.2,0.1,0.3,0.1,0.5,0.2
		c0-0.1,0.1-0.1,0.2-0.1c0.2,0,0.4,0,0.8,0.1l0.1,0l0.1,0c0.2,0,0.3-0.1,0.3-0.1c0.2,0,0.3,0,0.3,0.1c0,0.1,0,0.2-0.1,0.3
		c0,0,0.1,0,0.1,0c0.1,0,0.1-0.1,0.2-0.1l0.3-0.1c0,0,0.1,0,0.1,0c0.3,0,0.6,0.1,1.1,0.2s0.7,0.4,0.8,0.6c0,0.1,0.1,0.2,0.1,0.3
		l-0.1,0.1l0,0.1c0,0,0,0.1-0.1,0.1l0,0.1c0,0-0.1,0.1-0.1,0.1c0,0-0.1,0-0.1,0.1l0.1,0.2l0,0c0,0,0,0.1-0.1,0.1
		c-0.1,0-0.1,0.1-0.1,0.1c0,0-0.1,0.1-0.1,0.1c-0.1,0-0.1,0.1-0.1,0.2c0,0.1-0.1,0.1-0.3,0.2c-0.2,0.1-0.3,0.1-0.3,0.2
		c0,0,0,0.1,0.1,0.1c0.1,0,0.3-0.1,0.4-0.1c0.1-0.1,0.3-0.1,0.3-0.2c0.1,0,0.2-0.1,0.4-0.1l1.5-0.5c1.1-0.4,1.7-0.6,1.9-0.6
		c0.2,0,0.3,0,0.3,0.1c0,0-0.1,0.1-0.2,0.2c0,0.3-0.2,0.5-0.6,0.6c-0.2,0.1-0.3,0.1-0.4,0.2l-0.1,0c-0.3,0.2-0.6,0.3-0.9,0.3l-0.1,0
		c-0.4,0.3-0.9,0.4-1.4,0.5c-0.4,0.2-0.7,0.4-0.9,0.4l-0.3,0.1c-0.3,0.1-0.5,0.1-0.6,0.1c0,0-0.1,0-0.1,0.1l-0.2,0.1
		c-0.2,0-0.4,0.1-0.7,0.3c-0.2,0.1-0.4,0.2-0.5,0.2c-0.1,0-0.3,0.1-0.4,0.1c-0.1,0-0.7,0.3-1.7,0.8l-0.2,0.1
		c-0.4,0.1-0.7,0.3-0.8,0.3c-0.1,0.1-0.2,0.2-0.4,0.2l-0.1,0c-0.3,0-0.5,0.1-0.9,0.3c0,0-0.3,0.1-0.7,0.2c-0.4,0.1-0.9,0.2-1.3,0.4
		c-0.3,0.1-0.6,0.1-1,0.2c-0.4,0.1-0.7,0.1-0.8,0.2l-1.1,0.2c-0.2,0-0.5,0.1-0.9,0.2c-0.2,0-0.4,0-0.5,0l-0.3,0c0,0-0.1,0-0.2-0.1
		c-0.1,0-0.2-0.1-0.4-0.1c-0.2,0-0.2-0.1-0.3-0.3c0-0.2,0.3-0.3,0.9-0.5c0.6-0.2,1-0.3,1.2-0.4c0.1-0.1,0.2-0.1,0.4-0.2
		c0.2,0,0.4-0.1,0.5-0.1c0.1-0.1,0.4-0.1,0.7-0.2l0.6-0.2c0,0,0.1,0,0.1,0l0.2,0c0.1,0,0.2,0,0.3-0.1c0.1-0.1,0.3-0.1,0.5-0.2l0.2,0
		c0,0,0.1,0,0.1-0.1c0,0,0.1-0.1,0.3-0.1l0,0l0.2,0c0.1-0.1,0.3-0.1,0.4-0.2c0.2-0.1,0.3-0.1,0.5-0.2l1.3-0.4l0.3,0
		c0.1,0,0.1,0,0.2-0.1c0.1-0.1,0.3-0.1,0.7-0.2c0.1-0.1,0.2-0.1,0.3-0.2c0.2-0.1,0.4-0.2,0.6-0.3L62.2,115.3z"/>
</g>
<g>
	<defs>
		<rect id="SVGID_3_" width="139.8" height="122.1"/>
	</defs>
	<clipPath id="SVGID_4_">
		<use xlink:href="#SVGID_3_"  style="overflow:visible;"/>
	</clipPath>
	<path class="st6" d="M69.5,113.3l0.2,0c0-0.1,0.1-0.2,0.3-0.3l0.1,0c0.1,0,0.2-0.1,0.4-0.3l0.3-0.1c0,0,0.1,0,0.2,0
		c0.1,0,0.1,0,0.2-0.1c0.1-0.1,0.2-0.2,0.4-0.3l0.1,0c0.1,0,0.1,0,0.2-0.1c0.1-0.1,0.2-0.1,0.4-0.1l0.5-0.1c0.2,0,0.3-0.1,0.3-0.1
		c0.1,0,0.3,0.1,0.7,0.3c0.4,0.2,0.6,0.4,0.6,0.7c0,0.1-0.1,0.2-0.3,0.3l-0.1,0l0,0.2l-0.3,0.4c-0.1,0.1-0.2,0.2-0.3,0.2
		c-0.1,0.1-0.2,0.2-0.2,0.2l-0.2,0l-0.1,0.1l0,0.2c-0.1,0.1-0.2,0.3-0.4,0.5c-0.2,0.3-0.2,0.4-0.2,0.5c0,0.1,0.1,0.2,0.1,0.2
		c0.1,0,0.1,0,0.2-0.1c0.1,0,0.2-0.1,0.3-0.1c0.1,0,0.2-0.1,0.2-0.1c0.1,0,0.2-0.1,0.3-0.1c0.2,0,0.3-0.1,0.5-0.2
		c0.1-0.1,0.3-0.2,0.3-0.2c0.1,0,0.1-0.1,0.2-0.1c0.1-0.1,0.1-0.1,0.1-0.1c0.1,0,0.2,0,0.3-0.1c0-0.1,0-0.1,0.1-0.2l0.4-0.1l0.9-0.6
		l0.1-0.1c0.2,0,0.3-0.1,0.3-0.1c0.1-0.2,0.2-0.3,0.4-0.4c0,0,0.1,0,0.2-0.1c0.1-0.1,0.2-0.2,0.3-0.3c0.1-0.1,0.2-0.1,0.3-0.2
		l0.4-0.2c0.1,0,0.2-0.1,0.2-0.1c0.5-0.3,0.9-0.5,1-0.6c0.1-0.1,0.4-0.1,0.7-0.1c0.3,0,0.6,0,0.8,0.2c0.2,0.1,0.4,0.2,0.6,0.3
		c0.2,0.1,0.3,0.2,0.4,0.4c0,0.2-0.2,0.5-0.7,1.1c-0.3,0.6-0.4,0.9-0.4,1c0,0.1,0,0.2-0.1,0.2c-0.1,0-0.1,0-0.1,0.1l0,0
		c0,0.2,0.1,0.2,0.1,0.2c0.1,0,0.2,0,0.3-0.1c0.1-0.1,0.3-0.2,0.7-0.3l0.1,0c0.3-0.3,0.5-0.5,0.6-0.5c0.1,0,0.2-0.1,0.3-0.2
		c0.1-0.1,0.2-0.2,0.4-0.2c0.2,0,0.3,0,0.3-0.1c0-0.2,0.2-0.3,0.6-0.6c0.4-0.2,0.6-0.3,0.7-0.3c0.1,0,0.2,0,0.3,0.1
		c0.1,0.1,0.1,0.2,0.2,0.2c0.1,0,0.1,0.1,0.1,0.1l0,0.2c0,0.1-0.1,0.1-0.2,0.2c-0.1,0.1-0.2,0.2-0.3,0.3l-0.3,0
		c-0.1,0-0.1,0.1-0.1,0.1c0,0-0.1,0-0.1,0c-0.1,0-0.2,0.1-0.4,0.3c-0.2,0.2-0.4,0.3-0.6,0.4l-0.1,0.1c-0.1,0-0.2,0.1-0.2,0.1
		l-0.3,0.2c-0.1,0-0.2,0-0.2,0c0,0-0.1,0-0.1,0.1c-0.1,0.1-0.2,0.1-0.4,0.2c-0.2,0.1-0.4,0.2-0.5,0.3l-0.2,0.2l-0.3,0.1
		c0,0-0.1,0-0.2,0.1l-0.3,0.2c-0.1,0.1-0.4,0.2-0.7,0.2c-0.1,0-0.2,0-0.3-0.1c-0.1-0.1-0.2-0.1-0.3-0.1c-0.1,0-0.3-0.2-0.6-0.4
		c-0.3-0.2-0.5-0.3-0.5-0.3l0.1-0.3l0-0.2c0,0,0-0.1,0.1-0.2c0.1-0.1,0.1-0.2,0.1-0.2l-0.1-0.4c0,0,0,0,0.1-0.1l0.2-0.2
		c0-0.1,0-0.1,0-0.2l0-0.3c-0.2,0.1-0.4,0.2-0.5,0.3c-0.1,0.2-0.3,0.3-0.6,0.3c-0.2,0.2-0.3,0.3-0.5,0.3c0,0-0.1,0.1-0.1,0.1
		l-0.2,0.1l-0.3,0l-0.1,0.2c-0.2,0.1-0.4,0.2-0.5,0.2c-0.1,0.1-0.2,0.1-0.3,0.2l-0.3,0.2l-0.3,0c0,0.2-0.2,0.3-0.5,0.5l-0.1,0.1
		l-0.3,0c-0.1,0.2-0.2,0.3-0.4,0.4c-0.2,0-0.4,0.1-0.7,0.3c-0.3,0.2-0.5,0.3-0.7,0.3c-0.9,0.1-1.7-0.2-2.4-0.9c0,0-0.1-0.1-0.2-0.1
		c-0.1-0.1-0.1-0.2-0.1-0.3c0-0.2,0-0.4,0.1-0.5c0.1-0.1,0.2-0.3,0.4-0.5c0.2-0.3,0.3-0.4,0.4-0.3c0,0,0-0.1,0-0.1
		c0.2-0.1,0.2-0.2,0.2-0.3c0,0,0,0-0.1,0c0,0-0.1,0-0.2,0.1l-0.2,0.1c-0.1,0-0.2,0-0.2,0.1c0,0-0.1,0.1-0.2,0.1
		c-0.1,0-0.2,0.1-0.3,0.1l0,0c-0.1,0-0.1-0.1-0.1,0c-0.1,0.1-0.1,0.2-0.2,0.2l-0.2,0c-0.2,0.2-0.4,0.2-0.4,0.2c0,0-0.1,0-0.3,0
		c-0.2,0-0.2-0.1-0.2-0.1l0.1-0.4l0-0.2c0,0,0,0,0.1-0.1c0,0,0.1-0.1,0.2-0.2C69.1,113.4,69.3,113.3,69.5,113.3"/>
	<path class="st6" d="M90.5,114l0.6-0.1c0.3-0.1,0.5-0.1,0.5-0.1c0,0,0.1,0,0.1,0c0.1,0,0.2,0,0.3,0c0.1,0,0.2,0.1,0.3,0.2
		c0.5-0.2,0.8-0.3,0.9-0.4c0.1-0.1,0.2-0.1,0.3-0.1c0,0,0.1,0,0.1,0c0,0,0-0.1,0.1-0.1c0,0,0.1-0.1,0.2-0.2c0.1-0.1,0.3-0.2,0.5-0.4
		l0.5-0.4l0.5-0.5c0.1-0.1,0.2-0.3,0.3-0.5l0.1-0.1c0-0.1,0.1-0.1,0.1-0.1c0,0-0.1-0.1-0.2-0.3l-0.4,0.1v0c-0.1,0-0.2-0.1-0.3-0.1
		c-0.1,0-0.1,0-0.2,0.1c0,0.1-0.1,0.1-0.2,0.1c-0.1,0-0.2,0.1-0.3,0.1c-0.1,0-0.2,0.1-0.3,0.1c-0.1,0-0.3,0.1-0.4,0.2l-0.2,0
		l-0.1,0.1l-0.2,0c-0.2,0.2-0.4,0.3-0.5,0.3c-0.1,0-0.2,0.1-0.4,0.3l-0.2,0c-0.1,0-0.2,0.1-0.2,0.2c-0.1,0-0.2,0.1-0.3,0.2l-0.4,0.1
		c-0.1,0.1-0.2,0.2-0.3,0.2l-0.6,0.5c0,0-0.1,0-0.1,0.1s-0.1,0-0.2,0l0.1,0.2l-0.1,0c-0.3,0.1-0.4,0.3-0.5,0.5l-0.1,0.2
		c0,0,0,0.1,0.1,0.1c0,0,0.1,0,0.2-0.1c0.1,0,0.2-0.1,0.4-0.2C90.3,114.1,90.4,114,90.5,114 M83.1,120.9c0.1,0,0.3-0.3,0.8-0.8
		l0.2-0.2c0.1-0.1,0.2-0.2,0.3-0.3l0-0.1c0.1,0,0.1-0.1,0.2-0.2l0.8-1.4c0.1-0.2,0.2-0.4,0.2-0.4c0-0.1,0.2-0.4,0.4-0.8
		c-0.1,0-0.1,0.1-0.2,0.1c-0.1,0.1-0.1,0.1-0.2,0.1l-0.2,0c0,0-0.1,0.1-0.2,0.4l-0.1,0.1c-0.2,0-0.3,0.1-0.3,0.2l-0.3,0.3l0,0.1
		c0,0.2-0.2,0.3-0.5,0.5c-0.1,0.2-0.2,0.3-0.2,0.3l-0.2,0l0.1,0.2c0,0.1-0.1,0.3-0.2,0.4c-0.1,0.1-0.2,0.2-0.2,0.2l0,0.2l0,0.2
		c-0.1,0.2-0.2,0.4-0.1,0.7L83.1,120.9z M86.5,115.4l0.2-0.2c0.1-0.1,0.1-0.1,0.1-0.2l0.3-0.7c0.1-0.2,0.2-0.4,0.2-0.4l0.1-0.2
		l0.2-0.2l0-0.2c0-0.2,0.2-0.5,0.4-0.8l0-0.1l0.1-0.2l0,0c0-0.1,0-0.1-0.1-0.1l-0.1,0c-0.2,0-0.3,0-0.3,0.1l-0.1,0.3
		c0,0.1-0.1,0.1-0.3,0.2c0,0-0.1,0-0.2,0c-0.1,0-0.2,0-0.2,0c-0.1,0.1-0.1,0.2-0.2,0.3c-0.1,0-0.3,0.1-0.5,0.2l-0.2,0
		c-0.1,0.1-0.3,0.2-0.5,0.3l-0.1,0.1c-0.1,0.1-0.3,0.2-0.6,0.3c-0.4,0-0.5-0.1-0.6-0.4c0-0.2,0.1-0.3,0.4-0.4
		c0.3-0.1,0.5-0.2,0.6-0.3c0.1-0.1,0.3-0.2,0.7-0.3l0.2-0.1c0.1-0.1,0.2-0.1,0.2-0.1l0.3-0.1c0,0,0.1,0,0.3-0.1l0-0.1
		c0,0,0.1-0.1,0.4-0.2c0.1,0,0.2-0.1,0.4-0.2c0.2-0.1,0.6-0.4,1.2-0.9c0-0.1,0.1-0.1,0.2-0.2c0.1,0,0.2-0.1,0.3-0.1l0.3,0
		c0.1,0,0.3,0.1,0.6,0.2c0.3,0.1,0.5,0.4,0.5,0.6l-0.4,1.2l0,0.1l0,0.1c0,0,0,0,0.1,0c0,0,0.1-0.1,0.3-0.2c0.1-0.1,0.2-0.2,0.4-0.3
		c0.2-0.1,0.3-0.2,0.4-0.2c0.1-0.1,0.2-0.2,0.4-0.2s0.4-0.2,0.7-0.3c0.3-0.1,0.5-0.2,0.7-0.3l0.2-0.1l0.1-0.1
		c0.2-0.1,0.4-0.2,0.6-0.3l0.4-0.2c0.5-0.1,0.8-0.2,1-0.2c0.1,0,0.2,0,0.3-0.1l0.4,0.1c0,0,0.1,0,0.1-0.1c0,0,0,0,0.1,0
		c0.4,0,0.8,0,1.2,0.2c0.3,0.2,0.5,0.4,0.5,0.6c0,0,0,0,0,0.1c0,0,0,0.1,0,0.1l0.1,0.1l0,0l-0.3,0.6c0,0.1-0.1,0.2-0.2,0.5
		c-0.2,0.2-0.4,0.4-0.7,0.6c-0.3,0.2-0.4,0.3-0.5,0.4c0,0,0.1,0,0.1,0c0.1,0,0.2-0.1,0.4-0.2l0.7-0.3l0.1,0c0.1-0.1,0.3-0.2,0.5-0.2
		c0.2-0.1,0.3-0.1,0.4-0.2c0.1-0.1,0.2-0.1,0.3-0.2l0.2-0.1c0.1,0,0.1,0,0.2-0.1c0.1,0,0.2-0.1,0.3-0.1c0.1,0,0.2-0.1,0.3-0.2
		c0.1-0.1,0.2-0.1,0.3-0.2c0.1,0,0.1,0,0.1-0.1c0.4-0.2,0.6-0.4,0.8-0.4l0.2-0.1c0,0,0,0,0.1,0c0.1,0,0.2,0.1,0.3,0.2l-0.2,0.2
		l0,0.1l0.1,0.1c0,0.1-0.1,0.1-0.2,0.3c-0.1,0.1-0.3,0.2-0.4,0.2c-0.2,0.1-0.3,0.1-0.3,0.2c0,0.1-0.2,0.2-0.5,0.3
		c-0.3,0.1-0.4,0.2-0.5,0.3c-0.1,0.1-0.2,0.1-0.3,0.1l-0.3,0c-0.2,0.2-0.4,0.3-0.5,0.3l-0.1,0l-0.1,0l-0.2,0.2c-0.1,0-0.2,0-0.3,0.1
		l-0.2,0c-0.6,0.4-1,0.7-1.2,0.7l-0.3,0c0,0-0.1,0-0.1,0.1c-0.1,0.1-0.1,0.1-0.2,0.2c-0.1,0-0.1,0.1-0.2,0.2l-0.3,0
		c-0.1,0-0.2,0.1-0.5,0.2c0,0,0,0,0,0l-0.2,0l0,0c-0.1,0-0.2,0.1-0.4,0.2l-0.5,0.1c0,0,0,0,0,0l-0.3,0c-0.1,0-0.2,0-0.3,0.1
		l-0.1,0.1c-0.1,0-0.2,0-0.3,0.1l-0.5,0.2c-0.1,0-0.1,0-0.1,0l-0.3,0l-0.3,0c-0.1,0-0.1,0.1-0.2,0.1c0,0,0,0-0.1,0c0,0-0.1,0-0.2,0
		l-0.2,0l-0.4,0.1c-0.1,0-0.2,0-0.5-0.1c-0.2-0.1-0.4-0.2-0.5-0.2l-0.2-0.1c-0.2,0-0.3-0.1-0.3-0.1l-0.1,0c0,0-0.1,0.1-0.1,0.1
		c-0.1,0.1-0.1,0.1-0.1,0.1c0,0.1,0,0.2-0.1,0.3c-0.1,0.1-0.2,0.4-0.4,0.8l-0.2,0.2c0,0-0.1,0.1-0.1,0.1c0,0.1-0.1,0.2-0.2,0.3
		c0,0.2-0.1,0.3-0.3,0.5l-0.1,0.1l0,0.1c0,0-0.1,0.2-0.3,0.5l0,0.2c-0.1,0-0.2,0.1-0.3,0.4c-0.1,0.3-0.3,0.5-0.5,0.6l-0.1,0.3
		l-0.1,0.2l-0.1,0.2c0,0-0.1,0.1-0.1,0.1l0,0.1l-0.1,0c0,0.1-0.1,0.3-0.3,0.5c0,0,0,0.1-0.2,0.1c-0.1,0.1-0.2,0.2-0.4,0.3
		c-0.1,0.1-0.3,0.3-0.6,0.4l-0.7,0.3c-0.5,0-0.9-0.1-1.1-0.4c0,0-0.1-0.1-0.3-0.3c-0.2-0.2-0.3-0.4-0.3-0.7l0.1-0.4
		c0.1-0.4,0.2-0.6,0.3-0.7l0.2-0.3c0-0.1,0.1-0.1,0.1-0.2c0.1-0.1,0.1-0.1,0.2-0.2c0.1-0.1,0.2-0.2,0.4-0.3c0.1-0.2,0.3-0.4,0.4-0.6
		l0.2-0.3c0-0.1,0.1-0.2,0.3-0.3c0.1-0.1,0.2-0.3,0.4-0.4c0.2-0.1,0.3-0.2,0.3-0.2c0.1,0,0.1-0.1,0.1-0.2c0-0.1,0.1-0.2,0.3-0.3
		c0.1,0,0.2-0.1,0.2-0.1l0.2-0.2c0.1-0.1,0.2-0.1,0.3-0.3c0.1-0.1,0.2-0.2,0.3-0.2C86.3,115.5,86.4,115.4,86.5,115.4"/>
</g>
<g>
	<defs>
		<rect id="SVGID_5_" width="139.8" height="122.1"/>
	</defs>
	<clipPath id="SVGID_6_">
		<use xlink:href="#SVGID_5_"  style="overflow:visible;"/>
	</clipPath>
	<path class="st7" d="M105.5,113l0.6-0.1c0.3-0.1,0.5-0.1,0.5-0.1c0,0,0.1,0,0.1,0c0.1,0,0.2,0,0.3,0c0.1,0,0.2,0.1,0.3,0.2
		c0.5-0.2,0.8-0.3,0.9-0.4c0.1-0.1,0.2-0.1,0.3-0.1c0,0,0.1,0,0.1,0c0,0,0-0.1,0.1-0.1c0,0,0.1-0.1,0.2-0.2c0.1-0.1,0.3-0.2,0.6-0.4
		l0.5-0.4l0.5-0.5c0.1-0.1,0.2-0.3,0.3-0.5l0.1-0.1c0-0.1,0.1-0.1,0.1-0.1c0,0-0.1-0.1-0.3-0.3l-0.4,0.1l0,0c-0.1,0-0.2-0.1-0.3-0.1
		c-0.1,0-0.1,0-0.2,0.1c-0.1,0.1-0.1,0.1-0.2,0.1c-0.1,0-0.2,0.1-0.3,0.1c-0.1,0.1-0.2,0.1-0.3,0.1c-0.1,0-0.3,0.1-0.4,0.2l-0.2,0
		l-0.1,0.1l-0.2,0c-0.2,0.2-0.4,0.3-0.5,0.3c-0.1,0-0.2,0.1-0.4,0.3l-0.2,0c-0.1,0-0.2,0.1-0.2,0.2c-0.1,0-0.2,0.1-0.3,0.2l-0.4,0.1
		c-0.1,0.1-0.2,0.2-0.3,0.2l-0.6,0.5c0,0-0.1,0-0.1,0.1c-0.1,0-0.1,0-0.2,0l0.1,0.2l0,0c-0.3,0.1-0.4,0.3-0.5,0.5l-0.1,0.2
		c0,0,0,0.1,0.1,0.1c0,0,0.1,0,0.2-0.1c0.1,0,0.2-0.1,0.4-0.2C105.3,113,105.4,113,105.5,113 M98.1,119.8c0.1,0,0.3-0.3,0.8-0.8
		l0.2-0.2c0.1-0.1,0.2-0.2,0.3-0.3l0-0.1c0.1,0,0.1-0.1,0.2-0.2l0.8-1.4c0.1-0.2,0.2-0.4,0.2-0.4c0-0.1,0.2-0.4,0.4-0.8
		c-0.1,0-0.1,0.1-0.2,0.1c-0.1,0.1-0.1,0.1-0.2,0.1l-0.2,0c0,0-0.1,0.1-0.2,0.4l-0.1,0.1c-0.2,0-0.3,0.1-0.3,0.2l-0.3,0.3l0,0.1
		c0,0.2-0.2,0.3-0.5,0.5c-0.1,0.2-0.2,0.3-0.2,0.3l-0.2,0l0.1,0.2c0,0.1-0.1,0.3-0.2,0.4c-0.1,0.1-0.2,0.2-0.2,0.2l0,0.2l0,0.2
		c-0.1,0.2-0.2,0.4-0.1,0.7L98.1,119.8z M101.6,114.3l0.2-0.2c0.1-0.1,0.1-0.1,0.1-0.2l0.3-0.7c0.1-0.2,0.2-0.4,0.2-0.4l0.1-0.2
		l0.2-0.2l0-0.2c0-0.2,0.2-0.5,0.4-0.8l0-0.1l0.1-0.2l0,0c0-0.1,0-0.1-0.1-0.1l-0.1,0c-0.2,0-0.3,0-0.3,0.1l-0.1,0.3
		c0,0.1-0.1,0.1-0.3,0.2c0,0-0.1,0-0.2,0c-0.1,0-0.2,0-0.2,0c-0.1,0.1-0.1,0.2-0.2,0.3c-0.1,0-0.3,0.1-0.5,0.2l-0.2,0
		c-0.1,0.1-0.3,0.2-0.5,0.3l-0.1,0.1c-0.1,0.1-0.3,0.2-0.6,0.3c-0.4,0-0.5-0.1-0.6-0.4c0-0.2,0.1-0.3,0.4-0.4
		c0.3-0.1,0.5-0.2,0.6-0.3c0.1-0.1,0.3-0.2,0.7-0.3l0.2-0.1c0.1-0.1,0.2-0.1,0.2-0.1l0.3-0.1c0,0,0.1,0,0.3-0.1l0-0.1
		c0,0,0.1-0.1,0.4-0.2c0.1,0,0.2-0.1,0.4-0.2c0.2-0.1,0.6-0.4,1.2-0.9c0-0.1,0.1-0.1,0.2-0.2c0.1,0,0.2-0.1,0.3-0.1l0.3,0
		c0.1,0,0.3,0.1,0.6,0.2c0.3,0.1,0.5,0.4,0.5,0.6l-0.4,1.2l0,0.1l0,0.1c0,0,0,0,0.1,0c0,0,0.1-0.1,0.3-0.2c0.1-0.1,0.2-0.2,0.4-0.3
		c0.2-0.1,0.3-0.2,0.4-0.2c0.1-0.1,0.2-0.2,0.4-0.2c0.2-0.1,0.4-0.2,0.7-0.3s0.5-0.2,0.7-0.3l0.2-0.1l0.1-0.1
		c0.2-0.1,0.4-0.2,0.6-0.3l0.4-0.2c0.5-0.1,0.8-0.2,1-0.2c0.1,0,0.2,0,0.3-0.1l0.4,0.1c0,0,0.1,0,0.1-0.1c0,0,0,0,0.1,0
		c0.4,0,0.8,0,1.2,0.2c0.3,0.2,0.5,0.4,0.5,0.6c0,0,0,0,0,0.1c0,0,0,0.1,0,0.1l0.1,0.1l0,0l-0.3,0.6c0,0.1-0.1,0.2-0.2,0.5
		c-0.2,0.2-0.4,0.4-0.7,0.6c-0.3,0.2-0.4,0.3-0.5,0.4c0,0,0.1,0,0.1,0c0.1,0,0.2-0.1,0.4-0.2l0.7-0.3l0.1,0c0.1-0.1,0.3-0.2,0.5-0.2
		c0.2-0.1,0.3-0.1,0.4-0.2c0.1-0.1,0.2-0.1,0.3-0.2l0.2-0.1c0.1,0,0.1,0,0.2-0.1c0.1-0.1,0.2-0.1,0.3-0.1c0.1,0,0.2-0.1,0.3-0.2
		c0.1-0.1,0.2-0.1,0.3-0.2c0.1,0,0.1,0,0.2-0.1c0.4-0.2,0.6-0.4,0.8-0.4l0.2-0.1c0,0,0,0,0.1,0c0.1,0,0.2,0.1,0.3,0.2l-0.2,0.2
		l0,0.1l0.1,0.1c0,0.1-0.1,0.1-0.2,0.3c-0.1,0.1-0.3,0.2-0.4,0.2c-0.2,0.1-0.3,0.1-0.3,0.2c0,0.1-0.2,0.2-0.5,0.3
		c-0.3,0.1-0.4,0.2-0.5,0.3c-0.1,0.1-0.1,0.1-0.3,0.1l-0.3,0c-0.2,0.2-0.4,0.3-0.5,0.3l-0.1,0l-0.1,0l-0.2,0.2c-0.1,0-0.2,0-0.3,0.1
		l-0.2,0c-0.6,0.4-1,0.7-1.2,0.7l-0.3,0c0,0-0.1,0-0.1,0.1c-0.1,0.1-0.1,0.1-0.2,0.2c-0.1,0-0.1,0.1-0.2,0.2l-0.3,0
		c-0.1,0-0.2,0.1-0.5,0.2c0,0,0,0,0,0l-0.2,0l0,0c-0.1,0-0.2,0.1-0.4,0.2l-0.5,0.1c0,0,0,0,0,0l-0.3,0c-0.1,0-0.2,0-0.3,0.1
		l-0.1,0.1c-0.1,0-0.2,0-0.3,0.1l-0.5,0.1c-0.1,0-0.1,0-0.1,0l-0.3,0l-0.3,0c-0.1,0-0.1,0.1-0.2,0.1c0,0,0,0-0.1,0c0,0-0.1,0-0.2,0
		l-0.2,0l-0.4,0.1c-0.1,0-0.2,0-0.5-0.1c-0.2-0.1-0.4-0.2-0.5-0.2l-0.2-0.1c-0.2,0-0.3-0.1-0.3-0.1l-0.1,0c0,0-0.1,0.1-0.1,0.1
		c-0.1,0.1-0.1,0.1-0.1,0.1c0,0.1,0,0.2-0.1,0.3c-0.1,0.1-0.2,0.4-0.4,0.8l-0.2,0.2c0,0-0.1,0.1-0.1,0.1c0,0.1-0.1,0.2-0.2,0.3
		c0,0.2-0.1,0.3-0.3,0.5l-0.1,0.1l0,0.1c0,0-0.1,0.2-0.3,0.5l0,0.2c-0.1,0-0.2,0.1-0.3,0.4c-0.1,0.3-0.3,0.5-0.5,0.6l-0.1,0.3
		l-0.2,0.2l-0.1,0.2c0,0-0.1,0.1-0.1,0.1l0,0.1l-0.1,0c0,0.1-0.1,0.3-0.3,0.5c0,0,0,0.1-0.2,0.1c-0.1,0.1-0.2,0.2-0.4,0.3
		c-0.1,0.1-0.3,0.3-0.6,0.4l-0.7,0.3c-0.5,0-0.9-0.1-1.1-0.4c0,0-0.1-0.1-0.3-0.3c-0.2-0.2-0.3-0.4-0.3-0.7l0.1-0.4
		c0.1-0.4,0.2-0.6,0.3-0.7l0.2-0.3c0-0.1,0.1-0.1,0.1-0.2c0.1-0.1,0.1-0.1,0.2-0.2c0.1-0.1,0.2-0.2,0.4-0.3c0.1-0.2,0.3-0.4,0.4-0.6
		l0.2-0.3c0-0.1,0.1-0.2,0.3-0.3c0.1-0.1,0.2-0.3,0.4-0.4c0.2-0.1,0.3-0.2,0.3-0.2c0.1,0,0.1-0.1,0.1-0.3c0-0.1,0.1-0.2,0.3-0.3
		c0.1,0,0.2-0.1,0.2-0.1l0.2-0.2c0.1-0.1,0.2-0.1,0.3-0.3c0.1-0.1,0.2-0.2,0.3-0.2C101.3,114.4,101.4,114.3,101.6,114.3"/>
</g>
<g>
	<defs>
		<rect id="SVGID_7_" width="139.8" height="122.1"/>
	</defs>
	<clipPath id="SVGID_8_">
		<use xlink:href="#SVGID_7_"  style="overflow:visible;"/>
	</clipPath>
	<path class="st8" d="M119.5,108.9l0.3-0.1c0-0.1,0.2-0.2,0.4-0.4c0.2-0.2,0.4-0.2,0.5-0.2l0.1,0c0,0,0-0.1,0-0.1c0,0,0-0.1,0-0.2
		c0,0,0.1-0.2,0.4-0.3l0.1-0.2c0.1-0.2,0.3-0.3,0.7-0.5c0.1-0.2,0.2-0.3,0.3-0.3l0.1,0c0-0.1,0.1-0.2,0.2-0.3l0.1-0.1l0-0.2
		c0,0,0.1-0.1,0.2-0.2c0.1-0.1,0.2-0.2,0.3-0.3c0.1-0.1,0.1-0.1,0.3-0.2c0.1-0.1,0.2-0.1,0.2-0.3l0.3,0c0-0.1,0-0.1,0-0.2l0-0.1
		c0-0.1,0.2-0.3,0.5-0.6l0.2-0.4c0,0,0-0.1,0.1-0.1c0.1-0.1,0.1-0.1,0.1-0.2l0.1-0.3c0-0.1-0.1-0.2-0.1-0.2
		c-0.1,0.1-0.2,0.1-0.3,0.1c-0.1,0-0.2,0.1-0.2,0.4c-0.3,0.1-0.5,0.2-0.5,0.3c0,0.1-0.2,0.3-0.4,0.4l-0.1,0.1c0,0.1-0.1,0.1-0.3,0.2
		c-0.2,0.1-0.3,0.2-0.5,0.4c-0.5,0.5-0.8,0.7-0.8,0.8l-0.2,0.1l-0.2,0c0,0.1,0.1,0.2,0.1,0.2c0,0,0,0.1-0.1,0.1
		c-0.1,0-0.1,0.1-0.1,0.1c0,0.1-0.1,0.1-0.2,0.2c-0.1,0.1-0.2,0.2-0.2,0.3c-0.1,0.2-0.1,0.2-0.2,0.3l-0.2,0
		c-0.1,0.1-0.2,0.1-0.2,0.2l0.1,0.1c0,0,0,0.1-0.1,0.1c-0.1,0-0.1,0.1-0.2,0.2c0,0.1-0.2,0.3-0.4,0.5c-0.2,0.2-0.4,0.4-0.5,0.7
		c-0.1,0.2-0.2,0.4-0.3,0.5c0,0,0.1,0,0.1,0C119.2,109.1,119.4,109,119.5,108.9 M116.4,111.6L116.4,111.6c0-0.2,0-0.2,0-0.3
		c-0.1-0.1-0.1-0.2-0.1-0.3c0,0,0-0.1,0.1-0.3l0.1-0.3c0.1-0.1,0.1-0.2,0.1-0.2c-0.1-0.1-0.1-0.1-0.1-0.2c0-0.1,0.1-0.3,0.2-0.4
		c0.1-0.1,0.2-0.2,0.3-0.4l0.3-0.6l0.5-0.8c0,0,0.1-0.1,0.1-0.2c0.1-0.1,0.2-0.2,0.2-0.2c0.1-0.1,0.1-0.2,0.2-0.3l0.2,0
		c0,0,0.1-0.1,0.1-0.1c0,0,0-0.1-0.1-0.1l0.5-0.6l0.3-0.4c0.1-0.1,0.2-0.2,0.3-0.2c0.2-0.2,0.4-0.4,0.5-0.5c0.1-0.1,0.2-0.3,0.3-0.4
		l0.3,0c0-0.1,0.1-0.2,0.1-0.2l0-0.2c0,0,0,0,0.1,0c0.1-0.1,0.1-0.2,0.2-0.4l0.4-0.3l0.1-0.1c0.1,0,0.1-0.1,0.2-0.3
		c0.2,0,0.3-0.1,0.4-0.2l0.3-0.2c0-0.1,0.1-0.2,0.4-0.5c0.2-0.1,0.3-0.1,0.5-0.2l0.2-0.1c0-0.2,0.1-0.4,0.4-0.5l0.2-0.1
		c0.2-0.1,0.3-0.1,0.3-0.1l0.1,0c0.1,0,0.3-0.1,0.5-0.1c0.4,0,0.8,0,1.1,0.2c0.3,0.1,0.5,0.3,0.5,0.6c0,0.1-0.1,0.2-0.2,0.3
		l-0.1,0.1c-0.1,0.4-0.2,0.5-0.3,0.5c0,0-0.1,0-0.2,0.1c0,0.2,0,0.3,0,0.4c-0.2,0-0.3,0.2-0.3,0.4c0,0-0.1,0.1-0.2,0.2
		c-0.1,0.1-0.2,0.2-0.3,0.4c-0.1,0.2-0.1,0.3-0.2,0.3l-0.2,0l0.1,0.1c0,0.1-0.1,0.2-0.2,0.3c-0.1,0.1-0.2,0.2-0.2,0.3
		c0,0.1-0.1,0.2-0.4,0.4l-0.2,0.2c-0.1,0.1-0.1,0.1-0.2,0.2c-0.1,0.1-0.2,0.2-0.3,0.3l-0.4,0.5c-0.3,0.3-0.5,0.5-0.6,0.5
		c-0.1,0.3-0.1,0.4-0.2,0.4c0,0-0.1,0.1-0.2,0.1c-0.1,0-0.2,0.1-0.3,0.2c-0.1,0.1-0.1,0.1-0.2,0.2l-0.3,0.4
		c-0.2,0.1-0.3,0.1-0.4,0.3c-0.2,0-0.3,0.1-0.3,0.3c0,0-0.1,0.1-0.2,0.2l-0.5,0.4c-0.3,0.1-0.4,0.3-0.4,0.4c0,0.2-0.1,0.2-0.4,0.3
		c-0.2,0-0.5,0-0.8-0.1l0,0c0,0.1-0.1,0.2-0.2,0.3l0.1,0.3c0,0-0.1,0.2-0.2,0.6c0.1,0.1,0.1,0.2,0.1,0.2l0,0.2l0.1,0.2
		c0.1,0.2,0.2,0.3,0.4,0.3l0.4,0c0,0,0.2-0.1,0.4-0.2l0.6-0.2c0,0,0,0,0,0c0.1,0,0.2,0,0.3,0c0.1,0,0.2-0.1,0.2-0.2l0-0.1
		c0.1-0.1,0.1-0.1,0.2-0.1c0.1,0,0.2-0.1,0.2-0.1c0.1,0,0.1-0.1,0.2-0.1l0.2,0c0.2,0,0.2-0.1,0.2-0.3c0,0,0.1,0,0.2-0.1l0.2,0
		c0.1,0,0.2-0.1,0.3-0.2c0.1-0.1,0.2-0.2,0.2-0.2c0.2,0,0.3-0.1,0.4-0.1c0.3-0.4,0.6-0.6,0.8-0.6l0.1,0c0.2-0.1,0.3-0.2,0.3-0.3
		c0-0.1,0.1-0.1,0.2-0.2c0.1,0,0.2-0.1,0.2-0.1c0.1,0,0.1-0.1,0.1-0.1c0.2,0,0.2,0,0.3,0.1l0,0.3l0.1,0.3c0,0,0,0.1-0.1,0.2
		c-0.1,0.1-0.1,0.2-0.1,0.2c0,0.2,0,0.3-0.1,0.3c-0.1,0-0.2,0.1-0.3,0.1c-0.1,0.1-0.2,0.2-0.3,0.2c-0.2,0.1-0.3,0.2-0.4,0.3
		l-0.3,0.1l-0.2,0.1c-0.1,0.2-0.2,0.3-0.4,0.4c-0.1,0.1-0.3,0.2-0.5,0.4c0,0,0,0,0,0l-0.3,0c-0.1,0.1-0.2,0.2-0.3,0.2
		c-0.1,0-0.2,0.1-0.2,0.1c-0.1,0.1-0.2,0.1-0.3,0.2c-0.2,0-0.3,0.1-0.3,0.2c0,0.1-0.1,0.1-0.2,0.1c-0.1,0-0.2,0-0.2,0.1
		c-0.1,0-0.1,0.1-0.2,0.1c0,0-0.1,0-0.2,0l-0.1,0c-0.2,0.1-0.3,0.1-0.4,0.1c-0.1,0-0.2,0-0.3,0.1c-0.1,0-0.2,0-0.3,0
		c-0.1,0-0.3,0-0.5-0.1c-0.2,0-0.3,0.1-0.3,0.1c-0.2,0-0.4-0.1-0.7-0.3c-0.3-0.2-0.5-0.4-0.5-0.6c0,0-0.1,0-0.2-0.1
		c-0.1-0.1-0.2-0.2-0.2-0.3l0-0.1l0-0.1l0-0.2l0-0.1c0.2,0,0.2,0,0.2-0.1L116.4,111.6z"/>
	<path class="st8" d="M128.6,117.9l0.1-0.1c0,0,0.1-0.1,0.2-0.1c0.1-0.3,0.2-0.5,0.4-0.6c0-0.1,0-0.2,0-0.2l0.2-0.1l0.6-0.7
		c0.1-0.1,0.1-0.2,0.2-0.3c0.1-0.1,0.1-0.2,0.2-0.2c0-0.1,0.2-0.3,0.5-0.6l0-0.1c0-0.1,0-0.1-0.1-0.1c-0.1,0-0.2,0.1-0.3,0.2l-1,0.6
		c-0.1,0-0.2,0.1-0.4,0.3l-0.3,0.2c-0.2,0.1-0.3,0.2-0.4,0.2c-0.1,0-0.2,0.1-0.3,0.3c-0.1,0.2-0.2,0.2-0.3,0.3l-0.1,0
		c0,0-0.1,0-0.2,0c-0.1,0-0.1,0.1-0.1,0.1l0.1,0.2c0,0,0,0.1-0.1,0.1c-0.1,0.1-0.2,0.1-0.2,0.2c-0.1,0.1-0.1,0.1-0.2,0.1
		c-0.1,0-0.2,0.1-0.3,0.4l-0.3,0.1c0,0.4-0.2,0.7-0.5,0.9c-0.1,0.1-0.1,0.2-0.2,0.3c0,0.1-0.1,0.2-0.1,0.2c0,0.2-0.2,0.4-0.3,0.4
		c0,0-0.1,0-0.1,0.1c0,0,0.1,0.1,0.2,0.1l0.1,0c-0.1,0.3-0.2,0.4-0.2,0.6c0,0,0,0,0.1,0l0.5-0.2c0.3-0.1,0.6-0.3,0.7-0.4l0.2-0.3
		c0,0,0.1-0.1,0.2-0.1c0.1-0.1,0.2-0.2,0.3-0.3c0.1,0,0.2-0.1,0.2-0.2c0-0.1,0.2-0.3,0.6-0.7C128.4,118.2,128.6,118,128.6,117.9
		 M135.8,110.2l0,0.1l0,0.1l0,0c0,0,0,0.1,0,0.2c-0.2,0.1-0.2,0.3-0.2,0.4l-0.2,0.2c0,0.1,0,0.2-0.1,0.2c-0.1,0.1-0.2,0.2-0.2,0.3
		c-0.1,0.2-0.1,0.3-0.2,0.5l-0.3,0.6c0,0,0,0,0.1,0c0,0,0.1,0,0.1,0c0.1,0,0.1,0,0.1,0c0,0,0.1,0,0.1,0c0,0,0.1,0,0.1,0
		c0,0,0.1,0,0.2-0.1c0.1-0.1,0.3-0.1,0.5-0.1l0.6-0.1c0.1,0,0.4-0.1,0.8-0.1l0.5-0.1c0.4,0,0.8,0,1.2,0.1c0.4,0.1,0.7,0.2,0.8,0.3
		c0.1,0.1,0.2,0.3,0.2,0.6c0,0.2-0.1,0.4-0.4,0.4c-0.2,0-0.4,0-0.6-0.1c-0.3-0.1-0.5-0.2-0.6-0.4c-0.1-0.2-0.3-0.3-0.5-0.2l-0.4,0
		l-0.2,0.1l-0.1,0c0,0-0.1,0-0.3,0l-0.1,0l-0.5,0.1l-0.7,0l-0.3,0.1c-0.1,0-0.3,0.1-0.5,0.1c-0.2,0-0.3,0.1-0.5,0.1
		c-0.1,0-0.2,0.1-0.2,0.1c0,0.2-0.1,0.4-0.4,0.5c-0.1,0.1-0.2,0.2-0.2,0.3c0,0.1-0.1,0.1-0.2,0.2c-0.1,0.1-0.2,0.2-0.3,0.4l-0.1,0.1
		c0,0-0.1,0.1-0.1,0.1c0,0,0,0,0,0.1l0,0.1c0,0.2-0.2,0.4-0.5,0.5l0,0.1c0,0-0.1,0.1-0.2,0.2l0.1,0.2c0,0-0.1,0.1-0.2,0.2
		c-0.1,0.1-0.2,0.2-0.3,0.3c-0.1,0.1-0.2,0.2-0.4,0.3l0,0.1l0.1,0.1c0,0,0.1,0,0.1,0c0,0-0.1,0.1-0.2,0.2c0,0.1-0.1,0.2-0.2,0.3
		l-0.6,0.6c-0.1,0.1-0.2,0.2-0.1,0.2l-0.1,0.2c-0.1,0.1-0.2,0.1-0.2,0.2c0,0.1-0.2,0.2-0.4,0.4c-0.2,0.2-0.4,0.3-0.5,0.3
		c0.1,0.1,0.1,0.1,0.1,0.1c0,0.1-0.1,0.2-0.2,0.3c-0.3,0-0.4,0.1-0.4,0.1l0.1,0.2c0,0-0.1,0.1-0.2,0.1c-0.1,0.1-0.2,0.1-0.3,0.1
		l-0.2,0l0.1,0.2c0,0.1-0.1,0.1-0.2,0.2c-0.1,0-0.2,0.1-0.4,0.3c-0.2,0.1-0.3,0.2-0.4,0.3l-0.2,0.1l-0.6,0.1c-0.2,0-0.5-0.1-1-0.2
		c-0.5-0.1-0.8-0.3-0.9-0.4c-0.1-0.1-0.1-0.4-0.2-0.6c0,0,0-0.1,0.2-0.2l0-0.1l0-0.2c0,0,0-0.1,0.1-0.3c0.1-0.2,0.2-0.3,0.3-0.4
		c0.1,0,0.2-0.2,0.3-0.4c0.1-0.2,0.3-0.4,0.3-0.5l1.4-1.4c0-0.1,0-0.1,0.1-0.2l0.1,0c0.1,0,0.1,0,0.2-0.1c0,0,0.1-0.1,0.1-0.1
		c0-0.1,0.1-0.2,0.3-0.3c0.2-0.1,0.3-0.2,0.4-0.3c0.1-0.1,0.2-0.2,0.3-0.3l0-0.1c0,0,0.1-0.1,0.3-0.1c0.1,0,0.2-0.1,0.2-0.2l0.5-0.3
		c0.1,0,0.1-0.1,0.3-0.1c0.1,0,0.2-0.1,0.4-0.2l0.1,0l0.1,0l0.1,0c0.1-0.2,0.2-0.3,0.4-0.3c0.1,0,0.2,0,0.3-0.1
		c0-0.2,0.2-0.3,0.6-0.3c0.1,0,0.2,0,0.2-0.1l0.4-0.2c0.1,0,0.1-0.2,0.3-0.4l0,0l0.3,0l0,0l-0.1-0.2c0,0,0.1-0.1,0.2-0.3
		c0.1-0.2,0.2-0.2,0.3-0.3c0.1,0,0.1-0.1,0.1-0.1l0-0.1l0-0.1l0.1-0.1l0-0.1l0,0c0.1,0,0.1-0.2,0.2-0.4c0,0,0.1-0.1,0.2-0.1l0.6-1.2
		c0,0,0-0.1,0.1-0.3l0.1-0.1c0.1-0.2,0.2-0.3,0.2-0.4c0,0,0,0-0.1,0c0,0-0.1,0-0.3,0.1c-0.1,0.1-0.3,0.1-0.3,0.1l-0.3,0l-0.1,0
		c-0.1,0-0.2,0-0.3,0.1c-0.1,0.1-0.2,0.1-0.2,0.1l-0.2,0c-0.1,0.1-0.2,0.2-0.3,0.2l-0.4,0.2l0,0l-0.2-0.1c0,0,0,0-0.1,0
		c0,0-0.1,0.1-0.2,0.2l-0.5,0.2c-0.1,0-0.2,0-0.2,0c-0.1,0-0.2,0.1-0.3,0.2c-0.1,0.1-0.2,0.2-0.4,0.2c-0.1,0.1-0.3,0.1-0.6,0.2
		l-0.9,0.5c-0.1,0-0.2,0.1-0.2,0.1c-0.2,0-0.4,0.1-0.6,0.3l-0.4,0c-0.1,0-0.2,0.1-0.3,0.1c-0.1,0.1-0.2,0.1-0.3,0.1l-0.1,0l-0.2,0
		l-0.5,0.1c-0.2,0-0.4,0-0.7-0.2c-0.3-0.1-0.5-0.2-0.5-0.3l-0.1-0.4c0,0,0-0.1,0.1-0.1c0.1-0.1,0.1-0.1,0.1-0.2c0,0,0,0,0-0.1l0-0.1
		c0-0.2,0.1-0.5,0.4-0.8l0,0c0,0,0,0-0.1,0c-0.1,0-0.3,0.1-0.3,0.2c-0.1,0.1-0.2,0.2-0.3,0.3c-0.1,0.1-0.2,0.1-0.3,0.2
		c-0.1,0-0.1,0.1-0.2,0.1c-0.1,0-0.1,0-0.2,0c0,0-0.1,0-0.1-0.1c-0.1-0.1-0.1-0.1-0.3-0.1c-0.1,0-0.2-0.1-0.2-0.2
		c0-0.1,0.1-0.2,0.5-0.3l0.2-0.1c0.5-0.3,0.8-0.5,1-0.5l0.1-0.1c0.1-0.1,0.3-0.2,0.5-0.3c0.2-0.1,0.4-0.2,0.6-0.3l0.8-0.5
		c0.3-0.2,0.6-0.3,1.1-0.3c0.3,0,0.5,0.1,0.5,0.3c0,0.3,0,0.5-0.2,0.6c-0.1,0.2-0.2,0.3-0.3,0.4c0,0.1-0.2,0.3-0.4,0.5
		c-0.2,0.2-0.4,0.4-0.4,0.5c0,0.1-0.2,0.2-0.3,0.4c-0.2,0.2-0.2,0.3-0.2,0.4c0,0.1,0.1,0.1,0.2,0.1c0.2,0,0.4-0.1,0.7-0.2l0.1,0
		c0.1,0,0.2-0.1,0.3-0.1l0.4-0.1c0.1-0.1,0.2-0.2,0.3-0.2l0.3-0.1c0.1,0,0.3-0.1,0.6-0.2c0.2-0.1,0.4-0.1,0.4-0.2
		c0.1-0.1,0.1-0.1,0.2-0.2c0.1,0,0.2-0.1,0.3-0.2c0.3,0,0.7-0.2,1.1-0.5c0.5-0.2,0.9-0.4,1.4-0.6c0.4-0.2,0.7-0.3,0.8-0.4
		c0.1,0,0.2-0.1,0.3-0.1c0.2-0.1,0.4-0.1,0.6-0.3c0.2-0.1,0.5-0.2,0.8-0.2c0.3,0,0.6,0,0.8,0.1c0.3,0.1,0.4,0.2,0.4,0.3l0,0.5
		c0,0.3-0.1,0.5-0.4,0.8c0,0.3-0.1,0.4-0.2,0.5l0,0.2C136.2,110,136.1,110.1,135.8,110.2"/>
</g>
</svg>
